<?xml version="1.0" encoding="UTF-8" standalone="no"?>
<svg
   xmlns:dc="http://purl.org/dc/elements/1.1/"
   xmlns:cc="http://creativecommons.org/ns#"
   xmlns:rdf="http://www.w3.org/1999/02/22-rdf-syntax-ns#"
   xmlns:svg="http://www.w3.org/2000/svg"
   xmlns="http://www.w3.org/2000/svg"
   xmlns:xlink="http://www.w3.org/1999/xlink"
   xmlns:sodipodi="http://sodipodi.sourceforge.net/DTD/sodipodi-0.dtd"
   xmlns:inkscape="http://www.inkscape.org/namespaces/inkscape"
   sodipodi:docname="cover.svg"
   width="2000"
   height="2000"
   viewBox="0 0 529.16665 529.16668"
   version="1.1"
   id="svg8"
   inkscape:version="1.0.1 (3bc2e813f5, 2020-09-07, custom)"
   inkscape:export-filename="/home/leoncito/Dropbox/Master bedroom/Documentos/General/Escolares/MIT/Notes/Program by talking/Presentations/2021-01-20-concept-alignment/media/cover.png"
   inkscape:export-xdpi="96"
   inkscape:export-ydpi="96">
  <defs
     id="defs2">
    <marker
       style="overflow:visible"
       id="marker5174"
       refX="0.0"
       refY="0.0"
       orient="auto"
       inkscape:stockid="Arrow1Lstart"
       inkscape:isstock="true">
      <path
         transform="scale(0.8) translate(12.5,0)"
         style="fill-rule:evenodd;stroke:#9641fc;stroke-width:1pt;stroke-opacity:1;fill:#9641fc;fill-opacity:1"
         d="M 0.0,0.0 L 5.0,-5.0 L -12.5,0.0 L 5.0,5.0 L 0.0,0.0 z "
         id="path5172" />
    </marker>
    <marker
       style="overflow:visible"
       id="marker5140"
       refX="0.0"
       refY="0.0"
       orient="auto"
       inkscape:stockid="Arrow1Lstart"
       inkscape:isstock="true">
      <path
         transform="scale(0.8) translate(12.5,0)"
         style="fill-rule:evenodd;stroke:#9641fc;stroke-width:1pt;stroke-opacity:1;fill:#9641fc;fill-opacity:1"
         d="M 0.0,0.0 L 5.0,-5.0 L -12.5,0.0 L 5.0,5.0 L 0.0,0.0 z "
         id="path5138" />
    </marker>
    <marker
       style="overflow:visible"
       id="Arrow1Lstart"
       refX="0.0"
       refY="0.0"
       orient="auto"
       inkscape:stockid="Arrow1Lstart"
       inkscape:isstock="true">
      <path
         transform="scale(0.8) translate(12.5,0)"
         style="fill-rule:evenodd;stroke:#9641fc;stroke-width:1pt;stroke-opacity:1;fill:#9641fc;fill-opacity:1"
         d="M 0.0,0.0 L 5.0,-5.0 L -12.5,0.0 L 5.0,5.0 L 0.0,0.0 z "
         id="path4862" />
    </marker>
    <rect
       x="58.418476"
       y="58.145814"
       width="477.08178"
       height="227.13965"
       id="rect839" />
    <style
       id="style1622">.a{fill:#ed6d0b;}.b{fill:#000;}.c{fill:#fff;isolation:isolate;}</style>
    <linearGradient
       id="linearGradient5803">
      <stop
         id="stop5805"
         style="stop-color:#29a5e3;stop-opacity:1"
         offset="0" />
      <stop
         id="stop5811"
         style="stop-color:#356eb9;stop-opacity:1"
         offset="0.51549304" />
      <stop
         id="stop5807"
         style="stop-color:#394da5;stop-opacity:1"
         offset="1" />
    </linearGradient>
    <linearGradient
       id="linearGradient5793">
      <stop
         id="stop5795"
         style="stop-color:#2b7a77;stop-opacity:1"
         offset="0" />
      <stop
         id="stop5801"
         style="stop-color:#4ebaa9;stop-opacity:1"
         offset="0.51048726" />
      <stop
         id="stop5797"
         style="stop-color:#5cc2b1;stop-opacity:1"
         offset="1" />
    </linearGradient>
    <linearGradient
       id="linearGradient5783">
      <stop
         id="stop5785"
         style="stop-color:#236736;stop-opacity:1"
         offset="0" />
      <stop
         id="stop5791"
         style="stop-color:#6ba443;stop-opacity:1"
         offset="0.49279997" />
      <stop
         id="stop5787"
         style="stop-color:#86c146;stop-opacity:1"
         offset="1" />
    </linearGradient>
    <clipPath
       id="clipPath3627">
      <path
         d="M 637.5,36 L 755.211,36 L 755.211,55.516 L 637.5,55.516 L 637.5,36 z"
         id="path3629" />
    </clipPath>
    <clipPath
       id="clipPath3737">
      <path
         d="M 637.5,36 L 755.211,36 L 755.211,55.516 L 637.5,55.516 L 637.5,36 z"
         id="path3739" />
    </clipPath>
    <linearGradient
       x1="0"
       y1="0"
       x2="1"
       y2="0"
       id="linearGradient4508"
       gradientUnits="userSpaceOnUse"
       gradientTransform="matrix(7.9915388,-19.543162,-19.543162,-7.9915388,646.50186,55.497443)"
       spreadMethod="pad">
      <stop
         id="stop4510"
         style="stop-color:#267271;stop-opacity:1"
         offset="0" />
      <stop
         id="stop4512"
         style="stop-color:#338681;stop-opacity:1"
         offset="0.1" />
      <stop
         id="stop4514"
         style="stop-color:#39938c;stop-opacity:1"
         offset="0.2" />
      <stop
         id="stop4516"
         style="stop-color:#45a89c;stop-opacity:1"
         offset="0.30000001" />
      <stop
         id="stop4518"
         style="stop-color:#4cb4a5;stop-opacity:1"
         offset="0.40000001" />
      <stop
         id="stop4520"
         style="stop-color:#4ebaa9;stop-opacity:1"
         offset="0.50097954" />
      <stop
         id="stop4522"
         style="stop-color:#4fbcab;stop-opacity:1"
         offset="0.59805048" />
      <stop
         id="stop4524"
         style="stop-color:#50bdab;stop-opacity:1"
         offset="0.7002604" />
      <stop
         id="stop4526"
         style="stop-color:#50bdab;stop-opacity:1"
         offset="0.80312496" />
      <stop
         id="stop4528"
         style="stop-color:#50bdab;stop-opacity:1"
         offset="0.89999998" />
      <stop
         id="stop4530"
         style="stop-color:#50bdab;stop-opacity:1"
         offset="1" />
    </linearGradient>
    <linearGradient
       x1="0"
       y1="0"
       x2="1"
       y2="0"
       id="linearGradient4534"
       gradientUnits="userSpaceOnUse"
       gradientTransform="matrix(7.9915388,-19.543162,-19.543162,-7.9915388,646.50186,55.497443)"
       spreadMethod="pad">
      <stop
         id="stop4536"
         style="stop-color:#86c146;stop-opacity:1"
         offset="0" />
      <stop
         id="stop4538"
         style="stop-color:#83be45;stop-opacity:1"
         offset="0.1" />
      <stop
         id="stop4540"
         style="stop-color:#7bb544;stop-opacity:1"
         offset="0.2" />
      <stop
         id="stop4542"
         style="stop-color:#74af44;stop-opacity:1"
         offset="0.30000001" />
      <stop
         id="stop4544"
         style="stop-color:#6ca643;stop-opacity:1"
         offset="0.40000001" />
      <stop
         id="stop4546"
         style="stop-color:#5f9841;stop-opacity:1"
         offset="0.50097954" />
      <stop
         id="stop4548"
         style="stop-color:#55903f;stop-opacity:1"
         offset="0.59805048" />
      <stop
         id="stop4550"
         style="stop-color:#4a853d;stop-opacity:1"
         offset="0.7002604" />
      <stop
         id="stop4552"
         style="stop-color:#37773b;stop-opacity:1"
         offset="0.80312496" />
      <stop
         id="stop4554"
         style="stop-color:#327239;stop-opacity:1"
         offset="0.89999998" />
      <stop
         id="stop4556"
         style="stop-color:#1f6435;stop-opacity:1"
         offset="1" />
    </linearGradient>
    <linearGradient
       x1="1007.8929"
       y1="114.86218"
       x2="1410.125"
       y2="1065.3622"
       id="linearGradient4620"
       xlink:href="#linearGradient4482"
       gradientUnits="userSpaceOnUse" />
    <linearGradient
       x1="0"
       y1="0"
       x2="1"
       y2="0"
       id="linearGradient4482"
       gradientUnits="userSpaceOnUse"
       gradientTransform="matrix(7.9915388,-19.543162,-19.543162,-7.9915388,646.50186,55.497443)"
       spreadMethod="pad">
      <stop
         id="stop4484"
         style="stop-color:#29a5e3;stop-opacity:1"
         offset="0" />
      <stop
         id="stop4486"
         style="stop-color:#2197d9;stop-opacity:1"
         offset="0.1" />
      <stop
         id="stop4488"
         style="stop-color:#218cd1;stop-opacity:1"
         offset="0.2" />
      <stop
         id="stop4490"
         style="stop-color:#2f82ca;stop-opacity:1"
         offset="0.30000001" />
      <stop
         id="stop4492"
         style="stop-color:#3378c2;stop-opacity:1"
         offset="0.40000001" />
      <stop
         id="stop4494"
         style="stop-color:#356fba;stop-opacity:1"
         offset="0.50097954" />
      <stop
         id="stop4496"
         style="stop-color:#3667b5;stop-opacity:1"
         offset="0.59805048" />
      <stop
         id="stop4498"
         style="stop-color:#3660b0;stop-opacity:1"
         offset="0.7002604" />
      <stop
         id="stop4500"
         style="stop-color:#3958ab;stop-opacity:1"
         offset="0.80312496" />
      <stop
         id="stop4502"
         style="stop-color:#3a51a7;stop-opacity:1"
         offset="0.89999998" />
      <stop
         id="stop4504"
         style="stop-color:#394da5;stop-opacity:1"
         offset="1" />
    </linearGradient>
    <linearGradient
       x1="908.3681"
       y1="189.11996"
       x2="637.56842"
       y2="825.08893"
       id="linearGradient5789"
       xlink:href="#linearGradient5783"
       gradientUnits="userSpaceOnUse" />
    <linearGradient
       x1="627.31085"
       y1="939.97363"
       x2="1173.0133"
       y2="831.24347"
       id="linearGradient5799"
       xlink:href="#linearGradient5793"
       gradientUnits="userSpaceOnUse" />
    <linearGradient
       x1="1012.9952"
       y1="117.31702"
       x2="1410.9888"
       y2="1065.116"
       id="linearGradient5809"
       xlink:href="#linearGradient5803"
       gradientUnits="userSpaceOnUse" />
  </defs>
  <sodipodi:namedview
     id="base"
     pagecolor="#ffffff"
     bordercolor="#666666"
     borderopacity="1.0"
     inkscape:pageopacity="0.0"
     inkscape:pageshadow="2"
     inkscape:zoom="0.395"
     inkscape:cx="788.30359"
     inkscape:cy="865.31828"
     inkscape:document-units="mm"
     inkscape:current-layer="layer1"
     inkscape:document-rotation="0"
     showgrid="false"
     units="px"
     showguides="false"
     inkscape:window-width="1920"
     inkscape:window-height="1042"
     inkscape:window-x="0"
     inkscape:window-y="38"
     inkscape:window-maximized="0"
     inkscape:snap-text-baseline="false" />
  <metadata
     id="metadata5">
    <rdf:RDF>
      <cc:Work
         rdf:about="">
        <dc:format>image/svg+xml</dc:format>
        <dc:type
           rdf:resource="http://purl.org/dc/dcmitype/StillImage" />
        <dc:title />
      </cc:Work>
    </rdf:RDF>
  </metadata>
  <g
     inkscape:label="Layer 1"
     inkscape:groupmode="layer"
     id="layer1">
    <text
       xml:space="preserve"
       id="text837"
       style="font-size:38.1px;line-height:1.25;font-family:sans-serif;text-align:end;word-spacing:0px;white-space:pre;shape-inside:url(#rect839);"
       x="-653.94586"
       y="0"
       transform="matrix(0.90456568,0,0,0.90456568,19.302156,-20.162501)"><tspan
         x="154.50147"
         y="92.687943"><tspan
           style="font-style:normal;font-variant:normal;font-weight:bold;font-stretch:normal;font-size:38.1px;font-family:Iosevka;-inkscape-font-specification:'Iosevka Bold';text-align:end;text-anchor:end">Concept alignment of </tspan></tspan><tspan
         x="116.40162"
         y="141.14483"><tspan
           style="font-style:normal;font-variant:normal;font-weight:bold;font-stretch:normal;font-size:38.1px;font-family:Iosevka;-inkscape-font-specification:'Iosevka Bold';text-align:end;text-anchor:end">people and programs in </tspan></tspan><tspan
         x="230.70117"
         y="189.60172"><tspan
           style="font-style:normal;font-variant:normal;font-weight:bold;font-stretch:normal;font-size:38.1px;font-family:Iosevka;-inkscape-font-specification:'Iosevka Bold';text-align:end;text-anchor:end">creative domains</tspan></tspan></text>
    <path
       style="fill:none;fill-opacity:1;stroke:#0e8ffc;stroke-width:3.58571px;stroke-linecap:butt;stroke-linejoin:miter;stroke-miterlimit:4;stroke-dasharray:none;stroke-opacity:1"
       d="m 39.281597,271.04718 19.8679,-19.868 12.4562,12.456 14.4813,-25.082 16.189203,28.041"
       id="path1319" />
    <path
       style="fill:none;fill-opacity:1;stroke:#3b75fc;stroke-width:3.58571005;stroke-linecap:butt;stroke-linejoin:miter;stroke-miterlimit:4;stroke-dasharray:43.02852063,3.58571005;stroke-opacity:1;stroke-dashoffset:35.85710053"
       d="m 115.5072,271.04718 19.868,-19.868 12.456,12.456 14.481,-25.082 16.19,28.041"
       id="path1321" />
    <path
       style="fill:none;fill-opacity:1;stroke:#695bfc;stroke-width:3.58571005;stroke-linecap:butt;stroke-linejoin:miter;stroke-miterlimit:4;stroke-dasharray:14.34284021,3.58571005;stroke-opacity:1;stroke-dashoffset:35.85710053"
       d="m 191.7322,271.04718 19.868,-19.868 12.457,12.456 14.481,-25.082 16.189,28.041"
       id="path1323" />
    <path
       style="fill:none;fill-opacity:1;stroke:#9641fc;stroke-width:3.58599997;stroke-linecap:butt;stroke-linejoin:miter;stroke-miterlimit:4;stroke-dasharray:7.17199995,3.58599997;stroke-opacity:1;stroke-dashoffset:35.85999976"
       d="m 267.9582,271.04718 19.868,-19.868 12.456,12.456 14.481,-25.082 16.19,28.041"
       id="path1325" />
    <path
       style="fill:none;fill-opacity:1;stroke:#c427fc;stroke-width:3.186;stroke-linecap:butt;stroke-linejoin:miter;stroke-miterlimit:4;stroke-dasharray:3.186,3.186;stroke-opacity:1;stroke-dashoffset:0"
       d="m 344.1832,271.04718 19.868,-19.868 12.457,12.456 14.481,-25.082 16.189,28.041"
       id="path1327" />
    <path
       style="fill:none;fill-opacity:1;stroke:#f20efc;stroke-width:2.286;stroke-linecap:butt;stroke-linejoin:miter;stroke-miterlimit:4;stroke-dasharray:2.286,2.286;stroke-opacity:1;stroke-dashoffset:0"
       d="m 420.4092,271.04718 19.868,-19.868 12.456,12.456 14.481,-25.082 16.19,28.041"
       id="path1329" />
    <text
       xml:space="preserve"
       style="font-style:normal;font-variant:normal;font-weight:normal;font-stretch:normal;font-size:24.0282px;line-height:1.25;font-family:Iosevka;-inkscape-font-specification:Iosevka;text-align:start;word-spacing:0px;text-anchor:start;stroke-width:0.600706"
       x="6.3392324"
       y="330.96768"
       id="text1351"><tspan
         sodipodi:role="line"
         x="6.3392324"
         y="330.96768"
         style="font-style:normal;font-variant:normal;font-weight:normal;font-stretch:normal;font-family:Iosevka;-inkscape-font-specification:Iosevka;text-align:start;text-anchor:start;stroke-width:0.600706"
         id="tspan1353">{</tspan><tspan
         sodipodi:role="line"
         x="6.3392324"
         y="361.00293"
         style="font-style:normal;font-variant:normal;font-weight:normal;font-stretch:normal;font-family:Iosevka;-inkscape-font-specification:Iosevka;text-align:start;text-anchor:start;stroke-width:0.600706"
         id="tspan1363">Leonardo Hernandez Cano,</tspan><tspan
         sodipodi:role="line"
         x="6.3392324"
         y="391.03818"
         style="font-style:normal;font-variant:normal;font-weight:normal;font-stretch:normal;font-family:Iosevka;-inkscape-font-specification:Iosevka;text-align:start;text-anchor:start;stroke-width:0.600706"
         id="tspan1159">Yewen Pu,</tspan><tspan
         sodipodi:role="line"
         x="6.3392324"
         y="421.07343"
         style="font-style:normal;font-variant:normal;font-weight:normal;font-stretch:normal;font-family:Iosevka;-inkscape-font-specification:Iosevka;text-align:start;text-anchor:start;stroke-width:0.600706"
         id="tspan1361">Robert Hawkins</tspan><tspan
         sodipodi:role="line"
         x="6.3392324"
         y="451.10867"
         style="font-style:normal;font-variant:normal;font-weight:normal;font-stretch:normal;font-family:Iosevka;-inkscape-font-specification:Iosevka;text-align:start;text-anchor:start;stroke-width:0.600706"
         id="tspan1157">}</tspan></text>
    <g
       stroke-width="35"
       stroke="#a31f34"
       id="g1439"
       transform="matrix(0.19647552,0,0,0.19647552,11.953153,478.15135)">
      <path
         d="M 17.5,0 V 166 M 74.5,0 v 113 m 57,-113 v 166 m 57,-166 v 33 m 58,20 v 113"
         id="path1433" />
      <path
         d="M 188.5,53 V 166"
         stroke="#8a8b8c"
         id="path1435" />
      <path
         d="m 229,16.5 h 92"
         stroke-width="33"
         id="path1437" />
    </g>
    <g
       id="g1716"
       transform="matrix(0.57636395,0,0,0.57636395,124.84585,471.62678)">
      <path
         class="a"
         d="M 14.969,59.024 A 70.978,70.978 0 0 0 28.145,71.84 71.14,71.14 0 0 0 41.345,59.058 L 28.135,46.214 Z"
         id="path1628" />
      <path
         class="a"
         d="M 8.824,49.838 28.149,31.277 47.512,49.89 a 68.705,68.705 0 0 0 7.159,-18.661 c 0.066,-0.317 0.123,-0.63 0.189,-0.947 H 1.453 a 68.77,68.77 0 0 0 7.371,19.556 z"
         id="path1630" />
      <path
         class="a"
         d="m 8.813,49.838 a 69.873,69.873 0 0 0 6.159,9.186 L 28.137,46.214 41.346,59.057 A 69.445,69.445 0 0 0 47.5,49.89 L 28.137,31.277 Z"
         id="path1632" />
      <path
         class="b"
         d="M 28.138,45.865 15,58.651 A 69.872,69.872 0 0 1 9.13,49.883 l 19.012,-18.26 19.05,18.312 a 69.406,69.406 0 0 1 -5.866,8.75 z"
         id="path1634" />
      <path
         class="b"
         d="m 28.137,31.97 18.737,18.012 a 69.178,69.178 0 0 1 -5.578,8.33 L 28.486,45.855 28.137,45.516 27.788,45.855 15.021,58.278 A 69.614,69.614 0 0 1 9.439,49.93 l 18.7,-17.96 m 0,-0.693 -19.326,18.561 a 69.873,69.873 0 0 0 6.159,9.186 L 28.137,46.214 41.346,59.057 A 69.445,69.445 0 0 0 47.5,49.89 L 28.137,31.277 Z"
         id="path1636" />
      <path
         class="b"
         d="M 56.065,10.489 A 24.6,24.6 0 0 1 48.878,11.555 24.116,24.116 0 0 1 28.16,0 24.13,24.13 0 0 1 7.437,11.555 24.7,24.7 0 0 1 0.26,10.494 a 67.638,67.638 0 0 0 1.18,19.8 h 53.407 a 68,68 0 0 0 1.218,-19.805 z"
         id="path1638" />
      <path
         class="c"
         d="m 41.314,18.658 v -2.269 h -1.388 v -1.6 l -1.454,-0.408 h -0.1 V 13.02 c 0,0 -0.5,0.6 -2.8,0.6 -2.179,0 -3.459,-0.706 -5.192,-0.706 a 2.364,2.364 0 0 0 -2.179,0.952 v 0.549 h -0.057 v -0.549 a 2.381,2.381 0 0 0 -2.179,-0.952 c -1.734,0 -3.013,0.711 -5.193,0.711 -2.3,0 -2.7,-0.6 -2.7,-0.6 v 1.431 h -0.095 l -1.578,0.332 v 1.6 H 15 v 2.269 h 1.393 V 22.33 H 15 v 2.27 h 1.393 v 2.823 a 33.885,33.885 0 0 0 4.5,0.365 c 2.554,0 4.027,-0.369 5.685,-0.4 V 28.1 a 3.848,3.848 0 0 0 1.559,0.332 4.25,4.25 0 0 0 1.616,-0.332 v -0.71 c 1.653,0.033 3.127,0.4 5.695,0.4 a 33.844,33.844 0 0 0 4.487,-0.365 V 24.6 h 1.388 v -2.27 h -1.397 v -3.672 z"
         id="path1640" />
      <path
         class="b"
         d="m 38.588,14.23 0.007,-1.739 -0.422,0.445 c 0,0 -0.522,0.521 -2.627,0.521 L 32.7,13.078 30.355,12.751 a 2.784,2.784 0 0 0 -2.208,0.843 2.8,2.8 0 0 0 -2.208,-0.843 l -2.343,0.332 -2.85,0.379 c -2.07,0 -2.5,-0.5 -2.506,-0.5 L 17.811,12.436 17.8,13.1 v 1.2 l -1.689,0.355 V 27.7 l 0.2,0.028 a 34.016,34.016 0 0 0 4.534,0.37 51.763,51.763 0 0 0 5.443,-0.374 v 0.592 l 0.133,0.071 a 4.1,4.1 0 0 0 1.668,0.355 4.459,4.459 0 0 0 1.717,-0.355 l 0.14,-0.066 v -0.6 a 51.806,51.806 0 0 0 5.457,0.374 34.05,34.05 0 0 0 4.528,-0.37 l 0.2,-0.028 V 14.665 Z m -10.2,-0.166 a 2.142,2.142 0 0 1 1.966,-0.829 l 2.24,0.317 2.956,0.389 a 5.883,5.883 0 0 0 2.565,-0.417 V 25.858 A 7.157,7.157 0 0 1 35.55,26.237 L 32.7,25.858 30.355,25.531 a 2.94,2.94 0 0 0 -1.966,0.621 z m -10.1,-0.516 a 5.525,5.525 0 0 0 2.459,0.4 l 2.954,-0.388 2.239,-0.322 a 2.156,2.156 0 0 1 1.966,0.829 v 12.09 a 2.957,2.957 0 0 0 -1.985,-0.625 l -2.345,0.332 -2.829,0.374 c -2.07,0 -2.5,-0.5 -2.506,-0.5 -0.006,0 0.037,-11.366 0.042,-12.191 z m 21.37,13.733 a 33.042,33.042 0 0 1 -4.247,0.332 53.519,53.519 0 0 1 -5.668,-0.4 l -0.272,-0.038 v 0.829 a 4.067,4.067 0 0 1 -1.374,0.251 3.815,3.815 0 0 1 -1.317,-0.246 v -0.834 l -0.273,0.038 a 53.514,53.514 0 0 1 -5.654,0.4 33.085,33.085 0 0 1 -4.254,-0.332 V 15.044 c 0.223,-0.042 0.883,-0.185 1.206,-0.251 v 11.084 c 0.118,0.256 0.625,0.843 2.942,0.843 l 2.933,-0.384 2.241,-0.322 a 2.183,2.183 0 0 1 1.987,0.829 l 0.069,-0.038 h 0.346 l 0.066,0.038 a 2.142,2.142 0 0 1 1.966,-0.829 l 2.24,0.318 2.956,0.388 c 2.349,0 2.935,-0.616 2.994,-0.687 l 0.045,-11.3 c 0.308,0.085 0.872,0.242 1.068,0.3 z"
         id="path1642" />
      <path
         class="b"
         d="m 21.718,15.72 a 0.416,0.416 0 0 0 -0.37,0.242 l -0.777,1.729 a 0.148,0.148 0 0 1 -0.062,0.028 c -0.024,0 -0.052,-0.028 -0.071,-0.081 -0.019,-0.053 -0.114,-0.3 -0.317,-0.777 L 19.87,16.3 c -0.09,-0.209 -0.161,-0.346 -0.185,-0.389 a 0.374,0.374 0 0 0 -0.327,-0.189 0.08,0.08 0 0 1 -0.014,-0.052 0.112,0.112 0 0 1 0.009,-0.052 h 0.128 c 0.147,0 0.27,0.009 0.379,0.009 0.128,0 0.341,-0.014 0.483,-0.014 h 0.085 c 0.014,0 0.019,0.033 0.019,0.048 a 0.127,0.127 0 0 1 -0.01,0.057 c -0.095,0.009 -0.308,0 -0.308,0.138 a 0.332,0.332 0 0 0 0.019,0.114 l 0.512,1.213 0.426,-1 a 0.628,0.628 0 0 0 0.057,-0.265 c 0,-0.114 -0.081,-0.166 -0.294,-0.189 a 0.178,0.178 0 0 1 -0.014,-0.048 0.232,0.232 0 0 1 0.014,-0.062 h 0.062 c 0.095,0 0.189,0.014 0.4,0.014 0.038,0 0.185,-0.009 0.256,-0.009 h 0.147 c 0.009,0.019 0.019,0.028 0.019,0.047 a 0.135,0.135 0 0 1 -0.015,0.049 z"
         id="path1644" />
      <path
         class="b"
         d="m 23.883,17.657 c -0.621,0 -0.957,-0.014 -1.042,-0.014 -0.066,0 -0.218,0 -0.294,0 -0.076,0 -0.284,0.014 -0.5,0.014 h -0.123 a 0.085,0.085 0 0 1 -0.009,-0.047 0.258,0.258 0 0 1 0,-0.057 0.823,0.823 0 0 0 0.313,-0.066 0.594,0.594 0 0 0 0.066,-0.313 c 0,-0.095 0,-0.2 0,-0.308 0,-0.156 0,-0.346 0,-0.573 v -0.322 c 0,-0.223 -0.114,-0.223 -0.346,-0.251 a 0.239,0.239 0 0 1 -0.009,-0.052 c 0,-0.014 0,-0.048 0.019,-0.052 h 0.114 c 0.076,0 0.279,0 0.668,0 0.355,0 0.7,0 0.777,0 0.047,0 0.185,0 0.213,0 0.047,0 0.066,0 0.066,0.047 l 0.028,0.464 c -0.028,0.014 -0.033,0.019 -0.057,0.019 a 0.149,0.149 0 0 1 -0.047,0 0.919,0.919 0 0 0 -0.308,-0.355 0.322,0.322 0 0 0 -0.18,-0.052 c -0.028,0 -0.1,0 -0.275,0 -0.142,0 -0.213,0 -0.232,0 -0.019,0 -0.019,0 -0.028,0.081 0,0.047 -0.009,0.142 -0.009,0.412 V 16.5 h 0.071 a 0.993,0.993 0 0 0 0.232,-0.024 0.392,0.392 0 0 0 0.208,-0.147 0.921,0.921 0 0 0 0.048,-0.171 0.125,0.125 0 0 1 0.066,-0.014 0.1,0.1 0 0 1 0.052,0.014 c 0,0.085 -0.019,0.242 -0.019,0.441 0,0.1 0.009,0.318 0.009,0.408 a 0.074,0.074 0 0 1 -0.057,0.014 0.237,0.237 0 0 1 -0.057,0 C 23.222,16.846 23.194,16.727 23.047,16.666 A 0.552,0.552 0 0 0 22.82,16.623 c -0.043,0 -0.095,0 -0.138,0.009 v 0.535 a 0.665,0.665 0 0 0 0.028,0.242 0.2,0.2 0 0 0 0.123,0.114 1,1 0 0 0 0.19,0.014 h 0.294 a 0.578,0.578 0 0 0 0.223,-0.033 1.123,1.123 0 0 0 0.327,-0.441 0.159,0.159 0 0 1 0.062,-0.01 0.165,0.165 0 0 1 0.062,0.014 v 0.54 c 0.001,0.045 -0.032,0.05 -0.108,0.05 z"
         id="path1646" />
      <path
         class="b"
         d="m 26.347,16.255 c -0.014,0 -0.033,0 -0.057,0 a 1.286,1.286 0 0 0 -0.152,-0.3 0.485,0.485 0 0 0 -0.379,-0.2 c -0.047,0 -0.161,0 -0.2,0 v 0.905 c 0,0.142 0,0.308 0,0.62 0,0.237 0.109,0.237 0.355,0.27 a 0.113,0.113 0 0 1 0.019,0.057 0.108,0.108 0 0 1 -0.014,0.052 h -0.09 c -0.142,0 -0.426,-0.009 -0.516,-0.009 -0.062,0 -0.374,0.014 -0.521,0.014 a 0.075,0.075 0 0 1 -0.019,-0.057 0.123,0.123 0 0 1 0.014,-0.052 c 0.327,-0.024 0.36,-0.085 0.37,-0.189 0.009,-0.066 0.009,-0.336 0.009,-0.611 v -0.748 a 1.273,1.273 0 0 0 -0.019,-0.251 1.409,1.409 0 0 0 -0.318,0.024 0.81,0.81 0 0 0 -0.412,0.45 0.191,0.191 0 0 1 -0.052,0 0.055,0.055 0 0 1 -0.047,-0.019 v -0.526 c 0,-0.047 0,-0.062 0.061,-0.062 0.061,0 0.123,0 0.223,0 0.071,0 0.37,0 0.744,0 0.493,0 0.857,-0.014 0.952,-0.014 0.047,0 0.081,0 0.1,0.019 a 0.4,0.4 0 0 1 0,0.076 v 0.526 a 0.056,0.056 0 0 1 -0.051,0.025 z"
         id="path1648" />
      <path
         class="b"
         d="m 21.618,19.462 c -0.019,0 -0.033,0 -0.062,0 a 1,1 0 0 0 -0.152,-0.3 0.476,0.476 0 0 0 -0.379,-0.2 c -0.047,0 -0.161,0 -0.2,0 v 0.9 c 0,0.142 0,0.308 0,0.621 0,0.237 0.114,0.237 0.36,0.27 a 0.1,0.1 0 0 1 0.014,0.057 0.1,0.1 0 0 1 -0.009,0.052 H 21.1 c -0.147,0 -0.431,-0.009 -0.516,-0.009 -0.062,0 -0.374,0.014 -0.526,0.014 a 0.1,0.1 0 0 1 -0.014,-0.057 0.252,0.252 0 0 1 0.009,-0.052 c 0.327,-0.024 0.36,-0.085 0.374,-0.189 0,-0.066 0,-0.336 0,-0.611 V 19.2 a 1.3,1.3 0 0 0 -0.014,-0.251 1.451,1.451 0 0 0 -0.322,0.024 0.805,0.805 0 0 0 -0.407,0.45 0.246,0.246 0 0 1 -0.057,0 0.061,0.061 0 0 1 -0.047,-0.019 v -0.526 c 0,-0.048 0.009,-0.062 0.062,-0.062 0.053,0 0.123,0 0.223,0 0.076,0 0.374,0 0.749,0 0.488,0 0.857,-0.014 0.947,-0.014 0.052,0 0.085,0 0.1,0.019 0.015,0.019 0,0.048 0,0.076 v 0.526 a 0.06,0.06 0 0 1 -0.043,0.039 z"
         id="path1650" />
      <path
         class="b"
         d="m 23.959,20.865 c -0.616,0 -0.957,-0.014 -1.037,-0.014 -0.08,0 -0.218,0 -0.3,0 -0.082,0 -0.284,0.014 -0.5,0.014 H 21.999 A 0.093,0.093 0 0 1 21.985,20.817 0.13,0.13 0 0 1 22,20.751 0.763,0.763 0 0 0 22.308,20.685 c 0.038,-0.042 0.057,-0.128 0.066,-0.313 0,-0.095 0.009,-0.2 0.009,-0.308 0,-0.156 0,-0.346 0,-0.573 0,-0.161 0,-0.256 0,-0.322 0,-0.223 -0.109,-0.223 -0.341,-0.251 a 0.124,0.124 0 0 1 -0.014,-0.052 c 0,-0.014 0.009,-0.047 0.024,-0.052 h 0.109 c 0.081,0 0.28,0 0.668,0 0.36,0 0.7,0 0.782,0 h 0.208 c 0.052,0 0.071,0 0.071,0.048 l 0.024,0.464 a 0.092,0.092 0 0 1 -0.057,0.019 0.174,0.174 0 0 1 -0.047,0 A 0.851,0.851 0 0 0 23.49,19 0.309,0.309 0 0 0 23.315,18.948 c -0.028,0 -0.1,0 -0.279,0 -0.138,0 -0.213,0 -0.228,0 -0.015,0 -0.024,0 -0.033,0.081 0,0.047 0,0.142 0,0.412 V 19.7 h 0.066 a 0.948,0.948 0 0 0 0.232,-0.024 0.4,0.4 0 0 0 0.213,-0.147 0.894,0.894 0 0 0 0.043,-0.171 0.151,0.151 0 0 1 0.066,-0.014 0.1,0.1 0 0 1 0.057,0.014 c 0,0.085 -0.024,0.242 -0.024,0.441 0,0.1 0.014,0.317 0.014,0.407 a 0.079,0.079 0 0 1 -0.057,0.014 0.265,0.265 0 0 1 -0.062,0 c -0.019,-0.175 -0.042,-0.294 -0.194,-0.355 a 0.545,0.545 0 0 0 -0.223,-0.043 1.31,1.31 0 0 0 -0.138,0.009 v 0.535 a 0.84,0.84 0 0 0 0.024,0.242 c 0.019,0.033 0.066,0.1 0.123,0.114 a 1.075,1.075 0 0 0 0.189,0.014 h 0.3 a 0.557,0.557 0 0 0 0.218,-0.033 1.087,1.087 0 0 0 0.332,-0.441 0.151,0.151 0 0 1 0.062,-0.009 0.142,0.142 0 0 1 0.057,0.014 v 0.54 c -0.005,0.053 -0.038,0.058 -0.114,0.058 z"
         id="path1652" />
      <path
         class="b"
         d="M 25.4,20.912 A 1.158,1.158 0 0 1 24.926,20.789 0.225,0.225 0 0 0 24.85,20.77 0.425,0.425 0 0 0 24.698,20.851 0.13,0.13 0 0 1 24.58,20.789 c 0,-0.043 0.038,-0.171 0.038,-0.251 0,-0.047 -0.014,-0.279 -0.019,-0.332 a 0.11,0.11 0 0 1 0.09,-0.043 h 0.033 a 4.29,4.29 0 0 0 0.189,0.4 0.636,0.636 0 0 0 0.455,0.213 0.442,0.442 0 0 0 0.332,-0.1 0.287,0.287 0 0 0 0.114,-0.246 0.263,0.263 0 0 0 -0.057,-0.185 0.494,0.494 0 0 0 -0.213,-0.152 C 25.452,20.05 25.134,19.97 25.021,19.908 a 0.823,0.823 0 0 1 -0.284,-0.2 0.626,0.626 0 0 1 -0.118,-0.374 0.584,0.584 0 0 1 0.63,-0.573 0.756,0.756 0 0 1 0.488,0.142 1.4,1.4 0 0 1 0.119,-0.119 0.11,0.11 0 0 1 0.109,0.057 2.237,2.237 0 0 0 -0.033,0.279 c 0,0.052 0.033,0.27 0.033,0.3 a 0.2,0.2 0 0 1 -0.081,0.028 0.14,0.14 0 0 1 -0.038,-0.009 c -0.057,-0.1 -0.109,-0.265 -0.171,-0.355 a 0.462,0.462 0 0 0 -0.408,-0.175 0.336,0.336 0 0 0 -0.37,0.3 c 0,0.171 0.138,0.251 0.251,0.3 0.085,0.033 0.189,0.071 0.308,0.109 a 2.793,2.793 0 0 1 0.327,0.123 0.561,0.561 0 0 1 0.336,0.54 0.663,0.663 0 0 1 -0.719,0.631 z"
         id="path1654" />
      <path
         class="b"
         d="m 22.443,24.077 c -0.62,0 -0.957,-0.014 -1.042,-0.014 -0.066,0 -0.218,0 -0.294,0 -0.076,0 -0.284,0.014 -0.5,0.014 h -0.123 a 0.086,0.086 0 0 1 -0.009,-0.048 0.244,0.244 0 0 1 0,-0.057 0.83,0.83 0 0 0 0.313,-0.066 0.6,0.6 0 0 0 0.066,-0.313 c 0,-0.095 0,-0.2 0,-0.308 0,-0.156 0,-0.346 0,-0.573 V 22.39 c 0,-0.223 -0.114,-0.223 -0.346,-0.251 a 0.252,0.252 0 0 1 -0.009,-0.052 c 0,-0.014 0,-0.048 0.019,-0.052 h 0.114 c 0.076,0 0.28,0 0.668,0 0.355,0 0.7,0 0.777,0 0.048,0 0.185,0 0.213,0 0.048,0 0.066,0 0.066,0.048 l 0.028,0.464 c -0.028,0.014 -0.033,0.019 -0.057,0.019 a 0.143,0.143 0 0 1 -0.047,0 0.92,0.92 0 0 0 -0.308,-0.355 0.323,0.323 0 0 0 -0.18,-0.052 c -0.028,0 -0.1,0 -0.275,0 -0.142,0 -0.213,0 -0.232,0 -0.019,0 -0.019,0 -0.029,0.081 0,0.047 -0.009,0.142 -0.009,0.412 v 0.265 h 0.071 a 0.993,0.993 0 0 0 0.232,-0.024 0.394,0.394 0 0 0 0.209,-0.147 0.9,0.9 0 0 0 0.047,-0.171 0.126,0.126 0 0 1 0.066,-0.014 0.1,0.1 0 0 1 0.052,0.014 c 0,0.085 -0.019,0.242 -0.019,0.441 0,0.1 0.009,0.317 0.009,0.408 a 0.074,0.074 0 0 1 -0.057,0.014 0.238,0.238 0 0 1 -0.057,0 c -0.019,-0.175 -0.047,-0.294 -0.194,-0.355 a 0.553,0.553 0 0 0 -0.228,-0.043 1.305,1.305 0 0 0 -0.137,0.009 v 0.535 a 0.665,0.665 0 0 0 0.028,0.242 0.2,0.2 0 0 0 0.123,0.114 1.028,1.028 0 0 0 0.189,0.014 h 0.294 a 0.584,0.584 0 0 0 0.223,-0.033 1.127,1.127 0 0 0 0.327,-0.441 0.165,0.165 0 0 1 0.123,0 v 0.54 c 0.004,0.052 -0.029,0.057 -0.105,0.057 z"
         id="path1656" />
      <path
         class="b"
         d="m 25.428,22.13 c -0.208,0.01 -0.389,0.123 -0.389,0.455 v 1.052 c 0,0.043 0.019,0.341 0.019,0.455 a 0.217,0.217 0 0 1 -0.085,0.033 0.139,0.139 0 0 1 -0.052,-0.033 l -1.445,-1.554 0.014,0.318 v 0.573 c 0,0.043 0.009,0.152 0.019,0.232 a 0.26,0.26 0 0 0 0.1,0.218 0.529,0.529 0 0 0 0.275,0.09 0.091,0.091 0 0 1 0.014,0.047 0.117,0.117 0 0 1 -0.019,0.052 h -0.156 c -0.133,0 -0.237,0 -0.374,0 -0.09,0 -0.218,0.009 -0.308,0.009 h -0.066 a 0.181,0.181 0 0 1 0,-0.047 0.133,0.133 0 0 1 0.009,-0.052 0.5,0.5 0 0 0 0.327,-0.142 0.682,0.682 0 0 0 0.033,-0.246 v -0.74 c 0,-0.118 0,-0.18 -0.009,-0.294 a 0.358,0.358 0 0 0 -0.071,-0.223 0.739,0.739 0 0 0 -0.1,-0.109 1.177,1.177 0 0 0 -0.232,-0.1 0.157,0.157 0 0 1 -0.014,-0.047 0.108,0.108 0 0 1 0.014,-0.052 h 0.052 c 0.043,0 0.265,0.009 0.436,0.009 h 0.1 a 0.2,0.2 0 0 1 0.062,0.043 l 1.071,1.17 c 0.081,0.09 0.185,0.208 0.242,0.284 v -0.843 c 0,-0.114 0,-0.194 -0.009,-0.237 a 0.563,0.563 0 0 0 -0.062,-0.218 c -0.033,-0.052 -0.232,-0.081 -0.336,-0.1 a 0.139,0.139 0 0 1 -0.009,-0.061 0.16,0.16 0 0 1 0,-0.043 h 0.062 c 0.1,0 0.261,0.014 0.36,0.014 0.246,0 0.322,-0.009 0.445,-0.009 h 0.081 a 0.112,0.112 0 0 1 0.009,0.052 0.093,0.093 0 0 1 -0.008,0.044 z"
         id="path1658" />
      <path
         class="b"
         d="m 32.179,15.71 c -0.2,0.009 -0.389,0.123 -0.389,0.455 v 1.052 c 0,0.042 0.014,0.341 0.014,0.455 a 0.2,0.2 0 0 1 -0.081,0.033 c -0.014,0 -0.028,-0.014 -0.057,-0.033 l -1.445,-1.554 0.019,0.318 v 0.573 c 0,0.043 0.009,0.152 0.014,0.232 a 0.288,0.288 0 0 0 0.1,0.218 0.556,0.556 0 0 0 0.275,0.09 0.091,0.091 0 0 1 0.014,0.047 0.173,0.173 0 0 1 -0.014,0.052 h -0.161 c -0.128,0 -0.232,0 -0.374,0 -0.09,0 -0.213,0.009 -0.3,0.009 h -0.066 a 0.2,0.2 0 0 1 -0.009,-0.047 0.1,0.1 0 0 1 0.014,-0.052 0.5,0.5 0 0 0 0.322,-0.142 0.589,0.589 0 0 0 0.033,-0.246 v -0.74 c 0,-0.118 0,-0.18 0,-0.294 a 0.392,0.392 0 0 0 -0.071,-0.223 0.918,0.918 0 0 0 -0.1,-0.109 1.069,1.069 0 0 0 -0.232,-0.1 0.376,0.376 0 0 1 -0.009,-0.047 0.2,0.2 0 0 1 0.009,-0.052 h 0.057 c 0.038,0 0.261,0.009 0.431,0.009 h 0.1 a 0.31,0.31 0 0 1 0.066,0.043 l 1.071,1.17 c 0.081,0.09 0.185,0.208 0.242,0.284 v -0.843 a 2.026,2.026 0 0 0 -0.014,-0.237 0.493,0.493 0 0 0 -0.062,-0.218 c -0.033,-0.052 -0.232,-0.081 -0.332,-0.1 A 0.146,0.146 0 0 1 31.23,15.651 0.087,0.087 0 0 1 31.239,15.608 H 31.3 c 0.1,0 0.261,0.014 0.36,0.014 0.242,0 0.322,-0.01 0.445,-0.01 h 0.076 a 0.126,0.126 0 0 1 0.014,0.052 0.107,0.107 0 0 1 -0.016,0.046 z"
         id="path1660" />
      <path
         class="b"
         d="m 34.306,17.4 a 1.018,1.018 0 0 1 -1.445,0.014 1.134,1.134 0 0 1 0,-1.554 1.019,1.019 0 0 1 0.72,-0.308 1.1,1.1 0 0 1 0.54,0.152 1.073,1.073 0 0 1 0.5,0.91 1.135,1.135 0 0 1 -0.315,0.786 z m -0.332,-1.5 a 0.478,0.478 0 0 0 -0.407,-0.213 0.437,0.437 0 0 0 -0.379,0.213 1.183,1.183 0 0 0 -0.189,0.725 1.231,1.231 0 0 0 0.18,0.715 0.453,0.453 0 0 0 0.4,0.227 0.475,0.475 0 0 0 0.445,-0.279 1.328,1.328 0 0 0 0.133,-0.659 1.193,1.193 0 0 0 -0.183,-0.729 z"
         id="path1662" />
      <path
         class="b"
         d="m 37.215,15.72 a 0.414,0.414 0 0 0 -0.365,0.242 l -0.777,1.729 a 0.149,0.149 0 0 1 -0.062,0.028 c -0.024,0 -0.057,-0.028 -0.071,-0.081 -0.014,-0.053 -0.114,-0.3 -0.322,-0.777 l -0.246,-0.564 c -0.09,-0.209 -0.161,-0.346 -0.185,-0.389 a 0.379,0.379 0 0 0 -0.327,-0.189 0.065,0.065 0 0 1 -0.019,-0.052 0.079,0.079 0 0 1 0.014,-0.052 h 0.128 c 0.142,0 0.265,0.009 0.374,0.009 0.128,0 0.341,-0.014 0.488,-0.014 h 0.081 c 0.019,0 0.024,0.033 0.024,0.048 a 0.13,0.13 0 0 1 -0.009,0.057 c -0.1,0.009 -0.308,0 -0.308,0.138 a 0.249,0.249 0 0 0 0.019,0.114 l 0.507,1.213 0.431,-1 a 0.685,0.685 0 0 0 0.052,-0.265 c 0,-0.114 -0.081,-0.166 -0.294,-0.189 a 0.174,0.174 0 0 1 -0.009,-0.048 0.247,0.247 0 0 1 0.009,-0.062 h 0.062 c 0.095,0 0.19,0.014 0.408,0.014 0.033,0 0.185,-0.009 0.256,-0.009 h 0.147 a 0.091,0.091 0 0 1 0,0.1 z"
         id="path1664" />
      <path
         class="b"
         d="m 31.511,19.462 c -0.019,0 -0.033,0 -0.062,0 a 1,1 0 0 0 -0.152,-0.3 0.475,0.475 0 0 0 -0.379,-0.2 c -0.048,0 -0.161,0 -0.2,0 v 0.9 c 0,0.142 0,0.308 0,0.621 0,0.237 0.114,0.237 0.36,0.27 a 0.1,0.1 0 0 1 0.014,0.057 0.1,0.1 0 0 1 -0.009,0.052 h -0.09 c -0.147,0 -0.431,-0.009 -0.516,-0.009 -0.062,0 -0.374,0.014 -0.526,0.014 a 0.1,0.1 0 0 1 -0.014,-0.057 0.236,0.236 0 0 1 0.009,-0.052 c 0.327,-0.024 0.36,-0.085 0.374,-0.189 0,-0.066 0,-0.336 0,-0.611 V 19.2 a 1.317,1.317 0 0 0 -0.014,-0.251 1.453,1.453 0 0 0 -0.322,0.024 0.805,0.805 0 0 0 -0.407,0.45 0.245,0.245 0 0 1 -0.057,0 0.061,0.061 0 0 1 -0.047,-0.019 v -0.526 c 0,-0.048 0.009,-0.062 0.062,-0.062 0.053,0 0.123,0 0.223,0 0.076,0 0.374,0 0.749,0 0.488,0 0.857,-0.014 0.947,-0.014 0.052,0 0.085,0 0.1,0.019 0.015,0.019 0,0.048 0,0.076 v 0.526 a 0.06,0.06 0 0 1 -0.043,0.039 z"
         id="path1666" />
      <path
         class="b"
         d="M 33.965,20.865 H 33.8 c -0.1,0 -0.223,-0.014 -0.346,-0.014 -0.194,0 -0.441,0.014 -0.535,0.014 a 0.077,0.077 0 0 1 -0.014,-0.052 0.165,0.165 0 0 1 0.009,-0.048 c 0.2,-0.009 0.279,-0.042 0.279,-0.123 A 0.7,0.7 0 0 0 33.131,20.377 C 33.069,20.225 33.036,20.159 33.022,20.121 33.013,20.107 33.008,20.097 32.965,20.097 H 32.32 a 1.414,1.414 0 0 0 -0.152,0.393 0.451,0.451 0 0 0 -0.014,0.118 c 0,0.066 0.062,0.142 0.289,0.147 a 0.1,0.1 0 0 1 0.014,0.057 0.174,0.174 0 0 1 0,0.047 H 32.4 c -0.152,0 -0.194,-0.009 -0.355,-0.009 -0.1,0 -0.355,0.009 -0.441,0.009 a 0.135,0.135 0 0 1 -0.009,-0.043 0.122,0.122 0 0 1 0.009,-0.052 0.441,0.441 0 0 0 0.294,-0.152 3.254,3.254 0 0 0 0.261,-0.53 c 0.114,-0.275 0.251,-0.621 0.313,-0.763 0.085,-0.18 0.114,-0.237 0.142,-0.3 0.043,-0.09 0.09,-0.18 0.109,-0.213 a 0.126,0.126 0 0 1 0.081,-0.038 0.117,0.117 0 0 1 0.09,0.043 0.579,0.579 0 0 1 0.047,0.1 c 0.119,0.284 0.213,0.535 0.36,0.886 0.076,0.175 0.114,0.289 0.194,0.474 0.057,0.114 0.09,0.2 0.147,0.308 0.076,0.156 0.2,0.156 0.322,0.189 0,0.014 0.019,0.028 0.019,0.047 0,0.019 -0.009,0.031 -0.018,0.05 z M 32.671,19.24 v 0 c -0.043,0.081 -0.119,0.256 -0.147,0.332 -0.109,0.265 -0.147,0.355 -0.166,0.393 h 0.611 C 32.918,19.841 32.761,19.467 32.671,19.24 Z"
         id="path1668" />
      <path
         class="b"
         d="M 37.129,20.865 36.3,20.856 h -0.227 a 0.146,0.146 0 0 1 -0.014,-0.052 0.065,0.065 0 0 1 0.019,-0.052 1.064,1.064 0 0 0 0.2,-0.019 c 0.085,-0.038 0.118,-0.123 0.118,-0.246 v -1.475 0 l -0.436,0.957 c -0.047,0.1 -0.1,0.218 -0.152,0.332 a 4.29,4.29 0 0 0 -0.18,0.464 0.061,0.061 0 0 1 -0.066,0.038 c -0.028,0 -0.047,-0.009 -0.062,-0.057 -0.057,-0.123 -0.095,-0.2 -0.114,-0.256 l -0.682,-1.5 H 34.69 v 0.384 l 0.014,0.957 c 0,0.294 0.152,0.431 0.384,0.431 a 0.162,0.162 0 0 1 0.019,0.047 0.123,0.123 0 0 1 -0.014,0.052 c -0.014,0 -0.062,0 -0.1,0 -0.038,0 -0.18,-0.014 -0.4,-0.014 -0.062,0 -0.189,0 -0.289,0 h -0.137 a 0.2,0.2 0 0 1 -0.01,-0.052 0.236,0.236 0 0 1 0.01,-0.043 1.065,1.065 0 0 0 0.3,-0.1 c 0.043,-0.043 0.081,-0.128 0.081,-0.332 v -1.047 c 0,-0.166 -0.024,-0.232 -0.1,-0.289 a 1.017,1.017 0 0 0 -0.27,-0.052 0.143,0.143 0 0 1 -0.014,-0.057 0.165,0.165 0 0 1 0.014,-0.057 c 0.081,0 0.223,0.009 0.365,0.009 h 0.5 a 0.123,0.123 0 0 1 0.043,0.052 l 0.611,1.383 0.109,-0.275 c 0.095,-0.223 0.232,-0.559 0.426,-0.919 0.043,-0.081 0.095,-0.185 0.123,-0.237 l 0.777,-0.014 a 0.117,0.117 0 0 1 0.019,0.052 0.108,0.108 0 0 1 -0.014,0.052 c -0.085,0.014 -0.232,0.014 -0.3,0.133 -0.024,0.038 -0.038,0.076 -0.038,0.242 v 0.99 c 0,0.379 0.095,0.417 0.138,0.445 a 0.736,0.736 0 0 0 0.208,0.028 0.108,0.108 0 0 1 0.014,0.052 c -0.015,0.03 -0.025,0.035 -0.03,0.054 z"
         id="path1670" />
      <path
         class="b"
         d="m 31.463,22.675 c -0.019,0 -0.033,0 -0.062,0 a 1,1 0 0 0 -0.152,-0.3 0.476,0.476 0 0 0 -0.379,-0.2 c -0.047,0 -0.161,0 -0.2,0 v 0.905 c 0,0.142 0,0.308 0,0.62 0,0.237 0.114,0.237 0.36,0.27 a 0.1,0.1 0 0 1 0.014,0.057 0.1,0.1 0 0 1 -0.009,0.052 h -0.09 c -0.147,0 -0.431,-0.009 -0.516,-0.009 -0.062,0 -0.374,0.014 -0.526,0.014 a 0.1,0.1 0 0 1 -0.014,-0.057 0.252,0.252 0 0 1 0.009,-0.052 c 0.327,-0.024 0.36,-0.085 0.374,-0.189 0,-0.066 0,-0.336 0,-0.611 v -0.749 a 1.3,1.3 0 0 0 -0.014,-0.251 1.451,1.451 0 0 0 -0.322,0.024 0.807,0.807 0 0 0 -0.408,0.45 0.243,0.243 0 0 1 -0.057,0 0.061,0.061 0 0 1 -0.047,-0.019 V 22.1 c 0,-0.048 0.009,-0.062 0.062,-0.062 0.053,0 0.123,0 0.223,0 0.076,0 0.374,0 0.749,0 0.488,0 0.857,-0.014 0.947,-0.014 0.052,0 0.085,0 0.1,0.019 0.015,0.019 0,0.048 0,0.076 v 0.526 a 0.061,0.061 0 0 1 -0.042,0.03 z"
         id="path1672" />
      <path
         class="b"
         d="m 34.007,22.139 a 0.414,0.414 0 0 0 -0.365,0.242 l -0.777,1.729 a 0.148,0.148 0 0 1 -0.062,0.028 c -0.024,0 -0.057,-0.028 -0.071,-0.081 -0.014,-0.053 -0.114,-0.3 -0.322,-0.777 l -0.246,-0.564 c -0.09,-0.208 -0.161,-0.346 -0.185,-0.388 a 0.38,0.38 0 0 0 -0.327,-0.189 0.066,0.066 0 0 1 -0.019,-0.052 0.08,0.08 0 0 1 0.014,-0.052 h 0.128 c 0.142,0 0.265,0.009 0.374,0.009 0.128,0 0.341,-0.014 0.488,-0.014 h 0.081 c 0.019,0 0.024,0.033 0.024,0.048 a 0.13,0.13 0 0 1 -0.009,0.057 c -0.1,0.009 -0.308,0 -0.308,0.137 a 0.25,0.25 0 0 0 0.019,0.114 l 0.507,1.213 0.431,-1 a 0.687,0.687 0 0 0 0.052,-0.265 c 0,-0.114 -0.081,-0.166 -0.294,-0.189 a 0.165,0.165 0 0 1 -0.009,-0.048 0.236,0.236 0 0 1 0.009,-0.062 h 0.06 c 0.095,0 0.189,0.014 0.407,0.014 0.033,0 0.185,-0.009 0.256,-0.009 h 0.147 a 0.091,0.091 0 0 1 0,0.1 z"
         id="path1674" />
      <path
         class="b"
         d="m 37.172,24.077 -0.824,-0.009 h -0.232 a 0.121,0.121 0 0 1 -0.009,-0.052 0.063,0.063 0 0 1 0.014,-0.052 1.09,1.09 0 0 0 0.208,-0.019 c 0.081,-0.038 0.114,-0.123 0.114,-0.246 V 22.5 c 0,0 0,-0.218 0,-0.279 h -0.009 l -0.431,0.957 c -0.052,0.1 -0.1,0.218 -0.156,0.332 -0.095,0.223 -0.152,0.374 -0.18,0.464 -0.009,0.038 -0.042,0.038 -0.066,0.038 -0.024,0 -0.043,-0.009 -0.062,-0.057 -0.052,-0.123 -0.09,-0.2 -0.109,-0.256 l -0.687,-1.5 h -0.014 v 0.384 l 0.014,0.957 c 0,0.294 0.152,0.431 0.388,0.431 a 0.127,0.127 0 0 1 0.014,0.047 0.111,0.111 0 0 1 -0.009,0.052 c -0.019,0 -0.062,0 -0.109,0 -0.028,0 -0.175,-0.014 -0.393,-0.014 -0.066,0 -0.194,0 -0.289,0 h -0.137 a 0.108,0.108 0 0 1 -0.014,-0.052 0.11,0.11 0 0 1 0.014,-0.043 1.108,1.108 0 0 0 0.3,-0.1 0.488,0.488 0 0 0 0.076,-0.332 v -0.483 -0.569 c 0,-0.166 -0.019,-0.232 -0.1,-0.289 A 1.028,1.028 0 0 0 34.219,22.136 0.1,0.1 0 0 1 34.2,22.079 0.115,0.115 0 0 1 34.219,22.022 c 0.076,0 0.223,0.009 0.36,0.009 h 0.5 a 0.115,0.115 0 0 1 0.038,0.052 l 0.611,1.383 0.114,-0.275 a 9.222,9.222 0 0 1 0.426,-0.919 c 0.038,-0.081 0.095,-0.185 0.123,-0.237 l 0.772,-0.014 c 0.009,0.019 0.024,0.033 0.024,0.052 a 0.117,0.117 0 0 1 -0.019,0.052 c -0.081,0.014 -0.227,0.014 -0.3,0.133 -0.024,0.038 -0.043,0.076 -0.043,0.242 v 0.99 c 0,0.379 0.095,0.417 0.142,0.445 a 0.666,0.666 0 0 0 0.2,0.028 0.08,0.08 0 0 1 0.019,0.052 c 0.005,0.038 -0.004,0.043 -0.014,0.062 z"
         id="path1676" />
    </g>
    <g
       transform="matrix(0.04938516,0,0,-0.04938516,-14.419207,500.42095)"
       id="g4585">
      <path
         d="m 733.24448,1068.3984 c -27.14903,0 -41.25735,-10.2408 -54.80078,-34.0296 L 554.73214,805.04075 c -8.52528,-16.43458 -8.66117,-21.9083 -8.66117,-33.74957 l 194.42903,8.571 44.5,44.5 h 390 L 851.17979,1024.9618 c -15.78381,9.3348 -75.81488,43.4366 -117.93531,43.4366 z"
         transform="matrix(0.8,0,0,-0.8,1438.2733,578.80667)"
         id="path4460"
         style="fill:url(#linearGradient5799);fill-opacity:1;stroke:none" />
      <path
         d="M 785.17857,824.36218 H 617 c -50.79574,0 -70.92903,-26.56814 -70.92903,-53.071 0,-16.77029 5.39638,-25.91573 12.8576,-44.554 l 245.0894,-585.089 2.63382,-5.13421 3.39286,-5.26786 7.05357,-6.875 10.35714,-5.53572 15,-3.30357 25.80357,0.66965 170.31247,63.30357 -57.58925,181.60714 z"
         transform="matrix(0.8,0,0,-0.8,1438.2733,578.80667)"
         id="path4458"
         style="fill:url(#linearGradient5789);fill-opacity:1;stroke:none" />
      <path
         d="M 1279,1068.3622 892.14286,152.54075 c -6.66334,-15.59413 -17.34669,-35.71428 -45,-35.71428 -24.7078,0 -36.47801,11.96365 -43.12489,24.82171 3.43698,-9.27263 13.8376,-27.286 43.98203,-27.286 h 267 c 24.6055,0 36.4092,14.48793 41.7884,27.75271 L 1548,1068.3622 Z"
         transform="matrix(0.8,0,0,-0.8,1438.2733,578.80667)"
         id="path4456"
         style="fill:url(#linearGradient5809);fill-opacity:1;fill-rule:evenodd;stroke:none" />
    </g>
    <text
       xml:space="preserve"
       style="font-size:23.4743px;line-height:1.25;font-family:sans-serif;text-align:end;word-spacing:0px;text-anchor:end;stroke-width:0.586855"
       x="506.75995"
       y="191.84967"
       id="text1851"><tspan
         sodipodi:role="line"
         id="tspan1849"
         x="506.75995"
         y="191.84967"
         style="font-style:normal;font-variant:normal;font-weight:normal;font-stretch:normal;font-family:Iosevka;-inkscape-font-specification:Iosevka;stroke-width:0.586855">January 20, 2021</tspan></text>
  </g>
</svg>
