<?xml version="1.0" encoding="utf-8" standalone="no"?>
<!DOCTYPE svg PUBLIC "-//W3C//DTD SVG 1.1//EN"
  "http://www.w3.org/Graphics/SVG/1.1/DTD/svg11.dtd">
<!-- Created with matplotlib (https://matplotlib.org/) -->
<svg height="345.6pt" version="1.1" viewBox="0 0 460.8 345.6" width="460.8pt" xmlns="http://www.w3.org/2000/svg" xmlns:xlink="http://www.w3.org/1999/xlink">
 <metadata>
  <rdf:RDF xmlns:cc="http://creativecommons.org/ns#" xmlns:dc="http://purl.org/dc/elements/1.1/" xmlns:rdf="http://www.w3.org/1999/02/22-rdf-syntax-ns#">
   <cc:Work>
    <dc:type rdf:resource="http://purl.org/dc/dcmitype/StillImage"/>
    <dc:date>2020-12-21T06:37:56.070119</dc:date>
    <dc:format>image/svg+xml</dc:format>
    <dc:creator>
     <cc:Agent>
      <dc:title>Matplotlib v3.3.3, https://matplotlib.org/</dc:title>
     </cc:Agent>
    </dc:creator>
   </cc:Work>
  </rdf:RDF>
 </metadata>
 <defs>
  <style type="text/css">*{stroke-linecap:butt;stroke-linejoin:round;}</style>
 </defs>
 <g id="figure_1">
  <g id="patch_1">
   <path d="M 0 345.6 
L 460.8 345.6 
L 460.8 0 
L 0 0 
z
" style="fill:#ffffff;"/>
  </g>
  <g id="axes_1">
   <g id="patch_2">
    <path d="M 29.223562 315.825354 
L 457.965354 315.825354 
L 457.965354 19.634646 
L 29.223562 19.634646 
z
" style="fill:#ffffff;"/>
   </g>
   <g id="matplotlib.axis_1">
    <g id="xtick_1">
     <g id="line2d_1">
      <path clip-path="url(#p8a6e7ba96a)" d="M 39.325234 315.825354 
L 39.325234 19.634646 
" style="fill:none;stroke:#000000;stroke-linecap:square;stroke-opacity:0.1;stroke-width:0.5;"/>
     </g>
     <g id="line2d_2">
      <defs>
       <path d="M 0 0 
L 0 -2.5 
" id="me903fbf19d" style="stroke:#000000;stroke-width:0.5;"/>
      </defs>
      <g>
       <use style="stroke:#000000;stroke-width:0.5;" x="39.325234" xlink:href="#me903fbf19d" y="315.825354"/>
      </g>
     </g>
     <g id="text_1">
      <!-- $\mathregular{0}$ -->
      <g transform="translate(36.765234 325.404104)scale(0.08 -0.08)">
       <defs>
        <path d="M 31.78125 66.40625 
Q 24.171875 66.40625 20.328125 58.90625 
Q 16.5 51.421875 16.5 36.375 
Q 16.5 21.390625 20.328125 13.890625 
Q 24.171875 6.390625 31.78125 6.390625 
Q 39.453125 6.390625 43.28125 13.890625 
Q 47.125 21.390625 47.125 36.375 
Q 47.125 51.421875 43.28125 58.90625 
Q 39.453125 66.40625 31.78125 66.40625 
z
M 31.78125 74.21875 
Q 44.046875 74.21875 50.515625 64.515625 
Q 56.984375 54.828125 56.984375 36.375 
Q 56.984375 17.96875 50.515625 8.265625 
Q 44.046875 -1.421875 31.78125 -1.421875 
Q 19.53125 -1.421875 13.0625 8.265625 
Q 6.59375 17.96875 6.59375 36.375 
Q 6.59375 54.828125 13.0625 64.515625 
Q 19.53125 74.21875 31.78125 74.21875 
z
" id="DejaVuSans-48"/>
       </defs>
       <use transform="translate(0 0.78125)" xlink:href="#DejaVuSans-48"/>
      </g>
     </g>
    </g>
    <g id="xtick_2">
     <g id="line2d_3">
      <path clip-path="url(#p8a6e7ba96a)" d="M 140.951713 315.825354 
L 140.951713 19.634646 
" style="fill:none;stroke:#000000;stroke-linecap:square;stroke-opacity:0.1;stroke-width:0.5;"/>
     </g>
     <g id="line2d_4">
      <g>
       <use style="stroke:#000000;stroke-width:0.5;" x="140.951713" xlink:href="#me903fbf19d" y="315.825354"/>
      </g>
     </g>
     <g id="text_2">
      <!-- $\mathregular{50}$ -->
      <g transform="translate(135.831713 325.404104)scale(0.08 -0.08)">
       <defs>
        <path d="M 10.796875 72.90625 
L 49.515625 72.90625 
L 49.515625 64.59375 
L 19.828125 64.59375 
L 19.828125 46.734375 
Q 21.96875 47.46875 24.109375 47.828125 
Q 26.265625 48.1875 28.421875 48.1875 
Q 40.625 48.1875 47.75 41.5 
Q 54.890625 34.8125 54.890625 23.390625 
Q 54.890625 11.625 47.5625 5.09375 
Q 40.234375 -1.421875 26.90625 -1.421875 
Q 22.3125 -1.421875 17.546875 -0.640625 
Q 12.796875 0.140625 7.71875 1.703125 
L 7.71875 11.625 
Q 12.109375 9.234375 16.796875 8.0625 
Q 21.484375 6.890625 26.703125 6.890625 
Q 35.15625 6.890625 40.078125 11.328125 
Q 45.015625 15.765625 45.015625 23.390625 
Q 45.015625 31 40.078125 35.4375 
Q 35.15625 39.890625 26.703125 39.890625 
Q 22.75 39.890625 18.8125 39.015625 
Q 14.890625 38.140625 10.796875 36.28125 
z
" id="DejaVuSans-53"/>
       </defs>
       <use transform="translate(0 0.78125)" xlink:href="#DejaVuSans-53"/>
       <use transform="translate(63.623047 0.78125)" xlink:href="#DejaVuSans-48"/>
      </g>
     </g>
    </g>
    <g id="xtick_3">
     <g id="line2d_5">
      <path clip-path="url(#p8a6e7ba96a)" d="M 242.578193 315.825354 
L 242.578193 19.634646 
" style="fill:none;stroke:#000000;stroke-linecap:square;stroke-opacity:0.1;stroke-width:0.5;"/>
     </g>
     <g id="line2d_6">
      <g>
       <use style="stroke:#000000;stroke-width:0.5;" x="242.578193" xlink:href="#me903fbf19d" y="315.825354"/>
      </g>
     </g>
     <g id="text_3">
      <!-- $\mathregular{100}$ -->
      <g transform="translate(234.938193 325.404104)scale(0.08 -0.08)">
       <defs>
        <path d="M 12.40625 8.296875 
L 28.515625 8.296875 
L 28.515625 63.921875 
L 10.984375 60.40625 
L 10.984375 69.390625 
L 28.421875 72.90625 
L 38.28125 72.90625 
L 38.28125 8.296875 
L 54.390625 8.296875 
L 54.390625 0 
L 12.40625 0 
z
" id="DejaVuSans-49"/>
       </defs>
       <use transform="translate(0 0.78125)" xlink:href="#DejaVuSans-49"/>
       <use transform="translate(63.623047 0.78125)" xlink:href="#DejaVuSans-48"/>
       <use transform="translate(127.246094 0.78125)" xlink:href="#DejaVuSans-48"/>
      </g>
     </g>
    </g>
    <g id="xtick_4">
     <g id="line2d_7">
      <path clip-path="url(#p8a6e7ba96a)" d="M 344.204673 315.825354 
L 344.204673 19.634646 
" style="fill:none;stroke:#000000;stroke-linecap:square;stroke-opacity:0.1;stroke-width:0.5;"/>
     </g>
     <g id="line2d_8">
      <g>
       <use style="stroke:#000000;stroke-width:0.5;" x="344.204673" xlink:href="#me903fbf19d" y="315.825354"/>
      </g>
     </g>
     <g id="text_4">
      <!-- $\mathregular{150}$ -->
      <g transform="translate(336.564673 325.404104)scale(0.08 -0.08)">
       <use transform="translate(0 0.78125)" xlink:href="#DejaVuSans-49"/>
       <use transform="translate(63.623047 0.78125)" xlink:href="#DejaVuSans-53"/>
       <use transform="translate(127.246094 0.78125)" xlink:href="#DejaVuSans-48"/>
      </g>
     </g>
    </g>
    <g id="xtick_5">
     <g id="line2d_9">
      <path clip-path="url(#p8a6e7ba96a)" d="M 445.831153 315.825354 
L 445.831153 19.634646 
" style="fill:none;stroke:#000000;stroke-linecap:square;stroke-opacity:0.1;stroke-width:0.5;"/>
     </g>
     <g id="line2d_10">
      <g>
       <use style="stroke:#000000;stroke-width:0.5;" x="445.831153" xlink:href="#me903fbf19d" y="315.825354"/>
      </g>
     </g>
     <g id="text_5">
      <!-- $\mathregular{200}$ -->
      <g transform="translate(438.191153 325.404104)scale(0.08 -0.08)">
       <defs>
        <path d="M 19.1875 8.296875 
L 53.609375 8.296875 
L 53.609375 0 
L 7.328125 0 
L 7.328125 8.296875 
Q 12.9375 14.109375 22.625 23.890625 
Q 32.328125 33.6875 34.8125 36.53125 
Q 39.546875 41.84375 41.421875 45.53125 
Q 43.3125 49.21875 43.3125 52.78125 
Q 43.3125 58.59375 39.234375 62.25 
Q 35.15625 65.921875 28.609375 65.921875 
Q 23.96875 65.921875 18.8125 64.3125 
Q 13.671875 62.703125 7.8125 59.421875 
L 7.8125 69.390625 
Q 13.765625 71.78125 18.9375 73 
Q 24.125 74.21875 28.421875 74.21875 
Q 39.75 74.21875 46.484375 68.546875 
Q 53.21875 62.890625 53.21875 53.421875 
Q 53.21875 48.921875 51.53125 44.890625 
Q 49.859375 40.875 45.40625 35.40625 
Q 44.1875 33.984375 37.640625 27.21875 
Q 31.109375 20.453125 19.1875 8.296875 
z
" id="DejaVuSans-50"/>
       </defs>
       <use transform="translate(0 0.78125)" xlink:href="#DejaVuSans-50"/>
       <use transform="translate(63.623047 0.78125)" xlink:href="#DejaVuSans-48"/>
       <use transform="translate(127.246094 0.78125)" xlink:href="#DejaVuSans-48"/>
      </g>
     </g>
    </g>
    <g id="text_6">
     <!-- Generation -->
     <g transform="translate(212.912192 339.426136)scale(0.11 -0.11)">
      <defs>
       <path d="M 59.515625 10.40625 
L 59.515625 29.984375 
L 43.40625 29.984375 
L 43.40625 38.09375 
L 69.28125 38.09375 
L 69.28125 6.78125 
Q 63.578125 2.734375 56.6875 0.65625 
Q 49.8125 -1.421875 42 -1.421875 
Q 24.90625 -1.421875 15.25 8.5625 
Q 5.609375 18.5625 5.609375 36.375 
Q 5.609375 54.25 15.25 64.234375 
Q 24.90625 74.21875 42 74.21875 
Q 49.125 74.21875 55.546875 72.453125 
Q 61.96875 70.703125 67.390625 67.28125 
L 67.390625 56.78125 
Q 61.921875 61.421875 55.765625 63.765625 
Q 49.609375 66.109375 42.828125 66.109375 
Q 29.4375 66.109375 22.71875 58.640625 
Q 16.015625 51.171875 16.015625 36.375 
Q 16.015625 21.625 22.71875 14.15625 
Q 29.4375 6.6875 42.828125 6.6875 
Q 48.046875 6.6875 52.140625 7.59375 
Q 56.25 8.5 59.515625 10.40625 
z
" id="DejaVuSans-71"/>
       <path d="M 56.203125 29.59375 
L 56.203125 25.203125 
L 14.890625 25.203125 
Q 15.484375 15.921875 20.484375 11.0625 
Q 25.484375 6.203125 34.421875 6.203125 
Q 39.59375 6.203125 44.453125 7.46875 
Q 49.3125 8.734375 54.109375 11.28125 
L 54.109375 2.78125 
Q 49.265625 0.734375 44.1875 -0.34375 
Q 39.109375 -1.421875 33.890625 -1.421875 
Q 20.796875 -1.421875 13.15625 6.1875 
Q 5.515625 13.8125 5.515625 26.8125 
Q 5.515625 40.234375 12.765625 48.109375 
Q 20.015625 56 32.328125 56 
Q 43.359375 56 49.78125 48.890625 
Q 56.203125 41.796875 56.203125 29.59375 
z
M 47.21875 32.234375 
Q 47.125 39.59375 43.09375 43.984375 
Q 39.0625 48.390625 32.421875 48.390625 
Q 24.90625 48.390625 20.390625 44.140625 
Q 15.875 39.890625 15.1875 32.171875 
z
" id="DejaVuSans-101"/>
       <path d="M 54.890625 33.015625 
L 54.890625 0 
L 45.90625 0 
L 45.90625 32.71875 
Q 45.90625 40.484375 42.875 44.328125 
Q 39.84375 48.1875 33.796875 48.1875 
Q 26.515625 48.1875 22.3125 43.546875 
Q 18.109375 38.921875 18.109375 30.90625 
L 18.109375 0 
L 9.078125 0 
L 9.078125 54.6875 
L 18.109375 54.6875 
L 18.109375 46.1875 
Q 21.34375 51.125 25.703125 53.5625 
Q 30.078125 56 35.796875 56 
Q 45.21875 56 50.046875 50.171875 
Q 54.890625 44.34375 54.890625 33.015625 
z
" id="DejaVuSans-110"/>
       <path d="M 41.109375 46.296875 
Q 39.59375 47.171875 37.8125 47.578125 
Q 36.03125 48 33.890625 48 
Q 26.265625 48 22.1875 43.046875 
Q 18.109375 38.09375 18.109375 28.8125 
L 18.109375 0 
L 9.078125 0 
L 9.078125 54.6875 
L 18.109375 54.6875 
L 18.109375 46.1875 
Q 20.953125 51.171875 25.484375 53.578125 
Q 30.03125 56 36.53125 56 
Q 37.453125 56 38.578125 55.875 
Q 39.703125 55.765625 41.0625 55.515625 
z
" id="DejaVuSans-114"/>
       <path d="M 34.28125 27.484375 
Q 23.390625 27.484375 19.1875 25 
Q 14.984375 22.515625 14.984375 16.5 
Q 14.984375 11.71875 18.140625 8.90625 
Q 21.296875 6.109375 26.703125 6.109375 
Q 34.1875 6.109375 38.703125 11.40625 
Q 43.21875 16.703125 43.21875 25.484375 
L 43.21875 27.484375 
z
M 52.203125 31.203125 
L 52.203125 0 
L 43.21875 0 
L 43.21875 8.296875 
Q 40.140625 3.328125 35.546875 0.953125 
Q 30.953125 -1.421875 24.3125 -1.421875 
Q 15.921875 -1.421875 10.953125 3.296875 
Q 6 8.015625 6 15.921875 
Q 6 25.140625 12.171875 29.828125 
Q 18.359375 34.515625 30.609375 34.515625 
L 43.21875 34.515625 
L 43.21875 35.40625 
Q 43.21875 41.609375 39.140625 45 
Q 35.0625 48.390625 27.6875 48.390625 
Q 23 48.390625 18.546875 47.265625 
Q 14.109375 46.140625 10.015625 43.890625 
L 10.015625 52.203125 
Q 14.9375 54.109375 19.578125 55.046875 
Q 24.21875 56 28.609375 56 
Q 40.484375 56 46.34375 49.84375 
Q 52.203125 43.703125 52.203125 31.203125 
z
" id="DejaVuSans-97"/>
       <path d="M 18.3125 70.21875 
L 18.3125 54.6875 
L 36.8125 54.6875 
L 36.8125 47.703125 
L 18.3125 47.703125 
L 18.3125 18.015625 
Q 18.3125 11.328125 20.140625 9.421875 
Q 21.96875 7.515625 27.59375 7.515625 
L 36.8125 7.515625 
L 36.8125 0 
L 27.59375 0 
Q 17.1875 0 13.234375 3.875 
Q 9.28125 7.765625 9.28125 18.015625 
L 9.28125 47.703125 
L 2.6875 47.703125 
L 2.6875 54.6875 
L 9.28125 54.6875 
L 9.28125 70.21875 
z
" id="DejaVuSans-116"/>
       <path d="M 9.421875 54.6875 
L 18.40625 54.6875 
L 18.40625 0 
L 9.421875 0 
z
M 9.421875 75.984375 
L 18.40625 75.984375 
L 18.40625 64.59375 
L 9.421875 64.59375 
z
" id="DejaVuSans-105"/>
       <path d="M 30.609375 48.390625 
Q 23.390625 48.390625 19.1875 42.75 
Q 14.984375 37.109375 14.984375 27.296875 
Q 14.984375 17.484375 19.15625 11.84375 
Q 23.34375 6.203125 30.609375 6.203125 
Q 37.796875 6.203125 41.984375 11.859375 
Q 46.1875 17.53125 46.1875 27.296875 
Q 46.1875 37.015625 41.984375 42.703125 
Q 37.796875 48.390625 30.609375 48.390625 
z
M 30.609375 56 
Q 42.328125 56 49.015625 48.375 
Q 55.71875 40.765625 55.71875 27.296875 
Q 55.71875 13.875 49.015625 6.21875 
Q 42.328125 -1.421875 30.609375 -1.421875 
Q 18.84375 -1.421875 12.171875 6.21875 
Q 5.515625 13.875 5.515625 27.296875 
Q 5.515625 40.765625 12.171875 48.375 
Q 18.84375 56 30.609375 56 
z
" id="DejaVuSans-111"/>
      </defs>
      <use xlink:href="#DejaVuSans-71"/>
      <use x="77.490234" xlink:href="#DejaVuSans-101"/>
      <use x="139.013672" xlink:href="#DejaVuSans-110"/>
      <use x="202.392578" xlink:href="#DejaVuSans-101"/>
      <use x="263.916016" xlink:href="#DejaVuSans-114"/>
      <use x="305.029297" xlink:href="#DejaVuSans-97"/>
      <use x="366.308594" xlink:href="#DejaVuSans-116"/>
      <use x="405.517578" xlink:href="#DejaVuSans-105"/>
      <use x="433.300781" xlink:href="#DejaVuSans-111"/>
      <use x="494.482422" xlink:href="#DejaVuSans-110"/>
     </g>
    </g>
   </g>
   <g id="matplotlib.axis_2">
    <g id="ytick_1">
     <g id="line2d_11">
      <path clip-path="url(#p8a6e7ba96a)" d="M 29.223562 260.385544 
L 457.965354 260.385544 
" style="fill:none;stroke:#000000;stroke-linecap:square;stroke-opacity:0.1;stroke-width:0.5;"/>
     </g>
     <g id="line2d_12">
      <defs>
       <path d="M 0 0 
L 2.5 0 
" id="ma76819990f" style="stroke:#000000;stroke-width:0.5;"/>
      </defs>
      <g>
       <use style="stroke:#000000;stroke-width:0.5;" x="29.223562" xlink:href="#ma76819990f" y="260.385544"/>
      </g>
     </g>
     <g id="text_7">
      <!-- $\mathregular{-100}$ -->
      <g transform="translate(3.723562 263.424919)scale(0.08 -0.08)">
       <defs>
        <path d="M 10.59375 35.5 
L 73.1875 35.5 
L 73.1875 27.203125 
L 10.59375 27.203125 
z
" id="DejaVuSans-8722"/>
       </defs>
       <use transform="translate(0 0.78125)" xlink:href="#DejaVuSans-8722"/>
       <use transform="translate(83.789062 0.78125)" xlink:href="#DejaVuSans-49"/>
       <use transform="translate(147.412109 0.78125)" xlink:href="#DejaVuSans-48"/>
       <use transform="translate(211.035156 0.78125)" xlink:href="#DejaVuSans-48"/>
      </g>
     </g>
    </g>
    <g id="ytick_2">
     <g id="line2d_13">
      <path clip-path="url(#p8a6e7ba96a)" d="M 29.223562 198.047194 
L 457.965354 198.047194 
" style="fill:none;stroke:#000000;stroke-linecap:square;stroke-opacity:0.1;stroke-width:0.5;"/>
     </g>
     <g id="line2d_14">
      <g>
       <use style="stroke:#000000;stroke-width:0.5;" x="29.223562" xlink:href="#ma76819990f" y="198.047194"/>
      </g>
     </g>
     <g id="text_8">
      <!-- $\mathregular{0}$ -->
      <g transform="translate(20.603562 201.086569)scale(0.08 -0.08)">
       <use transform="translate(0 0.78125)" xlink:href="#DejaVuSans-48"/>
      </g>
     </g>
    </g>
    <g id="ytick_3">
     <g id="line2d_15">
      <path clip-path="url(#p8a6e7ba96a)" d="M 29.223562 135.708845 
L 457.965354 135.708845 
" style="fill:none;stroke:#000000;stroke-linecap:square;stroke-opacity:0.1;stroke-width:0.5;"/>
     </g>
     <g id="line2d_16">
      <g>
       <use style="stroke:#000000;stroke-width:0.5;" x="29.223562" xlink:href="#ma76819990f" y="135.708845"/>
      </g>
     </g>
     <g id="text_9">
      <!-- $\mathregular{100}$ -->
      <g transform="translate(10.443562 138.74822)scale(0.08 -0.08)">
       <use transform="translate(0 0.78125)" xlink:href="#DejaVuSans-49"/>
       <use transform="translate(63.623047 0.78125)" xlink:href="#DejaVuSans-48"/>
       <use transform="translate(127.246094 0.78125)" xlink:href="#DejaVuSans-48"/>
      </g>
     </g>
    </g>
    <g id="ytick_4">
     <g id="line2d_17">
      <path clip-path="url(#p8a6e7ba96a)" d="M 29.223562 73.370496 
L 457.965354 73.370496 
" style="fill:none;stroke:#000000;stroke-linecap:square;stroke-opacity:0.1;stroke-width:0.5;"/>
     </g>
     <g id="line2d_18">
      <g>
       <use style="stroke:#000000;stroke-width:0.5;" x="29.223562" xlink:href="#ma76819990f" y="73.370496"/>
      </g>
     </g>
     <g id="text_10">
      <!-- $\mathregular{200}$ -->
      <g transform="translate(10.443562 76.409871)scale(0.08 -0.08)">
       <use transform="translate(0 0.78125)" xlink:href="#DejaVuSans-50"/>
       <use transform="translate(63.623047 0.78125)" xlink:href="#DejaVuSans-48"/>
       <use transform="translate(127.246094 0.78125)" xlink:href="#DejaVuSans-48"/>
      </g>
     </g>
    </g>
   </g>
   <g id="line2d_19">
    <path clip-path="url(#p8a6e7ba96a)" d="M 41.357763 255.1934 
L 43.390293 206.662701 
L 47.455352 206.860663 
L 49.487882 207.355727 
L 51.520411 207.472139 
L 53.552941 206.717281 
L 55.585471 207.273465 
L 57.618 210.018023 
L 59.65053 207.970793 
L 63.715589 207.341274 
L 65.748118 208.043731 
L 67.780648 206.841674 
L 69.813178 206.437212 
L 71.845707 205.700874 
L 73.878237 205.623808 
L 75.910766 205.794399 
L 77.943296 205.671863 
L 79.975826 206.414152 
L 82.008355 205.72409 
L 84.040885 205.778615 
L 86.073414 205.423309 
L 88.105944 204.288369 
L 90.138474 204.486017 
L 92.171003 206.505214 
L 94.203533 204.059555 
L 98.268592 204.127681 
L 100.301122 202.378172 
L 104.366181 201.837491 
L 106.39871 197.953599 
L 108.43124 208.533395 
L 110.46377 204.764064 
L 112.496299 209.361059 
L 114.528829 208.772902 
L 116.561358 184.660215 
L 118.593888 171.437126 
L 120.626418 168.881531 
L 122.658947 161.366289 
L 124.691477 158.642764 
L 126.724006 139.225879 
L 128.756536 137.244245 
L 130.789066 131.046365 
L 132.821595 128.359151 
L 134.854125 126.652449 
L 136.886654 107.833544 
L 138.919184 103.410536 
L 140.951713 105.613738 
L 142.984243 98.689825 
L 145.016773 105.569231 
L 147.049302 102.159259 
L 149.081832 100.114577 
L 151.114361 104.560375 
L 153.146891 83.648249 
L 155.179421 90.218864 
L 157.21195 103.02414 
L 159.24448 105.151482 
L 161.277009 90.455996 
L 165.342069 88.817126 
L 167.374598 82.427519 
L 169.407128 95.385735 
L 171.439657 87.33934 
L 173.472187 81.357048 
L 175.504717 78.438521 
L 177.537246 71.429169 
L 179.569776 66.375345 
L 181.602305 73.284671 
L 183.634835 76.405316 
L 185.667365 62.832666 
L 187.699894 73.540093 
L 189.732424 54.013636 
L 191.764953 76.304863 
L 193.797483 60.871644 
L 195.830013 61.714299 
L 197.862542 72.65376 
L 199.895072 73.526119 
L 201.927601 70.589889 
L 203.960131 73.169078 
L 205.992661 65.475812 
L 208.02519 70.703517 
L 210.05772 69.384174 
L 212.090249 70.390881 
L 214.122779 67.270668 
L 216.155308 61.586031 
L 218.187838 61.490331 
L 220.220368 62.972534 
L 222.252897 61.547655 
L 224.285427 62.993936 
L 226.317956 56.877293 
L 228.350486 46.13951 
L 230.383016 55.389889 
L 232.415545 62.611831 
L 234.448075 57.073188 
L 236.480604 53.683574 
L 238.513134 53.605286 
L 240.545664 53.915929 
L 242.578193 53.574015 
L 244.610723 56.837013 
L 246.643252 50.941639 
L 248.675782 58.128178 
L 250.708312 53.011979 
L 252.740841 46.850552 
L 254.773371 48.852065 
L 256.8059 51.185982 
L 258.83843 52.93807 
L 260.87096 53.0821 
L 262.903489 48.328534 
L 264.936019 51.821121 
L 266.968548 46.321847 
L 269.001078 41.162596 
L 271.033608 44.557156 
L 273.066137 46.687587 
L 275.098667 48.061905 
L 277.131196 43.753075 
L 279.163726 44.645989 
L 281.196256 43.602525 
L 283.228785 44.704352 
L 285.261315 47.671722 
L 287.293844 44.685299 
L 289.326374 38.275219 
L 291.358903 46.707035 
L 293.391433 45.993395 
L 295.423963 47.888874 
L 297.456492 37.913521 
L 299.489022 48.073974 
L 301.521551 38.069969 
L 303.554081 39.285924 
L 305.586611 35.596001 
L 307.61914 32.721854 
L 309.65167 34.169639 
L 311.684199 32.939928 
L 313.716729 35.248997 
L 315.749259 38.472448 
L 317.781788 34.93502 
L 319.814318 42.309628 
L 321.846847 35.193431 
L 323.879377 41.868468 
L 325.911907 35.886629 
L 327.944436 42.000904 
L 329.976966 36.861126 
L 332.009495 38.818826 
L 334.042025 38.538304 
L 336.074555 37.728145 
L 338.107084 36.561702 
L 340.139614 34.097081 
L 342.172143 35.199992 
L 344.204673 37.515553 
L 346.237203 34.252372 
L 348.269732 38.173503 
L 350.302262 37.515391 
L 352.334791 38.691051 
L 354.367321 34.659687 
L 356.39985 33.763952 
L 358.43238 38.607134 
L 360.46491 40.663584 
L 362.497439 37.520989 
L 364.529969 33.091208 
L 366.562498 33.747071 
L 368.595028 35.789974 
L 370.627558 33.415375 
L 372.660087 35.397423 
L 374.692617 32.286677 
L 376.725146 33.798684 
L 378.757676 34.250556 
L 380.790206 32.42948 
L 382.822735 33.366417 
L 384.855265 32.843707 
L 386.887794 30.470498 
L 388.920324 32.383364 
L 390.952854 32.211127 
L 392.985383 32.343619 
L 395.017913 30.438377 
L 397.050442 37.185382 
L 399.082972 33.670553 
L 401.115502 34.032935 
L 403.148031 33.214924 
L 405.180561 36.64554 
L 407.21309 29.422336 
L 409.24562 36.173889 
L 411.27815 33.419342 
L 413.310679 33.275981 
L 415.343209 34.21106 
L 417.375738 33.684914 
L 419.408268 28.017402 
L 421.440798 33.192497 
L 423.473327 31.632188 
L 425.505857 33.979649 
L 427.538386 32.12884 
L 429.570916 32.449811 
L 431.603445 31.67269 
L 433.635975 36.234611 
L 435.668505 32.237737 
L 437.701034 32.66438 
L 439.733564 30.273459 
L 441.766093 33.405127 
L 443.798623 40.725293 
L 445.831153 35.54354 
L 445.831153 35.54354 
" style="fill:none;stroke:#009afa;"/>
   </g>
   <g id="line2d_20">
    <path clip-path="url(#p8a6e7ba96a)" d="M 41.357763 255.227681 
L 43.390293 210.416525 
L 45.422823 208.217728 
L 47.455352 216.909912 
L 49.487882 212.827634 
L 51.520411 220.045557 
L 53.552941 209.159664 
L 55.585471 208.479822 
L 57.618 210.028015 
L 59.65053 209.723673 
L 61.683059 209.176448 
L 63.715589 211.705535 
L 65.748118 209.159536 
L 67.780648 208.224553 
L 69.813178 206.503933 
L 71.845707 206.260698 
L 73.878237 205.634842 
L 75.910766 213.718433 
L 77.943296 205.727085 
L 79.975826 213.351097 
L 82.008355 205.730001 
L 84.040885 213.471978 
L 86.073414 205.547212 
L 88.105944 208.646952 
L 90.138474 205.730998 
L 92.171003 216.337639 
L 94.203533 204.192801 
L 96.236062 204.668668 
L 98.268592 204.134728 
L 100.301122 204.250009 
L 102.333651 202.182671 
L 104.366181 202.821535 
L 106.39871 198.814775 
L 108.43124 212.220852 
L 110.46377 208.308536 
L 112.496299 209.454047 
L 114.528829 208.784999 
L 116.561358 204.260202 
L 118.593888 171.946201 
L 120.626418 174.306894 
L 122.658947 164.081387 
L 124.691477 162.584732 
L 126.724006 142.512759 
L 128.756536 155.486654 
L 130.789066 133.069645 
L 132.821595 148.636688 
L 134.854125 127.177026 
L 136.886654 118.879601 
L 138.919184 103.920015 
L 140.951713 110.315384 
L 142.984243 98.827213 
L 145.016773 113.86564 
L 147.049302 106.13452 
L 149.081832 103.084083 
L 151.114361 105.364687 
L 153.146891 99.631723 
L 155.179421 96.912578 
L 157.21195 109.397361 
L 159.24448 107.955985 
L 161.277009 94.022999 
L 163.309539 91.496319 
L 165.342069 98.724937 
L 167.374598 82.9534 
L 169.407128 96.02633 
L 171.439657 90.13426 
L 173.472187 94.33286 
L 175.504717 81.000062 
L 177.537246 77.354259 
L 179.569776 67.058302 
L 181.602305 73.447835 
L 183.634835 78.151768 
L 185.667365 70.518712 
L 187.699894 75.231669 
L 189.732424 69.035154 
L 191.764953 77.644325 
L 193.797483 72.501518 
L 195.830013 66.681086 
L 197.862542 82.270774 
L 199.895072 75.027046 
L 201.927601 74.630864 
L 203.960131 77.780321 
L 205.992661 67.795597 
L 208.02519 70.730092 
L 210.05772 72.604502 
L 212.090249 72.452389 
L 214.122779 73.567946 
L 216.155308 64.833687 
L 218.187838 61.531713 
L 220.220368 63.26528 
L 222.252897 63.873745 
L 224.285427 63.3042 
L 226.317956 57.534518 
L 228.350486 61.659113 
L 230.383016 58.622083 
L 232.415545 64.307113 
L 234.448075 59.716969 
L 236.480604 58.553007 
L 238.513134 56.946183 
L 240.545664 57.277739 
L 242.578193 57.290425 
L 244.610723 57.982364 
L 246.643252 57.644978 
L 248.675782 58.233084 
L 250.708312 56.078188 
L 252.740841 57.224191 
L 254.773371 60.597388 
L 256.8059 51.328119 
L 258.83843 55.458685 
L 260.87096 53.281198 
L 262.903489 52.761594 
L 264.936019 52.027662 
L 266.968548 49.004473 
L 269.001078 48.785824 
L 271.033608 45.70878 
L 273.066137 51.49756 
L 275.098667 51.62914 
L 277.131196 45.756621 
L 279.163726 44.791629 
L 281.196256 44.780392 
L 283.228785 47.58524 
L 285.261315 48.230617 
L 287.293844 44.762222 
L 289.326374 41.641299 
L 291.358903 50.661444 
L 293.391433 46.289319 
L 295.423963 48.224286 
L 297.456492 45.501958 
L 299.489022 52.284007 
L 301.521551 39.67357 
L 303.554081 44.715066 
L 305.586611 38.42922 
L 307.61914 33.97849 
L 309.65167 40.119179 
L 311.684199 36.106412 
L 313.716729 36.235483 
L 315.749259 39.805959 
L 317.781788 39.127939 
L 319.814318 42.369803 
L 321.846847 35.794706 
L 323.879377 43.988049 
L 325.911907 43.300284 
L 327.944436 42.280528 
L 332.009495 38.954034 
L 334.042025 38.795835 
L 336.074555 41.477547 
L 338.107084 37.998812 
L 340.139614 39.079058 
L 342.172143 38.670945 
L 344.204673 40.09287 
L 346.237203 36.081207 
L 348.269732 39.981739 
L 350.302262 37.668512 
L 352.334791 40.767367 
L 354.367321 34.742501 
L 356.39985 42.015657 
L 358.43238 40.422671 
L 360.46491 42.238762 
L 364.529969 34.671254 
L 366.562498 35.775637 
L 368.595028 36.020426 
L 370.627558 35.271005 
L 372.660087 38.003424 
L 374.692617 34.688425 
L 376.725146 38.969153 
L 378.757676 35.021404 
L 380.790206 34.023244 
L 382.822735 34.894172 
L 384.855265 42.903278 
L 386.887794 33.935421 
L 388.920324 32.788443 
L 390.952854 37.00286 
L 392.985383 33.713991 
L 395.017913 31.590932 
L 397.050442 37.644325 
L 399.082972 33.941203 
L 401.115502 34.356986 
L 403.148031 36.606076 
L 405.180561 36.944812 
L 407.21309 35.307344 
L 409.24562 37.367696 
L 411.27815 36.199101 
L 413.310679 34.315507 
L 419.408268 35.645508 
L 421.440798 37.054737 
L 423.473327 33.997097 
L 425.505857 34.01849 
L 427.538386 32.583859 
L 429.570916 37.292438 
L 431.603445 32.844794 
L 433.635975 45.068363 
L 435.668505 33.945901 
L 437.701034 33.567294 
L 439.733564 150.061782 
L 441.766093 37.310654 
L 443.798623 42.069191 
L 445.831153 40.362364 
L 445.831153 40.362364 
" style="fill:none;stroke:#e36f47;"/>
   </g>
   <g id="patch_3">
    <path d="M 29.223562 315.825354 
L 29.223562 19.634646 
" style="fill:none;stroke:#000000;stroke-linecap:square;stroke-linejoin:miter;"/>
   </g>
   <g id="patch_4">
    <path d="M 29.223562 315.825354 
L 457.965354 315.825354 
" style="fill:none;stroke:#000000;stroke-linecap:square;stroke-linejoin:miter;"/>
   </g>
   <g id="line2d_21">
    <path clip-path="url(#p8a6e7ba96a)" d="M 41.357763 255.244633 
L 43.390293 212.365327 
L 45.422823 211.659612 
L 47.455352 217.179912 
L 49.487882 215.212895 
L 51.520411 222.003173 
L 53.552941 210.490476 
L 55.585471 214.060539 
L 57.618 210.307653 
L 59.65053 224.464645 
L 61.683059 209.393664 
L 63.715589 212.172461 
L 65.748118 209.969405 
L 67.780648 213.485441 
L 69.813178 206.929062 
L 71.845707 220.8015 
L 73.878237 205.674206 
L 75.910766 214.956033 
L 77.943296 205.732063 
L 79.975826 213.934131 
L 82.008355 205.764731 
L 84.040885 215.63657 
L 86.073414 205.70319 
L 88.105944 209.814185 
L 90.138474 205.850189 
L 92.171003 218.350046 
L 94.203533 205.391568 
L 96.236062 205.769275 
L 98.268592 204.176694 
L 100.301122 210.224369 
L 102.333651 202.249976 
L 104.366181 209.002319 
L 106.39871 201.59798 
L 108.43124 216.192698 
L 110.46377 208.385181 
L 112.496299 213.552299 
L 114.528829 208.915311 
L 116.561358 208.597484 
L 118.593888 174.157592 
L 120.626418 177.468744 
L 122.658947 164.679846 
L 124.691477 175.384442 
L 126.724006 146.807477 
L 128.756536 162.79902 
L 130.789066 133.271281 
L 132.821595 155.14371 
L 134.854125 127.220659 
L 136.886654 122.198206 
L 138.919184 104.292677 
L 140.951713 123.538513 
L 142.984243 108.574799 
L 145.016773 117.716777 
L 147.049302 115.154016 
L 149.081832 105.30686 
L 151.114361 107.975266 
L 153.146891 100.466856 
L 155.179421 99.232251 
L 157.21195 109.912896 
L 159.24448 108.019846 
L 161.277009 98.572209 
L 163.309539 94.587788 
L 165.342069 107.767795 
L 167.374598 87.626804 
L 169.407128 97.343786 
L 171.439657 91.891657 
L 173.472187 98.571788 
L 175.504717 85.507396 
L 179.569776 71.9008 
L 181.602305 76.879335 
L 183.634835 79.024628 
L 185.667365 74.404447 
L 187.699894 75.805529 
L 189.732424 71.542485 
L 191.764953 79.088015 
L 193.797483 73.590884 
L 195.830013 71.07312 
L 197.862542 83.059224 
L 199.895072 86.066637 
L 201.927601 76.166117 
L 203.960131 82.643492 
L 205.992661 69.398111 
L 208.02519 77.109384 
L 210.05772 74.023574 
L 212.090249 74.685762 
L 214.122779 73.611559 
L 216.155308 67.200644 
L 218.187838 65.42661 
L 220.220368 65.655448 
L 222.252897 64.750684 
L 224.285427 63.561713 
L 226.317956 59.469876 
L 228.350486 64.559243 
L 230.383016 58.707001 
L 232.415545 66.871989 
L 234.448075 66.794805 
L 236.480604 59.538889 
L 238.513134 59.628778 
L 240.545664 60.334761 
L 242.578193 58.856262 
L 244.610723 60.5452 
L 246.643252 61.867541 
L 248.675782 61.653552 
L 250.708312 60.511237 
L 252.740841 59.109719 
L 254.773371 62.792584 
L 256.8059 52.978068 
L 258.83843 56.354504 
L 260.87096 56.882195 
L 262.903489 52.779232 
L 264.936019 55.37464 
L 266.968548 49.047308 
L 269.001078 49.527852 
L 271.033608 48.308383 
L 273.066137 52.335964 
L 275.098667 55.861614 
L 277.131196 46.165973 
L 279.163726 47.645255 
L 283.228785 47.712492 
L 285.261315 50.601491 
L 287.293844 47.084617 
L 289.326374 46.554871 
L 291.358903 51.917354 
L 293.391433 47.736479 
L 295.423963 51.359338 
L 297.456492 47.023816 
L 299.489022 60.017477 
L 301.521551 40.339538 
L 303.554081 47.105528 
L 305.586611 40.510144 
L 307.61914 34.452233 
L 309.65167 41.521575 
L 311.684199 38.12414 
L 313.716729 41.157961 
L 315.749259 44.935369 
L 317.781788 46.702205 
L 321.846847 39.316853 
L 323.879377 118.036398 
L 325.911907 123.718626 
L 327.944436 42.869546 
L 329.976966 40.976224 
L 332.009495 39.67432 
L 334.042025 38.826015 
L 336.074555 42.137138 
L 338.107084 38.498922 
L 340.139614 41.761412 
L 342.172143 39.247243 
L 344.204673 41.764117 
L 346.237203 40.330892 
L 348.269732 42.90851 
L 350.302262 42.3467 
L 352.334791 43.495611 
L 354.367321 125.768711 
L 356.39985 42.181564 
L 358.43238 41.147377 
L 360.46491 43.595225 
L 362.497439 39.743955 
L 364.529969 36.283311 
L 366.562498 36.068787 
L 368.595028 36.071516 
L 370.627558 35.35389 
L 372.660087 44.935825 
L 374.692617 35.340942 
L 376.725146 41.674316 
L 378.757676 35.36882 
L 380.790206 40.117909 
L 382.822735 35.834606 
L 384.855265 43.039 
L 386.887794 34.263519 
L 388.920324 37.174336 
L 390.952854 37.084871 
L 392.985383 34.558648 
L 395.017913 34.86869 
L 397.050442 40.346444 
L 399.082972 36.01334 
L 403.148031 38.437974 
L 405.180561 44.928245 
L 407.21309 36.242465 
L 409.24562 38.819795 
L 411.27815 38.759728 
L 413.310679 34.330215 
L 415.343209 35.86525 
L 417.375738 36.497966 
L 419.408268 36.171366 
L 421.440798 117.110703 
L 423.473327 34.042621 
L 425.505857 36.018503 
L 427.538386 34.114891 
L 429.570916 37.64395 
L 431.603445 34.463103 
L 433.635975 125.227409 
L 435.668505 34.464998 
L 437.701034 35.276822 
L 439.733564 154.772091 
L 441.766093 41.468595 
L 443.798623 160.431332 
L 445.831153 41.108651 
L 445.831153 41.108651 
" style="fill:none;stroke:#3ea44e;"/>
   </g>
   <g id="text_11">
    <!-- Elite Fitness -->
    <g transform="translate(201.761802 13.634646)scale(0.14 -0.14)">
     <defs>
      <path d="M 9.8125 72.90625 
L 55.90625 72.90625 
L 55.90625 64.59375 
L 19.671875 64.59375 
L 19.671875 43.015625 
L 54.390625 43.015625 
L 54.390625 34.71875 
L 19.671875 34.71875 
L 19.671875 8.296875 
L 56.78125 8.296875 
L 56.78125 0 
L 9.8125 0 
z
" id="DejaVuSans-69"/>
      <path d="M 9.421875 75.984375 
L 18.40625 75.984375 
L 18.40625 0 
L 9.421875 0 
z
" id="DejaVuSans-108"/>
      <path id="DejaVuSans-32"/>
      <path d="M 9.8125 72.90625 
L 51.703125 72.90625 
L 51.703125 64.59375 
L 19.671875 64.59375 
L 19.671875 43.109375 
L 48.578125 43.109375 
L 48.578125 34.8125 
L 19.671875 34.8125 
L 19.671875 0 
L 9.8125 0 
z
" id="DejaVuSans-70"/>
      <path d="M 44.28125 53.078125 
L 44.28125 44.578125 
Q 40.484375 46.53125 36.375 47.5 
Q 32.28125 48.484375 27.875 48.484375 
Q 21.1875 48.484375 17.84375 46.4375 
Q 14.5 44.390625 14.5 40.28125 
Q 14.5 37.15625 16.890625 35.375 
Q 19.28125 33.59375 26.515625 31.984375 
L 29.59375 31.296875 
Q 39.15625 29.25 43.1875 25.515625 
Q 47.21875 21.78125 47.21875 15.09375 
Q 47.21875 7.46875 41.1875 3.015625 
Q 35.15625 -1.421875 24.609375 -1.421875 
Q 20.21875 -1.421875 15.453125 -0.5625 
Q 10.6875 0.296875 5.421875 2 
L 5.421875 11.28125 
Q 10.40625 8.6875 15.234375 7.390625 
Q 20.0625 6.109375 24.8125 6.109375 
Q 31.15625 6.109375 34.5625 8.28125 
Q 37.984375 10.453125 37.984375 14.40625 
Q 37.984375 18.0625 35.515625 20.015625 
Q 33.0625 21.96875 24.703125 23.78125 
L 21.578125 24.515625 
Q 13.234375 26.265625 9.515625 29.90625 
Q 5.8125 33.546875 5.8125 39.890625 
Q 5.8125 47.609375 11.28125 51.796875 
Q 16.75 56 26.8125 56 
Q 31.78125 56 36.171875 55.265625 
Q 40.578125 54.546875 44.28125 53.078125 
z
" id="DejaVuSans-115"/>
     </defs>
     <use xlink:href="#DejaVuSans-69"/>
     <use x="63.183594" xlink:href="#DejaVuSans-108"/>
     <use x="90.966797" xlink:href="#DejaVuSans-105"/>
     <use x="118.75" xlink:href="#DejaVuSans-116"/>
     <use x="157.958984" xlink:href="#DejaVuSans-101"/>
     <use x="219.482422" xlink:href="#DejaVuSans-32"/>
     <use x="251.269531" xlink:href="#DejaVuSans-70"/>
     <use x="301.539062" xlink:href="#DejaVuSans-105"/>
     <use x="329.322266" xlink:href="#DejaVuSans-116"/>
     <use x="368.53125" xlink:href="#DejaVuSans-110"/>
     <use x="431.910156" xlink:href="#DejaVuSans-101"/>
     <use x="493.433594" xlink:href="#DejaVuSans-115"/>
     <use x="545.533203" xlink:href="#DejaVuSans-115"/>
    </g>
   </g>
   <g id="line2d_22">
    <path clip-path="url(#p8a6e7ba96a)" d="M 41.357763 255.273537 
L 43.390293 216.426863 
L 45.422823 212.062396 
L 47.455352 222.841311 
L 49.487882 216.378523 
L 51.520411 222.129316 
L 53.552941 213.295645 
L 55.585471 218.313749 
L 57.618 211.99015 
L 59.65053 225.288667 
L 61.683059 209.428193 
L 63.715589 212.760133 
L 65.748118 210.136261 
L 67.780648 215.813741 
L 69.813178 207.045948 
L 71.845707 221.200251 
L 73.878237 205.703404 
L 75.910766 217.416508 
L 77.943296 205.764947 
L 79.975826 214.494751 
L 82.008355 205.802166 
L 84.040885 215.831566 
L 86.073414 205.839162 
L 88.105944 213.659523 
L 90.138474 206.402548 
L 92.171003 218.765191 
L 94.203533 206.39638 
L 96.236062 210.633134 
L 98.268592 204.18186 
L 100.301122 212.695889 
L 102.333651 202.250581 
L 104.366181 209.158995 
L 106.39871 201.632146 
L 108.43124 218.113784 
L 110.46377 208.395285 
L 112.496299 216.142462 
L 114.528829 209.199672 
L 116.561358 209.812572 
L 118.593888 174.432264 
L 120.626418 180.066441 
L 122.658947 168.340793 
L 124.691477 181.005643 
L 126.724006 153.583074 
L 128.756536 175.026374 
L 130.789066 147.791073 
L 132.821595 160.331835 
L 134.854125 129.947987 
L 136.886654 129.124172 
L 138.919184 117.506115 
L 140.951713 123.902122 
L 142.984243 113.100439 
L 145.016773 119.245785 
L 147.049302 115.848086 
L 149.081832 106.017264 
L 151.114361 108.597738 
L 153.146891 105.719528 
L 155.179421 100.989333 
L 157.21195 110.022895 
L 159.24448 108.102201 
L 161.277009 101.06492 
L 163.309539 99.383675 
L 165.342069 109.815916 
L 167.374598 89.082074 
L 169.407128 99.82154 
L 171.439657 92.997817 
L 173.472187 99.455145 
L 175.504717 86.789712 
L 177.537246 82.764874 
L 179.569776 77.317458 
L 181.602305 91.436781 
L 185.667365 75.613949 
L 187.699894 76.502994 
L 189.732424 72.070012 
L 191.764953 79.845688 
L 193.797483 73.82261 
L 195.830013 73.784512 
L 197.862542 83.151771 
L 199.895072 86.085197 
L 201.927601 77.951844 
L 203.960131 85.377722 
L 205.992661 76.001414 
L 208.02519 80.772273 
L 210.05772 75.474753 
L 212.090249 78.914013 
L 214.122779 75.309487 
L 216.155308 67.734088 
L 218.187838 68.318065 
L 220.220368 68.296481 
L 222.252897 64.792315 
L 224.285427 64.17567 
L 226.317956 64.484796 
L 228.350486 64.657695 
L 230.383016 63.450155 
L 232.415545 72.212397 
L 234.448075 68.449079 
L 236.480604 59.823122 
L 238.513134 60.812688 
L 240.545664 60.442558 
L 242.578193 62.567834 
L 244.610723 61.846207 
L 246.643252 64.082844 
L 248.675782 63.255628 
L 250.708312 62.284319 
L 252.740841 71.310394 
L 254.773371 63.332222 
L 256.8059 53.650504 
L 258.83843 59.795776 
L 260.87096 57.746424 
L 262.903489 54.008571 
L 264.936019 58.764918 
L 266.968548 51.083638 
L 271.033608 49.870277 
L 273.066137 52.438317 
L 275.098667 119.541245 
L 277.131196 47.675314 
L 279.163726 53.077218 
L 281.196256 49.575818 
L 283.228785 47.854098 
L 285.261315 143.29581 
L 287.293844 49.527404 
L 289.326374 46.925368 
L 291.358903 54.843438 
L 293.391433 51.310984 
L 295.423963 52.73484 
L 297.456492 47.392552 
L 299.489022 109.949259 
L 301.521551 46.547557 
L 303.554081 49.603181 
L 305.586611 41.480452 
L 307.61914 40.921162 
L 309.65167 41.588276 
L 311.684199 38.770504 
L 313.716729 43.806305 
L 315.749259 45.420879 
L 317.781788 48.22351 
L 319.814318 43.870643 
L 321.846847 40.303251 
L 323.879377 141.293156 
L 325.911907 143.957694 
L 327.944436 46.623397 
L 329.976966 42.133734 
L 332.009495 44.867217 
L 334.042025 41.166499 
L 336.074555 42.821697 
L 338.107084 43.864659 
L 340.139614 41.91677 
L 342.172143 39.418531 
L 344.204673 45.940879 
L 346.237203 44.932657 
L 348.269732 169.200464 
L 350.302262 139.195826 
L 352.334791 45.343819 
L 354.367321 156.811737 
L 356.39985 44.842449 
L 358.43238 42.707545 
L 360.46491 44.032438 
L 362.497439 40.051774 
L 364.529969 37.291217 
L 366.562498 36.491454 
L 368.595028 38.432468 
L 370.627558 37.168693 
L 372.660087 156.577895 
L 374.692617 36.071222 
L 376.725146 45.731678 
L 378.757676 36.194019 
L 380.790206 40.574704 
L 382.822735 35.886518 
L 384.855265 44.741119 
L 386.887794 37.223976 
L 388.920324 38.629386 
L 390.952854 37.382294 
L 392.985383 34.819448 
L 395.017913 36.588892 
L 397.050442 42.926304 
L 399.082972 36.273593 
L 401.115502 39.576834 
L 403.148031 39.511174 
L 405.180561 111.00186 
L 407.21309 36.639075 
L 409.24562 39.288597 
L 411.27815 39.194977 
L 413.310679 37.272666 
L 415.343209 37.107903 
L 417.375738 36.622853 
L 419.408268 38.180035 
L 421.440798 131.048197 
L 423.473327 34.323404 
L 425.505857 36.593758 
L 427.538386 34.285746 
L 429.570916 39.302722 
L 431.603445 35.113431 
L 433.635975 167.640113 
L 435.668505 35.40808 
L 437.701034 124.473014 
L 439.733564 159.544613 
L 441.766093 129.561238 
L 443.798623 164.771787 
L 445.831153 46.07831 
L 445.831153 46.07831 
" style="fill:none;stroke:#c371d2;"/>
   </g>
   <g id="line2d_23">
    <path clip-path="url(#p8a6e7ba96a)" d="M 41.357763 255.328405 
L 43.390293 218.530496 
L 45.422823 212.085221 
L 47.455352 225.499932 
L 49.487882 216.848699 
L 51.520411 222.794651 
L 53.552941 213.44588 
L 55.585471 218.96221 
L 57.618 214.051412 
L 59.65053 227.152927 
L 61.683059 209.656709 
L 63.715589 221.992819 
L 65.748118 210.212491 
L 67.780648 221.181835 
L 69.813178 207.083823 
L 71.845707 222.068381 
L 73.878237 205.830438 
L 75.910766 221.658993 
L 77.943296 205.800456 
L 79.975826 219.131589 
L 82.008355 205.881853 
L 84.040885 217.464634 
L 86.073414 205.882443 
L 88.105944 215.990839 
L 90.138474 206.439165 
L 92.171003 220.30951 
L 94.203533 206.407624 
L 96.236062 215.284327 
L 98.268592 204.194397 
L 100.301122 214.683517 
L 102.333651 202.298427 
L 104.366181 213.251589 
L 106.39871 201.709025 
L 108.43124 218.637693 
L 110.46377 208.428696 
L 112.496299 216.731682 
L 114.528829 209.274255 
L 116.561358 211.264659 
L 118.593888 184.00731 
L 120.626418 190.338216 
L 122.658947 168.535142 
L 124.691477 185.874049 
L 126.724006 159.716655 
L 128.756536 175.841075 
L 130.789066 155.755916 
L 132.821595 165.699418 
L 134.854125 132.148541 
L 136.886654 135.385952 
L 138.919184 118.348109 
L 140.951713 130.990041 
L 142.984243 113.700334 
L 145.016773 121.043036 
L 147.049302 119.661466 
L 149.081832 107.368887 
L 151.114361 109.535 
L 155.179421 103.322683 
L 157.21195 112.070136 
L 159.24448 109.27109 
L 161.277009 106.199714 
L 163.309539 101.824891 
L 165.342069 113.012911 
L 167.374598 93.824222 
L 169.407128 100.648545 
L 171.439657 93.640456 
L 173.472187 101.802663 
L 175.504717 92.161437 
L 177.537246 84.462579 
L 179.569776 78.284061 
L 181.602305 92.794816 
L 183.634835 88.159375 
L 185.667365 84.138871 
L 187.699894 90.424936 
L 189.732424 77.236233 
L 191.764953 81.163142 
L 193.797483 85.576394 
L 195.830013 83.313744 
L 197.862542 83.263229 
L 199.895072 86.778263 
L 201.927601 83.941119 
L 203.960131 88.618751 
L 205.992661 80.652154 
L 208.02519 84.671207 
L 210.05772 77.838966 
L 212.090249 80.847326 
L 214.122779 80.74406 
L 216.155308 69.169327 
L 218.187838 70.133205 
L 220.220368 69.661684 
L 222.252897 65.786879 
L 224.285427 65.603598 
L 226.317956 69.955554 
L 228.350486 70.063013 
L 230.383016 64.789435 
L 232.415545 78.095208 
L 234.448075 69.158705 
L 236.480604 61.764657 
L 238.513134 61.340685 
L 240.545664 63.258681 
L 242.578193 62.696563 
L 244.610723 62.370762 
L 246.643252 67.670569 
L 248.675782 72.321543 
L 250.708312 67.543442 
L 252.740841 75.810849 
L 254.773371 63.808682 
L 256.8059 55.655086 
L 258.83843 65.769918 
L 260.87096 57.921183 
L 262.903489 55.241948 
L 264.936019 61.25376 
L 266.968548 51.453187 
L 271.033608 51.156317 
L 273.066137 55.240772 
L 275.098667 134.465372 
L 277.131196 48.060588 
L 279.163726 56.062818 
L 281.196256 49.907862 
L 283.228785 48.122521 
L 285.261315 179.627696 
L 287.293844 50.459995 
L 289.326374 48.562387 
L 291.358903 55.117299 
L 293.391433 51.454796 
L 295.423963 59.010299 
L 297.456492 48.176458 
L 299.489022 161.172126 
L 301.521551 54.618615 
L 303.554081 128.937899 
L 305.586611 44.306128 
L 307.61914 41.027306 
L 309.65167 52.918368 
L 311.684199 39.125794 
L 313.716729 46.274502 
L 315.749259 48.253415 
L 317.781788 137.013959 
L 319.814318 44.828822 
L 321.846847 44.688577 
L 323.879377 157.52174 
L 325.911907 181.475553 
L 327.944436 52.881798 
L 329.976966 42.959108 
L 332.009495 52.421013 
L 334.042025 41.616821 
L 336.074555 46.458164 
L 338.107084 121.760873 
L 340.139614 48.787575 
L 342.172143 40.151023 
L 344.204673 47.524293 
L 346.237203 46.157925 
L 348.269732 172.137756 
L 350.302262 152.738778 
L 352.334791 49.9594 
L 354.367321 168.283205 
L 356.39985 53.173054 
L 358.43238 46.25877 
L 360.46491 44.243273 
L 362.497439 41.264082 
L 364.529969 39.98335 
L 366.562498 36.997901 
L 368.595028 38.818024 
L 370.627558 39.024782 
L 372.660087 184.511212 
L 374.692617 36.097052 
L 376.725146 51.54858 
L 378.757676 38.282044 
L 380.790206 43.298212 
L 382.822735 36.032462 
L 384.855265 206.295451 
L 386.887794 39.129748 
L 388.920324 176.976816 
L 390.952854 38.784081 
L 392.985383 35.578376 
L 395.017913 36.994246 
L 397.050442 142.408957 
L 399.082972 38.841105 
L 401.115502 39.596699 
L 403.148031 134.805781 
L 405.180561 176.953112 
L 407.21309 38.227128 
L 409.24562 39.613407 
L 411.27815 39.919358 
L 413.310679 39.40313 
L 415.343209 37.952043 
L 417.375738 36.802098 
L 419.408268 43.184301 
L 421.440798 175.011783 
L 423.473327 36.243636 
L 425.505857 109.165099 
L 427.538386 34.858607 
L 429.570916 126.3765 
L 431.603445 150.188864 
L 433.635975 168.72848 
L 435.668505 38.063772 
L 437.701034 244.928999 
L 439.733564 167.102085 
L 441.766093 140.435224 
L 443.798623 220.034747 
L 445.831153 46.877779 
L 445.831153 46.877779 
" style="fill:none;stroke:#ac8e18;"/>
   </g>
   <g id="line2d_24">
    <path clip-path="url(#p8a6e7ba96a)" d="M 41.357763 255.343209 
L 43.390293 219.090166 
L 45.422823 212.158343 
L 47.455352 226.793146 
L 49.487882 216.912466 
L 51.520411 223.993279 
L 53.552941 214.034415 
L 55.585471 224.458151 
L 57.618 214.051417 
L 59.65053 227.240728 
L 61.683059 209.670286 
L 63.715589 221.997361 
L 65.748118 210.71466 
L 67.780648 222.768794 
L 69.813178 207.326837 
L 71.845707 222.95006 
L 73.878237 205.929233 
L 75.910766 222.82344 
L 77.943296 205.860109 
L 79.975826 219.210458 
L 82.008355 206.475503 
L 84.040885 218.148652 
L 86.073414 206.393006 
L 88.105944 218.965055 
L 90.138474 206.460343 
L 92.171003 221.123714 
L 94.203533 206.442263 
L 96.236062 218.158827 
L 98.268592 204.248208 
L 100.301122 216.908812 
L 102.333651 202.439216 
L 104.366181 213.726262 
L 106.39871 201.763068 
L 108.43124 222.100795 
L 110.46377 208.64154 
L 112.496299 219.181173 
L 114.528829 209.275514 
L 116.561358 214.811136 
L 118.593888 198.504025 
L 120.626418 213.253197 
L 122.658947 171.727099 
L 124.691477 187.774408 
L 126.724006 159.863329 
L 128.756536 175.927988 
L 130.789066 163.893178 
L 132.821595 167.664046 
L 134.854125 137.45654 
L 136.886654 138.925776 
L 138.919184 118.658666 
L 140.951713 131.12508 
L 142.984243 115.137625 
L 145.016773 124.394919 
L 147.049302 122.310233 
L 149.081832 112.336416 
L 151.114361 111.314358 
L 153.146891 112.864241 
L 155.179421 104.865874 
L 157.21195 112.285315 
L 159.24448 110.689326 
L 161.277009 107.446937 
L 163.309539 106.083648 
L 165.342069 118.642224 
L 167.374598 94.543956 
L 169.407128 107.773325 
L 171.439657 93.712164 
L 173.472187 103.85856 
L 175.504717 92.701627 
L 177.537246 90.1406 
L 179.569776 81.444908 
L 181.602305 116.208245 
L 183.634835 102.741266 
L 185.667365 84.943022 
L 187.699894 97.181332 
L 189.732424 80.295947 
L 191.764953 84.495415 
L 193.797483 88.22147 
L 195.830013 84.102173 
L 197.862542 83.7482 
L 199.895072 87.693224 
L 201.927601 84.932348 
L 203.960131 95.68088 
L 205.992661 84.152836 
L 208.02519 93.947797 
L 210.05772 83.207121 
L 212.090249 84.237196 
L 214.122779 83.315089 
L 216.155308 70.184722 
L 218.187838 70.630243 
L 220.220368 78.684963 
L 222.252897 66.274007 
L 224.285427 77.950999 
L 226.317956 73.283614 
L 228.350486 72.287089 
L 230.383016 66.705349 
L 232.415545 78.184502 
L 234.448075 69.179571 
L 236.480604 63.191543 
L 238.513134 65.179555 
L 240.545664 63.527866 
L 242.578193 65.907768 
L 244.610723 63.156309 
L 246.643252 72.448427 
L 248.675782 72.588871 
L 250.708312 170.768925 
L 252.740841 213.169503 
L 254.773371 64.316269 
L 256.8059 59.583193 
L 258.83843 67.182721 
L 260.87096 58.607082 
L 262.903489 55.40688 
L 264.936019 63.33678 
L 266.968548 53.026696 
L 269.001078 54.136295 
L 271.033608 56.178858 
L 273.066137 55.690463 
L 275.098667 155.296739 
L 277.131196 49.919789 
L 279.163726 182.253739 
L 281.196256 50.642038 
L 283.228785 50.194895 
L 285.261315 194.219505 
L 287.293844 135.351828 
L 289.326374 108.339356 
L 291.358903 57.797465 
L 293.391433 51.575477 
L 295.423963 143.606281 
L 297.456492 51.491757 
L 299.489022 196.028304 
L 303.554081 137.192203 
L 305.586611 44.411943 
L 307.61914 42.935488 
L 309.65167 132.491744 
L 311.684199 40.641703 
L 313.716729 126.901469 
L 315.749259 49.242488 
L 317.781788 154.753795 
L 319.814318 48.778275 
L 321.846847 44.81535 
L 323.879377 169.175629 
L 325.911907 193.549878 
L 327.944436 170.451839 
L 329.976966 43.63249 
L 332.009495 112.243347 
L 334.042025 43.765454 
L 336.074555 48.764039 
L 338.107084 122.772411 
L 340.139614 130.893492 
L 342.172143 40.252753 
L 344.204673 47.731574 
L 348.269732 200.335842 
L 350.302262 182.355878 
L 352.334791 162.344823 
L 354.367321 221.728729 
L 356.39985 129.716878 
L 358.43238 134.817007 
L 360.46491 45.992335 
L 362.497439 41.565539 
L 364.529969 40.49889 
L 366.562498 37.126806 
L 368.595028 40.088832 
L 370.627558 40.52861 
L 372.660087 196.140814 
L 374.692617 37.226778 
L 376.725146 141.080694 
L 378.757676 40.129725 
L 380.790206 44.424554 
L 382.822735 37.365091 
L 384.855265 222.450002 
L 386.887794 50.79155 
L 388.920324 190.245752 
L 390.952854 161.552614 
L 392.985383 35.900991 
L 395.017913 178.822244 
L 397.050442 183.134286 
L 399.082972 45.641471 
L 401.115502 112.655211 
L 403.148031 136.290827 
L 405.180561 213.048719 
L 407.21309 39.419556 
L 409.24562 164.736804 
L 411.27815 42.285959 
L 413.310679 48.90826 
L 415.343209 154.57012 
L 417.375738 38.626976 
L 419.408268 137.713023 
L 421.440798 192.850265 
L 423.473327 163.830874 
L 425.505857 169.374913 
L 427.538386 35.448172 
L 429.570916 167.093195 
L 431.603445 154.401283 
L 433.635975 199.580749 
L 435.668505 200.569366 
L 437.701034 251.275212 
L 439.733564 223.692174 
L 441.766093 223.582996 
L 443.798623 236.534857 
L 445.831153 156.23245 
L 445.831153 156.23245 
" style="fill:none;stroke:#00aaae;"/>
   </g>
   <g id="line2d_25">
    <path clip-path="url(#p8a6e7ba96a)" d="M 41.357763 255.349275 
L 43.390293 223.077856 
L 45.422823 212.298629 
L 47.455352 226.836394 
L 49.487882 216.913255 
L 51.520411 224.437372 
L 53.552941 217.414027 
L 55.585471 228.097339 
L 57.618 214.06008 
L 59.65053 229.26891 
L 61.683059 209.690599 
L 63.715589 226.420862 
L 65.748118 210.758137 
L 67.780648 225.077313 
L 69.813178 207.939439 
L 71.845707 224.855314 
L 73.878237 206.427253 
L 75.910766 223.936332 
L 77.943296 205.869309 
L 79.975826 222.756708 
L 82.008355 206.506631 
L 84.040885 219.207164 
L 86.073414 206.46276 
L 88.105944 221.270399 
L 90.138474 206.463127 
L 92.171003 221.158823 
L 94.203533 206.549794 
L 96.236062 218.335874 
L 98.268592 204.258509 
L 100.301122 220.00378 
L 102.333651 202.76408 
L 104.366181 214.558275 
L 106.39871 201.975016 
L 108.43124 222.805748 
L 110.46377 209.056963 
L 112.496299 221.830441 
L 114.528829 209.358238 
L 116.561358 215.532334 
L 118.593888 200.052079 
L 120.626418 218.31876 
L 122.658947 174.835324 
L 124.691477 218.399307 
L 126.724006 162.825643 
L 128.756536 177.76458 
L 130.789066 170.121134 
L 132.821595 173.104733 
L 134.854125 138.461097 
L 136.886654 143.761201 
L 138.919184 120.791752 
L 140.951713 131.507103 
L 142.984243 122.918645 
L 145.016773 131.703806 
L 147.049302 128.843767 
L 149.081832 125.48279 
L 151.114361 119.480439 
L 153.146891 114.540757 
L 155.179421 106.431909 
L 157.21195 116.349427 
L 159.24448 118.448084 
L 161.277009 108.623697 
L 163.309539 216.916667 
L 165.342069 120.484886 
L 167.374598 95.187181 
L 169.407128 108.333219 
L 171.439657 94.100859 
L 173.472187 104.07299 
L 175.504717 96.672827 
L 179.569776 83.949947 
L 181.602305 189.650272 
L 183.634835 177.847608 
L 185.667365 87.200509 
L 187.699894 135.825146 
L 189.732424 81.698593 
L 191.764953 92.160143 
L 193.797483 92.143395 
L 195.830013 85.007821 
L 197.862542 93.04606 
L 199.895072 88.641436 
L 201.927601 86.702578 
L 203.960131 102.836094 
L 205.992661 233.861914 
L 208.02519 192.755178 
L 210.05772 85.552762 
L 212.090249 85.77819 
L 214.122779 90.802847 
L 216.155308 75.884233 
L 218.187838 70.918092 
L 220.220368 83.09592 
L 222.252897 66.654283 
L 224.285427 173.373547 
L 226.317956 73.740923 
L 228.350486 74.585723 
L 230.383016 68.57398 
L 232.415545 84.880619 
L 234.448075 69.803915 
L 236.480604 63.734336 
L 238.513134 74.286464 
L 240.545664 66.778077 
L 242.578193 69.236422 
L 244.610723 68.796099 
L 246.643252 81.86066 
L 248.675782 73.856728 
L 250.708312 172.534553 
L 252.740841 241.45965 
L 254.773371 64.458256 
L 256.8059 59.698947 
L 258.83843 72.56004 
L 260.87096 58.991813 
L 262.903489 55.9478 
L 264.936019 63.484119 
L 266.968548 56.126184 
L 269.001078 59.164687 
L 271.033608 56.361598 
L 273.066137 61.889819 
L 275.098667 188.301709 
L 277.131196 138.309006 
L 279.163726 198.756991 
L 281.196256 50.912579 
L 283.228785 52.565796 
L 285.261315 203.555794 
L 287.293844 185.091727 
L 289.326374 127.631846 
L 291.358903 169.403553 
L 293.391433 54.207763 
L 295.423963 179.542726 
L 297.456492 191.942768 
L 299.489022 213.25106 
L 301.521551 239.054363 
L 303.554081 236.335968 
L 305.586611 48.702371 
L 307.61914 46.434958 
L 309.65167 140.349653 
L 311.684199 42.978661 
L 313.716729 155.030829 
L 315.749259 50.39036 
L 317.781788 154.768114 
L 319.814318 49.69613 
L 321.846847 47.255005 
L 323.879377 186.706781 
L 325.911907 230.162002 
L 327.944436 203.678576 
L 329.976966 43.856587 
L 332.009495 124.007104 
L 334.042025 46.769955 
L 336.074555 134.179177 
L 338.107084 184.967335 
L 340.139614 228.404881 
L 342.172143 45.622782 
L 344.204673 141.260482 
L 346.237203 124.753346 
L 348.269732 202.878438 
L 350.302262 220.41849 
L 352.334791 226.757263 
L 354.367321 243.308995 
L 356.39985 173.530108 
L 358.43238 197.519269 
L 360.46491 47.947465 
L 362.497439 45.403045 
L 364.529969 42.243411 
L 366.562498 37.995947 
L 368.595028 41.022686 
L 370.627558 172.539479 
L 372.660087 205.82022 
L 374.692617 38.249271 
L 376.725146 157.414916 
L 378.757676 40.561988 
L 380.790206 45.743635 
L 382.822735 37.384014 
L 384.855265 252.554892 
L 386.887794 134.050624 
L 388.920324 207.608644 
L 390.952854 193.472598 
L 392.985383 36.519256 
L 395.017913 188.635067 
L 397.050442 190.015689 
L 399.082972 46.497809 
L 401.115502 126.379396 
L 405.180561 228.644778 
L 407.21309 40.367507 
L 409.24562 165.681769 
L 411.27815 252.988612 
L 413.310679 138.858935 
L 415.343209 157.32913 
L 417.375738 165.298014 
L 419.408268 145.580069 
L 421.440798 195.425429 
L 423.473327 168.680666 
L 425.505857 182.010789 
L 427.538386 36.453387 
L 429.570916 170.470795 
L 431.603445 179.500781 
L 433.635975 212.671608 
L 435.668505 210.68787 
L 437.701034 256.538721 
L 439.733564 249.419148 
L 441.766093 247.141936 
L 443.798623 240.318648 
L 445.831153 156.999624 
L 445.831153 156.999624 
" style="fill:none;stroke:#ed5e93;"/>
   </g>
   <g id="line2d_26">
    <path clip-path="url(#p8a6e7ba96a)" d="M 41.357763 255.395533 
L 43.390293 223.303531 
L 45.422823 213.066205 
L 47.455352 227.792285 
L 49.487882 217.113711 
L 51.520411 224.916947 
L 53.552941 219.218829 
L 55.585471 229.790586 
L 57.618 214.06184 
L 59.65053 230.703472 
L 61.683059 209.714423 
L 63.715589 244.425684 
L 65.748118 211.03993 
L 67.780648 225.449009 
L 69.813178 208.324063 
L 71.845707 225.225309 
L 73.878237 206.957304 
L 75.910766 225.523533 
L 77.943296 206.449363 
L 79.975826 223.49618 
L 82.008355 212.799415 
L 84.040885 219.222969 
L 86.073414 206.513199 
L 88.105944 222.771998 
L 90.138474 206.903927 
L 92.171003 222.956354 
L 94.203533 207.037216 
L 96.236062 219.991907 
L 98.268592 204.306259 
L 100.301122 220.416699 
L 102.333651 202.825137 
L 104.366181 221.304959 
L 106.39871 202.224369 
L 108.43124 223.049878 
L 110.46377 209.146808 
L 112.496299 222.190999 
L 114.528829 209.364792 
L 116.561358 235.361876 
L 118.593888 204.456758 
L 120.626418 223.276434 
L 122.658947 191.345941 
L 124.691477 232.512081 
L 126.724006 165.266781 
L 128.756536 179.927085 
L 130.789066 224.713121 
L 132.821595 256.034738 
L 134.854125 138.680798 
L 136.886654 144.84016 
L 138.919184 123.79406 
L 140.951713 133.693671 
L 142.984243 123.226619 
L 145.016773 137.442139 
L 147.049302 195.987371 
L 149.081832 184.885084 
L 151.114361 120.634292 
L 153.146891 121.568285 
L 155.179421 109.006684 
L 157.21195 125.171714 
L 159.24448 120.314286 
L 161.277009 119.423198 
L 163.309539 218.728682 
L 165.342069 233.990417 
L 167.374598 95.669732 
L 169.407128 114.495705 
L 171.439657 105.86801 
L 173.472187 105.841813 
L 175.504717 250.865613 
L 177.537246 96.169064 
L 179.569776 100.669983 
L 181.602305 217.214402 
L 183.634835 233.887986 
L 185.667365 95.063016 
L 187.699894 208.922664 
L 189.732424 167.69729 
L 191.764953 94.957549 
L 193.797483 99.036204 
L 195.830013 169.315373 
L 197.862542 101.139568 
L 199.895072 89.010631 
L 201.927601 94.222978 
L 203.960131 126.105611 
L 205.992661 246.777797 
L 208.02519 202.729455 
L 210.05772 89.936649 
L 212.090249 91.142786 
L 214.122779 94.960158 
L 216.155308 93.89231 
L 218.187838 71.010929 
L 220.220368 83.507477 
L 222.252897 66.835325 
L 224.285427 226.553713 
L 226.317956 74.840381 
L 228.350486 78.635763 
L 230.383016 70.951196 
L 232.415545 164.188127 
L 234.448075 70.196497 
L 236.480604 65.955464 
L 238.513134 202.014795 
L 240.545664 68.843326 
L 242.578193 69.866771 
L 244.610723 144.62604 
L 246.643252 202.62071 
L 248.675782 160.768686 
L 250.708312 187.341161 
L 252.740841 259.533129 
L 254.773371 65.520217 
L 256.8059 61.967913 
L 258.83843 208.978681 
L 260.87096 59.318532 
L 262.903489 60.190898 
L 264.936019 89.110528 
L 266.968548 57.567313 
L 269.001078 223.427772 
L 271.033608 126.221579 
L 273.066137 142.482211 
L 275.098667 244.688572 
L 277.131196 141.082816 
L 279.163726 226.407672 
L 281.196256 158.87192 
L 283.228785 52.680164 
L 285.261315 226.687943 
L 287.293844 197.327507 
L 289.326374 188.888951 
L 291.358903 170.901686 
L 293.391433 140.341433 
L 295.423963 193.699639 
L 297.456492 194.295738 
L 299.489022 230.991327 
L 301.521551 241.733624 
L 303.554081 242.370997 
L 305.586611 199.924889 
L 307.61914 52.935451 
L 309.65167 153.332772 
L 311.684199 133.011714 
L 313.716729 170.05616 
L 315.749259 144.478551 
L 317.781788 225.842815 
L 319.814318 186.320281 
L 321.846847 158.507108 
L 323.879377 203.02209 
L 325.911907 231.056792 
L 327.944436 263.385729 
L 329.976966 44.217703 
L 332.009495 143.409336 
L 334.042025 165.929956 
L 336.074555 152.748692 
L 338.107084 193.233635 
L 340.139614 242.584106 
L 342.172143 132.49027 
L 344.204673 148.586483 
L 346.237203 136.37146 
L 348.269732 209.11637 
L 350.302262 239.214291 
L 352.334791 227.605484 
L 354.367321 257.89441 
L 356.39985 227.910871 
L 358.43238 255.572764 
L 360.46491 253.524953 
L 362.497439 45.710281 
L 364.529969 42.25057 
L 366.562498 225.645537 
L 368.595028 41.594301 
L 370.627558 239.996848 
L 372.660087 233.588382 
L 374.692617 39.104476 
L 376.725146 171.92103 
L 378.757676 40.948442 
L 380.790206 48.233879 
L 382.822735 41.334652 
L 384.855265 253.71326 
L 386.887794 192.916014 
L 388.920324 225.529826 
L 390.952854 208.403479 
L 392.985383 36.636214 
L 395.017913 226.358716 
L 397.050442 191.251104 
L 399.082972 139.098691 
L 401.115502 183.481245 
L 403.148031 225.384786 
L 405.180561 236.173719 
L 407.21309 100.934746 
L 409.24562 167.161094 
L 411.27815 256.445125 
L 413.310679 171.324347 
L 415.343209 190.862479 
L 417.375738 178.492169 
L 419.408268 236.36079 
L 421.440798 198.412795 
L 423.473327 196.380463 
L 425.505857 208.764373 
L 427.538386 206.664661 
L 429.570916 194.044172 
L 431.603445 244.24233 
L 433.635975 238.401747 
L 435.668505 240.27121 
L 437.701034 258.742018 
L 439.733564 249.853169 
L 441.766093 250.317345 
L 443.798623 247.169025 
L 445.831153 159.265867 
L 445.831153 159.265867 
" style="fill:none;stroke:#c68225;"/>
   </g>
   <g id="line2d_27">
    <path clip-path="url(#p8a6e7ba96a)" d="M 41.357763 255.401684 
L 43.390293 224.963547 
L 45.422823 218.06329 
L 47.455352 229.699422 
L 49.487882 217.574446 
L 51.520411 225.771624 
L 53.552941 219.22411 
L 55.585471 232.392137 
L 57.618 214.064217 
L 59.65053 234.271071 
L 61.683059 210.207609 
L 63.715589 259.202781 
L 65.748118 211.508588 
L 67.780648 227.183082 
L 69.813178 208.681462 
L 71.845707 231.748853 
L 73.878237 207.058973 
L 75.910766 227.986039 
L 77.943296 206.462734 
L 79.975826 223.557714 
L 82.008355 213.217381 
L 84.040885 221.10432 
L 86.073414 207.019408 
L 88.105944 223.370073 
L 90.138474 208.678652 
L 92.171003 226.524112 
L 94.203533 213.877308 
L 96.236062 221.683315 
L 98.268592 204.499888 
L 100.301122 221.006355 
L 102.333651 205.278593 
L 104.366181 222.070671 
L 106.39871 202.326641 
L 108.43124 238.989005 
L 110.46377 212.139002 
L 112.496299 223.70764 
L 114.528829 209.372423 
L 116.561358 243.582749 
L 118.593888 204.482009 
L 122.658947 251.74974 
L 124.691477 278.619035 
L 126.724006 201.557638 
L 128.756536 183.265684 
L 130.789066 226.528226 
L 132.821595 261.915754 
L 134.854125 160.598021 
L 136.886654 232.306528 
L 138.919184 123.88972 
L 140.951713 133.887799 
L 142.984243 257.797306 
L 145.016773 214.280641 
L 147.049302 253.254302 
L 149.081832 202.044279 
L 151.114361 130.63958 
L 153.146891 194.62706 
L 155.179421 195.202475 
L 157.21195 126.153321 
L 159.24448 254.247821 
L 161.277009 204.237109 
L 163.309539 240.254501 
L 165.342069 236.859595 
L 167.374598 125.735498 
L 169.407128 229.385267 
L 171.439657 117.542391 
L 173.472187 106.989501 
L 175.504717 278.969756 
L 177.537246 98.603337 
L 181.602305 226.54148 
L 183.634835 263.966906 
L 185.667365 209.226681 
L 187.699894 243.836874 
L 189.732424 249.544913 
L 191.764953 199.199531 
L 193.797483 264.681128 
L 195.830013 220.721248 
L 197.862542 263.800814 
L 199.895072 253.592492 
L 201.927601 118.735019 
L 203.960131 207.420226 
L 205.992661 255.117286 
L 208.02519 207.835835 
L 210.05772 90.689134 
L 212.090249 98.125725 
L 214.122779 104.593235 
L 216.155308 241.510425 
L 218.187838 71.557806 
L 220.220368 151.170216 
L 222.252897 70.69262 
L 224.285427 232.582274 
L 226.317956 123.803671 
L 228.350486 196.880942 
L 230.383016 151.837566 
L 232.415545 196.758464 
L 234.448075 75.229061 
L 236.480604 186.390768 
L 238.513134 251.982525 
L 240.545664 71.222337 
L 242.578193 74.883374 
L 244.610723 218.089151 
L 246.643252 259.166796 
L 248.675782 213.248376 
L 250.708312 191.751856 
L 252.740841 260.049142 
L 254.773371 66.629928 
L 256.8059 200.206746 
L 258.83843 222.67636 
L 260.87096 158.229392 
L 262.903489 201.705548 
L 264.936019 202.752394 
L 266.968548 57.736737 
L 269.001078 240.775157 
L 271.033608 223.619783 
L 273.066137 143.428421 
L 275.098667 266.478493 
L 277.131196 262.333654 
L 279.163726 229.13523 
L 281.196256 227.889776 
L 283.228785 170.924946 
L 285.261315 228.519517 
L 287.293844 257.630534 
L 289.326374 197.853312 
L 291.358903 224.20321 
L 293.391433 160.539223 
L 295.423963 205.740535 
L 297.456492 206.453177 
L 299.489022 257.236489 
L 301.521551 255.533676 
L 303.554081 245.339636 
L 305.586611 231.509729 
L 309.65167 191.858316 
L 311.684199 228.032863 
L 313.716729 198.084274 
L 315.749259 182.074021 
L 317.781788 227.592036 
L 319.814318 195.689309 
L 321.846847 237.68534 
L 323.879377 218.770665 
L 325.911907 238.817111 
L 327.944436 266.065047 
L 329.976966 46.679128 
L 332.009495 194.273417 
L 334.042025 211.93738 
L 336.074555 159.296307 
L 338.107084 196.468054 
L 340.139614 260.143108 
L 342.172143 193.520005 
L 344.204673 190.729603 
L 346.237203 228.532371 
L 348.269732 230.374018 
L 350.302262 256.233045 
L 352.334791 228.402259 
L 354.367321 263.704235 
L 356.39985 228.849677 
L 358.43238 263.318717 
L 360.46491 255.686342 
L 362.497439 175.996416 
L 364.529969 46.768017 
L 366.562498 257.719395 
L 368.595028 43.327997 
L 370.627558 269.404044 
L 372.660087 255.711237 
L 374.692617 168.708443 
L 376.725146 174.849563 
L 378.757676 47.653583 
L 380.790206 225.293369 
L 382.822735 98.801407 
L 384.855265 260.485115 
L 386.887794 261.831227 
L 388.920324 253.055152 
L 390.952854 225.901595 
L 392.985383 185.775642 
L 395.017913 241.606811 
L 397.050442 253.258066 
L 399.082972 218.310674 
L 401.115502 262.21589 
L 403.148031 244.255743 
L 405.180561 248.404831 
L 407.21309 135.852636 
L 409.24562 169.765239 
L 411.27815 261.450425 
L 413.310679 246.503233 
L 415.343209 244.538793 
L 417.375738 260.968278 
L 419.408268 260.885733 
L 421.440798 201.233979 
L 423.473327 240.107106 
L 425.505857 220.021471 
L 427.538386 227.031438 
L 429.570916 196.022919 
L 431.603445 247.975395 
L 433.635975 238.407009 
L 435.668505 245.017411 
L 437.701034 261.68063 
L 439.733564 270.876538 
L 441.766093 257.16559 
L 443.798623 256.2679 
L 445.831153 180.553524 
L 445.831153 180.553524 
" style="fill:none;stroke:#00a98d;"/>
   </g>
   <g id="line2d_28">
    <path clip-path="url(#p8a6e7ba96a)" d="M 41.357763 255.413655 
L 43.390293 258.718353 
L 45.422823 223.709096 
L 47.455352 242.320615 
L 49.487882 218.287931 
L 51.520411 225.905486 
L 53.552941 219.919865 
L 55.585471 242.00075 
L 57.618 214.073939 
L 59.65053 234.802853 
L 61.683059 210.293848 
L 63.715589 265.183621 
L 65.748118 211.700961 
L 67.780648 227.557523 
L 69.813178 209.21207 
L 71.845707 262.666244 
L 73.878237 207.246015 
L 75.910766 228.125006 
L 77.943296 207.287276 
L 79.975826 226.143871 
L 82.008355 217.516614 
L 84.040885 221.797486 
L 86.073414 207.633131 
L 88.105944 260.710948 
L 90.138474 254.938855 
L 92.171003 227.517801 
L 94.203533 219.771923 
L 96.236062 222.679083 
L 98.268592 204.75661 
L 100.301122 268.744117 
L 102.333651 205.548045 
L 104.366181 272.767967 
L 106.39871 266.86637 
L 108.43124 272.467773 
L 110.46377 262.727568 
L 112.496299 262.717773 
L 114.528829 209.438955 
L 116.561358 252.309209 
L 118.593888 276.551437 
L 120.626418 274.079655 
L 122.658947 267.682613 
L 124.691477 287.039392 
L 126.724006 208.262832 
L 128.756536 189.352966 
L 130.789066 266.12857 
L 132.821595 267.350348 
L 134.854125 258.089139 
L 136.886654 244.532598 
L 138.919184 261.161849 
L 140.951713 166.814617 
L 142.984243 287.452738 
L 145.016773 284.645602 
L 147.049302 266.625267 
L 149.081832 262.023092 
L 151.114361 271.651212 
L 153.146891 254.199345 
L 155.179421 275.132761 
L 157.21195 185.829232 
L 159.24448 307.442598 
L 161.277009 256.579609 
L 163.309539 252.773886 
L 165.342069 277.183937 
L 167.374598 187.393485 
L 169.407128 287.547987 
L 171.439657 224.125532 
L 173.472187 307.064755 
L 175.504717 286.318822 
L 177.537246 100.605513 
L 179.569776 233.341242 
L 181.602305 229.154513 
L 183.634835 288.39295 
L 185.667365 269.085282 
L 187.699894 270.706252 
L 189.732424 251.070065 
L 191.764953 284.209007 
L 193.797483 269.683888 
L 195.830013 249.455822 
L 197.862542 274.838105 
L 199.895072 270.273172 
L 201.927601 205.615763 
L 203.960131 256.814409 
L 205.992661 277.067885 
L 208.02519 267.264484 
L 210.05772 230.396389 
L 212.090249 105.32893 
L 214.122779 280.350594 
L 216.155308 280.710305 
L 218.187838 102.769884 
L 220.220368 268.95109 
L 222.252897 79.425089 
L 224.285427 248.541672 
L 226.317956 222.342006 
L 228.350486 202.290034 
L 230.383016 259.122194 
L 232.415545 248.728292 
L 234.448075 79.512594 
L 236.480604 187.010952 
L 238.513134 254.976774 
L 240.545664 73.422105 
L 242.578193 231.958234 
L 244.610723 225.241698 
L 246.643252 262.297073 
L 248.675782 217.123494 
L 250.708312 215.090882 
L 252.740841 272.510833 
L 254.773371 67.40773 
L 256.8059 226.445616 
L 258.83843 278.976366 
L 260.87096 233.524446 
L 262.903489 234.379154 
L 264.936019 224.756454 
L 266.968548 59.504404 
L 269.001078 249.540267 
L 271.033608 248.667753 
L 273.066137 273.977328 
L 277.131196 267.690177 
L 279.163726 246.942372 
L 281.196256 239.537739 
L 283.228785 249.629754 
L 285.261315 273.268664 
L 287.293844 259.414781 
L 289.326374 234.714144 
L 291.358903 270.468574 
L 293.391433 272.596527 
L 295.423963 213.614972 
L 297.456492 221.838138 
L 299.489022 271.164133 
L 301.521551 265.947394 
L 303.554081 267.028166 
L 305.586611 269.68284 
L 307.61914 259.306535 
L 309.65167 236.80003 
L 311.684199 257.43399 
L 313.716729 249.666519 
L 315.749259 261.291406 
L 317.781788 228.25732 
L 319.814318 257.936872 
L 321.846847 269.003107 
L 323.879377 221.649489 
L 325.911907 257.163233 
L 327.944436 286.435337 
L 329.976966 250.626606 
L 332.009495 265.064436 
L 334.042025 235.50552 
L 336.074555 237.070362 
L 338.107084 252.875313 
L 340.139614 272.08652 
L 342.172143 276.701604 
L 344.204673 252.609041 
L 346.237203 238.952684 
L 348.269732 254.765035 
L 350.302262 258.994582 
L 352.334791 274.190174 
L 354.367321 268.617905 
L 356.39985 258.771921 
L 358.43238 268.97854 
L 360.46491 266.674194 
L 362.497439 208.403356 
L 364.529969 245.510498 
L 366.562498 259.982366 
L 368.595028 238.76962 
L 370.627558 270.062322 
L 372.660087 265.229061 
L 374.692617 210.563074 
L 376.725146 227.145208 
L 378.757676 277.450594 
L 380.790206 263.120839 
L 382.822735 142.098143 
L 384.855265 265.94832 
L 386.887794 268.288762 
L 388.920324 264.380838 
L 390.952854 237.181573 
L 392.985383 202.876898 
L 395.017913 261.395996 
L 397.050442 267.21413 
L 399.082972 251.90808 
L 401.115502 263.606291 
L 403.148031 253.265704 
L 405.180561 253.325408 
L 407.21309 263.16864 
L 409.24562 233.081558 
L 411.27815 265.370524 
L 413.310679 271.133085 
L 415.343209 262.971814 
L 417.375738 274.350055 
L 419.408268 263.147337 
L 421.440798 207.300857 
L 423.473327 242.027151 
L 425.505857 223.795411 
L 427.538386 230.213959 
L 429.570916 263.420396 
L 431.603445 264.476756 
L 433.635975 271.833715 
L 435.668505 264.406351 
L 437.701034 275.045858 
L 439.733564 273.108889 
L 441.766093 263.413822 
L 443.798623 264.736939 
L 445.831153 231.771969 
L 445.831153 231.771969 
" style="fill:none;stroke:#8e971e;"/>
   </g>
   <g id="legend_1">
    <g id="patch_5">
     <path d="M 33.223562 149.859646 
L 83.338562 149.859646 
L 83.338562 23.634646 
L 33.223562 23.634646 
z
" style="fill:#ffffff;stroke:#000000;stroke-linejoin:miter;"/>
    </g>
    <g id="line2d_29">
     <path d="M 39.623562 33.313396 
L 55.623562 33.313396 
" style="fill:none;stroke:#009afa;stroke-linejoin:miter;"/>
    </g>
    <g id="line2d_30"/>
    <g id="text_12">
     <!-- y1 -->
     <g transform="translate(62.023562 36.113396)scale(0.08 -0.08)">
      <defs>
       <path d="M 32.171875 -5.078125 
Q 28.375 -14.84375 24.75 -17.8125 
Q 21.140625 -20.796875 15.09375 -20.796875 
L 7.90625 -20.796875 
L 7.90625 -13.28125 
L 13.1875 -13.28125 
Q 16.890625 -13.28125 18.9375 -11.515625 
Q 21 -9.765625 23.484375 -3.21875 
L 25.09375 0.875 
L 2.984375 54.6875 
L 12.5 54.6875 
L 29.59375 11.921875 
L 46.6875 54.6875 
L 56.203125 54.6875 
z
" id="DejaVuSans-121"/>
      </defs>
      <use xlink:href="#DejaVuSans-121"/>
      <use x="59.179688" xlink:href="#DejaVuSans-49"/>
     </g>
    </g>
    <g id="line2d_31">
     <path d="M 39.623562 45.055896 
L 55.623562 45.055896 
" style="fill:none;stroke:#e36f47;stroke-linejoin:miter;"/>
    </g>
    <g id="line2d_32"/>
    <g id="text_13">
     <!-- y2 -->
     <g transform="translate(62.023562 47.855896)scale(0.08 -0.08)">
      <use xlink:href="#DejaVuSans-121"/>
      <use x="59.179688" xlink:href="#DejaVuSans-50"/>
     </g>
    </g>
    <g id="line2d_33">
     <path d="M 39.623562 56.798396 
L 55.623562 56.798396 
" style="fill:none;stroke:#3ea44e;stroke-linejoin:miter;"/>
    </g>
    <g id="line2d_34"/>
    <g id="text_14">
     <!-- y3 -->
     <g transform="translate(62.023562 59.598396)scale(0.08 -0.08)">
      <defs>
       <path d="M 40.578125 39.3125 
Q 47.65625 37.796875 51.625 33 
Q 55.609375 28.21875 55.609375 21.1875 
Q 55.609375 10.40625 48.1875 4.484375 
Q 40.765625 -1.421875 27.09375 -1.421875 
Q 22.515625 -1.421875 17.65625 -0.515625 
Q 12.796875 0.390625 7.625 2.203125 
L 7.625 11.71875 
Q 11.71875 9.328125 16.59375 8.109375 
Q 21.484375 6.890625 26.8125 6.890625 
Q 36.078125 6.890625 40.9375 10.546875 
Q 45.796875 14.203125 45.796875 21.1875 
Q 45.796875 27.640625 41.28125 31.265625 
Q 36.765625 34.90625 28.71875 34.90625 
L 20.21875 34.90625 
L 20.21875 43.015625 
L 29.109375 43.015625 
Q 36.375 43.015625 40.234375 45.921875 
Q 44.09375 48.828125 44.09375 54.296875 
Q 44.09375 59.90625 40.109375 62.90625 
Q 36.140625 65.921875 28.71875 65.921875 
Q 24.65625 65.921875 20.015625 65.03125 
Q 15.375 64.15625 9.8125 62.3125 
L 9.8125 71.09375 
Q 15.4375 72.65625 20.34375 73.4375 
Q 25.25 74.21875 29.59375 74.21875 
Q 40.828125 74.21875 47.359375 69.109375 
Q 53.90625 64.015625 53.90625 55.328125 
Q 53.90625 49.265625 50.4375 45.09375 
Q 46.96875 40.921875 40.578125 39.3125 
z
" id="DejaVuSans-51"/>
      </defs>
      <use xlink:href="#DejaVuSans-121"/>
      <use x="59.179688" xlink:href="#DejaVuSans-51"/>
     </g>
    </g>
    <g id="line2d_35">
     <path d="M 39.623562 68.540896 
L 55.623562 68.540896 
" style="fill:none;stroke:#c371d2;stroke-linejoin:miter;"/>
    </g>
    <g id="line2d_36"/>
    <g id="text_15">
     <!-- y4 -->
     <g transform="translate(62.023562 71.340896)scale(0.08 -0.08)">
      <defs>
       <path d="M 37.796875 64.3125 
L 12.890625 25.390625 
L 37.796875 25.390625 
z
M 35.203125 72.90625 
L 47.609375 72.90625 
L 47.609375 25.390625 
L 58.015625 25.390625 
L 58.015625 17.1875 
L 47.609375 17.1875 
L 47.609375 0 
L 37.796875 0 
L 37.796875 17.1875 
L 4.890625 17.1875 
L 4.890625 26.703125 
z
" id="DejaVuSans-52"/>
      </defs>
      <use xlink:href="#DejaVuSans-121"/>
      <use x="59.179688" xlink:href="#DejaVuSans-52"/>
     </g>
    </g>
    <g id="line2d_37">
     <path d="M 39.623562 80.283396 
L 55.623562 80.283396 
" style="fill:none;stroke:#ac8e18;stroke-linejoin:miter;"/>
    </g>
    <g id="line2d_38"/>
    <g id="text_16">
     <!-- y5 -->
     <g transform="translate(62.023562 83.083396)scale(0.08 -0.08)">
      <use xlink:href="#DejaVuSans-121"/>
      <use x="59.179688" xlink:href="#DejaVuSans-53"/>
     </g>
    </g>
    <g id="line2d_39">
     <path d="M 39.623562 92.025896 
L 55.623562 92.025896 
" style="fill:none;stroke:#00aaae;stroke-linejoin:miter;"/>
    </g>
    <g id="line2d_40"/>
    <g id="text_17">
     <!-- y6 -->
     <g transform="translate(62.023562 94.825896)scale(0.08 -0.08)">
      <defs>
       <path d="M 33.015625 40.375 
Q 26.375 40.375 22.484375 35.828125 
Q 18.609375 31.296875 18.609375 23.390625 
Q 18.609375 15.53125 22.484375 10.953125 
Q 26.375 6.390625 33.015625 6.390625 
Q 39.65625 6.390625 43.53125 10.953125 
Q 47.40625 15.53125 47.40625 23.390625 
Q 47.40625 31.296875 43.53125 35.828125 
Q 39.65625 40.375 33.015625 40.375 
z
M 52.59375 71.296875 
L 52.59375 62.3125 
Q 48.875 64.0625 45.09375 64.984375 
Q 41.3125 65.921875 37.59375 65.921875 
Q 27.828125 65.921875 22.671875 59.328125 
Q 17.53125 52.734375 16.796875 39.40625 
Q 19.671875 43.65625 24.015625 45.921875 
Q 28.375 48.1875 33.59375 48.1875 
Q 44.578125 48.1875 50.953125 41.515625 
Q 57.328125 34.859375 57.328125 23.390625 
Q 57.328125 12.15625 50.6875 5.359375 
Q 44.046875 -1.421875 33.015625 -1.421875 
Q 20.359375 -1.421875 13.671875 8.265625 
Q 6.984375 17.96875 6.984375 36.375 
Q 6.984375 53.65625 15.1875 63.9375 
Q 23.390625 74.21875 37.203125 74.21875 
Q 40.921875 74.21875 44.703125 73.484375 
Q 48.484375 72.75 52.59375 71.296875 
z
" id="DejaVuSans-54"/>
      </defs>
      <use xlink:href="#DejaVuSans-121"/>
      <use x="59.179688" xlink:href="#DejaVuSans-54"/>
     </g>
    </g>
    <g id="line2d_41">
     <path d="M 39.623562 103.768396 
L 55.623562 103.768396 
" style="fill:none;stroke:#ed5e93;stroke-linejoin:miter;"/>
    </g>
    <g id="line2d_42"/>
    <g id="text_18">
     <!-- y7 -->
     <g transform="translate(62.023562 106.568396)scale(0.08 -0.08)">
      <defs>
       <path d="M 8.203125 72.90625 
L 55.078125 72.90625 
L 55.078125 68.703125 
L 28.609375 0 
L 18.3125 0 
L 43.21875 64.59375 
L 8.203125 64.59375 
z
" id="DejaVuSans-55"/>
      </defs>
      <use xlink:href="#DejaVuSans-121"/>
      <use x="59.179688" xlink:href="#DejaVuSans-55"/>
     </g>
    </g>
    <g id="line2d_43">
     <path d="M 39.623562 115.510896 
L 55.623562 115.510896 
" style="fill:none;stroke:#c68225;stroke-linejoin:miter;"/>
    </g>
    <g id="line2d_44"/>
    <g id="text_19">
     <!-- y8 -->
     <g transform="translate(62.023562 118.310896)scale(0.08 -0.08)">
      <defs>
       <path d="M 31.78125 34.625 
Q 24.75 34.625 20.71875 30.859375 
Q 16.703125 27.09375 16.703125 20.515625 
Q 16.703125 13.921875 20.71875 10.15625 
Q 24.75 6.390625 31.78125 6.390625 
Q 38.8125 6.390625 42.859375 10.171875 
Q 46.921875 13.96875 46.921875 20.515625 
Q 46.921875 27.09375 42.890625 30.859375 
Q 38.875 34.625 31.78125 34.625 
z
M 21.921875 38.8125 
Q 15.578125 40.375 12.03125 44.71875 
Q 8.5 49.078125 8.5 55.328125 
Q 8.5 64.0625 14.71875 69.140625 
Q 20.953125 74.21875 31.78125 74.21875 
Q 42.671875 74.21875 48.875 69.140625 
Q 55.078125 64.0625 55.078125 55.328125 
Q 55.078125 49.078125 51.53125 44.71875 
Q 48 40.375 41.703125 38.8125 
Q 48.828125 37.15625 52.796875 32.3125 
Q 56.78125 27.484375 56.78125 20.515625 
Q 56.78125 9.90625 50.3125 4.234375 
Q 43.84375 -1.421875 31.78125 -1.421875 
Q 19.734375 -1.421875 13.25 4.234375 
Q 6.78125 9.90625 6.78125 20.515625 
Q 6.78125 27.484375 10.78125 32.3125 
Q 14.796875 37.15625 21.921875 38.8125 
z
M 18.3125 54.390625 
Q 18.3125 48.734375 21.84375 45.5625 
Q 25.390625 42.390625 31.78125 42.390625 
Q 38.140625 42.390625 41.71875 45.5625 
Q 45.3125 48.734375 45.3125 54.390625 
Q 45.3125 60.0625 41.71875 63.234375 
Q 38.140625 66.40625 31.78125 66.40625 
Q 25.390625 66.40625 21.84375 63.234375 
Q 18.3125 60.0625 18.3125 54.390625 
z
" id="DejaVuSans-56"/>
      </defs>
      <use xlink:href="#DejaVuSans-121"/>
      <use x="59.179688" xlink:href="#DejaVuSans-56"/>
     </g>
    </g>
    <g id="line2d_45">
     <path d="M 39.623562 127.253396 
L 55.623562 127.253396 
" style="fill:none;stroke:#00a98d;stroke-linejoin:miter;"/>
    </g>
    <g id="line2d_46"/>
    <g id="text_20">
     <!-- y9 -->
     <g transform="translate(62.023562 130.053396)scale(0.08 -0.08)">
      <defs>
       <path d="M 10.984375 1.515625 
L 10.984375 10.5 
Q 14.703125 8.734375 18.5 7.8125 
Q 22.3125 6.890625 25.984375 6.890625 
Q 35.75 6.890625 40.890625 13.453125 
Q 46.046875 20.015625 46.78125 33.40625 
Q 43.953125 29.203125 39.59375 26.953125 
Q 35.25 24.703125 29.984375 24.703125 
Q 19.046875 24.703125 12.671875 31.3125 
Q 6.296875 37.9375 6.296875 49.421875 
Q 6.296875 60.640625 12.9375 67.421875 
Q 19.578125 74.21875 30.609375 74.21875 
Q 43.265625 74.21875 49.921875 64.515625 
Q 56.59375 54.828125 56.59375 36.375 
Q 56.59375 19.140625 48.40625 8.859375 
Q 40.234375 -1.421875 26.421875 -1.421875 
Q 22.703125 -1.421875 18.890625 -0.6875 
Q 15.09375 0.046875 10.984375 1.515625 
z
M 30.609375 32.421875 
Q 37.25 32.421875 41.125 36.953125 
Q 45.015625 41.5 45.015625 49.421875 
Q 45.015625 57.28125 41.125 61.84375 
Q 37.25 66.40625 30.609375 66.40625 
Q 23.96875 66.40625 20.09375 61.84375 
Q 16.21875 57.28125 16.21875 49.421875 
Q 16.21875 41.5 20.09375 36.953125 
Q 23.96875 32.421875 30.609375 32.421875 
z
" id="DejaVuSans-57"/>
      </defs>
      <use xlink:href="#DejaVuSans-121"/>
      <use x="59.179688" xlink:href="#DejaVuSans-57"/>
     </g>
    </g>
    <g id="line2d_47">
     <path d="M 39.623562 138.995896 
L 55.623562 138.995896 
" style="fill:none;stroke:#8e971e;stroke-linejoin:miter;"/>
    </g>
    <g id="line2d_48"/>
    <g id="text_21">
     <!-- y10 -->
     <g transform="translate(62.023562 141.795896)scale(0.08 -0.08)">
      <use xlink:href="#DejaVuSans-121"/>
      <use x="59.179688" xlink:href="#DejaVuSans-49"/>
      <use x="122.802734" xlink:href="#DejaVuSans-48"/>
     </g>
    </g>
   </g>
  </g>
 </g>
 <defs>
  <clipPath id="p8a6e7ba96a">
   <rect height="296.190709" width="428.741793" x="29.223562" y="19.634646"/>
  </clipPath>
 </defs>
</svg>
