<?xml version="1.0" encoding="UTF-8" standalone="no"?>
<svg
   xmlns:dc="http://purl.org/dc/elements/1.1/"
   xmlns:cc="http://creativecommons.org/ns#"
   xmlns:rdf="http://www.w3.org/1999/02/22-rdf-syntax-ns#"
   xmlns:svg="http://www.w3.org/2000/svg"
   xmlns="http://www.w3.org/2000/svg"
   xmlns:xlink="http://www.w3.org/1999/xlink"
   xmlns:sodipodi="http://sodipodi.sourceforge.net/DTD/sodipodi-0.dtd"
   xmlns:inkscape="http://www.inkscape.org/namespaces/inkscape"
   width="313.82095mm"
   height="202.33211mm"
   viewBox="0 0 313.82094 202.3321"
   version="1.1"
   id="svg8"
   sodipodi:docname="algorithm.svg"
   inkscape:version="1.0.1 (3bc2e813f5, 2020-09-07, custom)"
   inkscape:export-filename="/home/leoncito/Pictures/sampling/algorithm.png"
   inkscape:export-xdpi="300"
   inkscape:export-ydpi="300">
  <defs
     id="defs2">
    <marker
       style="overflow:visible"
       id="marker3286"
       refX="0"
       refY="0"
       orient="auto"
       inkscape:stockid="Arrow1Mend"
       inkscape:isstock="true">
      <path
         transform="matrix(-0.4,0,0,-0.4,-4,0)"
         style="fill:#000000;fill-opacity:1;fill-rule:evenodd;stroke:#000000;stroke-width:1pt;stroke-opacity:1"
         d="M 0,0 5,-5 -12.5,0 5,5 Z"
         id="path3284" />
    </marker>
    <marker
       style="overflow:visible"
       id="marker3276"
       refX="0"
       refY="0"
       orient="auto"
       inkscape:stockid="Arrow1Mend"
       inkscape:isstock="true">
      <path
         transform="matrix(-0.4,0,0,-0.4,-4,0)"
         style="fill:#000000;fill-opacity:1;fill-rule:evenodd;stroke:#000000;stroke-width:1pt;stroke-opacity:1"
         d="M 0,0 5,-5 -12.5,0 5,5 Z"
         id="path3274" />
    </marker>
    <marker
       style="overflow:visible"
       id="marker3222"
       refX="0"
       refY="0"
       orient="auto"
       inkscape:stockid="Arrow1Lstart"
       inkscape:isstock="true">
      <path
         transform="matrix(0.8,0,0,0.8,10,0)"
         style="fill:#000000;fill-opacity:1;fill-rule:evenodd;stroke:#000000;stroke-width:1pt;stroke-opacity:1"
         d="M 0,0 5,-5 -12.5,0 5,5 Z"
         id="path3220" />
    </marker>
    <marker
       style="overflow:visible"
       id="marker3212"
       refX="0"
       refY="0"
       orient="auto"
       inkscape:stockid="Arrow1Lstart"
       inkscape:isstock="true">
      <path
         transform="matrix(0.8,0,0,0.8,10,0)"
         style="fill:#000000;fill-opacity:1;fill-rule:evenodd;stroke:#000000;stroke-width:1pt;stroke-opacity:1"
         d="M 0,0 5,-5 -12.5,0 5,5 Z"
         id="path3210" />
    </marker>
    <marker
       style="overflow:visible"
       id="marker3140"
       refX="0"
       refY="0"
       orient="auto"
       inkscape:stockid="Arrow1Lstart"
       inkscape:isstock="true">
      <path
         transform="matrix(0.8,0,0,0.8,10,0)"
         style="fill:#000000;fill-opacity:1;fill-rule:evenodd;stroke:#000000;stroke-width:1pt;stroke-opacity:1"
         d="M 0,0 5,-5 -12.5,0 5,5 Z"
         id="path3138" />
    </marker>
    <marker
       style="overflow:visible"
       id="marker3130"
       refX="0"
       refY="0"
       orient="auto"
       inkscape:stockid="Arrow1Lstart"
       inkscape:isstock="true">
      <path
         transform="matrix(0.8,0,0,0.8,10,0)"
         style="fill:#000000;fill-opacity:1;fill-rule:evenodd;stroke:#000000;stroke-width:1pt;stroke-opacity:1"
         d="M 0,0 5,-5 -12.5,0 5,5 Z"
         id="path3128" />
    </marker>
    <linearGradient
       inkscape:collect="always"
       id="linearGradient2808">
      <stop
         style="stop-color:#000000;stop-opacity:1;"
         offset="0"
         id="stop2804" />
      <stop
         style="stop-color:#000000;stop-opacity:0;"
         offset="1"
         id="stop2806" />
    </linearGradient>
    <g
       id="g8316">
      <symbol
         overflow="visible"
         id="symbol6769">
        <path
           style="stroke:none"
           d=""
           id="path2298" />
      </symbol>
      <symbol
         overflow="visible"
         id="symbol5404">
        <path
           style="stroke:none"
           d="M 3.484375,-0.5625 C 3.59375,-0.15625 3.953125,0.109375 4.375,0.109375 4.71875,0.109375 4.953125,-0.125 5.109375,-0.4375 5.28125,-0.796875 5.40625,-1.40625 5.40625,-1.421875 c 0,-0.109375 -0.078125,-0.109375 -0.109375,-0.109375 -0.109375,0 -0.109375,0.046875 -0.140625,0.1875 -0.140625,0.5625 -0.328125,1.234375 -0.75,1.234375 -0.203125,0 -0.3125,-0.125 -0.3125,-0.453125 0,-0.21875 0.125,-0.6875 0.203125,-1.046875 L 4.578125,-2.6875 C 4.609375,-2.828125 4.703125,-3.203125 4.75,-3.359375 4.796875,-3.59375 4.890625,-3.96875 4.890625,-4.03125 c 0,-0.171875 -0.140625,-0.265625 -0.28125,-0.265625 -0.046875,0 -0.3125,0.015625 -0.390625,0.34375 -0.1875,0.734375 -0.625,2.484375 -0.75,3 -0.015625,0.046875 -0.40625,0.84375 -1.140625,0.84375 -0.515625,0 -0.609375,-0.453125 -0.609375,-0.8125 0,-0.5625 0.28125,-1.34375 0.53125,-2.03125 0.125,-0.3125 0.171875,-0.453125 0.171875,-0.640625 0,-0.4375 -0.3125,-0.8125 -0.8125,-0.8125 -0.953125,0 -1.3125,1.453125 -1.3125,1.53125 0,0.109375 0.09375,0.109375 0.109375,0.109375 0.109375,0 0.109375,-0.03125 0.15625,-0.1875 0.25,-0.859375 0.640625,-1.234375 1.015625,-1.234375 0.09375,0 0.25,0.015625 0.25,0.328125 0,0.234375 -0.109375,0.53125 -0.171875,0.671875 -0.375,1 -0.578125,1.609375 -0.578125,2.09375 0,0.953125 0.6875,1.203125 1.21875,1.203125 0.65625,0 1.015625,-0.453125 1.1875,-0.671875 z m 0,0"
           id="path9468" />
      </symbol>
    </g>
    <g
       id="g2165">
      <symbol
         overflow="visible"
         id="symbol9743">
        <path
           style="stroke:none"
           d=""
           id="path8337" />
      </symbol>
      <symbol
         overflow="visible"
         id="symbol2448">
        <path
           style="stroke:none"
           d="M 3.484375,-0.5625 C 3.59375,-0.15625 3.953125,0.109375 4.375,0.109375 4.71875,0.109375 4.953125,-0.125 5.109375,-0.4375 5.28125,-0.796875 5.40625,-1.40625 5.40625,-1.421875 c 0,-0.109375 -0.078125,-0.109375 -0.109375,-0.109375 -0.109375,0 -0.109375,0.046875 -0.140625,0.1875 -0.140625,0.5625 -0.328125,1.234375 -0.75,1.234375 -0.203125,0 -0.3125,-0.125 -0.3125,-0.453125 0,-0.21875 0.125,-0.6875 0.203125,-1.046875 L 4.578125,-2.6875 C 4.609375,-2.828125 4.703125,-3.203125 4.75,-3.359375 4.796875,-3.59375 4.890625,-3.96875 4.890625,-4.03125 c 0,-0.171875 -0.140625,-0.265625 -0.28125,-0.265625 -0.046875,0 -0.3125,0.015625 -0.390625,0.34375 -0.1875,0.734375 -0.625,2.484375 -0.75,3 -0.015625,0.046875 -0.40625,0.84375 -1.140625,0.84375 -0.515625,0 -0.609375,-0.453125 -0.609375,-0.8125 0,-0.5625 0.28125,-1.34375 0.53125,-2.03125 0.125,-0.3125 0.171875,-0.453125 0.171875,-0.640625 0,-0.4375 -0.3125,-0.8125 -0.8125,-0.8125 -0.953125,0 -1.3125,1.453125 -1.3125,1.53125 0,0.109375 0.09375,0.109375 0.109375,0.109375 0.109375,0 0.109375,-0.03125 0.15625,-0.1875 0.25,-0.859375 0.640625,-1.234375 1.015625,-1.234375 0.09375,0 0.25,0.015625 0.25,0.328125 0,0.234375 -0.109375,0.53125 -0.171875,0.671875 -0.375,1 -0.578125,1.609375 -0.578125,2.09375 0,0.953125 0.6875,1.203125 1.21875,1.203125 0.65625,0 1.015625,-0.453125 1.1875,-0.671875 z m 0,0"
           id="path3871" />
      </symbol>
      <symbol
         overflow="visible"
         id="symbol1342">
        <path
           style="stroke:none"
           d=""
           id="path4619" />
      </symbol>
      <symbol
         overflow="visible"
         id="symbol2496">
        <path
           style="stroke:none"
           d="m 2.328125,-4.4375 c 0,-0.1875 0,-0.1875 -0.203125,-0.1875 -0.453125,0.4375 -1.078125,0.4375 -1.359375,0.4375 v 0.25 c 0.15625,0 0.625,0 1,-0.1875 v 3.546875 c 0,0.234375 0,0.328125 -0.6875,0.328125 H 0.8125 V 0 c 0.125,0 0.984375,-0.03125 1.234375,-0.03125 0.21875,0 1.09375,0.03125 1.25,0.03125 V -0.25 H 3.03125 c -0.703125,0 -0.703125,-0.09375 -0.703125,-0.328125 z m 0,0"
           id="path6092" />
      </symbol>
    </g>
    <g
       id="g2451">
      <symbol
         overflow="visible"
         id="symbol77">
        <path
           style="stroke:none"
           d=""
           id="path1389" />
      </symbol>
      <symbol
         overflow="visible"
         id="symbol1387">
        <path
           style="stroke:none"
           d="M 3.484375,-0.5625 C 3.59375,-0.15625 3.953125,0.109375 4.375,0.109375 4.71875,0.109375 4.953125,-0.125 5.109375,-0.4375 5.28125,-0.796875 5.40625,-1.40625 5.40625,-1.421875 c 0,-0.109375 -0.078125,-0.109375 -0.109375,-0.109375 -0.109375,0 -0.109375,0.046875 -0.140625,0.1875 -0.140625,0.5625 -0.328125,1.234375 -0.75,1.234375 -0.203125,0 -0.3125,-0.125 -0.3125,-0.453125 0,-0.21875 0.125,-0.6875 0.203125,-1.046875 L 4.578125,-2.6875 C 4.609375,-2.828125 4.703125,-3.203125 4.75,-3.359375 4.796875,-3.59375 4.890625,-3.96875 4.890625,-4.03125 c 0,-0.171875 -0.140625,-0.265625 -0.28125,-0.265625 -0.046875,0 -0.3125,0.015625 -0.390625,0.34375 -0.1875,0.734375 -0.625,2.484375 -0.75,3 -0.015625,0.046875 -0.40625,0.84375 -1.140625,0.84375 -0.515625,0 -0.609375,-0.453125 -0.609375,-0.8125 0,-0.5625 0.28125,-1.34375 0.53125,-2.03125 0.125,-0.3125 0.171875,-0.453125 0.171875,-0.640625 0,-0.4375 -0.3125,-0.8125 -0.8125,-0.8125 -0.953125,0 -1.3125,1.453125 -1.3125,1.53125 0,0.109375 0.09375,0.109375 0.109375,0.109375 0.109375,0 0.109375,-0.03125 0.15625,-0.1875 0.25,-0.859375 0.640625,-1.234375 1.015625,-1.234375 0.09375,0 0.25,0.015625 0.25,0.328125 0,0.234375 -0.109375,0.53125 -0.171875,0.671875 -0.375,1 -0.578125,1.609375 -0.578125,2.09375 0,0.953125 0.6875,1.203125 1.21875,1.203125 0.65625,0 1.015625,-0.453125 1.1875,-0.671875 z m 0,0"
           id="path468" />
      </symbol>
      <symbol
         overflow="visible"
         id="symbol9639">
        <path
           style="stroke:none"
           d=""
           id="path5043" />
      </symbol>
      <symbol
         overflow="visible"
         id="symbol5134">
        <path
           style="stroke:none"
           d="m 2.1875,-4.625 c 0,-0.015625 0.015625,-0.109375 0.015625,-0.109375 0,-0.046875 -0.015625,-0.109375 -0.109375,-0.109375 -0.140625,0 -0.71875,0.0625 -0.890625,0.078125 -0.046875,0 -0.15625,0.015625 -0.15625,0.15625 0,0.09375 0.109375,0.09375 0.1875,0.09375 0.328125,0 0.328125,0.0625 0.328125,0.109375 0,0.046875 -0.015625,0.09375 -0.015625,0.15625 L 0.5625,-0.3125 c -0.046875,0.125 -0.046875,0.140625 -0.046875,0.15625 0,0.109375 0.09375,0.21875 0.25,0.21875 0.1875,0 0.265625,-0.125 0.3125,-0.28125 0.015625,-0.03125 0.3125,-1.265625 0.34375,-1.359375 0.5,0.046875 0.890625,0.21875 0.890625,0.578125 0,0.03125 0,0.0625 -0.015625,0.140625 -0.03125,0.09375 -0.03125,0.140625 -0.03125,0.21875 0,0.484375 0.40625,0.703125 0.75,0.703125 0.671875,0 0.875,-1.046875 0.875,-1.0625 0,-0.09375 -0.078125,-0.09375 -0.109375,-0.09375 -0.09375,0 -0.109375,0.046875 -0.140625,0.171875 C 3.5625,-0.625 3.375,-0.125 3.03125,-0.125 c -0.1875,0 -0.25,-0.171875 -0.25,-0.359375 0,-0.125 0,-0.140625 0.046875,-0.3125 0.015625,-0.03125 0.03125,-0.140625 0.03125,-0.21875 0,-0.625 -0.828125,-0.71875 -1.125,-0.734375 C 1.9375,-1.875 2.1875,-2.109375 2.3125,-2.21875 2.671875,-2.546875 3.015625,-2.875 3.40625,-2.875 c 0.078125,0 0.171875,0.015625 0.234375,0.09375 C 3.34375,-2.734375 3.28125,-2.5 3.28125,-2.390625 c 0,0.140625 0.109375,0.25 0.265625,0.25 0.203125,0 0.40625,-0.15625 0.40625,-0.4375 0,-0.234375 -0.171875,-0.5 -0.53125,-0.5 -0.40625,0 -0.765625,0.296875 -1.125,0.625 C 2,-2.1875 1.78125,-1.96875 1.484375,-1.84375 Z m 0,0"
           id="path96" />
      </symbol>
    </g>
    <g
       id="g8926">
      <symbol
         overflow="visible"
         id="symbol4158">
        <path
           style="stroke:none"
           d=""
           id="path7635" />
      </symbol>
      <symbol
         overflow="visible"
         id="symbol1889">
        <path
           style="stroke:none"
           d="m 2.046875,-3.984375 h 0.9375 c 0.203125,0 0.3125,0 0.3125,-0.203125 0,-0.109375 -0.109375,-0.109375 -0.28125,-0.109375 h -0.875 C 2.5,-5.71875 2.546875,-5.90625 2.546875,-5.96875 c 0,-0.171875 -0.125,-0.265625 -0.296875,-0.265625 -0.03125,0 -0.3125,0 -0.390625,0.359375 L 1.46875,-4.296875 h -0.9375 c -0.203125,0 -0.296875,0 -0.296875,0.1875 0,0.125 0.078125,0.125 0.28125,0.125 h 0.875 C 0.671875,-1.15625 0.625,-0.984375 0.625,-0.8125 0.625,-0.265625 1,0.109375 1.546875,0.109375 2.5625,0.109375 3.125,-1.34375 3.125,-1.421875 3.125,-1.53125 3.046875,-1.53125 3.015625,-1.53125 2.921875,-1.53125 2.90625,-1.5 2.859375,-1.390625 2.4375,-0.34375 1.90625,-0.109375 1.5625,-0.109375 c -0.203125,0 -0.3125,-0.125 -0.3125,-0.453125 0,-0.25 0.03125,-0.3125 0.0625,-0.484375 z m 0,0"
           id="path5474" />
      </symbol>
      <symbol
         overflow="visible"
         id="symbol2663">
        <path
           style="stroke:none"
           d=""
           id="path4677" />
      </symbol>
      <symbol
         overflow="visible"
         id="symbol8809">
        <path
           style="stroke:none"
           d="m 2.015625,-3.296875 c 0.0625,-0.109375 0.0625,-0.171875 0.0625,-0.21875 0,-0.21875 -0.1875,-0.375 -0.40625,-0.375 -0.265625,0 -0.34375,0.21875 -0.375,0.328125 L 0.375,-0.546875 c -0.015625,0.015625 -0.046875,0.09375 -0.046875,0.109375 0,0.078125 0.21875,0.15625 0.28125,0.15625 0.046875,0 0.046875,-0.015625 0.09375,-0.125 z m 0,0"
           id="path4647" />
      </symbol>
      <symbol
         overflow="visible"
         id="symbol797">
        <path
           style="stroke:none"
           d=""
           id="path6450" />
      </symbol>
      <symbol
         overflow="visible"
         id="symbol199">
        <path
           style="stroke:none"
           d="m 2.328125,-4.4375 c 0,-0.1875 0,-0.1875 -0.203125,-0.1875 -0.453125,0.4375 -1.078125,0.4375 -1.359375,0.4375 v 0.25 c 0.15625,0 0.625,0 1,-0.1875 v 3.546875 c 0,0.234375 0,0.328125 -0.6875,0.328125 H 0.8125 V 0 c 0.125,0 0.984375,-0.03125 1.234375,-0.03125 0.21875,0 1.09375,0.03125 1.25,0.03125 V -0.25 H 3.03125 c -0.703125,0 -0.703125,-0.09375 -0.703125,-0.328125 z m 0,0"
           id="path8841" />
      </symbol>
    </g>
    <g
       id="g2526">
      <symbol
         overflow="visible"
         id="symbol713">
        <path
           style="stroke:none"
           d=""
           id="path2218" />
      </symbol>
      <symbol
         overflow="visible"
         id="symbol5975">
        <path
           style="stroke:none"
           d="m 2.046875,-3.984375 h 0.9375 c 0.203125,0 0.3125,0 0.3125,-0.203125 0,-0.109375 -0.109375,-0.109375 -0.28125,-0.109375 h -0.875 C 2.5,-5.71875 2.546875,-5.90625 2.546875,-5.96875 c 0,-0.171875 -0.125,-0.265625 -0.296875,-0.265625 -0.03125,0 -0.3125,0 -0.390625,0.359375 L 1.46875,-4.296875 h -0.9375 c -0.203125,0 -0.296875,0 -0.296875,0.1875 0,0.125 0.078125,0.125 0.28125,0.125 h 0.875 C 0.671875,-1.15625 0.625,-0.984375 0.625,-0.8125 0.625,-0.265625 1,0.109375 1.546875,0.109375 2.5625,0.109375 3.125,-1.34375 3.125,-1.421875 3.125,-1.53125 3.046875,-1.53125 3.015625,-1.53125 2.921875,-1.53125 2.90625,-1.5 2.859375,-1.390625 2.4375,-0.34375 1.90625,-0.109375 1.5625,-0.109375 c -0.203125,0 -0.3125,-0.125 -0.3125,-0.453125 0,-0.25 0.03125,-0.3125 0.0625,-0.484375 z m 0,0"
           id="path6558" />
      </symbol>
      <symbol
         overflow="visible"
         id="symbol1328">
        <path
           style="stroke:none"
           d=""
           id="path8120" />
      </symbol>
      <symbol
         overflow="visible"
         id="symbol2170">
        <path
           style="stroke:none"
           d="m 2.015625,-3.296875 c 0.0625,-0.109375 0.0625,-0.171875 0.0625,-0.21875 0,-0.21875 -0.1875,-0.375 -0.40625,-0.375 -0.265625,0 -0.34375,0.21875 -0.375,0.328125 L 0.375,-0.546875 c -0.015625,0.015625 -0.046875,0.09375 -0.046875,0.109375 0,0.078125 0.21875,0.15625 0.28125,0.15625 0.046875,0 0.046875,-0.015625 0.09375,-0.125 z m 0,0"
           id="path3112" />
      </symbol>
      <symbol
         overflow="visible"
         id="symbol6846">
        <path
           style="stroke:none"
           d=""
           id="path774" />
      </symbol>
      <symbol
         overflow="visible"
         id="symbol4205">
        <path
           style="stroke:none"
           d="M 3.515625,-1.265625 H 3.28125 c -0.015625,0.15625 -0.09375,0.5625 -0.1875,0.625 C 3.046875,-0.59375 2.515625,-0.59375 2.40625,-0.59375 H 1.125 c 0.734375,-0.640625 0.984375,-0.84375 1.390625,-1.171875 0.515625,-0.40625 1,-0.84375 1,-1.5 0,-0.84375 -0.734375,-1.359375 -1.625,-1.359375 -0.859375,0 -1.453125,0.609375 -1.453125,1.25 0,0.34375 0.296875,0.390625 0.375,0.390625 0.15625,0 0.359375,-0.125 0.359375,-0.375 0,-0.125 -0.046875,-0.375 -0.40625,-0.375 C 0.984375,-4.21875 1.453125,-4.375 1.78125,-4.375 c 0.703125,0 1.0625,0.546875 1.0625,1.109375 0,0.609375 -0.4375,1.078125 -0.65625,1.328125 L 0.515625,-0.265625 C 0.4375,-0.203125 0.4375,-0.1875 0.4375,0 h 2.875 z m 0,0"
           id="path1376" />
      </symbol>
    </g>
    <g
       id="g1474">
      <symbol
         overflow="visible"
         id="symbol3448">
        <path
           style="stroke:none"
           d=""
           id="path9077" />
      </symbol>
      <symbol
         overflow="visible"
         id="symbol6681">
        <path
           style="stroke:none"
           d="m 2.046875,-3.984375 h 0.9375 c 0.203125,0 0.3125,0 0.3125,-0.203125 0,-0.109375 -0.109375,-0.109375 -0.28125,-0.109375 h -0.875 C 2.5,-5.71875 2.546875,-5.90625 2.546875,-5.96875 c 0,-0.171875 -0.125,-0.265625 -0.296875,-0.265625 -0.03125,0 -0.3125,0 -0.390625,0.359375 L 1.46875,-4.296875 h -0.9375 c -0.203125,0 -0.296875,0 -0.296875,0.1875 0,0.125 0.078125,0.125 0.28125,0.125 h 0.875 C 0.671875,-1.15625 0.625,-0.984375 0.625,-0.8125 0.625,-0.265625 1,0.109375 1.546875,0.109375 2.5625,0.109375 3.125,-1.34375 3.125,-1.421875 3.125,-1.53125 3.046875,-1.53125 3.015625,-1.53125 2.921875,-1.53125 2.90625,-1.5 2.859375,-1.390625 2.4375,-0.34375 1.90625,-0.109375 1.5625,-0.109375 c -0.203125,0 -0.3125,-0.125 -0.3125,-0.453125 0,-0.25 0.03125,-0.3125 0.0625,-0.484375 z m 0,0"
           id="path23" />
      </symbol>
      <symbol
         overflow="visible"
         id="symbol759">
        <path
           style="stroke:none"
           d=""
           id="path9438" />
      </symbol>
      <symbol
         overflow="visible"
         id="symbol1361">
        <path
           style="stroke:none"
           d="m 2.015625,-3.296875 c 0.0625,-0.109375 0.0625,-0.171875 0.0625,-0.21875 0,-0.21875 -0.1875,-0.375 -0.40625,-0.375 -0.265625,0 -0.34375,0.21875 -0.375,0.328125 L 0.375,-0.546875 c -0.015625,0.015625 -0.046875,0.09375 -0.046875,0.109375 0,0.078125 0.21875,0.15625 0.28125,0.15625 0.046875,0 0.046875,-0.015625 0.09375,-0.125 z m 0,0"
           id="path9654" />
      </symbol>
      <symbol
         overflow="visible"
         id="symbol6932">
        <path
           style="stroke:none"
           d=""
           id="path8664" />
      </symbol>
      <symbol
         overflow="visible"
         id="symbol9897">
        <path
           style="stroke:none"
           d="m 2.328125,-4.4375 c 0,-0.1875 0,-0.1875 -0.203125,-0.1875 -0.453125,0.4375 -1.078125,0.4375 -1.359375,0.4375 v 0.25 c 0.15625,0 0.625,0 1,-0.1875 v 3.546875 c 0,0.234375 0,0.328125 -0.6875,0.328125 H 0.8125 V 0 c 0.125,0 0.984375,-0.03125 1.234375,-0.03125 0.21875,0 1.09375,0.03125 1.25,0.03125 V -0.25 H 3.03125 c -0.703125,0 -0.703125,-0.09375 -0.703125,-0.328125 z m 0,0"
           id="path5870" />
      </symbol>
    </g>
    <g
       id="g2921">
      <symbol
         overflow="visible"
         id="symbol5137">
        <path
           style="stroke:none"
           d=""
           id="path6792" />
      </symbol>
      <symbol
         overflow="visible"
         id="symbol503">
        <path
           style="stroke:none"
           d="m 2.046875,-3.984375 h 0.9375 c 0.203125,0 0.3125,0 0.3125,-0.203125 0,-0.109375 -0.109375,-0.109375 -0.28125,-0.109375 h -0.875 C 2.5,-5.71875 2.546875,-5.90625 2.546875,-5.96875 c 0,-0.171875 -0.125,-0.265625 -0.296875,-0.265625 -0.03125,0 -0.3125,0 -0.390625,0.359375 L 1.46875,-4.296875 h -0.9375 c -0.203125,0 -0.296875,0 -0.296875,0.1875 0,0.125 0.078125,0.125 0.28125,0.125 h 0.875 C 0.671875,-1.15625 0.625,-0.984375 0.625,-0.8125 0.625,-0.265625 1,0.109375 1.546875,0.109375 2.5625,0.109375 3.125,-1.34375 3.125,-1.421875 3.125,-1.53125 3.046875,-1.53125 3.015625,-1.53125 2.921875,-1.53125 2.90625,-1.5 2.859375,-1.390625 2.4375,-0.34375 1.90625,-0.109375 1.5625,-0.109375 c -0.203125,0 -0.3125,-0.125 -0.3125,-0.453125 0,-0.25 0.03125,-0.3125 0.0625,-0.484375 z m 0,0"
           id="path9672" />
      </symbol>
      <symbol
         overflow="visible"
         id="symbol9887">
        <path
           style="stroke:none"
           d=""
           id="path521" />
      </symbol>
      <symbol
         overflow="visible"
         id="symbol18">
        <path
           style="stroke:none"
           d="m 2.015625,-3.296875 c 0.0625,-0.109375 0.0625,-0.171875 0.0625,-0.21875 0,-0.21875 -0.1875,-0.375 -0.40625,-0.375 -0.265625,0 -0.34375,0.21875 -0.375,0.328125 L 0.375,-0.546875 c -0.015625,0.015625 -0.046875,0.09375 -0.046875,0.109375 0,0.078125 0.21875,0.15625 0.28125,0.15625 0.046875,0 0.046875,-0.015625 0.09375,-0.125 z m 0,0"
           id="path7044" />
      </symbol>
      <symbol
         overflow="visible"
         id="symbol2292">
        <path
           style="stroke:none"
           d=""
           id="path9074" />
      </symbol>
      <symbol
         overflow="visible"
         id="symbol1757">
        <path
           style="stroke:none"
           d="M 3.515625,-1.265625 H 3.28125 c -0.015625,0.15625 -0.09375,0.5625 -0.1875,0.625 C 3.046875,-0.59375 2.515625,-0.59375 2.40625,-0.59375 H 1.125 c 0.734375,-0.640625 0.984375,-0.84375 1.390625,-1.171875 0.515625,-0.40625 1,-0.84375 1,-1.5 0,-0.84375 -0.734375,-1.359375 -1.625,-1.359375 -0.859375,0 -1.453125,0.609375 -1.453125,1.25 0,0.34375 0.296875,0.390625 0.375,0.390625 0.15625,0 0.359375,-0.125 0.359375,-0.375 0,-0.125 -0.046875,-0.375 -0.40625,-0.375 C 0.984375,-4.21875 1.453125,-4.375 1.78125,-4.375 c 0.703125,0 1.0625,0.546875 1.0625,1.109375 0,0.609375 -0.4375,1.078125 -0.65625,1.328125 L 0.515625,-0.265625 C 0.4375,-0.203125 0.4375,-0.1875 0.4375,0 h 2.875 z m 0,0"
           id="path5094" />
      </symbol>
    </g>
    <g
       id="g4449">
      <symbol
         overflow="visible"
         id="symbol1654">
        <path
           style="stroke:none"
           d=""
           id="path8479" />
      </symbol>
      <symbol
         overflow="visible"
         id="symbol5569">
        <path
           style="stroke:none"
           d="m 2.046875,-3.984375 h 0.9375 c 0.203125,0 0.3125,0 0.3125,-0.203125 0,-0.109375 -0.109375,-0.109375 -0.28125,-0.109375 h -0.875 C 2.5,-5.71875 2.546875,-5.90625 2.546875,-5.96875 c 0,-0.171875 -0.125,-0.265625 -0.296875,-0.265625 -0.03125,0 -0.3125,0 -0.390625,0.359375 L 1.46875,-4.296875 h -0.9375 c -0.203125,0 -0.296875,0 -0.296875,0.1875 0,0.125 0.078125,0.125 0.28125,0.125 h 0.875 C 0.671875,-1.15625 0.625,-0.984375 0.625,-0.8125 0.625,-0.265625 1,0.109375 1.546875,0.109375 2.5625,0.109375 3.125,-1.34375 3.125,-1.421875 3.125,-1.53125 3.046875,-1.53125 3.015625,-1.53125 2.921875,-1.53125 2.90625,-1.5 2.859375,-1.390625 2.4375,-0.34375 1.90625,-0.109375 1.5625,-0.109375 c -0.203125,0 -0.3125,-0.125 -0.3125,-0.453125 0,-0.25 0.03125,-0.3125 0.0625,-0.484375 z m 0,0"
           id="path2721" />
      </symbol>
      <symbol
         overflow="visible"
         id="symbol2806">
        <path
           style="stroke:none"
           d="m 2.03125,-0.015625 c 0,-0.65625 -0.25,-1.046875 -0.640625,-1.046875 -0.328125,0 -0.53125,0.25 -0.53125,0.53125 C 0.859375,-0.265625 1.0625,0 1.390625,0 1.5,0 1.640625,-0.046875 1.734375,-0.125 1.765625,-0.15625 1.78125,-0.15625 1.78125,-0.15625 c 0.015625,0 0.015625,0 0.015625,0.140625 0,0.75 -0.34375,1.34375 -0.671875,1.671875 -0.109375,0.109375 -0.109375,0.125 -0.109375,0.15625 0,0.078125 0.046875,0.109375 0.09375,0.109375 0.109375,0 0.921875,-0.765625 0.921875,-1.9375 z m 0,0"
           id="path5538" />
      </symbol>
      <symbol
         overflow="visible"
         id="symbol6818">
        <path
           style="stroke:none"
           d=""
           id="path9202" />
      </symbol>
      <symbol
         overflow="visible"
         id="symbol7275">
        <path
           style="stroke:none"
           d="m 2.015625,-3.296875 c 0.0625,-0.109375 0.0625,-0.171875 0.0625,-0.21875 0,-0.21875 -0.1875,-0.375 -0.40625,-0.375 -0.265625,0 -0.34375,0.21875 -0.375,0.328125 L 0.375,-0.546875 c -0.015625,0.015625 -0.046875,0.09375 -0.046875,0.109375 0,0.078125 0.21875,0.15625 0.28125,0.15625 0.046875,0 0.046875,-0.015625 0.09375,-0.125 z m 0,0"
           id="path1294" />
      </symbol>
      <symbol
         overflow="visible"
         id="symbol7868">
        <path
           style="stroke:none"
           d=""
           id="path2339" />
      </symbol>
      <symbol
         overflow="visible"
         id="symbol5441">
        <path
           style="stroke:none"
           d="m 2.328125,-4.4375 c 0,-0.1875 0,-0.1875 -0.203125,-0.1875 -0.453125,0.4375 -1.078125,0.4375 -1.359375,0.4375 v 0.25 c 0.15625,0 0.625,0 1,-0.1875 v 3.546875 c 0,0.234375 0,0.328125 -0.6875,0.328125 H 0.8125 V 0 c 0.125,0 0.984375,-0.03125 1.234375,-0.03125 0.21875,0 1.09375,0.03125 1.25,0.03125 V -0.25 H 3.03125 c -0.703125,0 -0.703125,-0.09375 -0.703125,-0.328125 z m 0,0"
           id="path1842" />
      </symbol>
      <symbol
         overflow="visible"
         id="symbol4323">
        <path
           style="stroke:none"
           d=""
           id="path9480" />
      </symbol>
      <symbol
         overflow="visible"
         id="symbol9489">
        <path
           style="stroke:none"
           d="m 2.9375,-6.375 c 0,-0.25 0,-0.265625 -0.234375,-0.265625 C 2.078125,-6 1.203125,-6 0.890625,-6 v 0.3125 c 0.203125,0 0.78125,0 1.296875,-0.265625 v 5.171875 c 0,0.359375 -0.03125,0.46875 -0.921875,0.46875 h -0.3125 V 0 c 0.34375,-0.03125 1.203125,-0.03125 1.609375,-0.03125 0.390625,0 1.265625,0 1.609375,0.03125 v -0.3125 h -0.3125 c -0.90625,0 -0.921875,-0.109375 -0.921875,-0.46875 z m 0,0"
           id="path2217" />
      </symbol>
    </g>
    <g
       id="g3325">
      <symbol
         overflow="visible"
         id="symbol8767">
        <path
           style="stroke:none"
           d=""
           id="path5282" />
      </symbol>
      <symbol
         overflow="visible"
         id="symbol7811">
        <path
           style="stroke:none"
           d="m 2.046875,-3.984375 h 0.9375 c 0.203125,0 0.3125,0 0.3125,-0.203125 0,-0.109375 -0.109375,-0.109375 -0.28125,-0.109375 h -0.875 C 2.5,-5.71875 2.546875,-5.90625 2.546875,-5.96875 c 0,-0.171875 -0.125,-0.265625 -0.296875,-0.265625 -0.03125,0 -0.3125,0 -0.390625,0.359375 L 1.46875,-4.296875 h -0.9375 c -0.203125,0 -0.296875,0 -0.296875,0.1875 0,0.125 0.078125,0.125 0.28125,0.125 h 0.875 C 0.671875,-1.15625 0.625,-0.984375 0.625,-0.8125 0.625,-0.265625 1,0.109375 1.546875,0.109375 2.5625,0.109375 3.125,-1.34375 3.125,-1.421875 3.125,-1.53125 3.046875,-1.53125 3.015625,-1.53125 2.921875,-1.53125 2.90625,-1.5 2.859375,-1.390625 2.4375,-0.34375 1.90625,-0.109375 1.5625,-0.109375 c -0.203125,0 -0.3125,-0.125 -0.3125,-0.453125 0,-0.25 0.03125,-0.3125 0.0625,-0.484375 z m 0,0"
           id="path5444" />
      </symbol>
      <symbol
         overflow="visible"
         id="symbol5100">
        <path
           style="stroke:none"
           d=""
           id="path5971" />
      </symbol>
      <symbol
         overflow="visible"
         id="symbol7148">
        <path
           style="stroke:none"
           d="m 2.015625,-3.296875 c 0.0625,-0.109375 0.0625,-0.171875 0.0625,-0.21875 0,-0.21875 -0.1875,-0.375 -0.40625,-0.375 -0.265625,0 -0.34375,0.21875 -0.375,0.328125 L 0.375,-0.546875 c -0.015625,0.015625 -0.046875,0.09375 -0.046875,0.109375 0,0.078125 0.21875,0.15625 0.28125,0.15625 0.046875,0 0.046875,-0.015625 0.09375,-0.125 z m 0,0"
           id="path6413" />
      </symbol>
      <symbol
         overflow="visible"
         id="symbol1487">
        <path
           style="stroke:none"
           d=""
           id="path6187" />
      </symbol>
      <symbol
         overflow="visible"
         id="symbol53">
        <path
           style="stroke:none"
           d="m 2.328125,-4.4375 c 0,-0.1875 0,-0.1875 -0.203125,-0.1875 -0.453125,0.4375 -1.078125,0.4375 -1.359375,0.4375 v 0.25 c 0.15625,0 0.625,0 1,-0.1875 v 3.546875 c 0,0.234375 0,0.328125 -0.6875,0.328125 H 0.8125 V 0 c 0.125,0 0.984375,-0.03125 1.234375,-0.03125 0.21875,0 1.09375,0.03125 1.25,0.03125 V -0.25 H 3.03125 c -0.703125,0 -0.703125,-0.09375 -0.703125,-0.328125 z m 0,0"
           id="path9369" />
      </symbol>
      <symbol
         overflow="visible"
         id="symbol1125">
        <path
           style="stroke:none"
           d=""
           id="path7468" />
      </symbol>
      <symbol
         overflow="visible"
         id="symbol6981">
        <path
           style="stroke:none"
           d="m 1.46875,-0.109375 c 0,0.375 -0.0625,0.828125 -0.546875,1.265625 C 0.90625,1.1875 0.875,1.21875 0.875,1.25 c 0,0.046875 0.0625,0.09375 0.09375,0.09375 0.109375,0 0.703125,-0.5625 0.703125,-1.390625 0,-0.421875 -0.171875,-0.75 -0.5,-0.75 -0.21875,0 -0.390625,0.171875 -0.390625,0.390625 C 0.78125,-0.1875 0.9375,0 1.1875,0 1.359375,0 1.46875,-0.109375 1.46875,-0.109375 Z m 0,0"
           id="path5141" />
      </symbol>
    </g>
    <g
       id="g2426">
      <symbol
         overflow="visible"
         id="symbol3877">
        <path
           style="stroke:none"
           d=""
           id="path3121" />
      </symbol>
      <symbol
         overflow="visible"
         id="symbol5012">
        <path
           style="stroke:none"
           d="m 2.046875,-3.984375 h 0.9375 c 0.203125,0 0.3125,0 0.3125,-0.203125 0,-0.109375 -0.109375,-0.109375 -0.28125,-0.109375 h -0.875 C 2.5,-5.71875 2.546875,-5.90625 2.546875,-5.96875 c 0,-0.171875 -0.125,-0.265625 -0.296875,-0.265625 -0.03125,0 -0.3125,0 -0.390625,0.359375 L 1.46875,-4.296875 h -0.9375 c -0.203125,0 -0.296875,0 -0.296875,0.1875 0,0.125 0.078125,0.125 0.28125,0.125 h 0.875 C 0.671875,-1.15625 0.625,-0.984375 0.625,-0.8125 0.625,-0.265625 1,0.109375 1.546875,0.109375 2.5625,0.109375 3.125,-1.34375 3.125,-1.421875 3.125,-1.53125 3.046875,-1.53125 3.015625,-1.53125 2.921875,-1.53125 2.90625,-1.5 2.859375,-1.390625 2.4375,-0.34375 1.90625,-0.109375 1.5625,-0.109375 c -0.203125,0 -0.3125,-0.125 -0.3125,-0.453125 0,-0.25 0.03125,-0.3125 0.0625,-0.484375 z m 0,0"
           id="path2498" />
      </symbol>
      <symbol
         overflow="visible"
         id="symbol7344">
        <path
           style="stroke:none"
           d=""
           id="path7682" />
      </symbol>
      <symbol
         overflow="visible"
         id="symbol8099">
        <path
           style="stroke:none"
           d="m 2.015625,-3.296875 c 0.0625,-0.109375 0.0625,-0.171875 0.0625,-0.21875 0,-0.21875 -0.1875,-0.375 -0.40625,-0.375 -0.265625,0 -0.34375,0.21875 -0.375,0.328125 L 0.375,-0.546875 c -0.015625,0.015625 -0.046875,0.09375 -0.046875,0.109375 0,0.078125 0.21875,0.15625 0.28125,0.15625 0.046875,0 0.046875,-0.015625 0.09375,-0.125 z m 0,0"
           id="path4784" />
      </symbol>
      <symbol
         overflow="visible"
         id="symbol6546">
        <path
           style="stroke:none"
           d=""
           id="path2739" />
      </symbol>
      <symbol
         overflow="visible"
         id="symbol3395">
        <path
           style="stroke:none"
           d="m 2.328125,-4.4375 c 0,-0.1875 0,-0.1875 -0.203125,-0.1875 -0.453125,0.4375 -1.078125,0.4375 -1.359375,0.4375 v 0.25 c 0.15625,0 0.625,0 1,-0.1875 v 3.546875 c 0,0.234375 0,0.328125 -0.6875,0.328125 H 0.8125 V 0 c 0.125,0 0.984375,-0.03125 1.234375,-0.03125 0.21875,0 1.09375,0.03125 1.25,0.03125 V -0.25 H 3.03125 c -0.703125,0 -0.703125,-0.09375 -0.703125,-0.328125 z m 0,0"
           id="path2256" />
      </symbol>
      <symbol
         overflow="visible"
         id="symbol8539">
        <path
           style="stroke:none"
           d="M 3.515625,-1.265625 H 3.28125 c -0.015625,0.15625 -0.09375,0.5625 -0.1875,0.625 C 3.046875,-0.59375 2.515625,-0.59375 2.40625,-0.59375 H 1.125 c 0.734375,-0.640625 0.984375,-0.84375 1.390625,-1.171875 0.515625,-0.40625 1,-0.84375 1,-1.5 0,-0.84375 -0.734375,-1.359375 -1.625,-1.359375 -0.859375,0 -1.453125,0.609375 -1.453125,1.25 0,0.34375 0.296875,0.390625 0.375,0.390625 0.15625,0 0.359375,-0.125 0.359375,-0.375 0,-0.125 -0.046875,-0.375 -0.40625,-0.375 C 0.984375,-4.21875 1.453125,-4.375 1.78125,-4.375 c 0.703125,0 1.0625,0.546875 1.0625,1.109375 0,0.609375 -0.4375,1.078125 -0.65625,1.328125 L 0.515625,-0.265625 C 0.4375,-0.203125 0.4375,-0.1875 0.4375,0 h 2.875 z m 0,0"
           id="path1043" />
      </symbol>
      <symbol
         overflow="visible"
         id="symbol5732">
        <path
           style="stroke:none"
           d=""
           id="path3477" />
      </symbol>
      <symbol
         overflow="visible"
         id="symbol8851">
        <path
           style="stroke:none"
           d="m 1.46875,-0.109375 c 0,0.375 -0.0625,0.828125 -0.546875,1.265625 C 0.90625,1.1875 0.875,1.21875 0.875,1.25 c 0,0.046875 0.0625,0.09375 0.09375,0.09375 0.109375,0 0.703125,-0.5625 0.703125,-1.390625 0,-0.421875 -0.171875,-0.75 -0.5,-0.75 -0.21875,0 -0.390625,0.171875 -0.390625,0.390625 C 0.78125,-0.1875 0.9375,0 1.1875,0 1.359375,0 1.46875,-0.109375 1.46875,-0.109375 Z m 0,0"
           id="path2116" />
      </symbol>
    </g>
    <linearGradient
       inkscape:collect="always"
       xlink:href="#linearGradient2808"
       id="linearGradient2810"
       x1="296.87637"
       y1="262.01846"
       x2="321.49438"
       y2="262.01846"
       gradientUnits="userSpaceOnUse" />
    <linearGradient
       inkscape:collect="always"
       xlink:href="#linearGradient2808"
       id="linearGradient2812"
       x1="292.55664"
       y1="250.63927"
       x2="320.43344"
       y2="250.63927"
       gradientUnits="userSpaceOnUse" />
    <linearGradient
       inkscape:collect="always"
       xlink:href="#linearGradient2808"
       id="linearGradient2814"
       x1="293.65091"
       y1="276.68774"
       x2="317.24252"
       y2="276.68774"
       gradientUnits="userSpaceOnUse" />
    <linearGradient
       inkscape:collect="always"
       xlink:href="#linearGradient2808"
       id="linearGradient2822"
       gradientUnits="userSpaceOnUse"
       x1="293.65091"
       y1="276.68774"
       x2="317.24252"
       y2="276.68774"
       gradientTransform="translate(87.106211,-31.761099)" />
    <linearGradient
       inkscape:collect="always"
       xlink:href="#linearGradient2808"
       id="linearGradient2824"
       gradientUnits="userSpaceOnUse"
       x1="292.55664"
       y1="250.63927"
       x2="320.43344"
       y2="250.63927"
       gradientTransform="translate(87.106211,-31.761099)" />
    <linearGradient
       inkscape:collect="always"
       xlink:href="#linearGradient2808"
       id="linearGradient2826"
       gradientUnits="userSpaceOnUse"
       x1="296.87637"
       y1="262.01846"
       x2="321.49438"
       y2="262.01846"
       gradientTransform="translate(87.106211,-31.761099)" />
  </defs>
  <sodipodi:namedview
     id="base"
     pagecolor="#ffffff"
     bordercolor="#666666"
     borderopacity="1.0"
     inkscape:pageopacity="0.0"
     inkscape:pageshadow="2"
     inkscape:zoom="0.79724516"
     inkscape:cx="702.74827"
     inkscape:cy="366.17717"
     inkscape:document-units="mm"
     inkscape:current-layer="layer1"
     inkscape:document-rotation="0"
     showgrid="false"
     inkscape:window-width="1920"
     inkscape:window-height="1042"
     inkscape:window-x="0"
     inkscape:window-y="38"
     inkscape:window-maximized="0" />
  <metadata
     id="metadata5">
    <rdf:RDF>
      <cc:Work
         rdf:about="">
        <dc:format>image/svg+xml</dc:format>
        <dc:type
           rdf:resource="http://purl.org/dc/dcmitype/StillImage" />
        <dc:title />
      </cc:Work>
    </rdf:RDF>
  </metadata>
  <g
     inkscape:label="Layer 1"
     inkscape:groupmode="layer"
     id="layer1"
     transform="translate(-175.76299,-165.70941)">
    <g
       inkscape:label=""
       transform="matrix(2.582736,0,0,2.582736,-49.748305,14.46802)"
       id="g844">
      <g
         id="g2551">
        <g
           style="fill:#000000;fill-opacity:1"
           id="g3965">
          <use
             xlink:href="#symbol5404"
             x="91.925003"
             y="81.962997"
             id="use8657"
             width="100%"
             height="100%" />
        </g>
      </g>
    </g>
    <g
       inkscape:label=""
       transform="matrix(2.582736,0,0,2.582736,30.174393,-22.875932)"
       id="g883">
      <g
         id="g1759">
        <g
           style="fill:#000000;fill-opacity:1"
           id="g857">
          <use
             xlink:href="#symbol2448"
             x="91.925003"
             y="81.962997"
             id="use5731"
             width="100%"
             height="100%" />
        </g>
        <g
           style="fill:#000000;fill-opacity:1"
           id="g1669">
          <use
             xlink:href="#symbol2496"
             x="97.627998"
             y="83.457001"
             id="use3590"
             width="100%"
             height="100%" />
        </g>
      </g>
    </g>
    <g
       inkscape:label=""
       transform="matrix(2.582736,0,0,2.582736,29.434646,55.602596)"
       id="g943">
      <g
         id="g2285">
        <g
           style="fill:#000000;fill-opacity:1"
           id="g1778">
          <use
             xlink:href="#symbol1387"
             x="91.925003"
             y="81.962997"
             id="use3485"
             width="100%"
             height="100%" />
        </g>
        <g
           style="fill:#000000;fill-opacity:1"
           id="g8971">
          <use
             xlink:href="#symbol5134"
             x="97.627998"
             y="83.457001"
             id="use4068"
             width="100%"
             height="100%" />
        </g>
      </g>
    </g>
    <text
       xml:space="preserve"
       style="font-size:10.8084px;line-height:1.25;font-family:Iosevka;-inkscape-font-specification:Iosevka;text-align:end;word-spacing:0px;text-anchor:end;stroke-width:0.270211"
       x="282.2049"
       y="212.32716"
       id="text964"><tspan
         sodipodi:role="line"
         id="tspan962"
         x="282.2049"
         y="212.32716"
         style="stroke-width:0.270211">.</tspan><tspan
         sodipodi:role="line"
         x="282.2049"
         y="225.83766"
         style="stroke-width:0.270211"
         id="tspan966">.</tspan><tspan
         sodipodi:role="line"
         x="282.2049"
         y="239.34816"
         style="stroke-width:0.270211"
         id="tspan968">.</tspan></text>
    <text
       xml:space="preserve"
       style="font-size:10.5833px;line-height:1.25;font-family:Iosevka;-inkscape-font-specification:Iosevka;text-align:center;word-spacing:0px;text-anchor:middle;stroke-width:0.264583"
       x="198.94032"
       y="305.36929"
       id="text972"><tspan
         sodipodi:role="line"
         id="tspan970"
         x="198.94032"
         y="305.36929"
         style="text-align:center;text-anchor:middle;stroke-width:0.264583">input</tspan><tspan
         sodipodi:role="line"
         x="198.94032"
         y="318.59842"
         style="text-align:center;text-anchor:middle;stroke-width:0.264583"
         id="tspan974">utterance</tspan></text>
    <text
       xml:space="preserve"
       style="font-size:10.5833px;line-height:1.25;font-family:Iosevka;-inkscape-font-specification:Iosevka;text-align:end;word-spacing:0px;text-anchor:end;stroke-width:0.264583"
       x="319.49191"
       y="307.62091"
       id="text978"><tspan
         sodipodi:role="line"
         x="319.49191"
         y="307.62091"
         style="stroke-width:0.264583"
         id="tspan982"><tspan
   style="font-style:italic"
   id="tspan1568">k</tspan> most similar</tspan><tspan
         sodipodi:role="line"
         x="319.49191"
         y="320.85004"
         style="stroke-width:0.264583"
         id="tspan988">utterances</tspan><tspan
         sodipodi:role="line"
         x="319.49191"
         y="334.07916"
         style="stroke-width:0.264583"
         id="tspan990">in the dataset</tspan></text>
    <text
       xml:space="preserve"
       style="font-size:10.5833px;line-height:1.25;font-family:Iosevka;-inkscape-font-specification:Iosevka;text-align:center;word-spacing:0px;text-anchor:middle;stroke-width:0.264583"
       x="376.34763"
       y="306.81738"
       id="text998"><tspan
         sodipodi:role="line"
         x="376.34763"
         y="306.81738"
         style="text-align:center;text-anchor:middle;stroke-width:0.264583"
         id="tspan2832">top utterance</tspan><tspan
         sodipodi:role="line"
         x="376.34763"
         y="320.04651"
         style="text-align:center;text-anchor:middle;stroke-width:0.264583"
         id="tspan2836">transforms</tspan></text>
    <g
       inkscape:label=""
       transform="matrix(2.582736,0,0,2.582736,120.44981,-21.877812)"
       id="g1080">
      <g
         id="g9209">
        <g
           style="fill:#000000;fill-opacity:1"
           id="g4301">
          <use
             xlink:href="#symbol1889"
             x="91.925003"
             y="81.962997"
             id="use5355"
             width="100%"
             height="100%" />
        </g>
        <g
           style="fill:#000000;fill-opacity:1"
           id="g2095">
          <use
             xlink:href="#symbol8809"
             x="95.523003"
             y="78.348"
             id="use8912"
             width="100%"
             height="100%" />
        </g>
        <g
           style="fill:#000000;fill-opacity:1"
           id="g3930">
          <use
             xlink:href="#symbol199"
             x="95.523003"
             y="84.435997"
             id="use8391"
             width="100%"
             height="100%" />
        </g>
      </g>
    </g>
    <g
       inkscape:label=""
       transform="matrix(2.582736,0,0,2.582736,119.42858,26.521269)"
       id="g1201">
      <g
         id="g530">
        <g
           style="fill:#000000;fill-opacity:1"
           id="g8189">
          <use
             xlink:href="#symbol5975"
             x="91.925003"
             y="81.962997"
             id="use6814"
             width="100%"
             height="100%" />
        </g>
        <g
           style="fill:#000000;fill-opacity:1"
           id="g9564">
          <use
             xlink:href="#symbol2170"
             x="95.523003"
             y="78.348"
             id="use8013"
             width="100%"
             height="100%" />
        </g>
        <g
           style="fill:#000000;fill-opacity:1"
           id="g4049">
          <use
             xlink:href="#symbol4205"
             x="95.523003"
             y="84.435997"
             id="use6199"
             width="100%"
             height="100%" />
        </g>
      </g>
    </g>
    <circle
       style="fill:none;stroke:#000000;stroke-width:2.23406;stroke-linecap:square;stroke-linejoin:bevel;stroke-dasharray:2.23406, 2.23406;stroke-opacity:0.99767;paint-order:markers fill stroke"
       id="path1560"
       cx="195.36099"
       cy="221.1864"
       r="17.264963" />
    <use
       x="0"
       y="0"
       xlink:href="#path1560"
       id="use1562"
       transform="translate(83.57707,-37.094928)"
       width="100%"
       height="100%" />
    <use
       x="0"
       y="0"
       xlink:href="#use1562"
       id="use1564"
       transform="translate(-9.6221441e-8,78.21861)"
       width="100%"
       height="100%" />
    <path
       style="fill:none;stroke:#000000;stroke-width:2.073;stroke-linecap:butt;stroke-linejoin:miter;stroke-miterlimit:4;stroke-dasharray:none;stroke-opacity:1"
       d="m 212.7934,217.3266 49.58445,-28.62759"
       id="path1592" />
    <path
       style="fill:none;stroke:#000000;stroke-width:2.073;stroke-linecap:butt;stroke-linejoin:miter;stroke-miterlimit:4;stroke-dasharray:none;stroke-opacity:1"
       d="m 210.63556,229.65017 53.15994,26.54836"
       id="path1594"
       sodipodi:nodetypes="cc" />
    <path
       style="fill:none;stroke:#000000;stroke-width:2.073;stroke-linecap:butt;stroke-linejoin:miter;stroke-miterlimit:4;stroke-dasharray:none;stroke-opacity:1"
       d="m 212.7934,217.3266 49.58445,-28.62759"
       id="path1596" />
    <path
       style="fill:none;stroke:#000000;stroke-width:2.073;stroke-linecap:butt;stroke-linejoin:miter;stroke-miterlimit:4;stroke-dasharray:none;stroke-opacity:1"
       d="m 297.34734,182.53049 52.26553,-0.34395"
       id="path1600"
       sodipodi:nodetypes="cc" />
    <path
       style="fill:none;stroke:#000000;stroke-width:2.073;stroke-linecap:butt;stroke-linejoin:miter;stroke-miterlimit:4;stroke-dasharray:none;stroke-opacity:1"
       d="M 294.13795,193.02808 351.9951,223.3356"
       id="path1602"
       sodipodi:nodetypes="cc" />
    <use
       x="0"
       y="0"
       xlink:href="#path1560"
       id="use1604"
       transform="translate(170.77687,-37.094928)"
       width="100%"
       height="100%" />
    <use
       x="0"
       y="0"
       xlink:href="#path1560"
       id="use1606"
       transform="translate(170.77687,11.233053)"
       width="100%"
       height="100%" />
    <text
       xml:space="preserve"
       style="font-size:10.8084px;line-height:1.25;font-family:Iosevka;-inkscape-font-specification:Iosevka;text-align:end;word-spacing:0px;text-anchor:end;stroke-width:0.270211"
       x="370.27496"
       y="258.49985"
       id="text1614"><tspan
         sodipodi:role="line"
         id="tspan1608"
         x="370.27496"
         y="258.49985"
         style="stroke-width:0.270211">.</tspan><tspan
         sodipodi:role="line"
         x="370.27496"
         y="272.01035"
         style="stroke-width:0.270211"
         id="tspan1610">.</tspan><tspan
         sodipodi:role="line"
         x="370.27496"
         y="285.52084"
         style="stroke-width:0.270211"
         id="tspan1612">.</tspan></text>
    <path
       style="fill:none;stroke:#000000;stroke-width:2.073;stroke-linecap:butt;stroke-linejoin:miter;stroke-miterlimit:4;stroke-dasharray:none;stroke-opacity:1"
       d="m 384.44008,182.53049 52.26553,-0.34395"
       id="path1648"
       sodipodi:nodetypes="cc" />
    <path
       style="fill:none;stroke:#000000;stroke-width:2.073;stroke-linecap:butt;stroke-linejoin:miter;stroke-miterlimit:4;stroke-dasharray:none;stroke-opacity:1"
       d="m 381.23069,193.02808 57.85715,30.30752"
       id="path1650"
       sodipodi:nodetypes="cc" />
    <use
       x="0"
       y="0"
       xlink:href="#path1560"
       id="use1652"
       transform="translate(257.86961,-37.094928)"
       width="100%"
       height="100%" />
    <use
       x="0"
       y="0"
       xlink:href="#path1560"
       id="use1654"
       transform="translate(257.86961,11.233053)"
       width="100%"
       height="100%" />
    <text
       xml:space="preserve"
       style="font-size:10.8084px;line-height:1.25;font-family:Iosevka;-inkscape-font-specification:Iosevka;text-align:end;word-spacing:0px;text-anchor:end;stroke-width:0.270211"
       x="456.41806"
       y="258.49985"
       id="text1662"><tspan
         sodipodi:role="line"
         id="tspan1656"
         x="456.41806"
         y="258.49985"
         style="stroke-width:0.270211">.</tspan><tspan
         sodipodi:role="line"
         x="456.41806"
         y="272.01035"
         style="stroke-width:0.270211"
         id="tspan1658">.</tspan><tspan
         sodipodi:role="line"
         x="456.41806"
         y="285.52084"
         style="stroke-width:0.270211"
         id="tspan1660">.</tspan></text>
    <g
       inkscape:label=""
       transform="matrix(2.0283362,0,0,2.0283362,253.39524,21.666859)"
       id="g2120">
      <g
         id="g3036">
        <g
           style="fill:#000000;fill-opacity:1"
           id="g5407">
          <use
             xlink:href="#symbol7811"
             x="91.925003"
             y="81.962997"
             id="use9554"
             width="100%"
             height="100%" />
        </g>
        <g
           style="fill:#000000;fill-opacity:1"
           id="g1702">
          <use
             xlink:href="#symbol7148"
             x="95.523003"
             y="78.348"
             id="use2202"
             width="100%"
             height="100%" />
          <use
             xlink:href="#symbol7148"
             x="97.820168"
             y="78.348"
             id="use6910"
             width="100%"
             height="100%" />
        </g>
        <g
           style="fill:#000000;fill-opacity:1"
           id="g8544">
          <use
             xlink:href="#symbol53"
             x="95.523003"
             y="84.435997"
             id="use1851"
             width="100%"
             height="100%" />
        </g>
        <g
           style="fill:#000000;fill-opacity:1"
           id="g3927">
          <use
             xlink:href="#symbol6981"
             x="99.494003"
             y="84.435997"
             id="use8988"
             width="100%"
             height="100%" />
        </g>
        <g
           style="fill:#000000;fill-opacity:1"
           id="g3642">
          <use
             xlink:href="#symbol53"
             x="101.86"
             y="84.435997"
             id="use1373"
             width="100%"
             height="100%" />
        </g>
      </g>
    </g>
    <g
       inkscape:label=""
       transform="matrix(1.7805508,0,0,1.7805508,278.1917,90.053287)"
       id="g2398">
      <g
         id="g2675">
        <g
           style="fill:#000000;fill-opacity:1"
           id="g6413">
          <use
             xlink:href="#symbol5012"
             x="91.925003"
             y="81.962997"
             id="use5956"
             width="100%"
             height="100%" />
        </g>
        <g
           style="fill:#000000;fill-opacity:1"
           id="g1939">
          <use
             xlink:href="#symbol8099"
             x="95.523003"
             y="78.348"
             id="use6080"
             width="100%"
             height="100%" />
          <use
             xlink:href="#symbol8099"
             x="97.820168"
             y="78.348"
             id="use7788"
             width="100%"
             height="100%" />
        </g>
        <g
           style="fill:#000000;fill-opacity:1"
           id="g9272">
          <use
             xlink:href="#symbol3395"
             x="95.523003"
             y="84.435997"
             id="use5707"
             width="100%"
             height="100%" />
        </g>
        <g
           style="fill:#000000;fill-opacity:1"
           id="g8201">
          <use
             xlink:href="#symbol8851"
             x="99.494003"
             y="84.435997"
             id="use1896"
             width="100%"
             height="100%" />
        </g>
        <g
           style="fill:#000000;fill-opacity:1"
           id="g1429">
          <use
             xlink:href="#symbol8539"
             x="101.86"
             y="84.435997"
             id="use7996"
             width="100%"
             height="100%" />
        </g>
      </g>
    </g>
    <path
       style="opacity:1;fill:none;stroke:url(#linearGradient2810);stroke-width:1.172;stroke-linecap:butt;stroke-linejoin:miter;stroke-miterlimit:4;stroke-dasharray:none;stroke-opacity:1"
       d="m 296.88457,262.19044 24.60161,-0.34395"
       id="path2438"
       sodipodi:nodetypes="cc" />
    <path
       style="opacity:1;fill:none;stroke:url(#linearGradient2812);stroke-width:1.172;stroke-linecap:butt;stroke-linejoin:miter;stroke-miterlimit:4;stroke-dasharray:none;stroke-opacity:1"
       d="m 292.71569,254.5254 27.55869,-7.77227"
       id="path2800"
       sodipodi:nodetypes="cc" />
    <path
       style="opacity:1;fill:none;stroke:url(#linearGradient2814);stroke-width:1.172;stroke-linecap:butt;stroke-linejoin:miter;stroke-miterlimit:4;stroke-dasharray:none;stroke-opacity:1"
       d="m 293.87791,271.82656 23.13761,9.72236"
       id="path2802"
       sodipodi:nodetypes="cc" />
    <path
       style="opacity:1;fill:none;stroke:url(#linearGradient2826);stroke-width:1.172;stroke-linecap:butt;stroke-linejoin:miter;stroke-miterlimit:4;stroke-dasharray:none;stroke-opacity:1"
       d="m 383.99078,230.42934 24.60161,-0.34395"
       id="path2816"
       sodipodi:nodetypes="cc" />
    <path
       style="opacity:1;fill:none;stroke:url(#linearGradient2824);stroke-width:1.172;stroke-linecap:butt;stroke-linejoin:miter;stroke-miterlimit:4;stroke-dasharray:none;stroke-opacity:1"
       d="m 379.8219,222.7643 27.55869,-7.77227"
       id="path2818"
       sodipodi:nodetypes="cc" />
    <path
       style="opacity:1;fill:none;stroke:url(#linearGradient2822);stroke-width:1.172;stroke-linecap:butt;stroke-linejoin:miter;stroke-miterlimit:4;stroke-dasharray:none;stroke-opacity:1"
       d="m 380.98412,240.06546 23.13761,9.72236"
       id="path2820"
       sodipodi:nodetypes="cc" />
    <text
       xml:space="preserve"
       style="font-size:10.5833px;line-height:1.25;font-family:Iosevka;-inkscape-font-specification:Iosevka;text-align:center;word-spacing:0px;text-anchor:middle;stroke-width:0.264583"
       x="458.34213"
       y="306.81738"
       id="text2842"><tspan
         sodipodi:role="line"
         x="458.34213"
         y="306.81738"
         style="text-align:center;text-anchor:middle;stroke-width:0.264583"
         id="tspan2840">semantically</tspan><tspan
         sodipodi:role="line"
         x="458.34213"
         y="320.04651"
         style="text-align:center;text-anchor:middle;stroke-width:0.264583"
         id="tspan2846">similar</tspan><tspan
         sodipodi:role="line"
         x="458.34213"
         y="333.27563"
         style="text-align:center;text-anchor:middle;stroke-width:0.264583"
         id="tspan2848">transforms</tspan></text>
    <path
       style="fill:none;stroke:#000000;stroke-width:1.095;stroke-linecap:butt;stroke-linejoin:miter;stroke-miterlimit:4;stroke-dasharray:1.095, 1.095;stroke-dashoffset:0;stroke-opacity:1;marker-end:url(#marker3286)"
       d="m 453.5937,340.53829 -14.53822,9.96232"
       id="path2852"
       sodipodi:nodetypes="cc" />
    <path
       style="fill:none;stroke:#000000;stroke-width:1.095;stroke-linecap:butt;stroke-linejoin:miter;stroke-miterlimit:4;stroke-dasharray:1.095, 1.095;stroke-dashoffset:0;stroke-opacity:1;marker-end:url(#marker3276)"
       d="m 377.40862,337.04835 17.12486,11.5521"
       id="path2856"
       sodipodi:nodetypes="cc" />
    <text
       xml:space="preserve"
       style="font-size:10.5833px;line-height:1.25;font-family:Iosevka;-inkscape-font-specification:Iosevka;text-align:center;word-spacing:0px;text-anchor:middle;stroke-width:0.264583"
       x="416.51248"
       y="361.76205"
       id="text3400"><tspan
         sodipodi:role="line"
         x="416.51248"
         y="361.76205"
         style="text-align:center;text-anchor:middle;stroke-width:0.264583"
         id="tspan3398">output</tspan></text>
  </g>
</svg>
