<?xml version="1.0" encoding="UTF-8" standalone="no"?>
<svg
   xmlns:dc="http://purl.org/dc/elements/1.1/"
   xmlns:cc="http://creativecommons.org/ns#"
   xmlns:rdf="http://www.w3.org/1999/02/22-rdf-syntax-ns#"
   xmlns:svg="http://www.w3.org/2000/svg"
   xmlns="http://www.w3.org/2000/svg"
   xmlns:xlink="http://www.w3.org/1999/xlink"
   xmlns:sodipodi="http://sodipodi.sourceforge.net/DTD/sodipodi-0.dtd"
   xmlns:inkscape="http://www.inkscape.org/namespaces/inkscape"
   inkscape:export-ydpi="96"
   inkscape:export-xdpi="96"
   inkscape:export-filename="/home/leoncito/Dropbox/Master bedroom/Documentos/General/Escolares/MIT/Notes/Program by talking/Presentations/2021-01-20-concept-alignment/media/dataset.png"
   inkscape:version="1.0.1 (3bc2e813f5, 2020-09-07, custom)"
   id="svg8"
   version="1.1"
   viewBox="0 0 375.07609 207.97915"
   height="786.06293"
   width="1417.6105"
   sodipodi:docname="dataset.svg">
  <defs
     id="defs2">
    <rect
       x="58.418476"
       y="58.145813"
       width="477.08179"
       height="227.13965"
       id="rect839" />
    <style
       id="style1622">.a{fill:#ed6d0b;}.b{fill:#000;}.c{fill:#fff;isolation:isolate;}</style>
    <linearGradient
       id="linearGradient5803">
      <stop
         id="stop5805"
         style="stop-color:#29a5e3;stop-opacity:1"
         offset="0" />
      <stop
         id="stop5811"
         style="stop-color:#356eb9;stop-opacity:1"
         offset="0.51549304" />
      <stop
         id="stop5807"
         style="stop-color:#394da5;stop-opacity:1"
         offset="1" />
    </linearGradient>
    <linearGradient
       id="linearGradient5793">
      <stop
         id="stop5795"
         style="stop-color:#2b7a77;stop-opacity:1"
         offset="0" />
      <stop
         id="stop5801"
         style="stop-color:#4ebaa9;stop-opacity:1"
         offset="0.51048726" />
      <stop
         id="stop5797"
         style="stop-color:#5cc2b1;stop-opacity:1"
         offset="1" />
    </linearGradient>
    <linearGradient
       id="linearGradient5783">
      <stop
         id="stop5785"
         style="stop-color:#236736;stop-opacity:1"
         offset="0" />
      <stop
         id="stop5791"
         style="stop-color:#6ba443;stop-opacity:1"
         offset="0.49279997" />
      <stop
         id="stop5787"
         style="stop-color:#86c146;stop-opacity:1"
         offset="1" />
    </linearGradient>
    <clipPath
       id="clipPath3627">
      <path
         d="M 637.5,36 H 755.211 V 55.516 H 637.5 Z"
         id="path3629" />
    </clipPath>
    <clipPath
       id="clipPath3737">
      <path
         d="M 637.5,36 H 755.211 V 55.516 H 637.5 Z"
         id="path3739" />
    </clipPath>
    <linearGradient
       x1="0"
       y1="0"
       x2="1"
       y2="0"
       id="linearGradient4508"
       gradientUnits="userSpaceOnUse"
       gradientTransform="matrix(7.9915388,-19.543162,-19.543162,-7.9915388,646.50186,55.497443)"
       spreadMethod="pad">
      <stop
         id="stop4510"
         style="stop-color:#267271;stop-opacity:1"
         offset="0" />
      <stop
         id="stop4512"
         style="stop-color:#338681;stop-opacity:1"
         offset="0.1" />
      <stop
         id="stop4514"
         style="stop-color:#39938c;stop-opacity:1"
         offset="0.2" />
      <stop
         id="stop4516"
         style="stop-color:#45a89c;stop-opacity:1"
         offset="0.30000001" />
      <stop
         id="stop4518"
         style="stop-color:#4cb4a5;stop-opacity:1"
         offset="0.40000001" />
      <stop
         id="stop4520"
         style="stop-color:#4ebaa9;stop-opacity:1"
         offset="0.50097954" />
      <stop
         id="stop4522"
         style="stop-color:#4fbcab;stop-opacity:1"
         offset="0.59805048" />
      <stop
         id="stop4524"
         style="stop-color:#50bdab;stop-opacity:1"
         offset="0.7002604" />
      <stop
         id="stop4526"
         style="stop-color:#50bdab;stop-opacity:1"
         offset="0.80312496" />
      <stop
         id="stop4528"
         style="stop-color:#50bdab;stop-opacity:1"
         offset="0.89999998" />
      <stop
         id="stop4530"
         style="stop-color:#50bdab;stop-opacity:1"
         offset="1" />
    </linearGradient>
    <linearGradient
       x1="0"
       y1="0"
       x2="1"
       y2="0"
       id="linearGradient4534"
       gradientUnits="userSpaceOnUse"
       gradientTransform="matrix(7.9915388,-19.543162,-19.543162,-7.9915388,646.50186,55.497443)"
       spreadMethod="pad">
      <stop
         id="stop4536"
         style="stop-color:#86c146;stop-opacity:1"
         offset="0" />
      <stop
         id="stop4538"
         style="stop-color:#83be45;stop-opacity:1"
         offset="0.1" />
      <stop
         id="stop4540"
         style="stop-color:#7bb544;stop-opacity:1"
         offset="0.2" />
      <stop
         id="stop4542"
         style="stop-color:#74af44;stop-opacity:1"
         offset="0.30000001" />
      <stop
         id="stop4544"
         style="stop-color:#6ca643;stop-opacity:1"
         offset="0.40000001" />
      <stop
         id="stop4546"
         style="stop-color:#5f9841;stop-opacity:1"
         offset="0.50097954" />
      <stop
         id="stop4548"
         style="stop-color:#55903f;stop-opacity:1"
         offset="0.59805048" />
      <stop
         id="stop4550"
         style="stop-color:#4a853d;stop-opacity:1"
         offset="0.7002604" />
      <stop
         id="stop4552"
         style="stop-color:#37773b;stop-opacity:1"
         offset="0.80312496" />
      <stop
         id="stop4554"
         style="stop-color:#327239;stop-opacity:1"
         offset="0.89999998" />
      <stop
         id="stop4556"
         style="stop-color:#1f6435;stop-opacity:1"
         offset="1" />
    </linearGradient>
    <linearGradient
       x1="1007.8929"
       y1="114.86218"
       x2="1410.125"
       y2="1065.3622"
       id="linearGradient4620"
       xlink:href="#linearGradient4482"
       gradientUnits="userSpaceOnUse" />
    <linearGradient
       x1="0"
       y1="0"
       x2="1"
       y2="0"
       id="linearGradient4482"
       gradientUnits="userSpaceOnUse"
       gradientTransform="matrix(7.9915388,-19.543162,-19.543162,-7.9915388,646.50186,55.497443)"
       spreadMethod="pad">
      <stop
         id="stop4484"
         style="stop-color:#29a5e3;stop-opacity:1"
         offset="0" />
      <stop
         id="stop4486"
         style="stop-color:#2197d9;stop-opacity:1"
         offset="0.1" />
      <stop
         id="stop4488"
         style="stop-color:#218cd1;stop-opacity:1"
         offset="0.2" />
      <stop
         id="stop4490"
         style="stop-color:#2f82ca;stop-opacity:1"
         offset="0.30000001" />
      <stop
         id="stop4492"
         style="stop-color:#3378c2;stop-opacity:1"
         offset="0.40000001" />
      <stop
         id="stop4494"
         style="stop-color:#356fba;stop-opacity:1"
         offset="0.50097954" />
      <stop
         id="stop4496"
         style="stop-color:#3667b5;stop-opacity:1"
         offset="0.59805048" />
      <stop
         id="stop4498"
         style="stop-color:#3660b0;stop-opacity:1"
         offset="0.7002604" />
      <stop
         id="stop4500"
         style="stop-color:#3958ab;stop-opacity:1"
         offset="0.80312496" />
      <stop
         id="stop4502"
         style="stop-color:#3a51a7;stop-opacity:1"
         offset="0.89999998" />
      <stop
         id="stop4504"
         style="stop-color:#394da5;stop-opacity:1"
         offset="1" />
    </linearGradient>
    <linearGradient
       x1="908.3681"
       y1="189.11996"
       x2="637.56842"
       y2="825.08893"
       id="linearGradient5789"
       xlink:href="#linearGradient5783"
       gradientUnits="userSpaceOnUse" />
    <linearGradient
       x1="627.31085"
       y1="939.97363"
       x2="1173.0133"
       y2="831.24347"
       id="linearGradient5799"
       xlink:href="#linearGradient5793"
       gradientUnits="userSpaceOnUse" />
    <linearGradient
       x1="1012.9952"
       y1="117.31702"
       x2="1410.9888"
       y2="1065.116"
       id="linearGradient5809"
       xlink:href="#linearGradient5803"
       gradientUnits="userSpaceOnUse" />
    <g
       id="g9682">
      <symbol
         overflow="visible"
         id="symbol5274">
        <path
           style="stroke:none"
           d=""
           id="path3788" />
      </symbol>
      <symbol
         overflow="visible"
         id="symbol3892">
        <path
           style="stroke:none"
           d="m 1.15625,2.375 c 0,0.0625 0.046875,0.125 0.109375,0.125 h 2.40625 C 3.734375,2.5 3.78125,2.4375 3.78125,2.375 V 2.203125 c 0,-0.0625 -0.046875,-0.109375 -0.109375,-0.109375 h -0.875 v -9.171875 h 0.875 c 0.0625,0 0.109375,-0.046875 0.109375,-0.109375 v -0.171875 c 0,-0.0625 -0.046875,-0.125 -0.109375,-0.125 h -2.40625 c -0.0625,0 -0.109375,0.0625 -0.109375,0.125 z M 2.390625,-7.078125 V 2.09375 H 1.5625 v -9.171875 z m 0,0"
           id="path7047" />
      </symbol>
      <symbol
         overflow="visible"
         id="symbol3058">
        <path
           style="stroke:none"
           d="M 1.59375,2.09375 V -7.078125 H 2.4375 V 2.09375 Z m 1.25,0.28125 v -9.734375 c 0,-0.0625 -0.046875,-0.125 -0.109375,-0.125 H 0.34375 c -0.046875,0 -0.109375,0.0625 -0.109375,0.125 V -7.1875 c 0,0.0625 0.0625,0.109375 0.109375,0.109375 H 1.203125 V 2.09375 H 0.34375 c -0.046875,0 -0.109375,0.046875 -0.109375,0.109375 V 2.375 c 0,0.0625 0.0625,0.125 0.109375,0.125 h 2.390625 c 0.0625,0 0.109375,-0.0625 0.109375,-0.125 z m 0,0"
           id="path8275" />
      </symbol>
      <symbol
         overflow="visible"
         id="symbol6003">
        <path
           style="stroke:none"
           d=""
           id="path5482" />
      </symbol>
      <symbol
         overflow="visible"
         id="symbol3733">
        <path
           style="stroke:none"
           d="m 3.953125,-3.78125 c -0.171875,0 -0.296875,0 -0.4375,0.125 -0.171875,0.15625 -0.1875,0.328125 -0.1875,0.390625 0,0.25 0.1875,0.359375 0.375,0.359375 0.28125,0 0.546875,-0.25 0.546875,-0.640625 0,-0.484375 -0.46875,-0.859375 -1.171875,-0.859375 -1.34375,0 -2.671875,1.421875 -2.671875,2.828125 0,0.90625 0.578125,1.6875 1.625,1.6875 1.421875,0 2.25,-1.0625 2.25,-1.171875 0,-0.0625 -0.046875,-0.140625 -0.109375,-0.140625 -0.0625,0 -0.078125,0.03125 -0.140625,0.109375 -0.78125,0.984375 -1.875,0.984375 -1.984375,0.984375 -0.625,0 -0.90625,-0.484375 -0.90625,-1.09375 0,-0.40625 0.203125,-1.375 0.546875,-1.984375 0.3125,-0.578125 0.859375,-1 1.40625,-1 0.328125,0 0.71875,0.125 0.859375,0.40625 z m 0,0"
           id="path2094" />
      </symbol>
      <symbol
         overflow="visible"
         id="symbol9257">
        <path
           style="stroke:none"
           d=""
           id="path3298" />
      </symbol>
      <symbol
         overflow="visible"
         id="symbol1946">
        <path
           style="stroke:none"
           d="m 0.515625,0.84375 c -0.046875,0.203125 -0.0625,0.25 -0.328125,0.25 -0.09375,0 -0.1875,0 -0.1875,0.15625 0,0.078125 0.0625,0.109375 0.09375,0.109375 0.171875,0 0.40625,-0.03125 0.59375,-0.03125 0.234375,0 0.5,0.03125 0.734375,0.03125 0.0625,0 0.140625,-0.03125 0.140625,-0.15625 0,-0.109375 -0.09375,-0.109375 -0.1875,-0.109375 -0.15625,0 -0.34375,0 -0.34375,-0.078125 0,-0.03125 0.0625,-0.21875 0.078125,-0.3125 0.09375,-0.375 0.1875,-0.75 0.265625,-1.046875 0.078125,0.140625 0.296875,0.40625 0.71875,0.40625 0.84375,0 1.78125,-0.9375 1.78125,-1.96875 0,-0.8125 -0.5625,-1.171875 -1.03125,-1.171875 -0.4375,0 -0.8125,0.296875 -1,0.5 -0.109375,-0.40625 -0.5,-0.5 -0.71875,-0.5 -0.265625,0 -0.4375,0.1875 -0.546875,0.375 -0.140625,0.234375 -0.25,0.65625 -0.25,0.703125 0,0.078125 0.09375,0.078125 0.125,0.078125 0.09375,0 0.09375,-0.015625 0.140625,-0.203125 0.109375,-0.40625 0.25,-0.75 0.515625,-0.75 0.1875,0 0.234375,0.15625 0.234375,0.34375 0,0.078125 -0.015625,0.15625 -0.03125,0.203125 z M 1.84375,-2.234375 C 2.25,-2.78125 2.59375,-2.875 2.8125,-2.875 c 0.28125,0 0.515625,0.203125 0.515625,0.671875 0,0.28125 -0.15625,1 -0.359375,1.40625 -0.1875,0.34375 -0.515625,0.671875 -0.875,0.671875 -0.5,0 -0.625,-0.53125 -0.625,-0.609375 0,-0.03125 0.015625,-0.078125 0.015625,-0.109375 z m 0,0"
           id="path3698" />
      </symbol>
    </g>
    <g
       id="g7615">
      <symbol
         overflow="visible"
         id="symbol6714">
        <path
           style="stroke:none"
           d=""
           id="path1454" />
      </symbol>
      <symbol
         overflow="visible"
         id="symbol2806">
        <path
           style="stroke:none"
           d="m 3.953125,-3.78125 c -0.171875,0 -0.296875,0 -0.4375,0.125 -0.171875,0.15625 -0.1875,0.328125 -0.1875,0.390625 0,0.25 0.1875,0.359375 0.375,0.359375 0.28125,0 0.546875,-0.25 0.546875,-0.640625 0,-0.484375 -0.46875,-0.859375 -1.171875,-0.859375 -1.34375,0 -2.671875,1.421875 -2.671875,2.828125 0,0.90625 0.578125,1.6875 1.625,1.6875 1.421875,0 2.25,-1.0625 2.25,-1.171875 0,-0.0625 -0.046875,-0.140625 -0.109375,-0.140625 -0.0625,0 -0.078125,0.03125 -0.140625,0.109375 -0.78125,0.984375 -1.875,0.984375 -1.984375,0.984375 -0.625,0 -0.90625,-0.484375 -0.90625,-1.09375 0,-0.40625 0.203125,-1.375 0.546875,-1.984375 0.3125,-0.578125 0.859375,-1 1.40625,-1 0.328125,0 0.71875,0.125 0.859375,0.40625 z m 0,0"
           id="path5637" />
      </symbol>
      <symbol
         overflow="visible"
         id="symbol9330">
        <path
           style="stroke:none"
           d=""
           id="path6566" />
      </symbol>
      <symbol
         overflow="visible"
         id="symbol2555">
        <path
           style="stroke:none"
           d="m 0.515625,0.84375 c -0.046875,0.203125 -0.0625,0.25 -0.328125,0.25 -0.09375,0 -0.1875,0 -0.1875,0.15625 0,0.078125 0.0625,0.109375 0.09375,0.109375 0.171875,0 0.40625,-0.03125 0.59375,-0.03125 0.234375,0 0.5,0.03125 0.734375,0.03125 0.0625,0 0.140625,-0.03125 0.140625,-0.15625 0,-0.109375 -0.09375,-0.109375 -0.1875,-0.109375 -0.15625,0 -0.34375,0 -0.34375,-0.078125 0,-0.03125 0.0625,-0.21875 0.078125,-0.3125 0.09375,-0.375 0.1875,-0.75 0.265625,-1.046875 0.078125,0.140625 0.296875,0.40625 0.71875,0.40625 0.84375,0 1.78125,-0.9375 1.78125,-1.96875 0,-0.8125 -0.5625,-1.171875 -1.03125,-1.171875 -0.4375,0 -0.8125,0.296875 -1,0.5 -0.109375,-0.40625 -0.5,-0.5 -0.71875,-0.5 -0.265625,0 -0.4375,0.1875 -0.546875,0.375 -0.140625,0.234375 -0.25,0.65625 -0.25,0.703125 0,0.078125 0.09375,0.078125 0.125,0.078125 0.09375,0 0.09375,-0.015625 0.140625,-0.203125 0.109375,-0.40625 0.25,-0.75 0.515625,-0.75 0.1875,0 0.234375,0.15625 0.234375,0.34375 0,0.078125 -0.015625,0.15625 -0.03125,0.203125 z M 1.84375,-2.234375 C 2.25,-2.78125 2.59375,-2.875 2.8125,-2.875 c 0.28125,0 0.515625,0.203125 0.515625,0.671875 0,0.28125 -0.15625,1 -0.359375,1.40625 -0.1875,0.34375 -0.515625,0.671875 -0.875,0.671875 -0.5,0 -0.625,-0.53125 -0.625,-0.609375 0,-0.03125 0.015625,-0.078125 0.015625,-0.109375 z m 0,0"
           id="path9082" />
      </symbol>
    </g>
    <g
       id="g3526">
      <symbol
         overflow="visible"
         id="symbol1099">
        <path
           style="stroke:none"
           d=""
           id="path9459" />
      </symbol>
      <symbol
         overflow="visible"
         id="symbol1507">
        <path
           style="stroke:none"
           d="m 2.046875,-3.984375 h 0.9375 c 0.203125,0 0.3125,0 0.3125,-0.203125 0,-0.109375 -0.109375,-0.109375 -0.28125,-0.109375 h -0.875 C 2.5,-5.71875 2.546875,-5.90625 2.546875,-5.96875 c 0,-0.171875 -0.125,-0.265625 -0.296875,-0.265625 -0.03125,0 -0.3125,0 -0.390625,0.359375 L 1.46875,-4.296875 h -0.9375 c -0.203125,0 -0.296875,0 -0.296875,0.1875 0,0.125 0.078125,0.125 0.28125,0.125 h 0.875 C 0.671875,-1.15625 0.625,-0.984375 0.625,-0.8125 0.625,-0.265625 1,0.109375 1.546875,0.109375 2.5625,0.109375 3.125,-1.34375 3.125,-1.421875 3.125,-1.53125 3.046875,-1.53125 3.015625,-1.53125 2.921875,-1.53125 2.90625,-1.5 2.859375,-1.390625 2.4375,-0.34375 1.90625,-0.109375 1.5625,-0.109375 c -0.203125,0 -0.3125,-0.125 -0.3125,-0.453125 0,-0.25 0.03125,-0.3125 0.0625,-0.484375 z m 0,0"
           id="path3970" />
      </symbol>
      <symbol
         overflow="visible"
         id="symbol5898">
        <path
           style="stroke:none"
           d="M 3.015625,-3.15625 H 4.71875 c 1.40625,0 2.796875,-1.03125 2.796875,-2.140625 0,-0.78125 -0.65625,-1.515625 -1.96875,-1.515625 h -3.21875 c -0.1875,0 -0.296875,0 -0.296875,0.1875 0,0.125 0.078125,0.125 0.28125,0.125 0.125,0 0.3125,0.015625 0.421875,0.015625 0.171875,0.03125 0.21875,0.046875 0.21875,0.171875 0,0.03125 0,0.0625 -0.03125,0.1875 l -1.34375,5.34375 c -0.09375,0.390625 -0.109375,0.46875 -0.90625,0.46875 -0.15625,0 -0.265625,0 -0.265625,0.1875 C 0.40625,0 0.515625,0 0.546875,0 0.828125,0 1.53125,-0.03125 1.8125,-0.03125 c 0.21875,0 0.4375,0.015625 0.640625,0.015625 0.21875,0 0.4375,0.015625 0.640625,0.015625 0.078125,0 0.203125,0 0.203125,-0.203125 0,-0.109375 -0.09375,-0.109375 -0.28125,-0.109375 -0.359375,0 -0.640625,0 -0.640625,-0.171875 0,-0.0625 0.015625,-0.109375 0.03125,-0.171875 z M 3.734375,-6.125 C 3.828125,-6.46875 3.84375,-6.5 4.28125,-6.5 h 0.953125 c 0.828125,0 1.359375,0.265625 1.359375,0.953125 0,0.390625 -0.203125,1.25 -0.59375,1.609375 -0.5,0.453125 -1.09375,0.53125 -1.53125,0.53125 H 3.0625 Z m 0,0"
           id="path6410" />
      </symbol>
      <symbol
         overflow="visible"
         id="symbol5765">
        <path
           style="stroke:none"
           d=""
           id="path1519" />
      </symbol>
      <symbol
         overflow="visible"
         id="symbol4364">
        <path
           style="stroke:none"
           d="m 1.90625,-3.765625 c 0,-0.296875 -0.234375,-0.53125 -0.515625,-0.53125 -0.296875,0 -0.53125,0.234375 -0.53125,0.53125 0,0.28125 0.234375,0.53125 0.53125,0.53125 0.28125,0 0.515625,-0.25 0.515625,-0.53125 z m 0,3.234375 c 0,-0.28125 -0.234375,-0.53125 -0.515625,-0.53125 -0.296875,0 -0.53125,0.25 -0.53125,0.53125 C 0.859375,-0.234375 1.09375,0 1.390625,0 1.671875,0 1.90625,-0.234375 1.90625,-0.53125 Z m 0,0"
           id="path9015" />
      </symbol>
      <symbol
         overflow="visible"
         id="symbol4988">
        <path
           style="stroke:none"
           d=""
           id="path8219" />
      </symbol>
      <symbol
         overflow="visible"
         id="symbol7492">
        <path
           style="stroke:none"
           d="M 8.3125,-2.296875 C 7.765625,-1.875 7.5,-1.46875 7.421875,-1.328125 c -0.453125,0.6875 -0.53125,1.3125 -0.53125,1.3125 0,0.125 0.125,0.125 0.203125,0.125 C 7.25,0.109375 7.265625,0.09375 7.3125,-0.09375 7.53125,-1.0625 8.125,-1.90625 9.25,-2.359375 9.375,-2.40625 9.40625,-2.421875 9.40625,-2.5 c 0,-0.0625 -0.0625,-0.09375 -0.078125,-0.109375 C 8.875,-2.765625 7.671875,-3.265625 7.296875,-4.9375 7.265625,-5.0625 7.25,-5.09375 7.09375,-5.09375 c -0.078125,0 -0.203125,0 -0.203125,0.125 0,0.015625 0.09375,0.640625 0.5,1.3125 0.203125,0.296875 0.5,0.640625 0.921875,0.96875 H 0.90625 c -0.171875,0 -0.359375,0 -0.359375,0.1875 0,0.203125 0.1875,0.203125 0.359375,0.203125 z m 0,0"
           id="path6763" />
      </symbol>
    </g>
    <g
       id="g5729">
      <symbol
         overflow="visible"
         id="symbol4996">
        <path
           style="stroke:none"
           d=""
           id="path3665" />
      </symbol>
      <symbol
         overflow="visible"
         id="symbol4792">
        <path
           style="stroke:none"
           d="m 1.15625,2.375 c 0,0.0625 0.046875,0.125 0.109375,0.125 h 2.40625 C 3.734375,2.5 3.78125,2.4375 3.78125,2.375 V 2.203125 c 0,-0.0625 -0.046875,-0.109375 -0.109375,-0.109375 h -0.875 v -9.171875 h 0.875 c 0.0625,0 0.109375,-0.046875 0.109375,-0.109375 v -0.171875 c 0,-0.0625 -0.046875,-0.125 -0.109375,-0.125 h -2.40625 c -0.0625,0 -0.109375,0.0625 -0.109375,0.125 z M 2.390625,-7.078125 V 2.09375 H 1.5625 v -9.171875 z m 0,0"
           id="path5425" />
      </symbol>
      <symbol
         overflow="visible"
         id="symbol8928">
        <path
           style="stroke:none"
           d="M 1.59375,2.09375 V -7.078125 H 2.4375 V 2.09375 Z m 1.25,0.28125 v -9.734375 c 0,-0.0625 -0.046875,-0.125 -0.109375,-0.125 H 0.34375 c -0.046875,0 -0.109375,0.0625 -0.109375,0.125 V -7.1875 c 0,0.0625 0.0625,0.109375 0.109375,0.109375 H 1.203125 V 2.09375 H 0.34375 c -0.046875,0 -0.109375,0.046875 -0.109375,0.109375 V 2.375 c 0,0.0625 0.0625,0.125 0.109375,0.125 h 2.390625 c 0.0625,0 0.109375,-0.0625 0.109375,-0.125 z m 0,0"
           id="path2486" />
      </symbol>
      <symbol
         overflow="visible"
         id="symbol1795">
        <path
           style="stroke:none"
           d=""
           id="path1510" />
      </symbol>
      <symbol
         overflow="visible"
         id="symbol7758">
        <path
           style="stroke:none"
           d="m 2.046875,-3.984375 h 0.9375 c 0.203125,0 0.3125,0 0.3125,-0.203125 0,-0.109375 -0.109375,-0.109375 -0.28125,-0.109375 h -0.875 C 2.5,-5.71875 2.546875,-5.90625 2.546875,-5.96875 c 0,-0.171875 -0.125,-0.265625 -0.296875,-0.265625 -0.03125,0 -0.3125,0 -0.390625,0.359375 L 1.46875,-4.296875 h -0.9375 c -0.203125,0 -0.296875,0 -0.296875,0.1875 0,0.125 0.078125,0.125 0.28125,0.125 h 0.875 C 0.671875,-1.15625 0.625,-0.984375 0.625,-0.8125 0.625,-0.265625 1,0.109375 1.546875,0.109375 2.5625,0.109375 3.125,-1.34375 3.125,-1.421875 3.125,-1.53125 3.046875,-1.53125 3.015625,-1.53125 2.921875,-1.53125 2.90625,-1.5 2.859375,-1.390625 2.4375,-0.34375 1.90625,-0.109375 1.5625,-0.109375 c -0.203125,0 -0.3125,-0.125 -0.3125,-0.453125 0,-0.25 0.03125,-0.3125 0.0625,-0.484375 z m 0,0"
           id="path619" />
      </symbol>
      <symbol
         overflow="visible"
         id="symbol1777">
        <path
           style="stroke:none"
           d="m 3.953125,-3.78125 c -0.171875,0 -0.296875,0 -0.4375,0.125 -0.171875,0.15625 -0.1875,0.328125 -0.1875,0.390625 0,0.25 0.1875,0.359375 0.375,0.359375 0.28125,0 0.546875,-0.25 0.546875,-0.640625 0,-0.484375 -0.46875,-0.859375 -1.171875,-0.859375 -1.34375,0 -2.671875,1.421875 -2.671875,2.828125 0,0.90625 0.578125,1.6875 1.625,1.6875 1.421875,0 2.25,-1.0625 2.25,-1.171875 0,-0.0625 -0.046875,-0.140625 -0.109375,-0.140625 -0.0625,0 -0.078125,0.03125 -0.140625,0.109375 -0.78125,0.984375 -1.875,0.984375 -1.984375,0.984375 -0.625,0 -0.90625,-0.484375 -0.90625,-1.09375 0,-0.40625 0.203125,-1.375 0.546875,-1.984375 0.3125,-0.578125 0.859375,-1 1.40625,-1 0.328125,0 0.71875,0.125 0.859375,0.40625 z m 0,0"
           id="path842" />
      </symbol>
      <symbol
         overflow="visible"
         id="symbol4075">
        <path
           style="stroke:none"
           d=""
           id="path8832" />
      </symbol>
      <symbol
         overflow="visible"
         id="symbol7465">
        <path
           style="stroke:none"
           d="m 3.296875,2.390625 c 0,-0.03125 0,-0.046875 -0.171875,-0.21875 C 1.890625,0.921875 1.5625,-0.96875 1.5625,-2.5 c 0,-1.734375 0.375,-3.46875 1.609375,-4.703125 0.125,-0.125 0.125,-0.140625 0.125,-0.171875 0,-0.078125 -0.03125,-0.109375 -0.09375,-0.109375 -0.109375,0 -1,0.6875 -1.59375,1.953125 -0.5,1.09375 -0.625,2.203125 -0.625,3.03125 0,0.78125 0.109375,1.984375 0.65625,3.125 C 2.25,1.84375 3.09375,2.5 3.203125,2.5 c 0.0625,0 0.09375,-0.03125 0.09375,-0.109375 z m 0,0"
           id="path8253" />
      </symbol>
      <symbol
         overflow="visible"
         id="symbol2691">
        <path
           style="stroke:none"
           d="m 2.875,-2.5 c 0,-0.765625 -0.109375,-1.96875 -0.65625,-3.109375 -0.59375,-1.21875 -1.453125,-1.875 -1.546875,-1.875 -0.0625,0 -0.109375,0.046875 -0.109375,0.109375 0,0.03125 0,0.046875 0.1875,0.234375 0.984375,0.984375 1.546875,2.5625 1.546875,4.640625 0,1.71875 -0.359375,3.46875 -1.59375,4.71875 C 0.5625,2.34375 0.5625,2.359375 0.5625,2.390625 0.5625,2.453125 0.609375,2.5 0.671875,2.5 0.765625,2.5 1.671875,1.8125 2.25,0.546875 2.765625,-0.546875 2.875,-1.65625 2.875,-2.5 Z m 0,0"
           id="path5336" />
      </symbol>
      <symbol
         overflow="visible"
         id="symbol6889">
        <path
           style="stroke:none"
           d=""
           id="path8616" />
      </symbol>
      <symbol
         overflow="visible"
         id="symbol2867">
        <path
           style="stroke:none"
           d="m 0.515625,0.84375 c -0.046875,0.203125 -0.0625,0.25 -0.328125,0.25 -0.09375,0 -0.1875,0 -0.1875,0.15625 0,0.078125 0.0625,0.109375 0.09375,0.109375 0.171875,0 0.40625,-0.03125 0.59375,-0.03125 0.234375,0 0.5,0.03125 0.734375,0.03125 0.0625,0 0.140625,-0.03125 0.140625,-0.15625 0,-0.109375 -0.09375,-0.109375 -0.1875,-0.109375 -0.15625,0 -0.34375,0 -0.34375,-0.078125 0,-0.03125 0.0625,-0.21875 0.078125,-0.3125 0.09375,-0.375 0.1875,-0.75 0.265625,-1.046875 0.078125,0.140625 0.296875,0.40625 0.71875,0.40625 0.84375,0 1.78125,-0.9375 1.78125,-1.96875 0,-0.8125 -0.5625,-1.171875 -1.03125,-1.171875 -0.4375,0 -0.8125,0.296875 -1,0.5 -0.109375,-0.40625 -0.5,-0.5 -0.71875,-0.5 -0.265625,0 -0.4375,0.1875 -0.546875,0.375 -0.140625,0.234375 -0.25,0.65625 -0.25,0.703125 0,0.078125 0.09375,0.078125 0.125,0.078125 0.09375,0 0.09375,-0.015625 0.140625,-0.203125 0.109375,-0.40625 0.25,-0.75 0.515625,-0.75 0.1875,0 0.234375,0.15625 0.234375,0.34375 0,0.078125 -0.015625,0.15625 -0.03125,0.203125 z M 1.84375,-2.234375 C 2.25,-2.78125 2.59375,-2.875 2.8125,-2.875 c 0.28125,0 0.515625,0.203125 0.515625,0.671875 0,0.28125 -0.15625,1 -0.359375,1.40625 -0.1875,0.34375 -0.515625,0.671875 -0.875,0.671875 -0.5,0 -0.625,-0.53125 -0.625,-0.609375 0,-0.03125 0.015625,-0.078125 0.015625,-0.109375 z m 0,0"
           id="path250" />
      </symbol>
    </g>
    <g
       id="g3788">
      <symbol
         overflow="visible"
         id="symbol2429">
        <path
           style="stroke:none"
           d=""
           id="path8606" />
      </symbol>
      <symbol
         overflow="visible"
         id="symbol6818">
        <path
           style="stroke:none"
           d="M 3.484375,-0.5625 C 3.59375,-0.15625 3.953125,0.109375 4.375,0.109375 4.71875,0.109375 4.953125,-0.125 5.109375,-0.4375 5.28125,-0.796875 5.40625,-1.40625 5.40625,-1.421875 c 0,-0.109375 -0.078125,-0.109375 -0.109375,-0.109375 -0.109375,0 -0.109375,0.046875 -0.140625,0.1875 -0.140625,0.5625 -0.328125,1.234375 -0.75,1.234375 -0.203125,0 -0.3125,-0.125 -0.3125,-0.453125 0,-0.21875 0.125,-0.6875 0.203125,-1.046875 L 4.578125,-2.6875 C 4.609375,-2.828125 4.703125,-3.203125 4.75,-3.359375 4.796875,-3.59375 4.890625,-3.96875 4.890625,-4.03125 c 0,-0.171875 -0.140625,-0.265625 -0.28125,-0.265625 -0.046875,0 -0.3125,0.015625 -0.390625,0.34375 -0.1875,0.734375 -0.625,2.484375 -0.75,3 -0.015625,0.046875 -0.40625,0.84375 -1.140625,0.84375 -0.515625,0 -0.609375,-0.453125 -0.609375,-0.8125 0,-0.5625 0.28125,-1.34375 0.53125,-2.03125 0.125,-0.3125 0.171875,-0.453125 0.171875,-0.640625 0,-0.4375 -0.3125,-0.8125 -0.8125,-0.8125 -0.953125,0 -1.3125,1.453125 -1.3125,1.53125 0,0.109375 0.09375,0.109375 0.109375,0.109375 0.109375,0 0.109375,-0.03125 0.15625,-0.1875 0.25,-0.859375 0.640625,-1.234375 1.015625,-1.234375 0.09375,0 0.25,0.015625 0.25,0.328125 0,0.234375 -0.109375,0.53125 -0.171875,0.671875 -0.375,1 -0.578125,1.609375 -0.578125,2.09375 0,0.953125 0.6875,1.203125 1.21875,1.203125 0.65625,0 1.015625,-0.453125 1.1875,-0.671875 z m 0,0"
           id="path3876" />
      </symbol>
    </g>
  </defs>
  <sodipodi:namedview
     id="base"
     pagecolor="#ffffff"
     bordercolor="#666666"
     borderopacity="1.0"
     inkscape:pageopacity="0.0"
     inkscape:pageshadow="2"
     inkscape:zoom="0.73703598"
     inkscape:cx="645.85553"
     inkscape:cy="380.66257"
     inkscape:document-units="mm"
     inkscape:current-layer="layer1"
     inkscape:document-rotation="0"
     showgrid="false"
     units="px"
     showguides="false"
     inkscape:window-width="1920"
     inkscape:window-height="1042"
     inkscape:window-x="0"
     inkscape:window-y="38"
     inkscape:window-maximized="0"
     inkscape:snap-text-baseline="false" />
  <metadata
     id="metadata5">
    <rdf:RDF>
      <cc:Work
         rdf:about="">
        <dc:format>image/svg+xml</dc:format>
        <dc:type
           rdf:resource="http://purl.org/dc/dcmitype/StillImage" />
        <dc:title></dc:title>
      </cc:Work>
    </rdf:RDF>
  </metadata>
  <g
     inkscape:label="Layer 1"
     inkscape:groupmode="layer"
     id="layer1"
     transform="translate(80.283101,-32.573479)">
    <text
       xml:space="preserve"
       style="font-size:20.5862px;line-height:1.25;font-family:sans-serif;text-align:end;word-spacing:0px;text-anchor:end;stroke-width:0.514657"
       x="62.139675"
       y="155.87601"
       id="text3817"><tspan
         sodipodi:role="line"
         id="tspan3815"
         x="62.139679"
         y="155.87601"
         style="font-style:normal;font-variant:normal;font-weight:normal;font-stretch:normal;font-family:Iosevka;-inkscape-font-specification:Iosevka;stroke-width:0.514657">&quot;make orange&quot;</tspan></text>
    <text
       xml:space="preserve"
       style="font-style:normal;font-variant:normal;font-weight:normal;font-stretch:normal;font-size:11.0432px;line-height:1.25;font-family:Iosevka;-inkscape-font-specification:Iosevka;text-align:end;word-spacing:0px;text-anchor:end;stroke-width:0.276082"
       x="266.28049"
       y="65.370354"
       id="text3821"><tspan
         sodipodi:role="line"
         id="tspan3819"
         x="266.28049"
         y="65.370354"
         style="font-style:normal;font-variant:normal;font-weight:normal;font-stretch:normal;font-family:Iosevka;-inkscape-font-specification:Iosevka;stroke-width:0.276082">{</tspan><tspan
         sodipodi:role="line"
         x="266.28049"
         y="79.174355"
         style="font-style:normal;font-variant:normal;font-weight:normal;font-stretch:normal;font-family:Iosevka;-inkscape-font-specification:Iosevka;stroke-width:0.276082"
         id="tspan3823">&quot;make red&quot;: color = '#ff0000,</tspan><tspan
         sodipodi:role="line"
         x="266.28049"
         y="92.978355"
         style="font-style:normal;font-variant:normal;font-weight:normal;font-stretch:normal;font-family:Iosevka;-inkscape-font-specification:Iosevka;stroke-width:0.276082"
         id="tspan3825">&quot;dashed line&quot; : linestyle = '--',</tspan><tspan
         sodipodi:role="line"
         x="266.28049"
         y="106.78235"
         style="font-style:normal;font-variant:normal;font-weight:normal;font-stretch:normal;font-family:Iosevka;-inkscape-font-specification:Iosevka;stroke-width:0.276082"
         id="tspan3827">...</tspan><tspan
         sodipodi:role="line"
         x="266.28049"
         y="120.58635"
         style="font-style:normal;font-variant:normal;font-weight:normal;font-stretch:normal;font-family:Iosevka;-inkscape-font-specification:Iosevka;stroke-width:0.276082"
         id="tspan3829">}</tspan></text>
    <g
       id="g13510"
       transform="matrix(-2.41312,0,0,2.41312,565.44855,231.09116)"
       style="stroke-width:1;stroke-miterlimit:4;stroke-dasharray:none">
      <circle
         style="fill:none;stroke:#000000;stroke-width:1;stroke-miterlimit:4;stroke-dasharray:none;stroke-opacity:1"
         id="circle13498"
         cx="231.93317"
         cy="-7.8401971"
         r="11.261042" />
      <circle
         style="fill:none;stroke:#000000;stroke-width:1;stroke-miterlimit:4;stroke-dasharray:none;stroke-opacity:1"
         id="circle13500"
         cx="224.74547"
         cy="-8.0913029"
         r="2.5273232" />
      <circle
         style="fill:none;stroke:#000000;stroke-width:1;stroke-miterlimit:4;stroke-dasharray:none;stroke-opacity:1"
         id="circle13502"
         cx="236.42357"
         cy="-7.8004174"
         r="2.6222768" />
      <path
         style="fill:none;stroke:#000000;stroke-width:1;stroke-linecap:butt;stroke-linejoin:miter;stroke-miterlimit:4;stroke-dasharray:none;stroke-opacity:1"
         d="m 228.37691,-4.20323 c 1.97134,0.9772231 3.32638,0.8005613 4.63135,0.038329"
         id="path13504"
         sodipodi:nodetypes="cc" />
      <circle
         style="fill:#4d4d4d;fill-opacity:1;stroke:#000000;stroke-width:1;stroke-miterlimit:4;stroke-dasharray:none;stroke-opacity:1"
         id="circle13506"
         cx="225.26132"
         cy="-7.3550286"
         r="1.6303868" />
      <circle
         style="fill:#4d4d4d;fill-opacity:1;stroke:#000000;stroke-width:1;stroke-miterlimit:4;stroke-dasharray:none;stroke-opacity:1"
         id="circle13508"
         cx="235.77544"
         cy="-8.6801319"
         r="1.6303868" />
    </g>
    <g
       id="g2432"
       transform="matrix(3.185034,0,0,3.185034,-534.23731,-535.09619)">
      <circle
         style="fill:none;fill-opacity:1;stroke:#000000;stroke-width:0.828803;stroke-linecap:round;stroke-linejoin:round;stroke-miterlimit:4;stroke-dasharray:none;stroke-opacity:1;paint-order:stroke fill markers"
         id="path2392"
         cx="199.63887"
         cy="235.35712"
         r="2.1585767" />
      <circle
         style="fill:none;fill-opacity:1;stroke:#000000;stroke-width:0.828803;stroke-linecap:round;stroke-linejoin:round;stroke-miterlimit:4;stroke-dasharray:none;stroke-opacity:1;paint-order:stroke fill markers"
         id="circle2406"
         cx="216.07849"
         cy="235.35712"
         r="2.1585767" />
      <rect
         style="fill:#ffffff;fill-opacity:1;stroke:#000000;stroke-width:1.53328;stroke-linecap:round;stroke-linejoin:round;stroke-miterlimit:4;stroke-dasharray:none;stroke-opacity:1;paint-order:stroke fill markers"
         id="rect2408"
         width="1.4283506"
         height="5.2834826"
         x="207.28967"
         y="226.75743"
         ry="0.67734712" />
      <rect
         style="fill:#ffffff;fill-opacity:1;stroke:#000000;stroke-width:1.53328;stroke-linecap:round;stroke-linejoin:round;stroke-miterlimit:4;stroke-dasharray:none;stroke-opacity:1;paint-order:stroke fill markers"
         id="rect2390"
         width="16.205122"
         height="8.102561"
         x="199.56126"
         y="231.62366"
         ry="2.2591224" />
      <circle
         style="fill:none;fill-opacity:1;stroke:#000000;stroke-width:1.01737;stroke-linecap:round;stroke-linejoin:round;stroke-miterlimit:4;stroke-dasharray:none;stroke-opacity:1;paint-order:stroke fill markers"
         id="circle2396"
         cx="210.78946"
         cy="234.56564"
         r="1.8454318" />
      <rect
         style="fill:#ffffff;fill-opacity:1;stroke:#000000;stroke-width:1.53328;stroke-linecap:round;stroke-linejoin:round;stroke-miterlimit:4;stroke-dasharray:none;stroke-opacity:1;paint-order:stroke fill markers"
         id="rect2402"
         width="4.6611242"
         height="1.3546942"
         x="204.56064"
         y="237.47545"
         ry="0.67734712" />
      <circle
         style="fill:none;fill-opacity:1;stroke:#000000;stroke-width:1.01737;stroke-linecap:round;stroke-linejoin:round;stroke-miterlimit:4;stroke-dasharray:none;stroke-opacity:1;paint-order:stroke fill markers"
         id="circle2404"
         cx="202.82896"
         cy="234.56564"
         r="1.8454318" />
    </g>
    <text
       xml:space="preserve"
       style="font-size:34.1813px;line-height:1.25;font-family:sans-serif;text-align:end;word-spacing:0px;text-anchor:end;stroke-width:0.854535"
       x="186.53711"
       y="143.8716"
       id="text3987"><tspan
         sodipodi:role="line"
         id="tspan3985"
         x="186.53711"
         y="143.8716"
         style="font-style:normal;font-variant:normal;font-weight:normal;font-stretch:normal;font-family:Iosevka;-inkscape-font-specification:Iosevka;stroke-width:0.854535">?</tspan></text>
    <path
       id="rect3991"
       style="opacity:1;fill:none;stroke:#000000;stroke-width:9.52063;stroke-linecap:square;stroke-linejoin:bevel;stroke-miterlimit:4;stroke-dasharray:none;stroke-dashoffset:0;stroke-opacity:1;paint-order:markers fill stroke"
       d="m -269.42383,493.10742 c -16.20339,0 -29.24805,13.04468 -29.24805,29.24805 v 79.86914 c 0,16.20336 13.04466,29.24805 29.24805,29.24805 h 121.99024 l -4.13086,2.09375 88.652341,57.83203 3.263671,-59.92578 H 225.54492 c 16.20339,0 29.24805,-13.04469 29.24805,-29.24805 v -79.86914 c 0,-16.20337 -13.04466,-29.24805 -29.24805,-29.24805 z"
       transform="scale(0.26458333)" />
    <path
       id="rect4015"
       style="opacity:1;fill:none;stroke:#000000;stroke-width:9.52063;stroke-linecap:square;stroke-linejoin:bevel;stroke-miterlimit:4;stroke-dasharray:none;stroke-dashoffset:0;stroke-opacity:1;paint-order:markers fill stroke"
       d="M 740.35938 4.7597656 A 197.65849 123.2899 0 0 0 543.67188 128.04883 A 197.65849 123.2899 0 0 0 597.78516 212.80273 L 597.78516 216.05469 A 197.65849 123.2899 0 0 0 550.40234 296.14258 A 197.65849 123.2899 0 0 0 593.01953 372.61328 A 126.64693 57.550423 0 0 0 584.48438 393.38281 A 126.64693 57.550423 0 0 0 711.13086 450.93359 A 126.64693 57.550423 0 0 0 812.59766 427.82227 A 197.65849 123.2899 0 0 0 955.91406 466.20898 A 197.65849 123.2899 0 0 0 966.08203 466.04492 A 81.587974 53.359091 0 0 0 965.75586 470.81055 A 81.587974 53.359091 0 0 0 1047.3438 524.16992 A 81.587974 53.359091 0 0 0 1123.4199 490.0918 A 85.402136 43.901449 0 0 0 1144.5781 491.46094 A 85.402136 43.901449 0 0 0 1229.9805 447.55859 A 85.402136 43.901449 0 0 0 1229.4609 442.7168 A 197.65849 123.2899 0 0 0 1412.8496 319.74805 A 197.65849 123.2899 0 0 0 1345.5605 227.07812 L 1345.5605 209.66406 A 197.65849 123.2899 0 0 0 1378.8672 141.17383 A 197.65849 123.2899 0 0 0 1181.209 17.882812 A 197.65849 123.2899 0 0 0 1107.8145 26.697266 A 197.65849 123.2899 0 0 0 1051.5059 21.587891 A 197.65849 123.2899 0 0 0 906.97266 60.779297 A 197.65849 123.2899 0 0 0 741.33008 4.7597656 A 197.65849 123.2899 0 0 0 740.35938 4.7597656 z "
       transform="matrix(0.26458333,0,0,0.26458333,-80.283101,32.573479)" />
    <ellipse
       style="opacity:1;fill:none;stroke:#000000;stroke-width:2.519;stroke-linecap:square;stroke-linejoin:bevel;stroke-miterlimit:4;stroke-dasharray:none;stroke-dashoffset:0;stroke-opacity:1;paint-order:markers fill stroke"
       id="path4170"
       cx="174.83022"
       cy="178.74171"
       rx="7.8567886"
       ry="8.7910824" />
  </g>
</svg>
