<?xml version="1.0" encoding="UTF-8" standalone="no"?>
<svg
   xmlns:dc="http://purl.org/dc/elements/1.1/"
   xmlns:cc="http://creativecommons.org/ns#"
   xmlns:rdf="http://www.w3.org/1999/02/22-rdf-syntax-ns#"
   xmlns:svg="http://www.w3.org/2000/svg"
   xmlns="http://www.w3.org/2000/svg"
   xmlns:xlink="http://www.w3.org/1999/xlink"
   xmlns:sodipodi="http://sodipodi.sourceforge.net/DTD/sodipodi-0.dtd"
   xmlns:inkscape="http://www.inkscape.org/namespaces/inkscape"
   inkscape:export-ydpi="96"
   inkscape:export-xdpi="96"
   inkscape:export-filename="/home/leoncito/Dropbox/Master bedroom/Documentos/General/Escolares/MIT/Notes/Program by talking/Presentations/2021-01-20-concept-alignment/media/variables.png"
   inkscape:version="1.0.1 (3bc2e813f5, 2020-09-07, custom)"
   id="svg8"
   version="1.1"
   viewBox="0 0 529.16665 529.16668"
   height="2000"
   width="2000"
   sodipodi:docname="variables.svg">
  <defs
     id="defs2">
    <rect
       x="58.418476"
       y="58.145814"
       width="477.08178"
       height="227.13965"
       id="rect839" />
    <style
       id="style1622">.a{fill:#ed6d0b;}.b{fill:#000;}.c{fill:#fff;isolation:isolate;}</style>
    <linearGradient
       id="linearGradient5803">
      <stop
         id="stop5805"
         style="stop-color:#29a5e3;stop-opacity:1"
         offset="0" />
      <stop
         id="stop5811"
         style="stop-color:#356eb9;stop-opacity:1"
         offset="0.51549304" />
      <stop
         id="stop5807"
         style="stop-color:#394da5;stop-opacity:1"
         offset="1" />
    </linearGradient>
    <linearGradient
       id="linearGradient5793">
      <stop
         id="stop5795"
         style="stop-color:#2b7a77;stop-opacity:1"
         offset="0" />
      <stop
         id="stop5801"
         style="stop-color:#4ebaa9;stop-opacity:1"
         offset="0.51048726" />
      <stop
         id="stop5797"
         style="stop-color:#5cc2b1;stop-opacity:1"
         offset="1" />
    </linearGradient>
    <linearGradient
       id="linearGradient5783">
      <stop
         id="stop5785"
         style="stop-color:#236736;stop-opacity:1"
         offset="0" />
      <stop
         id="stop5791"
         style="stop-color:#6ba443;stop-opacity:1"
         offset="0.49279997" />
      <stop
         id="stop5787"
         style="stop-color:#86c146;stop-opacity:1"
         offset="1" />
    </linearGradient>
    <clipPath
       id="clipPath3627">
      <path
         d="M 637.5,36 L 755.211,36 L 755.211,55.516 L 637.5,55.516 L 637.5,36 z"
         id="path3629" />
    </clipPath>
    <clipPath
       id="clipPath3737">
      <path
         d="M 637.5,36 L 755.211,36 L 755.211,55.516 L 637.5,55.516 L 637.5,36 z"
         id="path3739" />
    </clipPath>
    <linearGradient
       x1="0"
       y1="0"
       x2="1"
       y2="0"
       id="linearGradient4508"
       gradientUnits="userSpaceOnUse"
       gradientTransform="matrix(7.9915388,-19.543162,-19.543162,-7.9915388,646.50186,55.497443)"
       spreadMethod="pad">
      <stop
         id="stop4510"
         style="stop-color:#267271;stop-opacity:1"
         offset="0" />
      <stop
         id="stop4512"
         style="stop-color:#338681;stop-opacity:1"
         offset="0.1" />
      <stop
         id="stop4514"
         style="stop-color:#39938c;stop-opacity:1"
         offset="0.2" />
      <stop
         id="stop4516"
         style="stop-color:#45a89c;stop-opacity:1"
         offset="0.30000001" />
      <stop
         id="stop4518"
         style="stop-color:#4cb4a5;stop-opacity:1"
         offset="0.40000001" />
      <stop
         id="stop4520"
         style="stop-color:#4ebaa9;stop-opacity:1"
         offset="0.50097954" />
      <stop
         id="stop4522"
         style="stop-color:#4fbcab;stop-opacity:1"
         offset="0.59805048" />
      <stop
         id="stop4524"
         style="stop-color:#50bdab;stop-opacity:1"
         offset="0.7002604" />
      <stop
         id="stop4526"
         style="stop-color:#50bdab;stop-opacity:1"
         offset="0.80312496" />
      <stop
         id="stop4528"
         style="stop-color:#50bdab;stop-opacity:1"
         offset="0.89999998" />
      <stop
         id="stop4530"
         style="stop-color:#50bdab;stop-opacity:1"
         offset="1" />
    </linearGradient>
    <linearGradient
       x1="0"
       y1="0"
       x2="1"
       y2="0"
       id="linearGradient4534"
       gradientUnits="userSpaceOnUse"
       gradientTransform="matrix(7.9915388,-19.543162,-19.543162,-7.9915388,646.50186,55.497443)"
       spreadMethod="pad">
      <stop
         id="stop4536"
         style="stop-color:#86c146;stop-opacity:1"
         offset="0" />
      <stop
         id="stop4538"
         style="stop-color:#83be45;stop-opacity:1"
         offset="0.1" />
      <stop
         id="stop4540"
         style="stop-color:#7bb544;stop-opacity:1"
         offset="0.2" />
      <stop
         id="stop4542"
         style="stop-color:#74af44;stop-opacity:1"
         offset="0.30000001" />
      <stop
         id="stop4544"
         style="stop-color:#6ca643;stop-opacity:1"
         offset="0.40000001" />
      <stop
         id="stop4546"
         style="stop-color:#5f9841;stop-opacity:1"
         offset="0.50097954" />
      <stop
         id="stop4548"
         style="stop-color:#55903f;stop-opacity:1"
         offset="0.59805048" />
      <stop
         id="stop4550"
         style="stop-color:#4a853d;stop-opacity:1"
         offset="0.7002604" />
      <stop
         id="stop4552"
         style="stop-color:#37773b;stop-opacity:1"
         offset="0.80312496" />
      <stop
         id="stop4554"
         style="stop-color:#327239;stop-opacity:1"
         offset="0.89999998" />
      <stop
         id="stop4556"
         style="stop-color:#1f6435;stop-opacity:1"
         offset="1" />
    </linearGradient>
    <linearGradient
       x1="1007.8929"
       y1="114.86218"
       x2="1410.125"
       y2="1065.3622"
       id="linearGradient4620"
       xlink:href="#linearGradient4482"
       gradientUnits="userSpaceOnUse" />
    <linearGradient
       x1="0"
       y1="0"
       x2="1"
       y2="0"
       id="linearGradient4482"
       gradientUnits="userSpaceOnUse"
       gradientTransform="matrix(7.9915388,-19.543162,-19.543162,-7.9915388,646.50186,55.497443)"
       spreadMethod="pad">
      <stop
         id="stop4484"
         style="stop-color:#29a5e3;stop-opacity:1"
         offset="0" />
      <stop
         id="stop4486"
         style="stop-color:#2197d9;stop-opacity:1"
         offset="0.1" />
      <stop
         id="stop4488"
         style="stop-color:#218cd1;stop-opacity:1"
         offset="0.2" />
      <stop
         id="stop4490"
         style="stop-color:#2f82ca;stop-opacity:1"
         offset="0.30000001" />
      <stop
         id="stop4492"
         style="stop-color:#3378c2;stop-opacity:1"
         offset="0.40000001" />
      <stop
         id="stop4494"
         style="stop-color:#356fba;stop-opacity:1"
         offset="0.50097954" />
      <stop
         id="stop4496"
         style="stop-color:#3667b5;stop-opacity:1"
         offset="0.59805048" />
      <stop
         id="stop4498"
         style="stop-color:#3660b0;stop-opacity:1"
         offset="0.7002604" />
      <stop
         id="stop4500"
         style="stop-color:#3958ab;stop-opacity:1"
         offset="0.80312496" />
      <stop
         id="stop4502"
         style="stop-color:#3a51a7;stop-opacity:1"
         offset="0.89999998" />
      <stop
         id="stop4504"
         style="stop-color:#394da5;stop-opacity:1"
         offset="1" />
    </linearGradient>
    <linearGradient
       x1="908.3681"
       y1="189.11996"
       x2="637.56842"
       y2="825.08893"
       id="linearGradient5789"
       xlink:href="#linearGradient5783"
       gradientUnits="userSpaceOnUse" />
    <linearGradient
       x1="627.31085"
       y1="939.97363"
       x2="1173.0133"
       y2="831.24347"
       id="linearGradient5799"
       xlink:href="#linearGradient5793"
       gradientUnits="userSpaceOnUse" />
    <linearGradient
       x1="1012.9952"
       y1="117.31702"
       x2="1410.9888"
       y2="1065.116"
       id="linearGradient5809"
       xlink:href="#linearGradient5803"
       gradientUnits="userSpaceOnUse" />
    <g
       id="g9682">
      <symbol
         overflow="visible"
         id="symbol5274">
        <path
           style="stroke:none;"
           d=""
           id="path3788" />
      </symbol>
      <symbol
         overflow="visible"
         id="symbol3892">
        <path
           style="stroke:none;"
           d="M 1.15625 2.375 C 1.15625 2.4375 1.203125 2.5 1.265625 2.5 L 3.671875 2.5 C 3.734375 2.5 3.78125 2.4375 3.78125 2.375 L 3.78125 2.203125 C 3.78125 2.140625 3.734375 2.09375 3.671875 2.09375 L 2.796875 2.09375 L 2.796875 -7.078125 L 3.671875 -7.078125 C 3.734375 -7.078125 3.78125 -7.125 3.78125 -7.1875 L 3.78125 -7.359375 C 3.78125 -7.421875 3.734375 -7.484375 3.671875 -7.484375 L 1.265625 -7.484375 C 1.203125 -7.484375 1.15625 -7.421875 1.15625 -7.359375 Z M 2.390625 -7.078125 L 2.390625 2.09375 L 1.5625 2.09375 L 1.5625 -7.078125 Z M 2.390625 -7.078125 "
           id="path7047" />
      </symbol>
      <symbol
         overflow="visible"
         id="symbol3058">
        <path
           style="stroke:none;"
           d="M 1.59375 2.09375 L 1.59375 -7.078125 L 2.4375 -7.078125 L 2.4375 2.09375 Z M 2.84375 2.375 L 2.84375 -7.359375 C 2.84375 -7.421875 2.796875 -7.484375 2.734375 -7.484375 L 0.34375 -7.484375 C 0.296875 -7.484375 0.234375 -7.421875 0.234375 -7.359375 L 0.234375 -7.1875 C 0.234375 -7.125 0.296875 -7.078125 0.34375 -7.078125 L 1.203125 -7.078125 L 1.203125 2.09375 L 0.34375 2.09375 C 0.296875 2.09375 0.234375 2.140625 0.234375 2.203125 L 0.234375 2.375 C 0.234375 2.4375 0.296875 2.5 0.34375 2.5 L 2.734375 2.5 C 2.796875 2.5 2.84375 2.4375 2.84375 2.375 Z M 2.84375 2.375 "
           id="path8275" />
      </symbol>
      <symbol
         overflow="visible"
         id="symbol6003">
        <path
           style="stroke:none;"
           d=""
           id="path5482" />
      </symbol>
      <symbol
         overflow="visible"
         id="symbol3733">
        <path
           style="stroke:none;"
           d="M 3.953125 -3.78125 C 3.78125 -3.78125 3.65625 -3.78125 3.515625 -3.65625 C 3.34375 -3.5 3.328125 -3.328125 3.328125 -3.265625 C 3.328125 -3.015625 3.515625 -2.90625 3.703125 -2.90625 C 3.984375 -2.90625 4.25 -3.15625 4.25 -3.546875 C 4.25 -4.03125 3.78125 -4.40625 3.078125 -4.40625 C 1.734375 -4.40625 0.40625 -2.984375 0.40625 -1.578125 C 0.40625 -0.671875 0.984375 0.109375 2.03125 0.109375 C 3.453125 0.109375 4.28125 -0.953125 4.28125 -1.0625 C 4.28125 -1.125 4.234375 -1.203125 4.171875 -1.203125 C 4.109375 -1.203125 4.09375 -1.171875 4.03125 -1.09375 C 3.25 -0.109375 2.15625 -0.109375 2.046875 -0.109375 C 1.421875 -0.109375 1.140625 -0.59375 1.140625 -1.203125 C 1.140625 -1.609375 1.34375 -2.578125 1.6875 -3.1875 C 2 -3.765625 2.546875 -4.1875 3.09375 -4.1875 C 3.421875 -4.1875 3.8125 -4.0625 3.953125 -3.78125 Z M 3.953125 -3.78125 "
           id="path2094" />
      </symbol>
      <symbol
         overflow="visible"
         id="symbol9257">
        <path
           style="stroke:none;"
           d=""
           id="path3298" />
      </symbol>
      <symbol
         overflow="visible"
         id="symbol1946">
        <path
           style="stroke:none;"
           d="M 0.515625 0.84375 C 0.46875 1.046875 0.453125 1.09375 0.1875 1.09375 C 0.09375 1.09375 0 1.09375 0 1.25 C 0 1.328125 0.0625 1.359375 0.09375 1.359375 C 0.265625 1.359375 0.5 1.328125 0.6875 1.328125 C 0.921875 1.328125 1.1875 1.359375 1.421875 1.359375 C 1.484375 1.359375 1.5625 1.328125 1.5625 1.203125 C 1.5625 1.09375 1.46875 1.09375 1.375 1.09375 C 1.21875 1.09375 1.03125 1.09375 1.03125 1.015625 C 1.03125 0.984375 1.09375 0.796875 1.109375 0.703125 C 1.203125 0.328125 1.296875 -0.046875 1.375 -0.34375 C 1.453125 -0.203125 1.671875 0.0625 2.09375 0.0625 C 2.9375 0.0625 3.875 -0.875 3.875 -1.90625 C 3.875 -2.71875 3.3125 -3.078125 2.84375 -3.078125 C 2.40625 -3.078125 2.03125 -2.78125 1.84375 -2.578125 C 1.734375 -2.984375 1.34375 -3.078125 1.125 -3.078125 C 0.859375 -3.078125 0.6875 -2.890625 0.578125 -2.703125 C 0.4375 -2.46875 0.328125 -2.046875 0.328125 -2 C 0.328125 -1.921875 0.421875 -1.921875 0.453125 -1.921875 C 0.546875 -1.921875 0.546875 -1.9375 0.59375 -2.125 C 0.703125 -2.53125 0.84375 -2.875 1.109375 -2.875 C 1.296875 -2.875 1.34375 -2.71875 1.34375 -2.53125 C 1.34375 -2.453125 1.328125 -2.375 1.3125 -2.328125 Z M 1.84375 -2.234375 C 2.25 -2.78125 2.59375 -2.875 2.8125 -2.875 C 3.09375 -2.875 3.328125 -2.671875 3.328125 -2.203125 C 3.328125 -1.921875 3.171875 -1.203125 2.96875 -0.796875 C 2.78125 -0.453125 2.453125 -0.125 2.09375 -0.125 C 1.59375 -0.125 1.46875 -0.65625 1.46875 -0.734375 C 1.46875 -0.765625 1.484375 -0.8125 1.484375 -0.84375 Z M 1.84375 -2.234375 "
           id="path3698" />
      </symbol>
    </g>
    <g
       id="g7615">
      <symbol
         overflow="visible"
         id="symbol6714">
        <path
           style="stroke:none;"
           d=""
           id="path1454" />
      </symbol>
      <symbol
         overflow="visible"
         id="symbol2806">
        <path
           style="stroke:none;"
           d="M 3.953125 -3.78125 C 3.78125 -3.78125 3.65625 -3.78125 3.515625 -3.65625 C 3.34375 -3.5 3.328125 -3.328125 3.328125 -3.265625 C 3.328125 -3.015625 3.515625 -2.90625 3.703125 -2.90625 C 3.984375 -2.90625 4.25 -3.15625 4.25 -3.546875 C 4.25 -4.03125 3.78125 -4.40625 3.078125 -4.40625 C 1.734375 -4.40625 0.40625 -2.984375 0.40625 -1.578125 C 0.40625 -0.671875 0.984375 0.109375 2.03125 0.109375 C 3.453125 0.109375 4.28125 -0.953125 4.28125 -1.0625 C 4.28125 -1.125 4.234375 -1.203125 4.171875 -1.203125 C 4.109375 -1.203125 4.09375 -1.171875 4.03125 -1.09375 C 3.25 -0.109375 2.15625 -0.109375 2.046875 -0.109375 C 1.421875 -0.109375 1.140625 -0.59375 1.140625 -1.203125 C 1.140625 -1.609375 1.34375 -2.578125 1.6875 -3.1875 C 2 -3.765625 2.546875 -4.1875 3.09375 -4.1875 C 3.421875 -4.1875 3.8125 -4.0625 3.953125 -3.78125 Z M 3.953125 -3.78125 "
           id="path5637" />
      </symbol>
      <symbol
         overflow="visible"
         id="symbol9330">
        <path
           style="stroke:none;"
           d=""
           id="path6566" />
      </symbol>
      <symbol
         overflow="visible"
         id="symbol2555">
        <path
           style="stroke:none;"
           d="M 0.515625 0.84375 C 0.46875 1.046875 0.453125 1.09375 0.1875 1.09375 C 0.09375 1.09375 0 1.09375 0 1.25 C 0 1.328125 0.0625 1.359375 0.09375 1.359375 C 0.265625 1.359375 0.5 1.328125 0.6875 1.328125 C 0.921875 1.328125 1.1875 1.359375 1.421875 1.359375 C 1.484375 1.359375 1.5625 1.328125 1.5625 1.203125 C 1.5625 1.09375 1.46875 1.09375 1.375 1.09375 C 1.21875 1.09375 1.03125 1.09375 1.03125 1.015625 C 1.03125 0.984375 1.09375 0.796875 1.109375 0.703125 C 1.203125 0.328125 1.296875 -0.046875 1.375 -0.34375 C 1.453125 -0.203125 1.671875 0.0625 2.09375 0.0625 C 2.9375 0.0625 3.875 -0.875 3.875 -1.90625 C 3.875 -2.71875 3.3125 -3.078125 2.84375 -3.078125 C 2.40625 -3.078125 2.03125 -2.78125 1.84375 -2.578125 C 1.734375 -2.984375 1.34375 -3.078125 1.125 -3.078125 C 0.859375 -3.078125 0.6875 -2.890625 0.578125 -2.703125 C 0.4375 -2.46875 0.328125 -2.046875 0.328125 -2 C 0.328125 -1.921875 0.421875 -1.921875 0.453125 -1.921875 C 0.546875 -1.921875 0.546875 -1.9375 0.59375 -2.125 C 0.703125 -2.53125 0.84375 -2.875 1.109375 -2.875 C 1.296875 -2.875 1.34375 -2.71875 1.34375 -2.53125 C 1.34375 -2.453125 1.328125 -2.375 1.3125 -2.328125 Z M 1.84375 -2.234375 C 2.25 -2.78125 2.59375 -2.875 2.8125 -2.875 C 3.09375 -2.875 3.328125 -2.671875 3.328125 -2.203125 C 3.328125 -1.921875 3.171875 -1.203125 2.96875 -0.796875 C 2.78125 -0.453125 2.453125 -0.125 2.09375 -0.125 C 1.59375 -0.125 1.46875 -0.65625 1.46875 -0.734375 C 1.46875 -0.765625 1.484375 -0.8125 1.484375 -0.84375 Z M 1.84375 -2.234375 "
           id="path9082" />
      </symbol>
    </g>
    <g
       id="g3526">
      <symbol
         overflow="visible"
         id="symbol1099">
        <path
           style="stroke:none;"
           d=""
           id="path9459" />
      </symbol>
      <symbol
         overflow="visible"
         id="symbol1507">
        <path
           style="stroke:none;"
           d="M 2.046875 -3.984375 L 2.984375 -3.984375 C 3.1875 -3.984375 3.296875 -3.984375 3.296875 -4.1875 C 3.296875 -4.296875 3.1875 -4.296875 3.015625 -4.296875 L 2.140625 -4.296875 C 2.5 -5.71875 2.546875 -5.90625 2.546875 -5.96875 C 2.546875 -6.140625 2.421875 -6.234375 2.25 -6.234375 C 2.21875 -6.234375 1.9375 -6.234375 1.859375 -5.875 L 1.46875 -4.296875 L 0.53125 -4.296875 C 0.328125 -4.296875 0.234375 -4.296875 0.234375 -4.109375 C 0.234375 -3.984375 0.3125 -3.984375 0.515625 -3.984375 L 1.390625 -3.984375 C 0.671875 -1.15625 0.625 -0.984375 0.625 -0.8125 C 0.625 -0.265625 1 0.109375 1.546875 0.109375 C 2.5625 0.109375 3.125 -1.34375 3.125 -1.421875 C 3.125 -1.53125 3.046875 -1.53125 3.015625 -1.53125 C 2.921875 -1.53125 2.90625 -1.5 2.859375 -1.390625 C 2.4375 -0.34375 1.90625 -0.109375 1.5625 -0.109375 C 1.359375 -0.109375 1.25 -0.234375 1.25 -0.5625 C 1.25 -0.8125 1.28125 -0.875 1.3125 -1.046875 Z M 2.046875 -3.984375 "
           id="path3970" />
      </symbol>
      <symbol
         overflow="visible"
         id="symbol5898">
        <path
           style="stroke:none;"
           d="M 3.015625 -3.15625 L 4.71875 -3.15625 C 6.125 -3.15625 7.515625 -4.1875 7.515625 -5.296875 C 7.515625 -6.078125 6.859375 -6.8125 5.546875 -6.8125 L 2.328125 -6.8125 C 2.140625 -6.8125 2.03125 -6.8125 2.03125 -6.625 C 2.03125 -6.5 2.109375 -6.5 2.3125 -6.5 C 2.4375 -6.5 2.625 -6.484375 2.734375 -6.484375 C 2.90625 -6.453125 2.953125 -6.4375 2.953125 -6.3125 C 2.953125 -6.28125 2.953125 -6.25 2.921875 -6.125 L 1.578125 -0.78125 C 1.484375 -0.390625 1.46875 -0.3125 0.671875 -0.3125 C 0.515625 -0.3125 0.40625 -0.3125 0.40625 -0.125 C 0.40625 0 0.515625 0 0.546875 0 C 0.828125 0 1.53125 -0.03125 1.8125 -0.03125 C 2.03125 -0.03125 2.25 -0.015625 2.453125 -0.015625 C 2.671875 -0.015625 2.890625 0 3.09375 0 C 3.171875 0 3.296875 0 3.296875 -0.203125 C 3.296875 -0.3125 3.203125 -0.3125 3.015625 -0.3125 C 2.65625 -0.3125 2.375 -0.3125 2.375 -0.484375 C 2.375 -0.546875 2.390625 -0.59375 2.40625 -0.65625 Z M 3.734375 -6.125 C 3.828125 -6.46875 3.84375 -6.5 4.28125 -6.5 L 5.234375 -6.5 C 6.0625 -6.5 6.59375 -6.234375 6.59375 -5.546875 C 6.59375 -5.15625 6.390625 -4.296875 6 -3.9375 C 5.5 -3.484375 4.90625 -3.40625 4.46875 -3.40625 L 3.0625 -3.40625 Z M 3.734375 -6.125 "
           id="path6410" />
      </symbol>
      <symbol
         overflow="visible"
         id="symbol5765">
        <path
           style="stroke:none;"
           d=""
           id="path1519" />
      </symbol>
      <symbol
         overflow="visible"
         id="symbol4364">
        <path
           style="stroke:none;"
           d="M 1.90625 -3.765625 C 1.90625 -4.0625 1.671875 -4.296875 1.390625 -4.296875 C 1.09375 -4.296875 0.859375 -4.0625 0.859375 -3.765625 C 0.859375 -3.484375 1.09375 -3.234375 1.390625 -3.234375 C 1.671875 -3.234375 1.90625 -3.484375 1.90625 -3.765625 Z M 1.90625 -0.53125 C 1.90625 -0.8125 1.671875 -1.0625 1.390625 -1.0625 C 1.09375 -1.0625 0.859375 -0.8125 0.859375 -0.53125 C 0.859375 -0.234375 1.09375 0 1.390625 0 C 1.671875 0 1.90625 -0.234375 1.90625 -0.53125 Z M 1.90625 -0.53125 "
           id="path9015" />
      </symbol>
      <symbol
         overflow="visible"
         id="symbol4988">
        <path
           style="stroke:none;"
           d=""
           id="path8219" />
      </symbol>
      <symbol
         overflow="visible"
         id="symbol7492">
        <path
           style="stroke:none;"
           d="M 8.3125 -2.296875 C 7.765625 -1.875 7.5 -1.46875 7.421875 -1.328125 C 6.96875 -0.640625 6.890625 -0.015625 6.890625 -0.015625 C 6.890625 0.109375 7.015625 0.109375 7.09375 0.109375 C 7.25 0.109375 7.265625 0.09375 7.3125 -0.09375 C 7.53125 -1.0625 8.125 -1.90625 9.25 -2.359375 C 9.375 -2.40625 9.40625 -2.421875 9.40625 -2.5 C 9.40625 -2.5625 9.34375 -2.59375 9.328125 -2.609375 C 8.875 -2.765625 7.671875 -3.265625 7.296875 -4.9375 C 7.265625 -5.0625 7.25 -5.09375 7.09375 -5.09375 C 7.015625 -5.09375 6.890625 -5.09375 6.890625 -4.96875 C 6.890625 -4.953125 6.984375 -4.328125 7.390625 -3.65625 C 7.59375 -3.359375 7.890625 -3.015625 8.3125 -2.6875 L 0.90625 -2.6875 C 0.734375 -2.6875 0.546875 -2.6875 0.546875 -2.5 C 0.546875 -2.296875 0.734375 -2.296875 0.90625 -2.296875 Z M 8.3125 -2.296875 "
           id="path6763" />
      </symbol>
    </g>
    <g
       id="g5729">
      <symbol
         overflow="visible"
         id="symbol4996">
        <path
           style="stroke:none;"
           d=""
           id="path3665" />
      </symbol>
      <symbol
         overflow="visible"
         id="symbol4792">
        <path
           style="stroke:none;"
           d="M 1.15625 2.375 C 1.15625 2.4375 1.203125 2.5 1.265625 2.5 L 3.671875 2.5 C 3.734375 2.5 3.78125 2.4375 3.78125 2.375 L 3.78125 2.203125 C 3.78125 2.140625 3.734375 2.09375 3.671875 2.09375 L 2.796875 2.09375 L 2.796875 -7.078125 L 3.671875 -7.078125 C 3.734375 -7.078125 3.78125 -7.125 3.78125 -7.1875 L 3.78125 -7.359375 C 3.78125 -7.421875 3.734375 -7.484375 3.671875 -7.484375 L 1.265625 -7.484375 C 1.203125 -7.484375 1.15625 -7.421875 1.15625 -7.359375 Z M 2.390625 -7.078125 L 2.390625 2.09375 L 1.5625 2.09375 L 1.5625 -7.078125 Z M 2.390625 -7.078125 "
           id="path5425" />
      </symbol>
      <symbol
         overflow="visible"
         id="symbol8928">
        <path
           style="stroke:none;"
           d="M 1.59375 2.09375 L 1.59375 -7.078125 L 2.4375 -7.078125 L 2.4375 2.09375 Z M 2.84375 2.375 L 2.84375 -7.359375 C 2.84375 -7.421875 2.796875 -7.484375 2.734375 -7.484375 L 0.34375 -7.484375 C 0.296875 -7.484375 0.234375 -7.421875 0.234375 -7.359375 L 0.234375 -7.1875 C 0.234375 -7.125 0.296875 -7.078125 0.34375 -7.078125 L 1.203125 -7.078125 L 1.203125 2.09375 L 0.34375 2.09375 C 0.296875 2.09375 0.234375 2.140625 0.234375 2.203125 L 0.234375 2.375 C 0.234375 2.4375 0.296875 2.5 0.34375 2.5 L 2.734375 2.5 C 2.796875 2.5 2.84375 2.4375 2.84375 2.375 Z M 2.84375 2.375 "
           id="path2486" />
      </symbol>
      <symbol
         overflow="visible"
         id="symbol1795">
        <path
           style="stroke:none;"
           d=""
           id="path1510" />
      </symbol>
      <symbol
         overflow="visible"
         id="symbol7758">
        <path
           style="stroke:none;"
           d="M 2.046875 -3.984375 L 2.984375 -3.984375 C 3.1875 -3.984375 3.296875 -3.984375 3.296875 -4.1875 C 3.296875 -4.296875 3.1875 -4.296875 3.015625 -4.296875 L 2.140625 -4.296875 C 2.5 -5.71875 2.546875 -5.90625 2.546875 -5.96875 C 2.546875 -6.140625 2.421875 -6.234375 2.25 -6.234375 C 2.21875 -6.234375 1.9375 -6.234375 1.859375 -5.875 L 1.46875 -4.296875 L 0.53125 -4.296875 C 0.328125 -4.296875 0.234375 -4.296875 0.234375 -4.109375 C 0.234375 -3.984375 0.3125 -3.984375 0.515625 -3.984375 L 1.390625 -3.984375 C 0.671875 -1.15625 0.625 -0.984375 0.625 -0.8125 C 0.625 -0.265625 1 0.109375 1.546875 0.109375 C 2.5625 0.109375 3.125 -1.34375 3.125 -1.421875 C 3.125 -1.53125 3.046875 -1.53125 3.015625 -1.53125 C 2.921875 -1.53125 2.90625 -1.5 2.859375 -1.390625 C 2.4375 -0.34375 1.90625 -0.109375 1.5625 -0.109375 C 1.359375 -0.109375 1.25 -0.234375 1.25 -0.5625 C 1.25 -0.8125 1.28125 -0.875 1.3125 -1.046875 Z M 2.046875 -3.984375 "
           id="path619" />
      </symbol>
      <symbol
         overflow="visible"
         id="symbol1777">
        <path
           style="stroke:none;"
           d="M 3.953125 -3.78125 C 3.78125 -3.78125 3.65625 -3.78125 3.515625 -3.65625 C 3.34375 -3.5 3.328125 -3.328125 3.328125 -3.265625 C 3.328125 -3.015625 3.515625 -2.90625 3.703125 -2.90625 C 3.984375 -2.90625 4.25 -3.15625 4.25 -3.546875 C 4.25 -4.03125 3.78125 -4.40625 3.078125 -4.40625 C 1.734375 -4.40625 0.40625 -2.984375 0.40625 -1.578125 C 0.40625 -0.671875 0.984375 0.109375 2.03125 0.109375 C 3.453125 0.109375 4.28125 -0.953125 4.28125 -1.0625 C 4.28125 -1.125 4.234375 -1.203125 4.171875 -1.203125 C 4.109375 -1.203125 4.09375 -1.171875 4.03125 -1.09375 C 3.25 -0.109375 2.15625 -0.109375 2.046875 -0.109375 C 1.421875 -0.109375 1.140625 -0.59375 1.140625 -1.203125 C 1.140625 -1.609375 1.34375 -2.578125 1.6875 -3.1875 C 2 -3.765625 2.546875 -4.1875 3.09375 -4.1875 C 3.421875 -4.1875 3.8125 -4.0625 3.953125 -3.78125 Z M 3.953125 -3.78125 "
           id="path842" />
      </symbol>
      <symbol
         overflow="visible"
         id="symbol4075">
        <path
           style="stroke:none;"
           d=""
           id="path8832" />
      </symbol>
      <symbol
         overflow="visible"
         id="symbol7465">
        <path
           style="stroke:none;"
           d="M 3.296875 2.390625 C 3.296875 2.359375 3.296875 2.34375 3.125 2.171875 C 1.890625 0.921875 1.5625 -0.96875 1.5625 -2.5 C 1.5625 -4.234375 1.9375 -5.96875 3.171875 -7.203125 C 3.296875 -7.328125 3.296875 -7.34375 3.296875 -7.375 C 3.296875 -7.453125 3.265625 -7.484375 3.203125 -7.484375 C 3.09375 -7.484375 2.203125 -6.796875 1.609375 -5.53125 C 1.109375 -4.4375 0.984375 -3.328125 0.984375 -2.5 C 0.984375 -1.71875 1.09375 -0.515625 1.640625 0.625 C 2.25 1.84375 3.09375 2.5 3.203125 2.5 C 3.265625 2.5 3.296875 2.46875 3.296875 2.390625 Z M 3.296875 2.390625 "
           id="path8253" />
      </symbol>
      <symbol
         overflow="visible"
         id="symbol2691">
        <path
           style="stroke:none;"
           d="M 2.875 -2.5 C 2.875 -3.265625 2.765625 -4.46875 2.21875 -5.609375 C 1.625 -6.828125 0.765625 -7.484375 0.671875 -7.484375 C 0.609375 -7.484375 0.5625 -7.4375 0.5625 -7.375 C 0.5625 -7.34375 0.5625 -7.328125 0.75 -7.140625 C 1.734375 -6.15625 2.296875 -4.578125 2.296875 -2.5 C 2.296875 -0.78125 1.9375 0.96875 0.703125 2.21875 C 0.5625 2.34375 0.5625 2.359375 0.5625 2.390625 C 0.5625 2.453125 0.609375 2.5 0.671875 2.5 C 0.765625 2.5 1.671875 1.8125 2.25 0.546875 C 2.765625 -0.546875 2.875 -1.65625 2.875 -2.5 Z M 2.875 -2.5 "
           id="path5336" />
      </symbol>
      <symbol
         overflow="visible"
         id="symbol6889">
        <path
           style="stroke:none;"
           d=""
           id="path8616" />
      </symbol>
      <symbol
         overflow="visible"
         id="symbol2867">
        <path
           style="stroke:none;"
           d="M 0.515625 0.84375 C 0.46875 1.046875 0.453125 1.09375 0.1875 1.09375 C 0.09375 1.09375 0 1.09375 0 1.25 C 0 1.328125 0.0625 1.359375 0.09375 1.359375 C 0.265625 1.359375 0.5 1.328125 0.6875 1.328125 C 0.921875 1.328125 1.1875 1.359375 1.421875 1.359375 C 1.484375 1.359375 1.5625 1.328125 1.5625 1.203125 C 1.5625 1.09375 1.46875 1.09375 1.375 1.09375 C 1.21875 1.09375 1.03125 1.09375 1.03125 1.015625 C 1.03125 0.984375 1.09375 0.796875 1.109375 0.703125 C 1.203125 0.328125 1.296875 -0.046875 1.375 -0.34375 C 1.453125 -0.203125 1.671875 0.0625 2.09375 0.0625 C 2.9375 0.0625 3.875 -0.875 3.875 -1.90625 C 3.875 -2.71875 3.3125 -3.078125 2.84375 -3.078125 C 2.40625 -3.078125 2.03125 -2.78125 1.84375 -2.578125 C 1.734375 -2.984375 1.34375 -3.078125 1.125 -3.078125 C 0.859375 -3.078125 0.6875 -2.890625 0.578125 -2.703125 C 0.4375 -2.46875 0.328125 -2.046875 0.328125 -2 C 0.328125 -1.921875 0.421875 -1.921875 0.453125 -1.921875 C 0.546875 -1.921875 0.546875 -1.9375 0.59375 -2.125 C 0.703125 -2.53125 0.84375 -2.875 1.109375 -2.875 C 1.296875 -2.875 1.34375 -2.71875 1.34375 -2.53125 C 1.34375 -2.453125 1.328125 -2.375 1.3125 -2.328125 Z M 1.84375 -2.234375 C 2.25 -2.78125 2.59375 -2.875 2.8125 -2.875 C 3.09375 -2.875 3.328125 -2.671875 3.328125 -2.203125 C 3.328125 -1.921875 3.171875 -1.203125 2.96875 -0.796875 C 2.78125 -0.453125 2.453125 -0.125 2.09375 -0.125 C 1.59375 -0.125 1.46875 -0.65625 1.46875 -0.734375 C 1.46875 -0.765625 1.484375 -0.8125 1.484375 -0.84375 Z M 1.84375 -2.234375 "
           id="path250" />
      </symbol>
    </g>
    <g
       id="g3788">
      <symbol
         overflow="visible"
         id="symbol2429">
        <path
           style="stroke:none;"
           d=""
           id="path8606" />
      </symbol>
      <symbol
         overflow="visible"
         id="symbol6818">
        <path
           style="stroke:none;"
           d="M 3.484375 -0.5625 C 3.59375 -0.15625 3.953125 0.109375 4.375 0.109375 C 4.71875 0.109375 4.953125 -0.125 5.109375 -0.4375 C 5.28125 -0.796875 5.40625 -1.40625 5.40625 -1.421875 C 5.40625 -1.53125 5.328125 -1.53125 5.296875 -1.53125 C 5.1875 -1.53125 5.1875 -1.484375 5.15625 -1.34375 C 5.015625 -0.78125 4.828125 -0.109375 4.40625 -0.109375 C 4.203125 -0.109375 4.09375 -0.234375 4.09375 -0.5625 C 4.09375 -0.78125 4.21875 -1.25 4.296875 -1.609375 L 4.578125 -2.6875 C 4.609375 -2.828125 4.703125 -3.203125 4.75 -3.359375 C 4.796875 -3.59375 4.890625 -3.96875 4.890625 -4.03125 C 4.890625 -4.203125 4.75 -4.296875 4.609375 -4.296875 C 4.5625 -4.296875 4.296875 -4.28125 4.21875 -3.953125 C 4.03125 -3.21875 3.59375 -1.46875 3.46875 -0.953125 C 3.453125 -0.90625 3.0625 -0.109375 2.328125 -0.109375 C 1.8125 -0.109375 1.71875 -0.5625 1.71875 -0.921875 C 1.71875 -1.484375 2 -2.265625 2.25 -2.953125 C 2.375 -3.265625 2.421875 -3.40625 2.421875 -3.59375 C 2.421875 -4.03125 2.109375 -4.40625 1.609375 -4.40625 C 0.65625 -4.40625 0.296875 -2.953125 0.296875 -2.875 C 0.296875 -2.765625 0.390625 -2.765625 0.40625 -2.765625 C 0.515625 -2.765625 0.515625 -2.796875 0.5625 -2.953125 C 0.8125 -3.8125 1.203125 -4.1875 1.578125 -4.1875 C 1.671875 -4.1875 1.828125 -4.171875 1.828125 -3.859375 C 1.828125 -3.625 1.71875 -3.328125 1.65625 -3.1875 C 1.28125 -2.1875 1.078125 -1.578125 1.078125 -1.09375 C 1.078125 -0.140625 1.765625 0.109375 2.296875 0.109375 C 2.953125 0.109375 3.3125 -0.34375 3.484375 -0.5625 Z M 3.484375 -0.5625 "
           id="path3876" />
      </symbol>
    </g>
  </defs>
  <sodipodi:namedview
     id="base"
     pagecolor="#ffffff"
     bordercolor="#666666"
     borderopacity="1.0"
     inkscape:pageopacity="0.0"
     inkscape:pageshadow="2"
     inkscape:zoom="0.49934594"
     inkscape:cx="901.87176"
     inkscape:cy="956.10047"
     inkscape:document-units="mm"
     inkscape:current-layer="layer1"
     inkscape:document-rotation="0"
     showgrid="false"
     units="px"
     showguides="false"
     inkscape:window-width="1920"
     inkscape:window-height="1042"
     inkscape:window-x="0"
     inkscape:window-y="38"
     inkscape:window-maximized="0"
     inkscape:snap-text-baseline="false" />
  <metadata
     id="metadata5">
    <rdf:RDF>
      <cc:Work
         rdf:about="">
        <dc:format>image/svg+xml</dc:format>
        <dc:type
           rdf:resource="http://purl.org/dc/dcmitype/StillImage" />
        <dc:title />
      </cc:Work>
    </rdf:RDF>
  </metadata>
  <g
     inkscape:label="Layer 1"
     inkscape:groupmode="layer"
     id="layer1">
    <g
       inkscape:label=""
       transform="matrix(4.5601868,0,0,4.5601868,-346.16437,-203.61687)"
       id="g1292">
      <g
         id="g5760">
        <g
           style="fill:#000000;fill-opacity:1"
           id="g7087">
          <use
             xlink:href="#symbol3892"
             x="91.925003"
             y="81.962997"
             id="use6557"
             width="100%"
             height="100%" />
        </g>
        <g
           style="fill:#000000;fill-opacity:1"
           id="g2360">
          <use
             xlink:href="#symbol3733"
             x="95.938004"
             y="81.962997"
             id="use2252"
             width="100%"
             height="100%" />
        </g>
        <g
           style="fill:#000000;fill-opacity:1"
           id="g6200">
          <use
             xlink:href="#symbol1946"
             x="100.249"
             y="83.457001"
             id="use9389"
             width="100%"
             height="100%" />
        </g>
        <g
           style="fill:#000000;fill-opacity:1"
           id="g1951">
          <use
             xlink:href="#symbol3058"
             x="104.854"
             y="81.962997"
             id="use4940"
             width="100%"
             height="100%" />
        </g>
      </g>
    </g>
    <g
       inkscape:label=""
       transform="matrix(4.5601868,0,0,4.5601868,-327.15806,-278.39034)"
       id="g1429">
      <g
         id="g1139">
        <g
           style="fill:#000000;fill-opacity:1"
           id="g953">
          <use
             xlink:href="#symbol2806"
             x="91.925003"
             y="81.962997"
             id="use683"
             width="100%"
             height="100%" />
        </g>
        <g
           style="fill:#000000;fill-opacity:1"
           id="g9627">
          <use
             xlink:href="#symbol2555"
             x="96.237"
             y="83.457001"
             id="use9973"
             width="100%"
             height="100%" />
        </g>
      </g>
    </g>
    <g
       inkscape:label=""
       transform="matrix(4.5601868,0,0,4.5601868,-405.44224,-124.40116)"
       id="g1583">
      <g
         id="g5275">
        <g
           style="fill:#000000;fill-opacity:1"
           id="g4454">
          <use
             xlink:href="#symbol1507"
             x="91.925003"
             y="81.962997"
             id="use3322"
             width="100%"
             height="100%" />
        </g>
        <g
           style="fill:#000000;fill-opacity:1"
           id="g4650">
          <use
             xlink:href="#symbol4364"
             x="98.290001"
             y="81.962997"
             id="use8566"
             width="100%"
             height="100%" />
        </g>
        <g
           style="fill:#000000;fill-opacity:1"
           id="g435">
          <use
             xlink:href="#symbol5898"
             x="103.825"
             y="81.962997"
             id="use2821"
             width="100%"
             height="100%" />
        </g>
        <g
           style="fill:#000000;fill-opacity:1"
           id="g8092">
          <use
             xlink:href="#symbol7492"
             x="114.372"
             y="81.962997"
             id="use9575"
             width="100%"
             height="100%" />
        </g>
        <g
           style="fill:#000000;fill-opacity:1"
           id="g7638">
          <use
             xlink:href="#symbol5898"
             x="127.102"
             y="81.962997"
             id="use1543"
             width="100%"
             height="100%" />
        </g>
      </g>
    </g>
    <g
       inkscape:label=""
       transform="matrix(4.5601868,0,0,4.5601868,-372.03659,-43.118686)"
       id="g1788">
      <g
         id="g7657">
        <g
           style="fill:#000000;fill-opacity:1"
           id="g7575">
          <use
             xlink:href="#symbol4792"
             x="91.925003"
             y="81.962997"
             id="use245"
             width="100%"
             height="100%" />
        </g>
        <g
           style="fill:#000000;fill-opacity:1"
           id="g8923">
          <use
             xlink:href="#symbol7758"
             x="95.938004"
             y="81.962997"
             id="use7819"
             width="100%"
             height="100%" />
        </g>
        <g
           style="fill:#000000;fill-opacity:1"
           id="g5452">
          <use
             xlink:href="#symbol7465"
             x="99.536003"
             y="81.962997"
             id="use4207"
             width="100%"
             height="100%" />
        </g>
        <g
           style="fill:#000000;fill-opacity:1"
           id="g2718">
          <use
             xlink:href="#symbol1777"
             x="103.41"
             y="81.962997"
             id="use999"
             width="100%"
             height="100%" />
        </g>
        <g
           style="fill:#000000;fill-opacity:1"
           id="g4980">
          <use
             xlink:href="#symbol2867"
             x="107.721"
             y="83.457001"
             id="use8200"
             width="100%"
             height="100%" />
        </g>
        <g
           style="fill:#000000;fill-opacity:1"
           id="g970">
          <use
             xlink:href="#symbol2691"
             x="112.326"
             y="81.962997"
             id="use8635"
             width="100%"
             height="100%" />
        </g>
        <g
           style="fill:#000000;fill-opacity:1"
           id="g8935">
          <use
             xlink:href="#symbol8928"
             x="116.201"
             y="81.962997"
             id="use7653"
             width="100%"
             height="100%" />
        </g>
      </g>
    </g>
    <text
       xml:space="preserve"
       style="font-size:22.1838px;line-height:1.25;font-family:sans-serif;text-align:end;word-spacing:0px;text-anchor:end;stroke-width:0.554596"
       x="513.50671"
       y="94.099045"
       id="text1833"><tspan
         sodipodi:role="line"
         id="tspan1831"
         x="513.50671"
         y="94.099045"
         style="font-style:normal;font-variant:normal;font-weight:normal;font-stretch:normal;font-family:Iosevka;-inkscape-font-specification:Iosevka;stroke-width:0.554596">current program</tspan><tspan
         sodipodi:role="line"
         x="513.50671"
         y="122.31316"
         style="font-style:normal;font-variant:normal;font-weight:normal;font-stretch:normal;font-family:Iosevka;-inkscape-font-specification:Iosevka;stroke-width:0.554596"
         id="tspan1835" /><tspan
         sodipodi:role="line"
         x="513.50671"
         y="150.52728"
         style="font-style:normal;font-variant:normal;font-weight:normal;font-stretch:normal;font-family:Iosevka;-inkscape-font-specification:Iosevka;stroke-width:0.554596"
         id="tspan1837">execution of the</tspan><tspan
         sodipodi:role="line"
         x="513.50671"
         y="178.74141"
         style="font-style:normal;font-variant:normal;font-weight:normal;font-stretch:normal;font-family:Iosevka;-inkscape-font-specification:Iosevka;stroke-width:0.554596"
         id="tspan1839">current program</tspan><tspan
         sodipodi:role="line"
         x="513.50671"
         y="206.95552"
         style="font-style:normal;font-variant:normal;font-weight:normal;font-stretch:normal;font-family:Iosevka;-inkscape-font-specification:Iosevka;stroke-width:0.554596"
         id="tspan1841" /><tspan
         sodipodi:role="line"
         x="513.50671"
         y="235.16965"
         style="font-style:normal;font-variant:normal;font-weight:normal;font-stretch:normal;font-family:Iosevka;-inkscape-font-specification:Iosevka;stroke-width:0.554596"
         id="tspan1845">program</tspan><tspan
         sodipodi:role="line"
         x="513.50671"
         y="263.38376"
         style="font-style:normal;font-variant:normal;font-weight:normal;font-stretch:normal;font-family:Iosevka;-inkscape-font-specification:Iosevka;stroke-width:0.554596"
         id="tspan1867">transformations</tspan><tspan
         sodipodi:role="line"
         x="513.50671"
         y="291.59787"
         style="font-style:normal;font-variant:normal;font-weight:normal;font-stretch:normal;font-family:Iosevka;-inkscape-font-specification:Iosevka;stroke-width:0.554596"
         id="tspan1849" /><tspan
         sodipodi:role="line"
         x="513.50671"
         y="319.81201"
         style="font-style:normal;font-variant:normal;font-weight:normal;font-stretch:normal;font-family:Iosevka;-inkscape-font-specification:Iosevka;stroke-width:0.554596"
         id="tspan1857">execution of a</tspan><tspan
         sodipodi:role="line"
         x="513.50671"
         y="348.02612"
         style="font-style:normal;font-variant:normal;font-weight:normal;font-stretch:normal;font-family:Iosevka;-inkscape-font-specification:Iosevka;stroke-width:0.554596"
         id="tspan1861">transformed program</tspan><tspan
         sodipodi:role="line"
         x="513.50671"
         y="376.24023"
         style="font-style:normal;font-variant:normal;font-weight:normal;font-stretch:normal;font-family:Iosevka;-inkscape-font-specification:Iosevka;stroke-width:0.554596"
         id="tspan3529" /><tspan
         sodipodi:role="line"
         x="513.50671"
         y="404.45435"
         style="font-style:normal;font-variant:normal;font-weight:normal;font-stretch:normal;font-family:Iosevka;-inkscape-font-specification:Iosevka;stroke-width:0.554596"
         id="tspan3531">user utterances</tspan></text>
    <path
       style="fill:none;stroke:#000000;stroke-width:2.519;stroke-linecap:butt;stroke-linejoin:miter;stroke-miterlimit:4;stroke-dasharray:2.519, 5.038;stroke-dashoffset:0;stroke-opacity:1"
       d="m 194.44057,88.976214 h 126.2262"
       id="path1863"
       sodipodi:nodetypes="cc" />
    <path
       style="fill:none;stroke:#000000;stroke-width:2.519;stroke-linecap:butt;stroke-linejoin:miter;stroke-miterlimit:4;stroke-dasharray:2.519, 5.038;stroke-dashoffset:0;stroke-opacity:1"
       d="m 194.44057,157.72019 h 126.2262"
       id="path1865"
       sodipodi:nodetypes="cc" />
    <path
       style="fill:none;stroke:#000000;stroke-width:2.519;stroke-linecap:butt;stroke-linejoin:miter;stroke-miterlimit:4;stroke-dasharray:2.519, 5.038;stroke-dashoffset:0;stroke-opacity:1"
       d="m 261.78358,236.49975 h 58.88319"
       id="path1869"
       sodipodi:nodetypes="cc" />
    <path
       style="fill:none;stroke:#000000;stroke-width:2.519;stroke-linecap:butt;stroke-linejoin:miter;stroke-miterlimit:4;stroke-dasharray:2.519, 5.038;stroke-dashoffset:0;stroke-opacity:1"
       d="M 208.5305,320.19111 H 320.66677"
       id="path1871"
       sodipodi:nodetypes="cc" />
    <g
       inkscape:label=""
       transform="matrix(5.3245298,0,0,5.3245298,-395.46596,-17.412709)"
       id="g3516">
      <g
         id="g1151">
        <g
           style="fill:#000000;fill-opacity:1"
           id="g388">
          <use
             xlink:href="#symbol6818"
             x="91.925003"
             y="81.962997"
             id="use6559"
             width="100%"
             height="100%" />
        </g>
      </g>
    </g>
    <path
       style="fill:none;stroke:#000000;stroke-width:2.519;stroke-linecap:butt;stroke-linejoin:miter;stroke-miterlimit:4;stroke-dasharray:2.519, 5.038;stroke-dashoffset:0;stroke-opacity:1"
       d="M 208.5305,398.20103 H 320.66677"
       id="path3533"
       sodipodi:nodetypes="cc" />
  </g>
</svg>
