<?xml version="1.0" standalone="no"?>
<!DOCTYPE svg PUBLIC "-//W3C//DTD SVG 20010904//EN"
 "http://www.w3.org/TR/2001/REC-SVG-20010904/DTD/svg10.dtd">
<svg version="1.0" xmlns="http://www.w3.org/2000/svg"
 width="700.000000pt" height="700.000000pt" viewBox="0 0 700.000000 700.000000"
 preserveAspectRatio="xMidYMid meet">
<metadata>
Created by potrace 1.11, written by Peter Selinger 2001-2013
</metadata>
<g transform="translate(0.000000,700.000000) scale(0.100000,-0.100000)"
fill="#000000" stroke="none">
<path d="M1426 6642 c-17 -4 -17 -29 -1 -147 3 -16 7 -48 9 -70 7 -62 36 -294
41 -329 3 -17 16 -110 30 -206 14 -96 27 -184 29 -195 3 -18 6 -38 22 -140 11
-72 36 -211 64 -360 11 -60 23 -121 25 -135 13 -71 39 -190 60 -284 8 -33 16
-72 19 -86 9 -53 80 -332 118 -465 87 -311 203 -640 298 -850 201 -445 428
-762 704 -983 44 -35 91 -71 105 -79 14 -9 38 -24 54 -35 71 -49 290 -152 472
-223 110 -43 213 -84 229 -91 41 -20 45 -9 4 12 -76 39 -279 185 -388 280 -25
21 -101 95 -170 164 -105 105 -158 166 -303 350 -135 171 -346 556 -456 831
-83 209 -177 512 -216 694 -28 136 -57 298 -70 390 -3 28 -9 66 -12 85 -3 19
-6 51 -8 70 -2 19 -7 80 -11 135 -11 122 -11 550 -1 660 15 153 41 305 73 426
13 52 26 101 28 109 2 8 14 40 25 70 80 204 177 332 287 377 24 10 44 20 44
23 0 5 -1076 7 -1104 2z"/>
<path d="M3376 4972 c534 -351 963 -898 1234 -1575 130 -327 249 -774 285
-1077 3 -25 8 -65 11 -90 3 -25 7 -58 9 -75 20 -148 27 -593 12 -775 -7 -81
-22 -192 -43 -315 -13 -76 -59 -238 -90 -318 -72 -187 -179 -325 -284 -365
-30 -11 -46 -22 -35 -22 21 -1 1066 -2 1098 -1 17 1 18 7 12 63 -4 35 -8 70
-10 78 -1 8 -6 47 -9 85 -4 39 -9 81 -11 95 -2 14 -9 63 -15 110 -6 47 -13 99
-15 115 -3 17 -12 80 -20 140 -9 61 -18 126 -20 145 -3 19 -10 60 -15 90 -5
30 -12 73 -15 95 -4 22 -8 51 -11 65 -7 44 -36 214 -40 245 -11 68 -105 532
-130 637 -112 482 -240 893 -386 1238 -39 93 -156 333 -194 397 -246 421 -506
678 -873 863 -74 36 -371 160 -386 160 -4 0 -25 9 -48 19 -60 27 -119 51 -125
51 -3 0 48 -35 114 -78z"/>
<path d="M3485 3603 c-101 -18 -172 -114 -160 -215 25 -191 256 -236 339 -66
37 77 26 160 -31 224 -33 37 -103 64 -148 57z"/>
</g>
</svg>
