<?xml version="1.0" encoding="UTF-8" standalone="no"?>
<svg
   xmlns:dc="http://purl.org/dc/elements/1.1/"
   xmlns:cc="http://creativecommons.org/ns#"
   xmlns:rdf="http://www.w3.org/1999/02/22-rdf-syntax-ns#"
   xmlns:svg="http://www.w3.org/2000/svg"
   xmlns="http://www.w3.org/2000/svg"
   xmlns:xlink="http://www.w3.org/1999/xlink"
   xmlns:sodipodi="http://sodipodi.sourceforge.net/DTD/sodipodi-0.dtd"
   xmlns:inkscape="http://www.inkscape.org/namespaces/inkscape"
   width="135.22632mm"
   height="85.628563mm"
   viewBox="0 0 135.22632 85.628563"
   version="1.1"
   id="svg8"
   sodipodi:docname="failuresignal.svg"
   inkscape:version="1.0.1 (3bc2e813f5, 2020-09-07, custom)">
  <defs
     id="defs2">
    <marker
       style="overflow:visible"
       id="marker2438"
       refX="0"
       refY="0"
       orient="auto"
       inkscape:stockid="Arrow2Mend"
       inkscape:isstock="true">
      <path
         transform="scale(-0.6)"
         d="M 8.7185878,4.0337352 -2.2072895,0.01601326 8.7185884,-4.0017078 c -1.7454984,2.3720609 -1.7354408,5.6174519 -6e-7,8.035443 z"
         style="fill:#000000;fill-opacity:1;fill-rule:evenodd;stroke:#000000;stroke-width:0.625;stroke-linejoin:round;stroke-opacity:1"
         id="path2436" />
    </marker>
    <marker
       style="overflow:visible"
       id="marker1910"
       refX="0"
       refY="0"
       orient="auto"
       inkscape:stockid="Arrow2Mend"
       inkscape:isstock="true"
       inkscape:collect="always">
      <path
         transform="scale(-0.6)"
         d="M 8.7185878,4.0337352 -2.2072895,0.01601326 8.7185884,-4.0017078 c -1.7454984,2.3720609 -1.7354408,5.6174519 -6e-7,8.035443 z"
         style="fill:#000000;fill-opacity:1;fill-rule:evenodd;stroke:#000000;stroke-width:0.625;stroke-linejoin:round;stroke-opacity:1"
         id="path1908" />
    </marker>
    <marker
       style="overflow:visible"
       id="DotS"
       refX="0"
       refY="0"
       orient="auto"
       inkscape:stockid="DotS"
       inkscape:isstock="true">
      <path
         transform="matrix(0.2,0,0,0.2,1.48,0.2)"
         style="fill:#000000;fill-opacity:1;fill-rule:evenodd;stroke:#000000;stroke-width:1pt;stroke-opacity:1"
         d="m -2.5,-1 c 0,2.76 -2.24,5 -5,5 -2.76,0 -5,-2.24 -5,-5 0,-2.76 2.24,-5 5,-5 2.76,0 5,2.24 5,5 z"
         id="path1099" />
    </marker>
    <marker
       style="overflow:visible"
       id="Arrow2Mend"
       refX="0"
       refY="0"
       orient="auto"
       inkscape:stockid="Arrow2Mend"
       inkscape:isstock="true"
       inkscape:collect="always">
      <path
         transform="scale(-0.6)"
         d="M 8.7185878,4.0337352 -2.2072895,0.01601326 8.7185884,-4.0017078 c -1.7454984,2.3720609 -1.7354408,5.6174519 -6e-7,8.035443 z"
         style="fill:#000000;fill-opacity:1;fill-rule:evenodd;stroke:#000000;stroke-width:0.625;stroke-linejoin:round;stroke-opacity:1"
         id="path1059" />
    </marker>
    <marker
       style="overflow:visible"
       id="Arrow1Lend"
       refX="0"
       refY="0"
       orient="auto"
       inkscape:stockid="Arrow1Lend"
       inkscape:isstock="true">
      <path
         transform="matrix(-0.8,0,0,-0.8,-10,0)"
         style="fill:#000000;fill-opacity:1;fill-rule:evenodd;stroke:#000000;stroke-width:1pt;stroke-opacity:1"
         d="M 0,0 5,-5 -12.5,0 5,5 Z"
         id="path1035" />
    </marker>
    <clipPath
       clipPathUnits="userSpaceOnUse"
       id="clipPath960">
      <rect
         style="fill:none;stroke:#010500;stroke-width:2.731;stroke-linecap:square;stroke-linejoin:bevel;stroke-miterlimit:4.1;paint-order:markers fill stroke"
         id="rect962"
         width="96.481621"
         height="59.628918"
         x="52.236034"
         y="-20.202229"
         ry="7.738533" />
    </clipPath>
    <clipPath
       clipPathUnits="userSpaceOnUse"
       id="clipPath1026">
      <rect
         style="fill:none;stroke:#010500;stroke-width:2.731;stroke-linecap:square;stroke-linejoin:bevel;stroke-miterlimit:4.1;paint-order:markers fill stroke"
         id="rect1028"
         width="103.83596"
         height="51.91798"
         x="53.596825"
         y="-13.754162"
         ry="7.738533" />
    </clipPath>
    <g
       id="g958">
      <symbol
         overflow="visible"
         id="symbol1628">
        <path
           style="stroke:none"
           d=""
           id="path3350" />
      </symbol>
      <symbol
         overflow="visible"
         id="symbol6128">
        <path
           style="stroke:none"
           d="m 2.046875,-3.984375 h 0.9375 c 0.203125,0 0.3125,0 0.3125,-0.203125 0,-0.109375 -0.109375,-0.109375 -0.28125,-0.109375 h -0.875 C 2.5,-5.71875 2.546875,-5.90625 2.546875,-5.96875 c 0,-0.171875 -0.125,-0.265625 -0.296875,-0.265625 -0.03125,0 -0.3125,0 -0.390625,0.359375 L 1.46875,-4.296875 h -0.9375 c -0.203125,0 -0.296875,0 -0.296875,0.1875 0,0.125 0.078125,0.125 0.28125,0.125 h 0.875 C 0.671875,-1.15625 0.625,-0.984375 0.625,-0.8125 0.625,-0.265625 1,0.109375 1.546875,0.109375 2.5625,0.109375 3.125,-1.34375 3.125,-1.421875 3.125,-1.53125 3.046875,-1.53125 3.015625,-1.53125 2.921875,-1.53125 2.90625,-1.5 2.859375,-1.390625 2.4375,-0.34375 1.90625,-0.109375 1.5625,-0.109375 c -0.203125,0 -0.3125,-0.125 -0.3125,-0.453125 0,-0.25 0.03125,-0.3125 0.0625,-0.484375 z m 0,0"
           id="path2186" />
      </symbol>
    </g>
  </defs>
  <sodipodi:namedview
     id="base"
     pagecolor="#ffffff"
     bordercolor="#666666"
     borderopacity="1.0"
     inkscape:pageopacity="0.0"
     inkscape:pageshadow="2"
     inkscape:zoom="2.2000749"
     inkscape:cx="239.70941"
     inkscape:cy="167.14576"
     inkscape:document-units="mm"
     inkscape:current-layer="layer1"
     inkscape:document-rotation="0"
     showgrid="false"
     inkscape:window-width="1920"
     inkscape:window-height="1042"
     inkscape:window-x="0"
     inkscape:window-y="38"
     inkscape:window-maximized="0" />
  <metadata
     id="metadata5">
    <rdf:RDF>
      <cc:Work
         rdf:about="">
        <dc:format>image/svg+xml</dc:format>
        <dc:type
           rdf:resource="http://purl.org/dc/dcmitype/StillImage" />
        <dc:title></dc:title>
      </cc:Work>
    </rdf:RDF>
  </metadata>
  <g
     inkscape:label="Layer 1"
     inkscape:groupmode="layer"
     id="layer1"
     transform="translate(-34.374362,43.793451)">
    <g
       id="g1010"
       transform="translate(-6.5967351,-30.039289)"
       clip-path="url(#clipPath1026)">
      <path
         style="fill:#fdfdfd;stroke-width:0.263951"
         d="m 52.332214,-12.972956 v -52.79022 h 79.185326 79.18532 v 52.79022 52.79022 H 131.51754 52.332214 Z"
         id="path1022" />
      <path
         style="fill:#e3e2fc;stroke-width:0.263951"
         d="m 52.332214,-12.972956 v -52.79022 h 64.179716 64.17972 l -1.07228,0.776749 c -0.58974,0.427212 -3.04643,1.970663 -5.45929,3.429891 -2.41286,1.459228 -4.70975,2.874781 -5.10419,3.145675 -0.39445,0.270893 -3.38968,2.129616 -6.65607,4.130494 -9.67871,5.928835 -10.28352,6.319678 -10.28893,6.648925 -0.007,0.397816 0.56085,0.858907 8.44127,6.860026 l 6.4668,4.924616 8.44643,-0.841621 c 4.64554,-0.462894 13.18468,-1.317209 18.97587,-1.898479 9.35103,-0.938577 10.59171,-1.013717 11.08595,-0.67141 0.30608,0.211992 1.50673,1.283227 2.66812,2.380522 1.16138,1.097293 2.20069,1.995486 2.30957,1.995985 0.10888,5.28e-4 0.19796,16.807992 0.19796,37.3499864 V 39.817264 H 131.51754 52.332214 Z M 168.07476,22.660443 v -6.730754 h -1.18778 -1.18778 l -0.0708,6.461816 c -0.039,3.553999 -0.0103,6.619416 0.0636,6.812037 0.0899,0.234315 0.50644,0.323319 1.2586,0.268935 l 1.1242,-0.08128 z m 11.08595,0 v -6.730754 h -1.18778 -1.18778 l -0.0708,6.461816 c -0.0389,3.553999 -0.0103,6.619416 0.0636,6.812037 0.0899,0.234315 0.50645,0.323319 1.2586,0.268935 l 1.12421,-0.08128 z m 29.56252,-0.263952 v -6.730753 l -1.0949,-0.07985 -1.09491,-0.07985 -0.10759,6.678628 c -0.0592,3.673247 -0.0604,6.77401 -0.003,6.890584 0.0577,0.116576 0.59883,0.175965 1.20249,0.131975 l 1.09757,-0.07998 z m -84.99225,-1.583706 v -6.730753 l -1.11304,-0.08074 -1.11304,-0.08074 -0.0747,6.76788 c -0.0411,3.722334 -0.0197,6.822788 0.0477,6.889898 0.0673,0.06711 0.60182,0.08673 1.18778,0.04361 l 1.06538,-0.07841 z m 11.08595,0 v -6.466802 l -1.25377,-0.08045 -1.25377,-0.08045 v 6.437271 c 0,3.5405 0.0848,6.522047 0.18839,6.625661 0.10361,0.103611 0.66781,0.153102 1.25377,0.109977 l 1.06538,-0.07841 z m 74.17025,-86.048059 -1.31975,-0.486988 1.51772,-0.02046 c 1.34857,-0.01818 1.51771,0.03838 1.51771,0.507445 0,0.625418 -0.0208,0.625418 -1.71568,0 z"
         id="path1020" />
      <path
         style="fill:#7763d0;stroke-width:0.263951"
         d="m 52.332214,26.487733 v -13.32953 h 2.507535 2.507536 V 6.7045167 c 0,-7.46239912 -0.124147,-7.1309874 2.47179,-6.59847662 0.890699,0.1827096 2.302425,0.47071984 3.13717,0.64002071 0.959373,0.19457684 1.517719,0.44085901 1.517719,0.66945391 0,0.5431559 -0.372253,0.6900078 -3.275279,1.2920908 l -2.663621,0.5524312 v 4.8830953 4.883095 l 9.701649,0.06924 9.701648,0.06924 -0.06743,-0.842767 c -0.0806,-1.007353 0.0774,-1.106308 3.98056,-2.493015 1.50053,-0.5331047 2.788445,-1.1261791 2.862032,-1.3179422 C 84.863475,8.1202052 83.35519,2.1033396 83.028094,1.7874719 82.912853,1.6761875 81.530818,1.8874751 79.956907,2.2570014 76.620603,3.0403026 76.554736,3.0152352 75.946784,0.73088888 75.411646,-1.2798642 75.452962,-1.8538734 76.153799,-2.1451883 c 0.32664,-0.1357738 2.383886,-0.673685 4.571657,-1.1953606 l 3.977769,-0.9484977 4.072739,0.2112004 4.072741,0.2112031 0.387459,1.1208341 c 0.507394,1.4677872 0.254916,1.7148243 -2.455975,2.40306095 -1.137684,0.28883377 -2.143855,0.60049403 -2.23594,0.69257865 -0.247589,0.24758877 0.275597,0.50678347 2.672267,1.3238784 1.466829,0.5000818 2.498944,1.048786 3.215896,1.7096667 0.580692,0.535277 2.21389,1.8422256 3.629327,2.9043332 1.490595,1.1185007 2.573521,2.1201027 2.573521,2.3802555 0,0.4535578 -0.778981,1.3228253 -1.185431,1.3228253 -0.121019,0 -1.537003,-0.9916089 -3.14663,-2.2035746 C 92.880923,5.2104162 92.97953,5.2666536 90.077219,4.2363548 88.843248,3.7983042 87.625773,3.3570281 87.37172,3.2557422 86.724908,2.9978646 86.764583,3.7917081 87.539213,6.6072428 l 0.629407,2.2876906 -0.668469,0.9395049 c -0.477385,0.6709447 -1.091145,1.0931377 -2.147126,1.4769597 -0.81326,0.295601 -1.983463,0.723104 -2.600449,0.95001 -0.616985,0.226905 -1.121792,0.520752 -1.121792,0.652994 0,0.141866 8.068631,0.268182 19.680536,0.308107 l 19.68054,0.06767 -0.0238,7.306022 -0.0238,7.306024 7.11686,0.0059 7.11687,0.0059 0.18331,-1.467154 c 0.1635,-1.308672 -0.003,-11.859671 -0.20138,-12.787409 -0.11178,-0.521842 6.65633,-0.453083 11.53475,0.117186 4.46415,0.521842 10.07374,0.968516 14.99612,1.194094 l 3.64623,0.167094 -0.0245,7.306021 -0.0245,7.306024 7.14187,0.0059 7.14187,0.0059 -0.0244,-7.311944 -0.0244,-7.311945 2.19445,-0.08335 c 1.20694,-0.04584 3.91672,0.04526 6.02173,0.202437 2.9029,0.216762 4.81544,0.205723 7.91853,-0.0457 2.25019,-0.182314 5.45719,-0.3328 7.12668,-0.334413 l 3.03544,-0.0029 0.0702,7.34814 0.0702,7.348143 1.77745,-0.05278 c 0.9776,-0.02903 2.04471,-0.0396 2.37134,-0.02349 l 0.59388,0.02926 v 5.147047 5.147046 H 131.51754 52.332214 Z"
         id="path1018" />
      <path
         style="fill:#9b6892;stroke-width:0.263951"
         d="m 52.332214,26.487733 v -13.32953 h 2.507535 2.507536 V 6.7045167 c 0,-7.46239912 -0.124147,-7.1309874 2.47179,-6.59847662 0.890699,0.1827096 2.302425,0.47071984 3.13717,0.64002071 0.959373,0.19457684 1.517719,0.44085901 1.517719,0.66945391 0,0.5431559 -0.372253,0.6900078 -3.275279,1.2920908 l -2.663621,0.5524312 v 4.8830953 4.883095 l 9.701649,0.06924 9.701648,0.06924 -0.06743,-0.842767 c -0.0806,-1.007353 0.0774,-1.106308 3.98056,-2.493015 1.50053,-0.5331047 2.788445,-1.1261791 2.862032,-1.3179422 0.07358,-0.1917605 -0.241713,-1.748618 -0.700663,-3.459681 -0.458951,-1.711063 -0.856028,-3.2891896 -0.882397,-3.5069493 -0.06464,-0.5338358 2.969059,-1.5403236 4.703176,-1.56036804 0.954391,-0.01103316 1.210147,0.05669933 0.923828,0.24465363 -0.533909,0.35049011 -0.233208,0.52719745 2.459053,1.44506891 1.466829,0.5000818 2.498944,1.048786 3.215896,1.7096667 0.580692,0.535277 2.21389,1.8422256 3.629327,2.9043332 1.490595,1.1185007 2.573517,2.1201027 2.573517,2.3802555 0,0.4535578 -0.778977,1.3228253 -1.185427,1.3228253 -0.121019,0 -1.537003,-0.9916089 -3.14663,-2.2035746 C 92.880923,5.2104162 92.97953,5.2666536 90.077219,4.2363548 88.843248,3.7983042 87.625773,3.3570281 87.37172,3.2557422 86.724908,2.9978646 86.764583,3.7917081 87.539213,6.6072428 l 0.629407,2.2876906 -0.668469,0.9395049 c -0.477385,0.6709447 -1.091145,1.0931377 -2.147126,1.4769597 -0.81326,0.295601 -1.983463,0.723104 -2.600449,0.95001 -0.616985,0.226905 -1.121792,0.520752 -1.121792,0.652994 0,0.141866 8.068631,0.268182 19.680536,0.308107 l 19.68054,0.06767 -0.0238,7.306022 -0.0238,7.306024 7.11686,0.0059 7.11687,0.0059 0.18331,-1.467154 c 0.1635,-1.308672 -0.003,-11.859671 -0.20138,-12.787409 -0.11178,-0.521842 6.65633,-0.453083 11.53475,0.117186 4.46415,0.521842 10.07374,0.968516 14.99612,1.194094 l 3.64623,0.167094 -0.0245,7.306021 -0.0245,7.306024 7.14187,0.0059 7.14187,0.0059 -0.0244,-7.311944 -0.0244,-7.311945 2.19445,-0.08335 c 1.20694,-0.04584 3.91672,0.04526 6.02173,0.202437 2.9029,0.216762 4.81544,0.205723 7.91853,-0.0457 2.25019,-0.182314 5.45719,-0.3328 7.12668,-0.334413 l 3.03544,-0.0029 0.0702,7.34814 0.0702,7.348143 1.77745,-0.05278 c 0.9776,-0.02903 2.04471,-0.0396 2.37134,-0.02349 l 0.59388,0.02926 v 5.147047 5.147046 H 131.51754 52.332214 Z M 93.00152,-1.7770293 c 0.01267,-0.3074898 0.07521,-0.370033 0.159468,-0.1594713 0.07625,0.1905383 0.06687,0.4181962 -0.02083,0.5059071 -0.08771,0.087708 -0.150093,-0.068189 -0.138633,-0.3464358 z m -6.933058,-2.4018969 c 0.190538,-0.076248 0.418196,-0.066872 0.505907,0.020826 0.08771,0.087708 -0.06819,0.1500932 -0.346436,0.1386324 -0.30749,-0.01267 -0.370033,-0.07521 -0.159471,-0.1594687 z"
         id="path1016" />
      <path
         style="fill:#649749;stroke-width:0.263951"
         d="M 52.332214,26.497291 V 13.177318 l 2.573523,-0.07554 2.573523,-0.07555 0.131976,-6.334826 C 57.764948,-0.68679511 57.375852,-0.0564007 61.306551,0.70443043 64.673692,1.3561785 64.616791,1.7310999 61.0426,2.4436016 l -2.771487,0.552484 v 5.0150709 5.0150705 l 9.947195,0.06914 9.947194,0.06915 0.08295,-0.829479 c 0.07652,-0.765218 0.215856,-0.874531 1.798629,-1.411062 3.601881,-1.2209695 5.070122,-1.8253331 5.18936,-2.1360643 C 85.30435,8.6109431 84.933108,6.8436347 84.411459,4.8605622 83.889807,2.8774897 83.522973,1.1579406 83.59627,1.0393448 c 0.157407,-0.25469172 3.307254,-0.9090133 3.491064,-0.72520303 0.06941,0.0694139 -0.111192,0.2015557 -0.401343,0.2936456 -0.469036,0.14886578 -0.512342,0.33452371 -0.390441,1.67379573 0.07541,0.828495 0.435989,2.6511882 0.801286,4.0504247 l 0.664178,2.5440715 -0.593301,0.8024826 C 86.774048,10.211023 86.031337,10.679354 84.96044,11.0704 c -0.887686,0.324142 -2.237558,0.816258 -2.999717,1.093591 -0.762159,0.277331 -1.385743,0.614484 -1.385743,0.749226 0,0.148499 7.783938,0.244986 19.76401,0.244986 15.50209,0 19.81785,0.07115 20.01367,0.329939 0.14443,0.190873 0.23345,3.222492 0.21119,7.192667 -0.0212,3.774501 0.0686,7.080309 0.19943,7.346242 0.20894,0.424645 0.45229,0.462379 1.99873,0.309919 2.31748,-0.228476 8.74793,-0.228672 10.67806,-2.64e-4 2.42396,0.286769 2.31966,0.630835 2.29212,-7.561518 -0.0131,-3.897869 0.0607,-7.223719 0.16391,-7.390779 0.20812,-0.336757 6.41209,-0.141343 9.74282,0.30688 2.86408,0.385424 14.82262,1.312616 16.94328,1.313677 1.04394,5.28e-4 1.97175,0.120179 2.06181,0.265899 0.0901,0.145719 0.15303,3.454111 0.13993,7.35198 -0.0277,8.252228 -0.15123,7.868596 2.43232,7.556271 2.01084,-0.243086 8.49028,-0.241634 10.5178,0.0024 2.43403,0.292914 2.37026,0.502008 2.34182,-7.678185 -0.0133,-3.831667 0.0496,-7.086076 0.13977,-7.23202 0.21053,-0.340647 3.27117,-0.337102 7.78742,0.009 2.66727,0.20442 4.62535,0.18773 7.78656,-0.06637 2.32277,-0.186706 5.41099,-0.339581 6.86273,-0.339723 l 2.63951,-2.62e-4 0.0703,7.236819 c 0.0491,5.050424 0.16376,7.349423 0.37963,7.609533 0.3146,0.379071 2.14637,0.346452 4.10321,-0.07307 l 0.85784,-0.18399 v 5.177005 5.177005 H 131.51754 52.332214 Z"
         id="path1014" />
      <path
         style="fill:#6a3c5b;stroke-width:0.263951"
         d="m 78.31186,12.806546 c -0.3443,-0.89723 0.0288,-1.301757 1.735218,-1.88138 3.61993,-1.229595 5.070278,-1.8269243 5.189363,-2.1372543 C 85.30435,8.6109431 84.933108,6.8436347 84.411459,4.8605622 83.889807,2.8774897 83.522973,1.1579406 83.59627,1.0393448 c 0.157407,-0.25469172 3.307254,-0.9090133 3.491064,-0.72520303 0.06941,0.0694139 -0.111192,0.2015557 -0.401343,0.2936456 -0.469036,0.14886578 -0.512342,0.33452371 -0.390441,1.67379573 0.07541,0.828495 0.435989,2.6511882 0.801286,4.0504247 l 0.664178,2.5440715 -0.598435,0.8094272 c -0.435356,0.5888515 -1.144759,1.0030375 -2.603202,1.5198885 -1.102619,0.390753 -2.514662,0.92617 -3.137869,1.18982 -1.763668,0.746121 -2.922363,0.89939 -3.109648,0.411331 z M 57.611236,6.6831182 c 0,-5.2633381 0.06011,-6.234203 0.393903,-6.36229055 0.216647,-0.0831367 1.612288,0.0770209 3.101425,0.35590639 3.587464,0.67185316 3.574077,1.04163816 -0.06396,1.76686756 l -2.771487,0.552484 -0.07181,4.9490831 c -0.04353,3.0000203 -0.173469,4.9490833 -0.329939,4.9490833 -0.160889,0 -0.258127,-2.339774 -0.258127,-6.2111338 z"
         id="path1012" />
    </g>
    <path
       style="fill:none;stroke:#000000;stroke-width:1.046;stroke-linecap:butt;stroke-linejoin:miter;stroke-miterlimit:4;stroke-dasharray:none;stroke-opacity:1;marker-start:url(#DotS);marker-end:url(#Arrow2Mend)"
       d="M 50.151577,17.153414 H 138.44864"
       id="path1030"
       sodipodi:nodetypes="cc" />
    <g
       inkscape:label=""
       transform="matrix(1.586167,0,0,1.586167,-4.1146627,-107.58005)"
       id="g1355">
      <g
         id="g6784">
        <g
           style="fill:#000000;fill-opacity:1"
           id="g3340">
          <use
             xlink:href="#symbol6128"
             x="91.925003"
             y="81.962997"
             id="use1406"
             width="100%"
             height="100%" />
        </g>
      </g>
    </g>
    <path
       style="fill:none;stroke:#000000;stroke-width:1;stroke-linecap:butt;stroke-linejoin:miter;stroke-miterlimit:4;stroke-dasharray:none;stroke-opacity:1"
       d="m 98.88617,14.835915 v 5.440604"
       id="path1880" />
    <path
       style="fill:none;stroke:#000000;stroke-width:1;stroke-linecap:butt;stroke-linejoin:miter;stroke-miterlimit:4;stroke-dasharray:none;stroke-opacity:1"
       d="m 129.10311,14.835915 v 5.440604"
       id="path1894" />
    <text
       xml:space="preserve"
       style="font-size:6.30985px;line-height:1.25;font-family:Iosevka;-inkscape-font-specification:Iosevka;text-align:start;word-spacing:0px;text-anchor:start;stroke-width:0.157747"
       x="34.046249"
       y="33.89732"
       id="text1898"><tspan
         sodipodi:role="line"
         id="tspan1896"
         x="34.046249"
         y="33.89732"
         style="text-align:start;text-anchor:start;stroke-width:0.157747">desired activation</tspan><tspan
         sodipodi:role="line"
         x="34.046249"
         y="41.784634"
         style="text-align:start;text-anchor:start;stroke-width:0.157747"
         id="tspan1900">of the new skill</tspan></text>
    <text
       xml:space="preserve"
       style="font-size:6.30985px;line-height:1.25;font-family:Iosevka;-inkscape-font-specification:Iosevka;text-align:end;word-spacing:0px;text-anchor:end;stroke-width:0.157747"
       x="169.97926"
       y="37.393635"
       id="text1904"><tspan
         sodipodi:role="line"
         id="tspan1902"
         x="169.97926"
         y="37.393635"
         style="stroke-width:0.157747">failure detection</tspan></text>
    <path
       style="fill:none;stroke:#000000;stroke-width:0.35;stroke-linecap:butt;stroke-linejoin:miter;stroke-miterlimit:4;stroke-dasharray:none;stroke-opacity:1;marker-end:url(#marker1910)"
       d="m 99.103302,23.041868 c 2.236858,6.550203 -1.203696,8.831771 -5.653306,11.240616"
       id="path1906"
       sodipodi:nodetypes="cc" />
    <path
       style="fill:none;stroke:#000000;stroke-width:0.35;stroke-linecap:butt;stroke-linejoin:miter;stroke-miterlimit:4;stroke-dasharray:none;stroke-opacity:1;marker-end:url(#marker2438)"
       d="m 124.46471,22.466216 c -4.6738,1.32553 -7.20951,3.958985 -7.67544,7.858563"
       id="path2434"
       sodipodi:nodetypes="cc" />
  </g>
</svg>
