<?xml version="1.0" encoding="utf-8" standalone="no"?>
<!DOCTYPE svg PUBLIC "-//W3C//DTD SVG 1.1//EN"
  "http://www.w3.org/Graphics/SVG/1.1/DTD/svg11.dtd">
<!-- Created with matplotlib (https://matplotlib.org/) -->
<svg height="345.6pt" version="1.1" viewBox="0 0 460.8 345.6" width="460.8pt" xmlns="http://www.w3.org/2000/svg" xmlns:xlink="http://www.w3.org/1999/xlink">
 <metadata>
  <rdf:RDF xmlns:cc="http://creativecommons.org/ns#" xmlns:dc="http://purl.org/dc/elements/1.1/" xmlns:rdf="http://www.w3.org/1999/02/22-rdf-syntax-ns#">
   <cc:Work>
    <dc:type rdf:resource="http://purl.org/dc/dcmitype/StillImage"/>
    <dc:date>2020-12-21T17:40:24.883838</dc:date>
    <dc:format>image/svg+xml</dc:format>
    <dc:creator>
     <cc:Agent>
      <dc:title>Matplotlib v3.3.3, https://matplotlib.org/</dc:title>
     </cc:Agent>
    </dc:creator>
   </cc:Work>
  </rdf:RDF>
 </metadata>
 <defs>
  <style type="text/css">*{stroke-linecap:butt;stroke-linejoin:round;}</style>
 </defs>
 <g id="figure_1">
  <g id="patch_1">
   <path d="M 0 345.6 
L 460.8 345.6 
L 460.8 0 
L 0 0 
z
" style="fill:#ffffff;"/>
  </g>
  <g id="axes_1">
   <g id="patch_2">
    <path d="M 29.223562 315.825354 
L 457.965354 315.825354 
L 457.965354 19.634646 
L 29.223562 19.634646 
z
" style="fill:#ffffff;"/>
   </g>
   <g id="matplotlib.axis_1">
    <g id="xtick_1">
     <g id="line2d_1">
      <path clip-path="url(#p32fe40dbe3)" d="M 39.325234 315.825354 
L 39.325234 19.634646 
" style="fill:none;stroke:#000000;stroke-linecap:square;stroke-opacity:0.1;stroke-width:0.5;"/>
     </g>
     <g id="line2d_2">
      <defs>
       <path d="M 0 0 
L 0 -2.5 
" id="m580b6d066e" style="stroke:#000000;stroke-width:0.5;"/>
      </defs>
      <g>
       <use style="stroke:#000000;stroke-width:0.5;" x="39.325234" xlink:href="#m580b6d066e" y="315.825354"/>
      </g>
     </g>
     <g id="text_1">
      <!-- $\mathregular{0}$ -->
      <g transform="translate(36.765234 325.404104)scale(0.08 -0.08)">
       <defs>
        <path d="M 31.78125 66.40625 
Q 24.171875 66.40625 20.328125 58.90625 
Q 16.5 51.421875 16.5 36.375 
Q 16.5 21.390625 20.328125 13.890625 
Q 24.171875 6.390625 31.78125 6.390625 
Q 39.453125 6.390625 43.28125 13.890625 
Q 47.125 21.390625 47.125 36.375 
Q 47.125 51.421875 43.28125 58.90625 
Q 39.453125 66.40625 31.78125 66.40625 
z
M 31.78125 74.21875 
Q 44.046875 74.21875 50.515625 64.515625 
Q 56.984375 54.828125 56.984375 36.375 
Q 56.984375 17.96875 50.515625 8.265625 
Q 44.046875 -1.421875 31.78125 -1.421875 
Q 19.53125 -1.421875 13.0625 8.265625 
Q 6.59375 17.96875 6.59375 36.375 
Q 6.59375 54.828125 13.0625 64.515625 
Q 19.53125 74.21875 31.78125 74.21875 
z
" id="DejaVuSans-48"/>
       </defs>
       <use transform="translate(0 0.78125)" xlink:href="#DejaVuSans-48"/>
      </g>
     </g>
    </g>
    <g id="xtick_2">
     <g id="line2d_3">
      <path clip-path="url(#p32fe40dbe3)" d="M 140.951713 315.825354 
L 140.951713 19.634646 
" style="fill:none;stroke:#000000;stroke-linecap:square;stroke-opacity:0.1;stroke-width:0.5;"/>
     </g>
     <g id="line2d_4">
      <g>
       <use style="stroke:#000000;stroke-width:0.5;" x="140.951713" xlink:href="#m580b6d066e" y="315.825354"/>
      </g>
     </g>
     <g id="text_2">
      <!-- $\mathregular{50}$ -->
      <g transform="translate(135.831713 325.404104)scale(0.08 -0.08)">
       <defs>
        <path d="M 10.796875 72.90625 
L 49.515625 72.90625 
L 49.515625 64.59375 
L 19.828125 64.59375 
L 19.828125 46.734375 
Q 21.96875 47.46875 24.109375 47.828125 
Q 26.265625 48.1875 28.421875 48.1875 
Q 40.625 48.1875 47.75 41.5 
Q 54.890625 34.8125 54.890625 23.390625 
Q 54.890625 11.625 47.5625 5.09375 
Q 40.234375 -1.421875 26.90625 -1.421875 
Q 22.3125 -1.421875 17.546875 -0.640625 
Q 12.796875 0.140625 7.71875 1.703125 
L 7.71875 11.625 
Q 12.109375 9.234375 16.796875 8.0625 
Q 21.484375 6.890625 26.703125 6.890625 
Q 35.15625 6.890625 40.078125 11.328125 
Q 45.015625 15.765625 45.015625 23.390625 
Q 45.015625 31 40.078125 35.4375 
Q 35.15625 39.890625 26.703125 39.890625 
Q 22.75 39.890625 18.8125 39.015625 
Q 14.890625 38.140625 10.796875 36.28125 
z
" id="DejaVuSans-53"/>
       </defs>
       <use transform="translate(0 0.78125)" xlink:href="#DejaVuSans-53"/>
       <use transform="translate(63.623047 0.78125)" xlink:href="#DejaVuSans-48"/>
      </g>
     </g>
    </g>
    <g id="xtick_3">
     <g id="line2d_5">
      <path clip-path="url(#p32fe40dbe3)" d="M 242.578193 315.825354 
L 242.578193 19.634646 
" style="fill:none;stroke:#000000;stroke-linecap:square;stroke-opacity:0.1;stroke-width:0.5;"/>
     </g>
     <g id="line2d_6">
      <g>
       <use style="stroke:#000000;stroke-width:0.5;" x="242.578193" xlink:href="#m580b6d066e" y="315.825354"/>
      </g>
     </g>
     <g id="text_3">
      <!-- $\mathregular{100}$ -->
      <g transform="translate(234.938193 325.404104)scale(0.08 -0.08)">
       <defs>
        <path d="M 12.40625 8.296875 
L 28.515625 8.296875 
L 28.515625 63.921875 
L 10.984375 60.40625 
L 10.984375 69.390625 
L 28.421875 72.90625 
L 38.28125 72.90625 
L 38.28125 8.296875 
L 54.390625 8.296875 
L 54.390625 0 
L 12.40625 0 
z
" id="DejaVuSans-49"/>
       </defs>
       <use transform="translate(0 0.78125)" xlink:href="#DejaVuSans-49"/>
       <use transform="translate(63.623047 0.78125)" xlink:href="#DejaVuSans-48"/>
       <use transform="translate(127.246094 0.78125)" xlink:href="#DejaVuSans-48"/>
      </g>
     </g>
    </g>
    <g id="xtick_4">
     <g id="line2d_7">
      <path clip-path="url(#p32fe40dbe3)" d="M 344.204673 315.825354 
L 344.204673 19.634646 
" style="fill:none;stroke:#000000;stroke-linecap:square;stroke-opacity:0.1;stroke-width:0.5;"/>
     </g>
     <g id="line2d_8">
      <g>
       <use style="stroke:#000000;stroke-width:0.5;" x="344.204673" xlink:href="#m580b6d066e" y="315.825354"/>
      </g>
     </g>
     <g id="text_4">
      <!-- $\mathregular{150}$ -->
      <g transform="translate(336.564673 325.404104)scale(0.08 -0.08)">
       <use transform="translate(0 0.78125)" xlink:href="#DejaVuSans-49"/>
       <use transform="translate(63.623047 0.78125)" xlink:href="#DejaVuSans-53"/>
       <use transform="translate(127.246094 0.78125)" xlink:href="#DejaVuSans-48"/>
      </g>
     </g>
    </g>
    <g id="xtick_5">
     <g id="line2d_9">
      <path clip-path="url(#p32fe40dbe3)" d="M 445.831153 315.825354 
L 445.831153 19.634646 
" style="fill:none;stroke:#000000;stroke-linecap:square;stroke-opacity:0.1;stroke-width:0.5;"/>
     </g>
     <g id="line2d_10">
      <g>
       <use style="stroke:#000000;stroke-width:0.5;" x="445.831153" xlink:href="#m580b6d066e" y="315.825354"/>
      </g>
     </g>
     <g id="text_5">
      <!-- $\mathregular{200}$ -->
      <g transform="translate(438.191153 325.404104)scale(0.08 -0.08)">
       <defs>
        <path d="M 19.1875 8.296875 
L 53.609375 8.296875 
L 53.609375 0 
L 7.328125 0 
L 7.328125 8.296875 
Q 12.9375 14.109375 22.625 23.890625 
Q 32.328125 33.6875 34.8125 36.53125 
Q 39.546875 41.84375 41.421875 45.53125 
Q 43.3125 49.21875 43.3125 52.78125 
Q 43.3125 58.59375 39.234375 62.25 
Q 35.15625 65.921875 28.609375 65.921875 
Q 23.96875 65.921875 18.8125 64.3125 
Q 13.671875 62.703125 7.8125 59.421875 
L 7.8125 69.390625 
Q 13.765625 71.78125 18.9375 73 
Q 24.125 74.21875 28.421875 74.21875 
Q 39.75 74.21875 46.484375 68.546875 
Q 53.21875 62.890625 53.21875 53.421875 
Q 53.21875 48.921875 51.53125 44.890625 
Q 49.859375 40.875 45.40625 35.40625 
Q 44.1875 33.984375 37.640625 27.21875 
Q 31.109375 20.453125 19.1875 8.296875 
z
" id="DejaVuSans-50"/>
       </defs>
       <use transform="translate(0 0.78125)" xlink:href="#DejaVuSans-50"/>
       <use transform="translate(63.623047 0.78125)" xlink:href="#DejaVuSans-48"/>
       <use transform="translate(127.246094 0.78125)" xlink:href="#DejaVuSans-48"/>
      </g>
     </g>
    </g>
    <g id="text_6">
     <!-- Generation -->
     <g transform="translate(212.912192 339.426136)scale(0.11 -0.11)">
      <defs>
       <path d="M 59.515625 10.40625 
L 59.515625 29.984375 
L 43.40625 29.984375 
L 43.40625 38.09375 
L 69.28125 38.09375 
L 69.28125 6.78125 
Q 63.578125 2.734375 56.6875 0.65625 
Q 49.8125 -1.421875 42 -1.421875 
Q 24.90625 -1.421875 15.25 8.5625 
Q 5.609375 18.5625 5.609375 36.375 
Q 5.609375 54.25 15.25 64.234375 
Q 24.90625 74.21875 42 74.21875 
Q 49.125 74.21875 55.546875 72.453125 
Q 61.96875 70.703125 67.390625 67.28125 
L 67.390625 56.78125 
Q 61.921875 61.421875 55.765625 63.765625 
Q 49.609375 66.109375 42.828125 66.109375 
Q 29.4375 66.109375 22.71875 58.640625 
Q 16.015625 51.171875 16.015625 36.375 
Q 16.015625 21.625 22.71875 14.15625 
Q 29.4375 6.6875 42.828125 6.6875 
Q 48.046875 6.6875 52.140625 7.59375 
Q 56.25 8.5 59.515625 10.40625 
z
" id="DejaVuSans-71"/>
       <path d="M 56.203125 29.59375 
L 56.203125 25.203125 
L 14.890625 25.203125 
Q 15.484375 15.921875 20.484375 11.0625 
Q 25.484375 6.203125 34.421875 6.203125 
Q 39.59375 6.203125 44.453125 7.46875 
Q 49.3125 8.734375 54.109375 11.28125 
L 54.109375 2.78125 
Q 49.265625 0.734375 44.1875 -0.34375 
Q 39.109375 -1.421875 33.890625 -1.421875 
Q 20.796875 -1.421875 13.15625 6.1875 
Q 5.515625 13.8125 5.515625 26.8125 
Q 5.515625 40.234375 12.765625 48.109375 
Q 20.015625 56 32.328125 56 
Q 43.359375 56 49.78125 48.890625 
Q 56.203125 41.796875 56.203125 29.59375 
z
M 47.21875 32.234375 
Q 47.125 39.59375 43.09375 43.984375 
Q 39.0625 48.390625 32.421875 48.390625 
Q 24.90625 48.390625 20.390625 44.140625 
Q 15.875 39.890625 15.1875 32.171875 
z
" id="DejaVuSans-101"/>
       <path d="M 54.890625 33.015625 
L 54.890625 0 
L 45.90625 0 
L 45.90625 32.71875 
Q 45.90625 40.484375 42.875 44.328125 
Q 39.84375 48.1875 33.796875 48.1875 
Q 26.515625 48.1875 22.3125 43.546875 
Q 18.109375 38.921875 18.109375 30.90625 
L 18.109375 0 
L 9.078125 0 
L 9.078125 54.6875 
L 18.109375 54.6875 
L 18.109375 46.1875 
Q 21.34375 51.125 25.703125 53.5625 
Q 30.078125 56 35.796875 56 
Q 45.21875 56 50.046875 50.171875 
Q 54.890625 44.34375 54.890625 33.015625 
z
" id="DejaVuSans-110"/>
       <path d="M 41.109375 46.296875 
Q 39.59375 47.171875 37.8125 47.578125 
Q 36.03125 48 33.890625 48 
Q 26.265625 48 22.1875 43.046875 
Q 18.109375 38.09375 18.109375 28.8125 
L 18.109375 0 
L 9.078125 0 
L 9.078125 54.6875 
L 18.109375 54.6875 
L 18.109375 46.1875 
Q 20.953125 51.171875 25.484375 53.578125 
Q 30.03125 56 36.53125 56 
Q 37.453125 56 38.578125 55.875 
Q 39.703125 55.765625 41.0625 55.515625 
z
" id="DejaVuSans-114"/>
       <path d="M 34.28125 27.484375 
Q 23.390625 27.484375 19.1875 25 
Q 14.984375 22.515625 14.984375 16.5 
Q 14.984375 11.71875 18.140625 8.90625 
Q 21.296875 6.109375 26.703125 6.109375 
Q 34.1875 6.109375 38.703125 11.40625 
Q 43.21875 16.703125 43.21875 25.484375 
L 43.21875 27.484375 
z
M 52.203125 31.203125 
L 52.203125 0 
L 43.21875 0 
L 43.21875 8.296875 
Q 40.140625 3.328125 35.546875 0.953125 
Q 30.953125 -1.421875 24.3125 -1.421875 
Q 15.921875 -1.421875 10.953125 3.296875 
Q 6 8.015625 6 15.921875 
Q 6 25.140625 12.171875 29.828125 
Q 18.359375 34.515625 30.609375 34.515625 
L 43.21875 34.515625 
L 43.21875 35.40625 
Q 43.21875 41.609375 39.140625 45 
Q 35.0625 48.390625 27.6875 48.390625 
Q 23 48.390625 18.546875 47.265625 
Q 14.109375 46.140625 10.015625 43.890625 
L 10.015625 52.203125 
Q 14.9375 54.109375 19.578125 55.046875 
Q 24.21875 56 28.609375 56 
Q 40.484375 56 46.34375 49.84375 
Q 52.203125 43.703125 52.203125 31.203125 
z
" id="DejaVuSans-97"/>
       <path d="M 18.3125 70.21875 
L 18.3125 54.6875 
L 36.8125 54.6875 
L 36.8125 47.703125 
L 18.3125 47.703125 
L 18.3125 18.015625 
Q 18.3125 11.328125 20.140625 9.421875 
Q 21.96875 7.515625 27.59375 7.515625 
L 36.8125 7.515625 
L 36.8125 0 
L 27.59375 0 
Q 17.1875 0 13.234375 3.875 
Q 9.28125 7.765625 9.28125 18.015625 
L 9.28125 47.703125 
L 2.6875 47.703125 
L 2.6875 54.6875 
L 9.28125 54.6875 
L 9.28125 70.21875 
z
" id="DejaVuSans-116"/>
       <path d="M 9.421875 54.6875 
L 18.40625 54.6875 
L 18.40625 0 
L 9.421875 0 
z
M 9.421875 75.984375 
L 18.40625 75.984375 
L 18.40625 64.59375 
L 9.421875 64.59375 
z
" id="DejaVuSans-105"/>
       <path d="M 30.609375 48.390625 
Q 23.390625 48.390625 19.1875 42.75 
Q 14.984375 37.109375 14.984375 27.296875 
Q 14.984375 17.484375 19.15625 11.84375 
Q 23.34375 6.203125 30.609375 6.203125 
Q 37.796875 6.203125 41.984375 11.859375 
Q 46.1875 17.53125 46.1875 27.296875 
Q 46.1875 37.015625 41.984375 42.703125 
Q 37.796875 48.390625 30.609375 48.390625 
z
M 30.609375 56 
Q 42.328125 56 49.015625 48.375 
Q 55.71875 40.765625 55.71875 27.296875 
Q 55.71875 13.875 49.015625 6.21875 
Q 42.328125 -1.421875 30.609375 -1.421875 
Q 18.84375 -1.421875 12.171875 6.21875 
Q 5.515625 13.875 5.515625 27.296875 
Q 5.515625 40.765625 12.171875 48.375 
Q 18.84375 56 30.609375 56 
z
" id="DejaVuSans-111"/>
      </defs>
      <use xlink:href="#DejaVuSans-71"/>
      <use x="77.490234" xlink:href="#DejaVuSans-101"/>
      <use x="139.013672" xlink:href="#DejaVuSans-110"/>
      <use x="202.392578" xlink:href="#DejaVuSans-101"/>
      <use x="263.916016" xlink:href="#DejaVuSans-114"/>
      <use x="305.029297" xlink:href="#DejaVuSans-97"/>
      <use x="366.308594" xlink:href="#DejaVuSans-116"/>
      <use x="405.517578" xlink:href="#DejaVuSans-105"/>
      <use x="433.300781" xlink:href="#DejaVuSans-111"/>
      <use x="494.482422" xlink:href="#DejaVuSans-110"/>
     </g>
    </g>
   </g>
   <g id="matplotlib.axis_2">
    <g id="ytick_1">
     <g id="line2d_11">
      <path clip-path="url(#p32fe40dbe3)" d="M 29.223562 258.675811 
L 457.965354 258.675811 
" style="fill:none;stroke:#000000;stroke-linecap:square;stroke-opacity:0.1;stroke-width:0.5;"/>
     </g>
     <g id="line2d_12">
      <defs>
       <path d="M 0 0 
L 2.5 0 
" id="m6220811ece" style="stroke:#000000;stroke-width:0.5;"/>
      </defs>
      <g>
       <use style="stroke:#000000;stroke-width:0.5;" x="29.223562" xlink:href="#m6220811ece" y="258.675811"/>
      </g>
     </g>
     <g id="text_7">
      <!-- $\mathregular{-100}$ -->
      <g transform="translate(3.723562 261.715186)scale(0.08 -0.08)">
       <defs>
        <path d="M 10.59375 35.5 
L 73.1875 35.5 
L 73.1875 27.203125 
L 10.59375 27.203125 
z
" id="DejaVuSans-8722"/>
       </defs>
       <use transform="translate(0 0.78125)" xlink:href="#DejaVuSans-8722"/>
       <use transform="translate(83.789062 0.78125)" xlink:href="#DejaVuSans-49"/>
       <use transform="translate(147.412109 0.78125)" xlink:href="#DejaVuSans-48"/>
       <use transform="translate(211.035156 0.78125)" xlink:href="#DejaVuSans-48"/>
      </g>
     </g>
    </g>
    <g id="ytick_2">
     <g id="line2d_13">
      <path clip-path="url(#p32fe40dbe3)" d="M 29.223562 197.793806 
L 457.965354 197.793806 
" style="fill:none;stroke:#000000;stroke-linecap:square;stroke-opacity:0.1;stroke-width:0.5;"/>
     </g>
     <g id="line2d_14">
      <g>
       <use style="stroke:#000000;stroke-width:0.5;" x="29.223562" xlink:href="#m6220811ece" y="197.793806"/>
      </g>
     </g>
     <g id="text_8">
      <!-- $\mathregular{0}$ -->
      <g transform="translate(20.603562 200.833181)scale(0.08 -0.08)">
       <use transform="translate(0 0.78125)" xlink:href="#DejaVuSans-48"/>
      </g>
     </g>
    </g>
    <g id="ytick_3">
     <g id="line2d_15">
      <path clip-path="url(#p32fe40dbe3)" d="M 29.223562 136.911801 
L 457.965354 136.911801 
" style="fill:none;stroke:#000000;stroke-linecap:square;stroke-opacity:0.1;stroke-width:0.5;"/>
     </g>
     <g id="line2d_16">
      <g>
       <use style="stroke:#000000;stroke-width:0.5;" x="29.223562" xlink:href="#m6220811ece" y="136.911801"/>
      </g>
     </g>
     <g id="text_9">
      <!-- $\mathregular{100}$ -->
      <g transform="translate(10.443562 139.951176)scale(0.08 -0.08)">
       <use transform="translate(0 0.78125)" xlink:href="#DejaVuSans-49"/>
       <use transform="translate(63.623047 0.78125)" xlink:href="#DejaVuSans-48"/>
       <use transform="translate(127.246094 0.78125)" xlink:href="#DejaVuSans-48"/>
      </g>
     </g>
    </g>
    <g id="ytick_4">
     <g id="line2d_17">
      <path clip-path="url(#p32fe40dbe3)" d="M 29.223562 76.029796 
L 457.965354 76.029796 
" style="fill:none;stroke:#000000;stroke-linecap:square;stroke-opacity:0.1;stroke-width:0.5;"/>
     </g>
     <g id="line2d_18">
      <g>
       <use style="stroke:#000000;stroke-width:0.5;" x="29.223562" xlink:href="#m6220811ece" y="76.029796"/>
      </g>
     </g>
     <g id="text_10">
      <!-- $\mathregular{200}$ -->
      <g transform="translate(10.443562 79.069171)scale(0.08 -0.08)">
       <use transform="translate(0 0.78125)" xlink:href="#DejaVuSans-50"/>
       <use transform="translate(63.623047 0.78125)" xlink:href="#DejaVuSans-48"/>
       <use transform="translate(127.246094 0.78125)" xlink:href="#DejaVuSans-48"/>
      </g>
     </g>
    </g>
   </g>
   <g id="line2d_19">
    <path clip-path="url(#p32fe40dbe3)" d="M 41.357763 253.504376 
L 43.390293 211.204624 
L 45.422823 208.139169 
L 47.455352 207.049576 
L 49.487882 207.08293 
L 51.520411 205.951371 
L 53.552941 203.462611 
L 55.585471 203.978474 
L 57.618 202.559928 
L 59.65053 202.911657 
L 61.683059 202.564301 
L 63.715589 203.121286 
L 65.748118 202.635756 
L 67.780648 202.599005 
L 69.813178 201.609869 
L 71.845707 205.627781 
L 73.878237 203.874177 
L 75.910766 204.412132 
L 77.943296 203.35738 
L 79.975826 203.667965 
L 82.008355 202.912074 
L 84.040885 206.82232 
L 86.073414 202.038898 
L 88.105944 216.521363 
L 90.138474 208.695089 
L 92.171003 207.5051 
L 94.203533 206.471656 
L 96.236062 206.580224 
L 98.268592 206.356054 
L 100.301122 206.436886 
L 102.333651 204.325947 
L 104.366181 204.422709 
L 106.39871 203.88787 
L 108.43124 204.069425 
L 110.46377 203.966866 
L 112.496299 200.109176 
L 114.528829 200.317956 
L 116.561358 213.397584 
L 118.593888 197.545827 
L 120.626418 200.592332 
L 122.658947 200.484818 
L 124.691477 197.500016 
L 126.724006 197.312152 
L 128.756536 199.942804 
L 130.789066 197.197216 
L 132.821595 199.833146 
L 134.854125 198.31961 
L 136.886654 197.455772 
L 138.919184 197.706198 
L 140.951713 201.1409 
L 142.984243 197.414633 
L 145.016773 206.27308 
L 147.049302 199.081106 
L 149.081832 198.417202 
L 151.114361 197.309217 
L 153.146891 197.21981 
L 155.179421 197.413281 
L 157.21195 198.700072 
L 159.24448 197.640644 
L 161.277009 198.791764 
L 163.309539 197.491654 
L 165.342069 201.016115 
L 167.374598 199.863477 
L 169.407128 201.461843 
L 171.439657 197.615344 
L 173.472187 199.408473 
L 175.504717 197.583408 
L 179.569776 197.693912 
L 181.602305 198.96677 
L 183.634835 197.296444 
L 185.667365 212.251826 
L 187.699894 197.57273 
L 189.732424 197.772051 
L 191.764953 198.309774 
L 193.797483 197.521475 
L 195.830013 198.284907 
L 197.862542 197.441213 
L 199.895072 197.408309 
L 201.927601 198.293158 
L 203.960131 197.331609 
L 205.992661 200.869207 
L 208.02519 197.509328 
L 210.05772 199.935667 
L 212.090249 198.54186 
L 214.122779 215.02709 
L 216.155308 197.626831 
L 218.187838 197.768821 
L 220.220368 197.388751 
L 222.252897 197.697712 
L 224.285427 199.638529 
L 226.317956 197.391344 
L 228.350486 200.536921 
L 230.383016 198.55741 
L 232.415545 197.671777 
L 234.448075 198.03076 
L 236.480604 197.618277 
L 238.513134 209.898702 
L 240.545664 199.812069 
L 242.578193 200.76773 
L 244.610723 199.894076 
L 246.643252 203.987788 
L 248.675782 200.048355 
L 250.708312 197.551476 
L 252.740841 199.261889 
L 254.773371 216.032322 
L 256.8059 200.098649 
L 258.83843 199.002887 
L 260.87096 197.392499 
L 262.903489 201.176472 
L 264.936019 198.02288 
L 266.968548 197.404031 
L 269.001078 197.569883 
L 273.066137 197.281694 
L 275.098667 197.263392 
L 277.131196 197.371474 
L 279.163726 204.817883 
L 281.196256 201.010171 
L 283.228785 206.813439 
L 285.261315 190.108576 
L 287.293844 188.29464 
L 289.326374 182.901711 
L 291.358903 190.153597 
L 293.391433 178.692769 
L 295.423963 186.788752 
L 297.456492 187.688762 
L 299.489022 182.40644 
L 301.521551 175.966178 
L 303.554081 182.691305 
L 305.586611 171.432739 
L 307.61914 182.802556 
L 309.65167 177.335312 
L 311.684199 184.208818 
L 313.716729 181.865488 
L 315.749259 178.599351 
L 317.781788 180.069765 
L 319.814318 181.769231 
L 321.846847 171.935945 
L 323.879377 177.640833 
L 325.911907 174.183773 
L 327.944436 177.591935 
L 329.976966 176.186858 
L 332.009495 194.220649 
L 334.042025 174.417433 
L 336.074555 160.31793 
L 338.107084 140.362203 
L 340.139614 135.255327 
L 342.172143 133.052433 
L 344.204673 136.858478 
L 346.237203 131.708794 
L 348.269732 134.246644 
L 350.302262 124.061793 
L 352.334791 139.479016 
L 354.367321 75.242797 
L 356.39985 80.987663 
L 358.43238 78.532521 
L 360.46491 132.214627 
L 362.497439 90.871662 
L 364.529969 60.113857 
L 366.562498 71.868284 
L 368.595028 68.859941 
L 370.627558 66.709757 
L 372.660087 86.181901 
L 374.692617 68.64685 
L 376.725146 90.016363 
L 378.757676 59.953904 
L 380.790206 61.266468 
L 382.822735 63.843158 
L 384.855265 78.899136 
L 386.887794 71.854433 
L 388.920324 69.671558 
L 390.952854 53.037438 
L 392.985383 48.516111 
L 395.017913 39.494462 
L 397.050442 44.005189 
L 399.082972 41.704166 
L 401.115502 37.945379 
L 403.148031 42.287216 
L 405.180561 39.11395 
L 407.21309 28.017402 
L 409.24562 32.42228 
L 411.27815 31.833749 
L 413.310679 90.502102 
L 415.343209 44.2124 
L 417.375738 51.087154 
L 419.408268 43.962456 
L 421.440798 55.037907 
L 423.473327 42.317928 
L 425.505857 49.321496 
L 427.538386 48.722291 
L 429.570916 59.558639 
L 431.603445 57.524439 
L 433.635975 44.882486 
L 435.668505 39.988645 
L 437.701034 47.001112 
L 439.733564 42.452947 
L 441.766093 45.453877 
L 443.798623 37.665921 
L 445.831153 57.066319 
L 445.831153 57.066319 
" style="fill:none;stroke:#009afa;"/>
   </g>
   <g id="line2d_20">
    <path clip-path="url(#p32fe40dbe3)" d="M 41.357763 253.68615 
L 43.390293 217.480002 
L 45.422823 209.901216 
L 47.455352 219.267947 
L 49.487882 207.734492 
L 51.520411 208.631946 
L 53.552941 206.916604 
L 55.585471 217.444524 
L 57.618 204.044309 
L 59.65053 213.977324 
L 61.683059 202.797432 
L 63.715589 208.580796 
L 65.748118 202.727451 
L 67.780648 206.586796 
L 69.813178 202.855769 
L 71.845707 208.483293 
L 73.878237 205.17525 
L 75.910766 210.959574 
L 77.943296 205.321802 
L 79.975826 210.454584 
L 82.008355 203.214154 
L 84.040885 215.059539 
L 86.073414 202.800762 
L 88.105944 222.674546 
L 90.138474 210.51248 
L 92.171003 208.896954 
L 94.203533 206.917251 
L 96.236062 209.85224 
L 98.268592 206.400062 
L 100.301122 212.04777 
L 102.333651 204.773666 
L 104.366181 207.504203 
L 106.39871 204.110367 
L 108.43124 206.826842 
L 110.46377 203.989619 
L 112.496299 204.007519 
L 114.528829 201.095929 
L 116.561358 214.868096 
L 118.593888 197.570276 
L 120.626418 214.227854 
L 122.658947 200.7847 
L 124.691477 216.36183 
L 126.724006 197.500568 
L 128.756536 203.52624 
L 130.789066 198.412746 
L 132.821595 214.899304 
L 134.854125 199.206047 
L 136.886654 213.501537 
L 138.919184 198.419044 
L 140.951713 204.122066 
L 142.984243 197.442407 
L 145.016773 213.183736 
L 147.049302 199.919275 
L 149.081832 214.820918 
L 151.114361 197.485001 
L 153.146891 218.569651 
L 155.179421 197.767068 
L 157.21195 210.433659 
L 159.24448 198.264923 
L 161.277009 208.975375 
L 163.309539 198.167927 
L 165.342069 204.380328 
L 167.374598 199.972592 
L 169.407128 218.815484 
L 171.439657 199.130186 
L 173.472187 212.306387 
L 175.504717 200.087684 
L 177.537246 206.766127 
L 179.569776 197.8278 
L 181.602305 214.580795 
L 183.634835 197.504981 
L 185.667365 212.863382 
L 187.699894 197.580447 
L 189.732424 205.557001 
L 191.764953 198.699063 
L 193.797483 215.128338 
L 195.830013 200.079191 
L 197.862542 220.072067 
L 199.895072 197.42699 
L 201.927601 215.426835 
L 203.960131 197.420728 
L 205.992661 213.256213 
L 208.02519 200.166785 
L 210.05772 215.9464 
L 212.090249 199.351948 
L 214.122779 216.101362 
L 216.155308 199.919095 
L 218.187838 207.78429 
L 220.220368 197.867039 
L 222.252897 210.021168 
L 224.285427 199.94138 
L 226.317956 209.076645 
L 228.350486 200.96085 
L 230.383016 212.602212 
L 232.415545 200.352092 
L 234.448075 221.985541 
L 236.480604 197.689788 
L 238.513134 217.359508 
L 240.545664 200.402217 
L 242.578193 206.593185 
L 244.610723 200.265821 
L 246.643252 207.437706 
L 248.675782 200.11343 
L 250.708312 215.83164 
L 252.740841 200.011249 
L 254.773371 217.131533 
L 256.8059 200.251147 
L 258.83843 219.763259 
L 260.87096 197.737115 
L 262.903489 203.460046 
L 264.936019 198.379386 
L 266.968548 210.225999 
L 269.001078 197.908374 
L 271.033608 214.855154 
L 273.066137 197.59165 
L 275.098667 198.367581 
L 277.131196 197.482795 
L 279.163726 214.000237 
L 281.196256 208.624308 
L 283.228785 215.870346 
L 285.261315 200.157116 
L 287.293844 213.513035 
L 289.326374 184.095026 
L 291.358903 206.807191 
L 293.391433 181.957564 
L 295.423963 212.062601 
L 297.456492 191.161736 
L 299.489022 189.975773 
L 301.521551 178.795181 
L 303.554081 214.452648 
L 305.586611 174.215809 
L 307.61914 208.356753 
L 309.65167 177.786 
L 311.684199 216.633454 
L 313.716729 182.579531 
L 315.749259 198.6322 
L 317.781788 180.381651 
L 319.814318 221.645913 
L 321.846847 176.259473 
L 323.879377 200.101699 
L 325.911907 177.363974 
L 327.944436 185.960071 
L 329.976966 178.182979 
L 332.009495 219.600879 
L 334.042025 180.545666 
L 336.074555 189.284238 
L 338.107084 142.258699 
L 340.139614 152.622988 
L 342.172143 145.706634 
L 344.204673 178.259753 
L 346.237203 134.028964 
L 348.269732 137.650048 
L 350.302262 132.030265 
L 352.334791 143.187964 
L 354.367321 114.967376 
L 356.39985 120.192298 
L 358.43238 80.238529 
L 360.46491 133.827792 
L 362.497439 95.122552 
L 364.529969 121.181849 
L 366.562498 83.86436 
L 368.595028 81.986165 
L 370.627558 67.681355 
L 372.660087 93.103615 
L 374.692617 74.830717 
L 376.725146 110.361605 
L 378.757676 60.486064 
L 380.790206 77.58503 
L 382.822735 64.726958 
L 384.855265 85.533097 
L 386.887794 82.850669 
L 388.920324 72.783948 
L 390.952854 55.692433 
L 392.985383 51.185979 
L 395.017913 51.843589 
L 397.050442 54.44709 
L 399.082972 45.150777 
L 401.115502 56.51243 
L 403.148031 50.016024 
L 405.180561 74.216788 
L 407.21309 29.02929 
L 409.24562 38.456618 
L 411.27815 33.336272 
L 413.310679 98.405067 
L 415.343209 63.896352 
L 417.375738 54.583809 
L 419.408268 59.291853 
L 421.440798 56.708678 
L 423.473327 53.499683 
L 425.505857 56.239838 
L 427.538386 49.273839 
L 429.570916 61.52349 
L 431.603445 57.787212 
L 433.635975 45.558658 
L 435.668505 49.915972 
L 437.701034 47.370737 
L 439.733564 46.543225 
L 441.766093 45.939421 
L 443.798623 38.944726 
L 445.831153 60.16326 
L 445.831153 60.16326 
" style="fill:none;stroke:#e36f47;"/>
   </g>
   <g id="patch_3">
    <path d="M 29.223562 315.825354 
L 29.223562 19.634646 
" style="fill:none;stroke:#000000;stroke-linecap:square;stroke-linejoin:miter;"/>
   </g>
   <g id="patch_4">
    <path d="M 29.223562 315.825354 
L 457.965354 315.825354 
" style="fill:none;stroke:#000000;stroke-linecap:square;stroke-linejoin:miter;"/>
   </g>
   <g id="line2d_21">
    <path clip-path="url(#p32fe40dbe3)" d="M 41.357763 253.73828 
L 43.390293 218.566874 
L 45.422823 210.151663 
L 47.455352 219.961734 
L 49.487882 207.996628 
L 51.520411 212.68039 
L 53.552941 207.48468 
L 55.585471 217.516542 
L 57.618 206.17911 
L 59.65053 217.244881 
L 61.683059 202.881819 
L 63.715589 209.57917 
L 65.748118 202.997198 
L 67.780648 208.615832 
L 69.813178 202.894722 
L 71.845707 212.420991 
L 73.878237 205.255145 
L 75.910766 219.630699 
L 77.943296 205.874966 
L 79.975826 218.700271 
L 82.008355 203.520805 
L 84.040885 222.209998 
L 86.073414 204.902448 
L 88.105944 227.125298 
L 90.138474 215.546957 
L 92.171003 215.189356 
L 94.203533 207.569314 
L 96.236062 212.610005 
L 98.268592 206.598518 
L 100.301122 212.58807 
L 102.333651 204.79105 
L 104.366181 211.540496 
L 106.39871 204.198813 
L 108.43124 213.313082 
L 110.46377 204.016406 
L 112.496299 216.776683 
L 114.528829 201.134276 
L 116.561358 220.134409 
L 118.593888 197.613103 
L 120.626418 219.003676 
L 122.658947 209.713524 
L 124.691477 218.982539 
L 126.724006 200.065126 
L 128.756536 213.56619 
L 130.789066 199.820814 
L 132.821595 216.007711 
L 134.854125 200.271368 
L 136.886654 217.182575 
L 138.919184 199.055251 
L 140.951713 204.880226 
L 142.984243 197.879311 
L 145.016773 217.053666 
L 147.049302 200.727244 
L 149.081832 216.280149 
L 151.114361 199.837247 
L 153.146891 219.447856 
L 155.179421 200.428772 
L 157.21195 216.670525 
L 159.24448 198.52996 
L 161.277009 220.28474 
L 163.309539 199.833613 
L 165.342069 215.644022 
L 167.374598 200.016822 
L 169.407128 223.112178 
L 171.439657 199.507085 
L 173.472187 219.073306 
L 175.504717 200.655568 
L 177.537246 213.278919 
L 179.569776 198.413407 
L 181.602305 217.115027 
L 183.634835 198.462257 
L 185.667365 216.720937 
L 187.699894 203.511606 
L 189.732424 210.496095 
L 191.764953 200.024097 
L 193.797483 215.40557 
L 195.830013 200.079808 
L 197.862542 220.843012 
L 199.895072 197.443161 
L 201.927601 216.624869 
L 203.960131 198.41255 
L 205.992661 216.218387 
L 208.02519 200.187272 
L 210.05772 216.442101 
L 212.090249 200.3982 
L 214.122779 218.630154 
L 216.155308 200.080218 
L 218.187838 213.817246 
L 220.220368 198.874287 
L 222.252897 218.823473 
L 224.285427 200.280755 
L 226.317956 209.427343 
L 228.350486 201.10148 
L 230.383016 216.801454 
L 232.415545 200.728291 
L 234.448075 224.77195 
L 236.480604 199.129061 
L 238.513134 218.429372 
L 240.545664 201.161358 
L 242.578193 206.970604 
L 244.610723 200.502473 
L 246.643252 215.608987 
L 248.675782 200.420998 
L 250.708312 221.324865 
L 252.740841 200.627885 
L 254.773371 223.366371 
L 256.8059 200.487781 
L 258.83843 219.819262 
L 260.87096 198.654686 
L 262.903489 215.548251 
L 264.936019 200.499043 
L 266.968548 212.354098 
L 269.001078 198.544935 
L 271.033608 215.547018 
L 273.066137 198.082807 
L 275.098667 210.970041 
L 277.131196 199.07068 
L 279.163726 215.890522 
L 281.196256 210.862569 
L 283.228785 219.819339 
L 285.261315 204.217452 
L 287.293844 217.481895 
L 289.326374 187.500055 
L 291.358903 209.151163 
L 293.391433 184.999378 
L 295.423963 212.083796 
L 297.456492 195.336219 
L 299.489022 209.772697 
L 301.521551 179.615843 
L 303.554081 215.870195 
L 305.586611 178.763065 
L 307.61914 209.36414 
L 309.65167 179.020733 
L 311.684199 218.643092 
L 313.716729 182.917973 
L 315.749259 204.334566 
L 317.781788 184.210566 
L 319.814318 225.198029 
L 321.846847 177.564317 
L 323.879377 210.340445 
L 325.911907 178.717739 
L 327.944436 206.324561 
L 329.976966 180.360869 
L 332.009495 220.542276 
L 334.042025 182.404007 
L 336.074555 190.266501 
L 338.107084 147.875788 
L 340.139614 177.533075 
L 342.172143 153.608061 
L 344.204673 188.668672 
L 346.237203 150.086936 
L 348.269732 160.892034 
L 350.302262 135.078811 
L 352.334791 154.341319 
L 354.367321 124.355427 
L 356.39985 121.796838 
L 358.43238 106.006585 
L 360.46491 179.856024 
L 362.497439 109.069432 
L 364.529969 153.140387 
L 366.562498 90.864156 
L 368.595028 85.509566 
L 370.627558 82.558448 
L 372.660087 98.730695 
L 374.692617 78.739035 
L 376.725146 113.099558 
L 378.757676 65.013281 
L 380.790206 95.26634 
L 382.822735 67.04225 
L 384.855265 90.561761 
L 388.920324 75.722971 
L 390.952854 59.838096 
L 392.985383 51.746706 
L 395.017913 55.53444 
L 397.050442 55.016308 
L 399.082972 45.332208 
L 401.115502 59.626501 
L 403.148031 51.012547 
L 405.180561 76.373428 
L 407.21309 33.783709 
L 409.24562 80.343096 
L 411.27815 34.811371 
L 413.310679 118.826123 
L 415.343209 67.24594 
L 417.375738 108.425255 
L 419.408268 59.67976 
L 421.440798 57.345684 
L 423.473327 57.198142 
L 427.538386 55.348402 
L 429.570916 62.682762 
L 431.603445 58.233562 
L 433.635975 54.681539 
L 435.668505 50.889688 
L 439.733564 46.887683 
L 441.766093 47.315639 
L 443.798623 45.67048 
L 445.831153 66.372972 
L 445.831153 66.372972 
" style="fill:none;stroke:#3ea44e;"/>
   </g>
   <g id="text_11">
    <!-- Elite Fitness -->
    <g transform="translate(201.761802 13.634646)scale(0.14 -0.14)">
     <defs>
      <path d="M 9.8125 72.90625 
L 55.90625 72.90625 
L 55.90625 64.59375 
L 19.671875 64.59375 
L 19.671875 43.015625 
L 54.390625 43.015625 
L 54.390625 34.71875 
L 19.671875 34.71875 
L 19.671875 8.296875 
L 56.78125 8.296875 
L 56.78125 0 
L 9.8125 0 
z
" id="DejaVuSans-69"/>
      <path d="M 9.421875 75.984375 
L 18.40625 75.984375 
L 18.40625 0 
L 9.421875 0 
z
" id="DejaVuSans-108"/>
      <path id="DejaVuSans-32"/>
      <path d="M 9.8125 72.90625 
L 51.703125 72.90625 
L 51.703125 64.59375 
L 19.671875 64.59375 
L 19.671875 43.109375 
L 48.578125 43.109375 
L 48.578125 34.8125 
L 19.671875 34.8125 
L 19.671875 0 
L 9.8125 0 
z
" id="DejaVuSans-70"/>
      <path d="M 44.28125 53.078125 
L 44.28125 44.578125 
Q 40.484375 46.53125 36.375 47.5 
Q 32.28125 48.484375 27.875 48.484375 
Q 21.1875 48.484375 17.84375 46.4375 
Q 14.5 44.390625 14.5 40.28125 
Q 14.5 37.15625 16.890625 35.375 
Q 19.28125 33.59375 26.515625 31.984375 
L 29.59375 31.296875 
Q 39.15625 29.25 43.1875 25.515625 
Q 47.21875 21.78125 47.21875 15.09375 
Q 47.21875 7.46875 41.1875 3.015625 
Q 35.15625 -1.421875 24.609375 -1.421875 
Q 20.21875 -1.421875 15.453125 -0.5625 
Q 10.6875 0.296875 5.421875 2 
L 5.421875 11.28125 
Q 10.40625 8.6875 15.234375 7.390625 
Q 20.0625 6.109375 24.8125 6.109375 
Q 31.15625 6.109375 34.5625 8.28125 
Q 37.984375 10.453125 37.984375 14.40625 
Q 37.984375 18.0625 35.515625 20.015625 
Q 33.0625 21.96875 24.703125 23.78125 
L 21.578125 24.515625 
Q 13.234375 26.265625 9.515625 29.90625 
Q 5.8125 33.546875 5.8125 39.890625 
Q 5.8125 47.609375 11.28125 51.796875 
Q 16.75 56 26.8125 56 
Q 31.78125 56 36.171875 55.265625 
Q 40.578125 54.546875 44.28125 53.078125 
z
" id="DejaVuSans-115"/>
     </defs>
     <use xlink:href="#DejaVuSans-69"/>
     <use x="63.183594" xlink:href="#DejaVuSans-108"/>
     <use x="90.966797" xlink:href="#DejaVuSans-105"/>
     <use x="118.75" xlink:href="#DejaVuSans-116"/>
     <use x="157.958984" xlink:href="#DejaVuSans-101"/>
     <use x="219.482422" xlink:href="#DejaVuSans-32"/>
     <use x="251.269531" xlink:href="#DejaVuSans-70"/>
     <use x="301.539062" xlink:href="#DejaVuSans-105"/>
     <use x="329.322266" xlink:href="#DejaVuSans-116"/>
     <use x="368.53125" xlink:href="#DejaVuSans-110"/>
     <use x="431.910156" xlink:href="#DejaVuSans-101"/>
     <use x="493.433594" xlink:href="#DejaVuSans-115"/>
     <use x="545.533203" xlink:href="#DejaVuSans-115"/>
    </g>
   </g>
   <g id="line2d_22">
    <path clip-path="url(#p32fe40dbe3)" d="M 41.357763 253.740993 
L 43.390293 220.438678 
L 45.422823 212.326633 
L 47.455352 221.134887 
L 49.487882 214.565089 
L 51.520411 222.33692 
L 53.552941 207.74757 
L 55.585471 220.976932 
L 57.618 212.953111 
L 59.65053 221.935952 
L 61.683059 203.001813 
L 63.715589 209.750108 
L 65.748118 203.0685 
L 67.780648 219.370154 
L 69.813178 202.926128 
L 71.845707 214.494679 
L 73.878237 205.467482 
L 75.910766 223.596537 
L 77.943296 207.270838 
L 79.975826 221.279293 
L 82.008355 204.06325 
L 84.040885 223.348834 
L 86.073414 204.969425 
L 88.105944 227.915122 
L 90.138474 216.203913 
L 92.171003 217.829603 
L 94.203533 208.199167 
L 96.236062 215.31278 
L 98.268592 207.468724 
L 100.301122 217.87343 
L 102.333651 206.373204 
L 104.366181 223.4249 
L 106.39871 204.551241 
L 108.43124 215.184316 
L 110.46377 204.124576 
L 112.496299 216.819215 
L 114.528829 203.843146 
L 116.561358 221.999759 
L 118.593888 197.88069 
L 120.626418 222.072982 
L 122.658947 210.914175 
L 124.691477 219.785566 
L 126.724006 200.092983 
L 128.756536 214.328195 
L 130.789066 200.126014 
L 132.821595 218.070675 
L 134.854125 200.495371 
L 136.886654 219.131743 
L 138.919184 200.093307 
L 140.951713 207.861484 
L 142.984243 200.000831 
L 145.016773 223.677275 
L 147.049302 202.200479 
L 149.081832 216.822635 
L 151.114361 201.078459 
L 153.146891 219.774597 
L 155.179421 207.349741 
L 157.21195 216.75593 
L 159.24448 198.650029 
L 161.277009 222.08327 
L 163.309539 200.154631 
L 165.342069 217.963855 
L 167.374598 200.779116 
L 169.407128 226.91263 
L 171.439657 200.209058 
L 173.472187 223.880551 
L 175.504717 200.697567 
L 177.537246 213.345086 
L 179.569776 199.941565 
L 181.602305 219.355348 
L 183.634835 198.541051 
L 185.667365 219.367218 
L 187.699894 204.411866 
L 189.732424 217.535697 
L 191.764953 201.055426 
L 193.797483 220.302976 
L 195.830013 200.356244 
L 197.862542 222.336012 
L 199.895072 197.554364 
L 201.927601 218.601225 
L 203.960131 199.334917 
L 205.992661 216.542248 
L 208.02519 200.500754 
L 210.05772 219.160238 
L 212.090249 205.511976 
L 214.122779 219.845513 
L 216.155308 200.568098 
L 218.187838 219.190386 
L 220.220368 199.987367 
L 222.252897 219.114529 
L 224.285427 200.63245 
L 226.317956 218.228795 
L 228.350486 201.104571 
L 230.383016 217.464058 
L 232.415545 201.161277 
L 234.448075 226.590725 
L 236.480604 200.075034 
L 238.513134 226.760012 
L 240.545664 203.067446 
L 242.578193 209.235264 
L 244.610723 203.952878 
L 246.643252 218.48228 
L 248.675782 200.466077 
L 250.708312 226.30813 
L 252.740841 203.257533 
L 254.773371 226.591361 
L 256.8059 207.51366 
L 258.83843 222.667042 
L 260.87096 199.712319 
L 262.903489 216.211702 
L 264.936019 200.506793 
L 266.968548 215.310844 
L 269.001078 200.179186 
L 271.033608 219.53787 
L 273.066137 198.498956 
L 275.098667 213.829632 
L 277.131196 199.207244 
L 279.163726 216.060395 
L 281.196256 210.957968 
L 283.228785 220.422599 
L 285.261315 208.026488 
L 287.293844 217.571972 
L 289.326374 190.148338 
L 291.358903 209.772412 
L 293.391433 185.248022 
L 295.423963 212.918117 
L 297.456492 198.160508 
L 299.489022 210.300116 
L 301.521551 181.468651 
L 303.554081 216.366089 
L 305.586611 179.469777 
L 307.61914 215.691662 
L 309.65167 179.502566 
L 311.684199 225.400237 
L 313.716729 183.019837 
L 315.749259 224.862786 
L 317.781788 194.303698 
L 319.814318 230.359246 
L 321.846847 180.582655 
L 323.879377 222.036164 
L 325.911907 181.592329 
L 327.944436 213.517459 
L 329.976966 185.504622 
L 332.009495 221.826136 
L 334.042025 192.337859 
L 336.074555 196.560674 
L 338.107084 158.241108 
L 340.139614 205.05065 
L 342.172143 158.681317 
L 344.204673 214.302019 
L 346.237203 160.964843 
L 348.269732 160.967923 
L 350.302262 136.517925 
L 352.334791 156.106564 
L 354.367321 139.778424 
L 356.39985 146.200283 
L 358.43238 108.075278 
L 360.46491 182.545325 
L 362.497439 109.288097 
L 364.529969 157.360764 
L 366.562498 107.609364 
L 368.595028 101.058658 
L 370.627558 83.131985 
L 372.660087 104.030688 
L 374.692617 91.414078 
L 376.725146 113.72888 
L 378.757676 68.266904 
L 380.790206 107.090581 
L 382.822735 67.626461 
L 384.855265 91.592731 
L 386.887794 83.548988 
L 388.920324 88.741386 
L 390.952854 64.483954 
L 392.985383 60.272695 
L 395.017913 55.591043 
L 397.050442 55.441635 
L 399.082972 45.641811 
L 401.115502 61.530829 
L 403.148031 53.482367 
L 405.180561 80.985889 
L 407.21309 34.401893 
L 409.24562 86.611854 
L 411.27815 38.230261 
L 413.310679 134.952264 
L 415.343209 73.712293 
L 417.375738 142.106634 
L 419.408268 83.338201 
L 421.440798 60.198515 
L 423.473327 59.636469 
L 425.505857 57.542638 
L 427.538386 56.554987 
L 429.570916 80.329551 
L 431.603445 58.414472 
L 433.635975 57.409217 
L 435.668505 51.745126 
L 437.701034 50.204645 
L 439.733564 47.750116 
L 441.766093 59.866932 
L 443.798623 46.097702 
L 445.831153 67.141559 
L 445.831153 67.141559 
" style="fill:none;stroke:#c371d2;"/>
   </g>
   <g id="line2d_23">
    <path clip-path="url(#p32fe40dbe3)" d="M 41.357763 253.76818 
L 43.390293 220.547276 
L 45.422823 212.716477 
L 47.455352 223.962945 
L 49.487882 215.665073 
L 51.520411 223.896961 
L 53.552941 207.861268 
L 55.585471 222.469575 
L 57.618 213.153273 
L 59.65053 222.700426 
L 61.683059 203.380245 
L 63.715589 211.535279 
L 65.748118 203.117509 
L 67.780648 220.018488 
L 69.813178 202.936132 
L 71.845707 216.207946 
L 73.878237 205.472956 
L 75.910766 223.622258 
L 77.943296 209.267917 
L 79.975826 221.868254 
L 82.008355 208.777555 
L 84.040885 225.631754 
L 86.073414 205.309108 
L 88.105944 229.562833 
L 90.138474 216.260498 
L 92.171003 219.450678 
L 94.203533 208.759723 
L 96.236062 215.553263 
L 98.268592 209.593765 
L 100.301122 219.164395 
L 102.333651 206.724527 
L 104.366181 224.522643 
L 106.39871 204.628816 
L 108.43124 218.33933 
L 110.46377 205.424085 
L 112.496299 217.015246 
L 114.528829 203.888382 
L 116.561358 225.463408 
L 118.593888 198.005344 
L 120.626418 227.477203 
L 122.658947 210.984371 
L 124.691477 220.083129 
L 126.724006 200.115051 
L 128.756536 216.324381 
L 130.789066 200.325709 
L 132.821595 219.809169 
L 134.854125 201.143024 
L 136.886654 224.122245 
L 138.919184 200.236135 
L 140.951713 212.194748 
L 142.984243 200.390093 
L 145.016773 223.998885 
L 147.049302 203.359823 
L 149.081832 217.661266 
L 151.114361 208.505865 
L 153.146891 220.964321 
L 155.179421 208.678258 
L 157.21195 222.125172 
L 159.24448 199.092136 
L 161.277009 224.522517 
L 163.309539 200.674906 
L 165.342069 218.780745 
L 167.374598 200.817498 
L 169.407128 228.98824 
L 171.439657 200.342804 
L 173.472187 224.273593 
L 175.504717 200.871567 
L 177.537246 219.889494 
L 179.569776 200.354103 
L 181.602305 223.317637 
L 183.634835 198.5512 
L 185.667365 221.887022 
L 187.699894 213.727745 
L 189.732424 217.600115 
L 191.764953 201.139263 
L 193.797483 221.371718 
L 195.830013 203.544984 
L 197.862542 222.835781 
L 199.895072 197.64266 
L 201.927601 220.068686 
L 203.960131 200.018594 
L 205.992661 218.464769 
L 208.02519 202.854154 
L 210.05772 229.433182 
L 212.090249 215.988693 
L 214.122779 225.093384 
L 216.155308 203.004001 
L 218.187838 220.154543 
L 220.220368 200.369054 
L 222.252897 219.196584 
L 224.285427 200.730206 
L 226.317956 219.995695 
L 228.350486 202.075609 
L 230.383016 218.279594 
L 232.415545 202.833663 
L 234.448075 227.174163 
L 236.480604 200.208715 
L 238.513134 229.089295 
L 240.545664 209.891311 
L 242.578193 220.372209 
L 244.610723 206.551675 
L 246.643252 228.959408 
L 248.675782 201.065262 
L 250.708312 230.442715 
L 252.740841 214.757098 
L 254.773371 229.41764 
L 256.8059 208.317077 
L 258.83843 224.005253 
L 260.87096 200.006103 
L 262.903489 216.322149 
L 264.936019 200.757724 
L 266.968548 218.909107 
L 269.001078 200.191812 
L 271.033608 221.860256 
L 273.066137 198.689092 
L 275.098667 214.763156 
L 277.131196 200.395404 
L 279.163726 216.777006 
L 281.196256 211.144039 
L 283.228785 221.906505 
L 285.261315 211.759069 
L 287.293844 221.145905 
L 289.326374 190.458131 
L 291.358903 210.857669 
L 293.391433 185.392889 
L 295.423963 216.24977 
L 297.456492 200.119609 
L 299.489022 215.214164 
L 301.521551 181.714456 
L 303.554081 217.70487 
L 305.586611 182.724284 
L 307.61914 216.4372 
L 309.65167 181.429631 
L 311.684199 225.864558 
L 313.716729 184.794231 
L 315.749259 226.238544 
L 317.781788 200.506701 
L 319.814318 231.093955 
L 321.846847 180.954801 
L 323.879377 222.180163 
L 325.911907 185.000125 
L 327.944436 223.531108 
L 329.976966 188.995271 
L 332.009495 225.382033 
L 334.042025 198.153535 
L 336.074555 201.209957 
L 338.107084 162.107844 
L 340.139614 226.479388 
L 342.172143 162.934042 
L 344.204673 215.336974 
L 346.237203 161.090623 
L 348.269732 161.851718 
L 350.302262 143.920432 
L 352.334791 165.73551 
L 354.367321 140.567708 
L 356.39985 167.219578 
L 358.43238 109.806368 
L 360.46491 185.986054 
L 362.497439 126.492763 
L 364.529969 168.307945 
L 366.562498 114.215725 
L 368.595028 111.20425 
L 370.627558 90.516771 
L 372.660087 119.787028 
L 374.692617 94.483159 
L 376.725146 128.720489 
L 378.757676 75.799259 
L 380.790206 109.994999 
L 382.822735 76.903712 
L 384.855265 91.860353 
L 386.887794 90.633451 
L 388.920324 92.452702 
L 390.952854 70.313971 
L 392.985383 71.860648 
L 395.017913 58.625111 
L 397.050442 58.346313 
L 399.082972 48.241011 
L 401.115502 62.941262 
L 403.148031 54.469182 
L 405.180561 84.169699 
L 407.21309 37.653603 
L 409.24562 89.450676 
L 411.27815 41.736662 
L 413.310679 135.48422 
L 415.343209 87.394636 
L 417.375738 146.356659 
L 419.408268 84.581119 
L 421.440798 66.359762 
L 423.473327 61.381235 
L 425.505857 57.952999 
L 427.538386 79.281915 
L 429.570916 80.846401 
L 431.603445 58.543471 
L 433.635975 60.251644 
L 435.668505 52.040711 
L 437.701034 53.210341 
L 439.733564 49.533016 
L 441.766093 60.251662 
L 443.798623 49.645098 
L 445.831153 68.030199 
L 445.831153 68.030199 
" style="fill:none;stroke:#ac8e18;"/>
   </g>
   <g id="line2d_24">
    <path clip-path="url(#p32fe40dbe3)" d="M 41.357763 253.79473 
L 43.390293 221.927837 
L 45.422823 212.778371 
L 47.455352 225.047009 
L 49.487882 216.173228 
L 51.520411 225.096342 
L 53.552941 208.279243 
L 55.585471 222.791385 
L 57.618 216.863228 
L 59.65053 223.061868 
L 61.683059 203.992156 
L 63.715589 211.643171 
L 65.748118 203.129919 
L 67.780648 220.114434 
L 69.813178 202.964101 
L 71.845707 218.248573 
L 73.878237 205.491691 
L 75.910766 225.14137 
L 77.943296 209.616111 
L 79.975826 222.770088 
L 82.008355 209.904212 
L 84.040885 233.078357 
L 86.073414 208.299227 
L 88.105944 232.659707 
L 90.138474 217.544065 
L 92.171003 221.196855 
L 94.203533 211.598322 
L 96.236062 216.370073 
L 98.268592 209.604724 
L 100.301122 225.409875 
L 102.333651 206.834621 
L 104.366181 224.719125 
L 106.39871 206.035748 
L 108.43124 218.889928 
L 110.46377 206.052299 
L 112.496299 220.97074 
L 114.528829 203.913273 
L 116.561358 226.033619 
L 118.593888 199.119142 
L 120.626418 227.791012 
L 122.658947 212.022079 
L 124.691477 220.646445 
L 126.724006 200.395369 
L 128.756536 220.571406 
L 130.789066 200.650669 
L 132.821595 222.838008 
L 134.854125 212.053716 
L 136.886654 226.602474 
L 138.919184 200.439237 
L 140.951713 217.57477 
L 142.984243 201.032843 
L 145.016773 226.434281 
L 147.049302 214.025982 
L 149.081832 221.7755 
L 151.114361 216.102509 
L 153.146891 226.47355 
L 155.179421 217.990234 
L 157.21195 222.998465 
L 159.24448 200.97168 
L 161.277009 234.733702 
L 163.309539 205.242223 
L 165.342069 219.035974 
L 167.374598 203.864569 
L 169.407128 229.495317 
L 171.439657 200.639577 
L 173.472187 226.6287 
L 175.504717 201.027924 
L 177.537246 221.739425 
L 179.569776 200.420294 
L 181.602305 223.933819 
L 183.634835 200.691166 
L 185.667365 222.549454 
L 187.699894 214.099908 
L 189.732424 218.785966 
L 191.764953 202.335963 
L 193.797483 224.299389 
L 195.830013 207.129422 
L 197.862542 223.653632 
L 199.895072 210.685591 
L 201.927601 220.573901 
L 203.960131 200.758457 
L 205.992661 220.0844 
L 208.02519 204.302193 
L 210.05772 232.407058 
L 212.090249 216.219348 
L 214.122779 225.117802 
L 216.155308 212.705069 
L 218.187838 220.731115 
L 220.220368 208.041624 
L 222.252897 219.287288 
L 224.285427 207.70155 
L 226.317956 223.413318 
L 228.350486 205.383973 
L 230.383016 219.769773 
L 232.415545 203.16678 
L 234.448075 227.212595 
L 236.480604 200.592172 
L 238.513134 232.183929 
L 240.545664 216.133321 
L 242.578193 220.545125 
L 244.610723 206.700876 
L 246.643252 229.59343 
L 248.675782 203.203632 
L 250.708312 230.835056 
L 252.740841 215.273561 
L 254.773371 229.73964 
L 256.8059 210.27975 
L 258.83843 224.679198 
L 260.87096 200.317942 
L 262.903489 219.667517 
L 264.936019 200.783601 
L 266.968548 225.379785 
L 269.001078 200.702077 
L 271.033608 223.9359 
L 273.066137 198.781074 
L 275.098667 218.613739 
L 277.131196 200.946576 
L 279.163726 217.520943 
L 281.196256 212.360109 
L 283.228785 222.17111 
L 285.261315 212.107571 
L 287.293844 227.387994 
L 289.326374 191.324052 
L 291.358903 215.893223 
L 293.391433 187.218998 
L 295.423963 218.611279 
L 297.456492 200.967773 
L 299.489022 219.076404 
L 301.521551 182.878001 
L 303.554081 218.872761 
L 305.586611 203.974805 
L 307.61914 221.956248 
L 309.65167 183.352771 
L 311.684199 227.594866 
L 313.716729 186.412536 
L 315.749259 231.357032 
L 317.781788 201.855163 
L 319.814318 232.182394 
L 321.846847 181.235724 
L 323.879377 222.520683 
L 325.911907 189.956946 
L 327.944436 224.841331 
L 329.976966 190.11356 
L 332.009495 231.166892 
L 334.042025 198.5713 
L 336.074555 203.112343 
L 338.107084 180.837818 
L 340.139614 230.055119 
L 342.172143 167.199805 
L 344.204673 218.943807 
L 346.237203 169.4369 
L 348.269732 170.066759 
L 350.302262 148.231668 
L 352.334791 188.801585 
L 354.367321 140.724823 
L 356.39985 169.174071 
L 358.43238 121.4436 
L 360.46491 203.155182 
L 362.497439 171.292753 
L 364.529969 170.943696 
L 366.562498 121.293453 
L 368.595028 117.292953 
L 370.627558 94.327841 
L 372.660087 123.830438 
L 374.692617 98.718005 
L 376.725146 129.325909 
L 378.757676 78.167838 
L 380.790206 114.171867 
L 382.822735 84.551215 
L 384.855265 127.923633 
L 386.887794 95.204051 
L 388.920324 101.353565 
L 390.952854 73.732489 
L 392.985383 81.193675 
L 395.017913 59.243025 
L 397.050442 65.123765 
L 399.082972 59.73968 
L 401.115502 64.87214 
L 403.148031 58.86792 
L 405.180561 89.870029 
L 407.21309 44.144268 
L 409.24562 90.130006 
L 411.27815 48.515693 
L 413.310679 144.345303 
L 415.343209 97.650247 
L 417.375738 146.879488 
L 419.408268 84.632947 
L 421.440798 70.745902 
L 423.473327 63.109111 
L 425.505857 58.501193 
L 427.538386 89.538381 
L 429.570916 86.500858 
L 431.603445 59.67296 
L 433.635975 62.788927 
L 435.668505 52.416792 
L 437.701034 72.906732 
L 439.733564 51.962416 
L 441.766093 60.323306 
L 443.798623 51.022831 
L 445.831153 144.464409 
L 445.831153 144.464409 
" style="fill:none;stroke:#00aaae;"/>
   </g>
   <g id="line2d_25">
    <path clip-path="url(#p32fe40dbe3)" d="M 41.357763 253.814615 
L 43.390293 223.687749 
L 45.422823 214.329171 
L 47.455352 226.658474 
L 49.487882 216.720473 
L 51.520411 225.31081 
L 53.552941 208.518628 
L 55.585471 224.254709 
L 57.618 217.176036 
L 59.65053 223.504535 
L 61.683059 207.67091 
L 63.715589 212.992248 
L 65.748118 203.352972 
L 67.780648 223.628872 
L 69.813178 202.982817 
L 71.845707 223.597958 
L 73.878237 205.504778 
L 75.910766 225.663521 
L 77.943296 215.159837 
L 79.975826 224.27772 
L 82.008355 210.38705 
L 84.040885 234.590664 
L 86.073414 212.652461 
L 88.105944 233.222468 
L 90.138474 217.836593 
L 92.171003 223.284358 
L 94.203533 211.719899 
L 96.236062 218.293048 
L 98.268592 209.776997 
L 100.301122 225.969268 
L 102.333651 207.194114 
L 104.366181 225.402991 
L 106.39871 206.472094 
L 108.43124 219.199843 
L 110.46377 206.480337 
L 112.496299 221.768809 
L 114.528829 203.95178 
L 116.561358 226.656314 
L 118.593888 199.766164 
L 120.626418 235.604942 
L 122.658947 212.08784 
L 124.691477 222.702662 
L 126.724006 200.982008 
L 128.756536 222.797813 
L 130.789066 200.818066 
L 132.821595 224.455328 
L 134.854125 215.410856 
L 136.886654 226.97418 
L 138.919184 200.66284 
L 140.951713 220.151029 
L 142.984243 201.782395 
L 145.016773 228.795238 
L 147.049302 215.641973 
L 149.081832 223.30769 
L 151.114361 217.228022 
L 153.146891 228.67042 
L 155.179421 218.079307 
L 157.21195 227.153084 
L 159.24448 203.057119 
L 161.277009 242.540942 
L 163.309539 207.055451 
L 165.342069 220.535529 
L 167.374598 204.625372 
L 169.407128 230.480653 
L 171.439657 200.821943 
L 173.472187 226.735965 
L 175.504717 204.084699 
L 177.537246 222.640448 
L 179.569776 200.722772 
L 181.602305 224.92291 
L 183.634835 200.754246 
L 185.667365 224.608546 
L 187.699894 217.698857 
L 189.732424 222.25068 
L 191.764953 203.253024 
L 193.797483 225.228014 
L 195.830013 221.000075 
L 197.862542 225.710755 
L 199.895072 213.357415 
L 201.927601 223.071409 
L 203.960131 201.117085 
L 205.992661 228.395064 
L 208.02519 204.375182 
L 210.05772 256.426482 
L 212.090249 217.614408 
L 214.122779 227.703856 
L 216.155308 213.099584 
L 218.187838 220.851268 
L 220.220368 208.593027 
L 222.252897 219.337611 
L 224.285427 212.736269 
L 226.317956 247.290293 
L 228.350486 205.954723 
L 230.383016 220.93038 
L 232.415545 212.585813 
L 234.448075 227.899594 
L 236.480604 202.637529 
L 238.513134 242.749527 
L 240.545664 217.406893 
L 242.578193 225.432264 
L 244.610723 206.7282 
L 246.643252 230.13076 
L 248.675782 206.522324 
L 250.708312 232.473882 
L 252.740841 217.925683 
L 254.773371 230.338567 
L 256.8059 212.074402 
L 258.83843 225.415546 
L 260.87096 200.324981 
L 262.903489 220.463022 
L 264.936019 201.076928 
L 266.968548 235.238804 
L 269.001078 200.822182 
L 271.033608 224.859463 
L 273.066137 203.256437 
L 275.098667 221.493225 
L 277.131196 201.120113 
L 279.163726 218.131727 
L 281.196256 213.665336 
L 283.228785 223.941019 
L 285.261315 213.194828 
L 287.293844 228.436905 
L 289.326374 192.087373 
L 291.358903 218.263685 
L 293.391433 193.802639 
L 295.423963 218.714666 
L 297.456492 206.137507 
L 299.489022 220.053548 
L 301.521551 183.134165 
L 303.554081 222.623234 
L 305.586611 221.117731 
L 307.61914 222.831666 
L 309.65167 184.014541 
L 311.684199 230.51042 
L 313.716729 187.015734 
L 315.749259 232.423475 
L 317.781788 206.767051 
L 319.814318 233.584206 
L 321.846847 181.31856 
L 323.879377 231.970997 
L 325.911907 199.571894 
L 327.944436 235.770306 
L 329.976966 191.452271 
L 332.009495 233.393355 
L 334.042025 202.691061 
L 336.074555 214.655565 
L 338.107084 187.505701 
L 340.139614 230.863318 
L 342.172143 177.0467 
L 344.204673 225.610796 
L 346.237203 178.683802 
L 350.302262 167.350616 
L 352.334791 193.340061 
L 354.367321 157.407306 
L 356.39985 171.481534 
L 358.43238 124.243061 
L 360.46491 227.771264 
L 362.497439 192.603368 
L 364.529969 174.084364 
L 366.562498 124.877972 
L 368.595028 132.75905 
L 370.627558 99.740641 
L 372.660087 130.610111 
L 374.692617 172.943133 
L 376.725146 153.126289 
L 378.757676 79.037388 
L 380.790206 181.83511 
L 382.822735 88.227016 
L 384.855265 169.80344 
L 386.887794 96.55854 
L 388.920324 107.211479 
L 390.952854 74.753677 
L 392.985383 82.184587 
L 395.017913 62.679074 
L 397.050442 81.812063 
L 399.082972 71.968457 
L 401.115502 76.168243 
L 403.148031 61.19894 
L 405.180561 96.079723 
L 407.21309 46.132743 
L 409.24562 108.299117 
L 411.27815 70.44741 
L 413.310679 152.782686 
L 415.343209 108.145834 
L 417.375738 149.52301 
L 419.408268 88.876869 
L 421.440798 74.913425 
L 423.473327 65.211396 
L 425.505857 59.493963 
L 427.538386 95.647856 
L 429.570916 90.082498 
L 431.603445 70.263527 
L 433.635975 64.635063 
L 435.668505 56.748615 
L 437.701034 75.534378 
L 439.733564 153.803594 
L 441.766093 62.172414 
L 443.798623 52.05943 
L 445.831153 148.937344 
L 445.831153 148.937344 
" style="fill:none;stroke:#ed5e93;"/>
   </g>
   <g id="line2d_26">
    <path clip-path="url(#p32fe40dbe3)" d="M 41.357763 253.817946 
L 43.390293 223.909391 
L 45.422823 214.686071 
L 47.455352 228.010902 
L 49.487882 217.135167 
L 51.520411 229.368106 
L 53.552941 209.222315 
L 55.585471 229.904057 
L 57.618 217.311791 
L 59.65053 223.729393 
L 61.683059 207.868057 
L 63.715589 214.262171 
L 65.748118 208.236286 
L 67.780648 231.602315 
L 69.813178 203.007639 
L 71.845707 237.077159 
L 73.878237 205.534921 
L 75.910766 227.156819 
L 77.943296 222.776287 
L 79.975826 224.525181 
L 82.008355 210.924743 
L 84.040885 276.430279 
L 86.073414 215.240719 
L 88.105944 234.670812 
L 90.138474 217.940814 
L 92.171003 224.890953 
L 94.203533 212.060983 
L 96.236062 218.351846 
L 98.268592 209.809999 
L 100.301122 226.800931 
L 102.333651 207.848619 
L 104.366181 225.451573 
L 106.39871 206.914641 
L 108.43124 220.436852 
L 110.46377 207.451795 
L 112.496299 225.781469 
L 114.528829 204.000016 
L 116.561358 226.978946 
L 118.593888 200.047817 
L 120.626418 237.659619 
L 122.658947 217.975493 
L 124.691477 225.026915 
L 126.724006 208.986811 
L 128.756536 225.089844 
L 130.789066 201.202964 
L 132.821595 225.065068 
L 134.854125 215.584597 
L 136.886654 227.836595 
L 138.919184 200.923825 
L 140.951713 220.420432 
L 142.984243 204.16669 
L 145.016773 231.257352 
L 147.049302 215.921086 
L 149.081832 225.515322 
L 151.114361 217.563736 
L 153.146891 229.123444 
L 155.179421 219.135866 
L 157.21195 245.193066 
L 159.24448 210.163418 
L 161.277009 255.897722 
L 163.309539 216.035685 
L 165.342069 225.194499 
L 167.374598 205.170673 
L 169.407128 231.274722 
L 171.439657 203.449013 
L 173.472187 227.346255 
L 175.504717 224.963876 
L 177.537246 224.921918 
L 179.569776 203.143422 
L 181.602305 225.265074 
L 183.634835 204.136103 
L 185.667365 224.955097 
L 187.699894 217.912076 
L 189.732424 223.006159 
L 191.764953 206.028504 
L 193.797483 225.705051 
L 195.830013 221.04845 
L 197.862542 230.970458 
L 199.895072 213.83755 
L 201.927601 223.885289 
L 203.960131 201.337392 
L 205.992661 231.973876 
L 208.02519 204.659293 
L 210.05772 261.452726 
L 212.090249 217.862261 
L 214.122779 228.139365 
L 216.155308 213.508155 
L 218.187838 220.886477 
L 220.220368 208.883896 
L 222.252897 219.769443 
L 224.285427 215.17479 
L 226.317956 254.516873 
L 228.350486 208.810586 
L 230.383016 222.409191 
L 232.415545 212.702584 
L 234.448075 228.261027 
L 236.480604 213.984015 
L 238.513134 254.693459 
L 240.545664 218.217055 
L 242.578193 227.559613 
L 244.610723 206.975066 
L 246.643252 230.697678 
L 248.675782 209.372308 
L 250.708312 232.494524 
L 252.740841 242.640441 
L 254.773371 231.33646 
L 256.8059 217.842081 
L 258.83843 231.977444 
L 260.87096 201.310556 
L 262.903489 229.029231 
L 264.936019 214.345502 
L 266.968548 236.338581 
L 269.001078 201.088158 
L 271.033608 225.877185 
L 273.066137 204.303302 
L 275.098667 225.251325 
L 277.131196 204.088043 
L 279.163726 219.539113 
L 281.196256 213.669556 
L 283.228785 225.21777 
L 285.261315 213.454127 
L 287.293844 230.409806 
L 289.326374 193.262711 
L 291.358903 223.510027 
L 293.391433 195.809914 
L 295.423963 221.607611 
L 297.456492 206.910752 
L 299.489022 221.005069 
L 301.521551 183.63495 
L 303.554081 226.734202 
L 305.586611 256.860476 
L 307.61914 224.599646 
L 309.65167 185.467397 
L 311.684199 233.006086 
L 313.716729 187.211687 
L 315.749259 235.31956 
L 317.781788 209.377439 
L 319.814318 239.416591 
L 321.846847 181.957251 
L 323.879377 261.31937 
L 325.911907 207.507063 
L 327.944436 238.160789 
L 329.976966 197.910028 
L 332.009495 239.721345 
L 334.042025 248.502559 
L 336.074555 218.624141 
L 338.107084 240.75826 
L 340.139614 232.508542 
L 342.172143 181.406859 
L 344.204673 229.174668 
L 346.237203 198.398465 
L 348.269732 177.465133 
L 350.302262 206.584296 
L 352.334791 211.719299 
L 354.367321 174.768195 
L 356.39985 173.797554 
L 358.43238 137.631881 
L 360.46491 230.954099 
L 362.497439 201.960307 
L 364.529969 182.008589 
L 366.562498 206.062459 
L 368.595028 144.53751 
L 370.627558 104.775716 
L 372.660087 136.277987 
L 374.692617 215.793459 
L 376.725146 160.451848 
L 378.757676 183.260629 
L 380.790206 227.580269 
L 382.822735 92.014611 
L 384.855265 231.322785 
L 386.887794 97.915305 
L 388.920324 218.663265 
L 390.952854 90.973664 
L 392.985383 88.579352 
L 395.017913 219.108844 
L 397.050442 108.857651 
L 399.082972 158.637409 
L 401.115502 143.219544 
L 403.148031 65.817383 
L 405.180561 113.86205 
L 407.21309 46.777515 
L 409.24562 111.479016 
L 411.27815 74.001858 
L 413.310679 195.044636 
L 415.343209 232.292595 
L 417.375738 160.496685 
L 419.408268 112.981781 
L 421.440798 96.075793 
L 423.473327 77.47409 
L 425.505857 61.182636 
L 427.538386 116.44909 
L 429.570916 92.659588 
L 431.603445 72.618877 
L 433.635975 88.737772 
L 435.668505 57.609553 
L 437.701034 131.281117 
L 439.733564 211.098105 
L 441.766093 80.512914 
L 443.798623 52.739745 
L 445.831153 207.899136 
L 445.831153 207.899136 
" style="fill:none;stroke:#c68225;"/>
   </g>
   <g id="line2d_27">
    <path clip-path="url(#p32fe40dbe3)" d="M 41.357763 253.833418 
L 43.390293 224.900559 
L 45.422823 216.30042 
L 47.455352 232.601943 
L 49.487882 217.94191 
L 51.520411 235.213651 
L 53.552941 210.383938 
L 55.585471 231.858733 
L 57.618 218.68476 
L 59.65053 225.563251 
L 61.683059 209.267201 
L 63.715589 217.28734 
L 65.748118 214.693157 
L 67.780648 272.867201 
L 69.813178 203.14797 
L 71.845707 266.638069 
L 73.878237 205.547399 
L 75.910766 229.732204 
L 77.943296 235.975889 
L 79.975826 228.499695 
L 82.008355 214.837916 
L 84.040885 278.156381 
L 86.073414 266.730726 
L 88.105944 235.749606 
L 90.138474 255.715134 
L 92.171003 224.963823 
L 94.203533 214.20731 
L 96.236062 225.25381 
L 98.268592 211.83231 
L 100.301122 237.802581 
L 102.333651 236.495224 
L 104.366181 226.076682 
L 106.39871 208.763435 
L 108.43124 223.603883 
L 110.46377 220.66313 
L 112.496299 229.475418 
L 114.528829 217.54138 
L 116.561358 234.170958 
L 118.593888 200.132083 
L 120.626418 258.426713 
L 122.658947 218.343499 
L 124.691477 270.227549 
L 126.724006 213.462973 
L 128.756536 225.177094 
L 130.789066 208.586467 
L 132.821595 225.681696 
L 134.854125 218.286092 
L 136.886654 235.913851 
L 138.919184 213.516633 
L 140.951713 227.688333 
L 142.984243 204.192964 
L 145.016773 232.064167 
L 147.049302 218.181382 
L 149.081832 232.024815 
L 151.114361 221.848207 
L 153.146891 229.285125 
L 155.179421 222.862568 
L 157.21195 246.556171 
L 159.24448 216.043495 
L 161.277009 269.257576 
L 163.309539 231.385738 
L 165.342069 229.822891 
L 167.374598 206.122708 
L 169.407128 235.33991 
L 171.439657 203.747144 
L 173.472187 256.138097 
L 175.504717 225.627685 
L 177.537246 227.190053 
L 179.569776 217.219347 
L 181.602305 240.560962 
L 183.634835 214.710122 
L 185.667365 226.9715 
L 187.699894 219.459671 
L 189.732424 223.267255 
L 191.764953 209.794543 
L 193.797483 256.614086 
L 195.830013 225.16426 
L 197.862542 235.129443 
L 199.895072 214.716504 
L 201.927601 225.663985 
L 203.960131 217.212382 
L 205.992661 238.474897 
L 208.02519 213.042664 
L 210.05772 280.291701 
L 212.090249 242.734519 
L 214.122779 238.392004 
L 216.155308 227.704658 
L 218.187838 221.914144 
L 220.220368 209.056124 
L 222.252897 220.872119 
L 224.285427 215.570222 
L 226.317956 259.970906 
L 228.350486 208.913483 
L 230.383016 223.343983 
L 232.415545 212.741513 
L 234.448075 263.509454 
L 236.480604 217.854291 
L 238.513134 259.964528 
L 240.545664 218.833843 
L 242.578193 228.736173 
L 244.610723 207.063272 
L 246.643252 298.270584 
L 248.675782 209.431605 
L 250.708312 233.434386 
L 252.740841 252.148944 
L 254.773371 233.991139 
L 256.8059 218.194021 
L 258.83843 237.65398 
L 260.87096 213.20556 
L 262.903489 263.531963 
L 264.936019 215.893167 
L 266.968548 236.772596 
L 269.001078 202.561961 
L 271.033608 230.868209 
L 273.066137 221.842345 
L 275.098667 225.735656 
L 277.131196 216.741964 
L 279.163726 222.993019 
L 281.196256 213.696165 
L 283.228785 228.638806 
L 285.261315 215.401615 
L 287.293844 231.309803 
L 289.326374 209.247752 
L 291.358903 226.973799 
L 293.391433 195.847516 
L 295.423963 232.029202 
L 297.456492 210.617255 
L 299.489022 223.673533 
L 301.521551 184.962416 
L 303.554081 227.064361 
L 305.586611 257.640448 
L 307.61914 225.332676 
L 309.65167 187.240664 
L 311.684199 236.789262 
L 313.716729 188.155951 
L 315.749259 235.831854 
L 317.781788 213.645307 
L 319.814318 240.938033 
L 321.846847 184.536368 
L 323.879377 276.046692 
L 325.911907 212.500037 
L 327.944436 239.371336 
L 329.976966 207.724388 
L 332.009495 262.131044 
L 334.042025 253.66503 
L 336.074555 236.889439 
L 338.107084 255.465985 
L 340.139614 232.929032 
L 342.172143 243.695899 
L 344.204673 232.140283 
L 346.237203 248.566046 
L 348.269732 183.288099 
L 350.302262 235.369895 
L 352.334791 212.739617 
L 354.367321 206.483826 
L 356.39985 209.652322 
L 358.43238 214.449549 
L 360.46491 241.384522 
L 362.497439 239.31758 
L 364.529969 188.502073 
L 366.562498 245.078675 
L 368.595028 170.344519 
L 370.627558 202.747019 
L 372.660087 140.944496 
L 374.692617 230.492388 
L 376.725146 189.706647 
L 378.757676 199.121831 
L 380.790206 256.143043 
L 382.822735 96.450035 
L 384.855265 270.247234 
L 386.887794 239.527995 
L 388.920324 228.412921 
L 390.952854 187.39848 
L 392.985383 160.350454 
L 395.017913 231.387282 
L 397.050442 170.170803 
L 399.082972 188.423465 
L 401.115502 233.908282 
L 403.148031 121.354204 
L 405.180561 126.217639 
L 407.21309 48.537543 
L 409.24562 125.323063 
L 411.27815 79.282835 
L 413.310679 236.314123 
L 415.343209 234.514076 
L 417.375738 194.928111 
L 419.408268 139.830057 
L 421.440798 114.303282 
L 423.473327 152.330878 
L 425.505857 143.48438 
L 427.538386 141.347401 
L 429.570916 94.402578 
L 431.603445 99.644742 
L 433.635975 216.239472 
L 435.668505 230.213871 
L 437.701034 143.006653 
L 439.733564 235.965489 
L 441.766093 151.472217 
L 443.798623 126.003745 
L 445.831153 208.445461 
L 445.831153 208.445461 
" style="fill:none;stroke:#00a98d;"/>
   </g>
   <g id="line2d_28">
    <path clip-path="url(#p32fe40dbe3)" d="M 41.357763 253.837923 
L 43.390293 228.457273 
L 45.422823 267.621563 
L 47.455352 261.111551 
L 49.487882 219.199861 
L 51.520411 264.053886 
L 53.552941 216.34713 
L 55.585471 292.654939 
L 57.618 260.118271 
L 59.65053 286.841124 
L 61.683059 209.957956 
L 63.715589 225.63481 
L 65.748118 214.707624 
L 67.780648 277.211064 
L 69.813178 203.17525 
L 71.845707 272.486159 
L 73.878237 205.665203 
L 75.910766 275.463126 
L 77.943296 256.4806 
L 79.975826 231.683222 
L 82.008355 219.704825 
L 84.040885 286.240442 
L 86.073414 266.847815 
L 88.105944 300.920924 
L 90.138474 257.211502 
L 92.171003 228.272749 
L 94.203533 256.665988 
L 96.236062 266.012332 
L 98.268592 214.303011 
L 100.301122 246.973509 
L 102.333651 238.045706 
L 104.366181 294.591401 
L 106.39871 211.089658 
L 108.43124 260.107504 
L 110.46377 226.357287 
L 112.496299 267.915257 
L 114.528829 257.756241 
L 116.561358 266.624998 
L 118.593888 203.930275 
L 120.626418 301.332372 
L 122.658947 244.424623 
L 124.691477 272.865789 
L 126.724006 214.67373 
L 128.756536 226.508491 
L 130.789066 231.559135 
L 132.821595 227.104621 
L 134.854125 228.439293 
L 136.886654 276.686252 
L 138.919184 217.895171 
L 140.951713 238.723122 
L 142.984243 204.3724 
L 145.016773 260.961033 
L 147.049302 225.022353 
L 149.081832 298.81116 
L 151.114361 225.257289 
L 153.146891 234.413871 
L 155.179421 249.63784 
L 157.21195 257.638673 
L 159.24448 217.218125 
L 161.277009 272.155301 
L 163.309539 266.755878 
L 165.342069 239.710193 
L 167.374598 216.733858 
L 169.407128 259.573458 
L 171.439657 216.597398 
L 173.472187 262.897819 
L 175.504717 262.291856 
L 177.537246 232.232216 
L 179.569776 220.312735 
L 181.602305 262.745321 
L 183.634835 242.779306 
L 185.667365 255.903212 
L 187.699894 272.802246 
L 189.732424 234.53087 
L 191.764953 212.155621 
L 193.797483 278.774017 
L 195.830013 227.080526 
L 197.862542 256.790895 
L 199.895072 216.480353 
L 201.927601 226.82884 
L 203.960131 217.898334 
L 205.992661 247.930615 
L 208.02519 214.327205 
L 210.05772 290.964121 
L 212.090249 242.923503 
L 214.122779 238.912528 
L 216.155308 260.962626 
L 218.187838 226.404689 
L 220.220368 209.760326 
L 222.252897 224.778871 
L 224.285427 242.65766 
L 226.317956 262.057166 
L 228.350486 211.927206 
L 230.383016 224.903503 
L 232.415545 212.953546 
L 234.448075 269.816737 
L 236.480604 218.783239 
L 238.513134 266.870538 
L 240.545664 273.47296 
L 242.578193 232.283895 
L 244.610723 212.748267 
L 246.643252 306.771573 
L 248.675782 217.815429 
L 250.708312 252.274023 
L 252.740841 254.879939 
L 254.773371 263.220549 
L 256.8059 231.23275 
L 258.83843 254.162599 
L 260.87096 217.954523 
L 262.903489 271.704924 
L 264.936019 218.685347 
L 266.968548 251.533059 
L 269.001078 208.357639 
L 271.033608 293.738378 
L 273.066137 263.384227 
L 275.098667 225.9281 
L 277.131196 217.951532 
L 279.163726 254.650879 
L 281.196256 215.77948 
L 283.228785 282.390475 
L 285.261315 215.967958 
L 287.293844 307.442598 
L 291.358903 233.51521 
L 293.391433 202.048465 
L 295.423963 264.10511 
L 297.456492 212.428488 
L 299.489022 267.383138 
L 301.521551 198.475439 
L 303.554081 233.283238 
L 305.586611 299.052204 
L 307.61914 242.827223 
L 309.65167 190.209553 
L 311.684199 268.275034 
L 313.716729 213.403354 
L 315.749259 239.626807 
L 317.781788 218.81848 
L 319.814318 270.534481 
L 321.846847 187.669483 
L 323.879377 285.885235 
L 325.911907 219.155621 
L 327.944436 262.91383 
L 329.976966 242.661864 
L 332.009495 262.96328 
L 334.042025 259.626108 
L 336.074555 250.905929 
L 338.107084 257.567425 
L 340.139614 238.242655 
L 342.172143 257.699717 
L 344.204673 247.542113 
L 346.237203 252.360223 
L 348.269732 251.107073 
L 350.302262 239.505217 
L 352.334791 241.305897 
L 354.367321 217.315618 
L 356.39985 254.601759 
L 358.43238 241.562799 
L 360.46491 280.257821 
L 362.497439 273.385357 
L 364.529969 278.74677 
L 366.562498 256.41329 
L 368.595028 246.10331 
L 370.627558 269.136069 
L 372.660087 218.584046 
L 374.692617 264.63087 
L 376.725146 242.233573 
L 378.757676 203.212522 
L 380.790206 256.240234 
L 382.822735 97.303243 
L 384.855265 273.326835 
L 386.887794 274.34518 
L 388.920324 268.539828 
L 390.952854 265.564593 
L 392.985383 260.785018 
L 395.017913 232.269631 
L 397.050442 222.173438 
L 399.082972 206.286726 
L 401.115502 241.882779 
L 403.148031 214.449611 
L 405.180561 230.014026 
L 407.21309 59.532627 
L 409.24562 246.92778 
L 411.27815 109.834303 
L 413.310679 249.201412 
L 415.343209 265.640157 
L 417.375738 265.325254 
L 419.408268 259.472249 
L 421.440798 199.566511 
L 423.473327 230.388216 
L 425.505857 237.560162 
L 427.538386 270.604772 
L 429.570916 111.837233 
L 431.603445 101.354531 
L 433.635975 260.12462 
L 435.668505 265.401013 
L 437.701034 279.51362 
L 439.733564 283.352318 
L 441.766093 271.568934 
L 443.798623 198.753569 
L 445.831153 278.005049 
L 445.831153 278.005049 
" style="fill:none;stroke:#8e971e;"/>
   </g>
   <g id="legend_1">
    <g id="patch_5">
     <path d="M 33.223562 149.859646 
L 83.338562 149.859646 
L 83.338562 23.634646 
L 33.223562 23.634646 
z
" style="fill:#ffffff;stroke:#000000;stroke-linejoin:miter;"/>
    </g>
    <g id="line2d_29">
     <path d="M 39.623562 33.313396 
L 55.623562 33.313396 
" style="fill:none;stroke:#009afa;stroke-linejoin:miter;"/>
    </g>
    <g id="line2d_30"/>
    <g id="text_12">
     <!-- y1 -->
     <g transform="translate(62.023562 36.113396)scale(0.08 -0.08)">
      <defs>
       <path d="M 32.171875 -5.078125 
Q 28.375 -14.84375 24.75 -17.8125 
Q 21.140625 -20.796875 15.09375 -20.796875 
L 7.90625 -20.796875 
L 7.90625 -13.28125 
L 13.1875 -13.28125 
Q 16.890625 -13.28125 18.9375 -11.515625 
Q 21 -9.765625 23.484375 -3.21875 
L 25.09375 0.875 
L 2.984375 54.6875 
L 12.5 54.6875 
L 29.59375 11.921875 
L 46.6875 54.6875 
L 56.203125 54.6875 
z
" id="DejaVuSans-121"/>
      </defs>
      <use xlink:href="#DejaVuSans-121"/>
      <use x="59.179688" xlink:href="#DejaVuSans-49"/>
     </g>
    </g>
    <g id="line2d_31">
     <path d="M 39.623562 45.055896 
L 55.623562 45.055896 
" style="fill:none;stroke:#e36f47;stroke-linejoin:miter;"/>
    </g>
    <g id="line2d_32"/>
    <g id="text_13">
     <!-- y2 -->
     <g transform="translate(62.023562 47.855896)scale(0.08 -0.08)">
      <use xlink:href="#DejaVuSans-121"/>
      <use x="59.179688" xlink:href="#DejaVuSans-50"/>
     </g>
    </g>
    <g id="line2d_33">
     <path d="M 39.623562 56.798396 
L 55.623562 56.798396 
" style="fill:none;stroke:#3ea44e;stroke-linejoin:miter;"/>
    </g>
    <g id="line2d_34"/>
    <g id="text_14">
     <!-- y3 -->
     <g transform="translate(62.023562 59.598396)scale(0.08 -0.08)">
      <defs>
       <path d="M 40.578125 39.3125 
Q 47.65625 37.796875 51.625 33 
Q 55.609375 28.21875 55.609375 21.1875 
Q 55.609375 10.40625 48.1875 4.484375 
Q 40.765625 -1.421875 27.09375 -1.421875 
Q 22.515625 -1.421875 17.65625 -0.515625 
Q 12.796875 0.390625 7.625 2.203125 
L 7.625 11.71875 
Q 11.71875 9.328125 16.59375 8.109375 
Q 21.484375 6.890625 26.8125 6.890625 
Q 36.078125 6.890625 40.9375 10.546875 
Q 45.796875 14.203125 45.796875 21.1875 
Q 45.796875 27.640625 41.28125 31.265625 
Q 36.765625 34.90625 28.71875 34.90625 
L 20.21875 34.90625 
L 20.21875 43.015625 
L 29.109375 43.015625 
Q 36.375 43.015625 40.234375 45.921875 
Q 44.09375 48.828125 44.09375 54.296875 
Q 44.09375 59.90625 40.109375 62.90625 
Q 36.140625 65.921875 28.71875 65.921875 
Q 24.65625 65.921875 20.015625 65.03125 
Q 15.375 64.15625 9.8125 62.3125 
L 9.8125 71.09375 
Q 15.4375 72.65625 20.34375 73.4375 
Q 25.25 74.21875 29.59375 74.21875 
Q 40.828125 74.21875 47.359375 69.109375 
Q 53.90625 64.015625 53.90625 55.328125 
Q 53.90625 49.265625 50.4375 45.09375 
Q 46.96875 40.921875 40.578125 39.3125 
z
" id="DejaVuSans-51"/>
      </defs>
      <use xlink:href="#DejaVuSans-121"/>
      <use x="59.179688" xlink:href="#DejaVuSans-51"/>
     </g>
    </g>
    <g id="line2d_35">
     <path d="M 39.623562 68.540896 
L 55.623562 68.540896 
" style="fill:none;stroke:#c371d2;stroke-linejoin:miter;"/>
    </g>
    <g id="line2d_36"/>
    <g id="text_15">
     <!-- y4 -->
     <g transform="translate(62.023562 71.340896)scale(0.08 -0.08)">
      <defs>
       <path d="M 37.796875 64.3125 
L 12.890625 25.390625 
L 37.796875 25.390625 
z
M 35.203125 72.90625 
L 47.609375 72.90625 
L 47.609375 25.390625 
L 58.015625 25.390625 
L 58.015625 17.1875 
L 47.609375 17.1875 
L 47.609375 0 
L 37.796875 0 
L 37.796875 17.1875 
L 4.890625 17.1875 
L 4.890625 26.703125 
z
" id="DejaVuSans-52"/>
      </defs>
      <use xlink:href="#DejaVuSans-121"/>
      <use x="59.179688" xlink:href="#DejaVuSans-52"/>
     </g>
    </g>
    <g id="line2d_37">
     <path d="M 39.623562 80.283396 
L 55.623562 80.283396 
" style="fill:none;stroke:#ac8e18;stroke-linejoin:miter;"/>
    </g>
    <g id="line2d_38"/>
    <g id="text_16">
     <!-- y5 -->
     <g transform="translate(62.023562 83.083396)scale(0.08 -0.08)">
      <use xlink:href="#DejaVuSans-121"/>
      <use x="59.179688" xlink:href="#DejaVuSans-53"/>
     </g>
    </g>
    <g id="line2d_39">
     <path d="M 39.623562 92.025896 
L 55.623562 92.025896 
" style="fill:none;stroke:#00aaae;stroke-linejoin:miter;"/>
    </g>
    <g id="line2d_40"/>
    <g id="text_17">
     <!-- y6 -->
     <g transform="translate(62.023562 94.825896)scale(0.08 -0.08)">
      <defs>
       <path d="M 33.015625 40.375 
Q 26.375 40.375 22.484375 35.828125 
Q 18.609375 31.296875 18.609375 23.390625 
Q 18.609375 15.53125 22.484375 10.953125 
Q 26.375 6.390625 33.015625 6.390625 
Q 39.65625 6.390625 43.53125 10.953125 
Q 47.40625 15.53125 47.40625 23.390625 
Q 47.40625 31.296875 43.53125 35.828125 
Q 39.65625 40.375 33.015625 40.375 
z
M 52.59375 71.296875 
L 52.59375 62.3125 
Q 48.875 64.0625 45.09375 64.984375 
Q 41.3125 65.921875 37.59375 65.921875 
Q 27.828125 65.921875 22.671875 59.328125 
Q 17.53125 52.734375 16.796875 39.40625 
Q 19.671875 43.65625 24.015625 45.921875 
Q 28.375 48.1875 33.59375 48.1875 
Q 44.578125 48.1875 50.953125 41.515625 
Q 57.328125 34.859375 57.328125 23.390625 
Q 57.328125 12.15625 50.6875 5.359375 
Q 44.046875 -1.421875 33.015625 -1.421875 
Q 20.359375 -1.421875 13.671875 8.265625 
Q 6.984375 17.96875 6.984375 36.375 
Q 6.984375 53.65625 15.1875 63.9375 
Q 23.390625 74.21875 37.203125 74.21875 
Q 40.921875 74.21875 44.703125 73.484375 
Q 48.484375 72.75 52.59375 71.296875 
z
" id="DejaVuSans-54"/>
      </defs>
      <use xlink:href="#DejaVuSans-121"/>
      <use x="59.179688" xlink:href="#DejaVuSans-54"/>
     </g>
    </g>
    <g id="line2d_41">
     <path d="M 39.623562 103.768396 
L 55.623562 103.768396 
" style="fill:none;stroke:#ed5e93;stroke-linejoin:miter;"/>
    </g>
    <g id="line2d_42"/>
    <g id="text_18">
     <!-- y7 -->
     <g transform="translate(62.023562 106.568396)scale(0.08 -0.08)">
      <defs>
       <path d="M 8.203125 72.90625 
L 55.078125 72.90625 
L 55.078125 68.703125 
L 28.609375 0 
L 18.3125 0 
L 43.21875 64.59375 
L 8.203125 64.59375 
z
" id="DejaVuSans-55"/>
      </defs>
      <use xlink:href="#DejaVuSans-121"/>
      <use x="59.179688" xlink:href="#DejaVuSans-55"/>
     </g>
    </g>
    <g id="line2d_43">
     <path d="M 39.623562 115.510896 
L 55.623562 115.510896 
" style="fill:none;stroke:#c68225;stroke-linejoin:miter;"/>
    </g>
    <g id="line2d_44"/>
    <g id="text_19">
     <!-- y8 -->
     <g transform="translate(62.023562 118.310896)scale(0.08 -0.08)">
      <defs>
       <path d="M 31.78125 34.625 
Q 24.75 34.625 20.71875 30.859375 
Q 16.703125 27.09375 16.703125 20.515625 
Q 16.703125 13.921875 20.71875 10.15625 
Q 24.75 6.390625 31.78125 6.390625 
Q 38.8125 6.390625 42.859375 10.171875 
Q 46.921875 13.96875 46.921875 20.515625 
Q 46.921875 27.09375 42.890625 30.859375 
Q 38.875 34.625 31.78125 34.625 
z
M 21.921875 38.8125 
Q 15.578125 40.375 12.03125 44.71875 
Q 8.5 49.078125 8.5 55.328125 
Q 8.5 64.0625 14.71875 69.140625 
Q 20.953125 74.21875 31.78125 74.21875 
Q 42.671875 74.21875 48.875 69.140625 
Q 55.078125 64.0625 55.078125 55.328125 
Q 55.078125 49.078125 51.53125 44.71875 
Q 48 40.375 41.703125 38.8125 
Q 48.828125 37.15625 52.796875 32.3125 
Q 56.78125 27.484375 56.78125 20.515625 
Q 56.78125 9.90625 50.3125 4.234375 
Q 43.84375 -1.421875 31.78125 -1.421875 
Q 19.734375 -1.421875 13.25 4.234375 
Q 6.78125 9.90625 6.78125 20.515625 
Q 6.78125 27.484375 10.78125 32.3125 
Q 14.796875 37.15625 21.921875 38.8125 
z
M 18.3125 54.390625 
Q 18.3125 48.734375 21.84375 45.5625 
Q 25.390625 42.390625 31.78125 42.390625 
Q 38.140625 42.390625 41.71875 45.5625 
Q 45.3125 48.734375 45.3125 54.390625 
Q 45.3125 60.0625 41.71875 63.234375 
Q 38.140625 66.40625 31.78125 66.40625 
Q 25.390625 66.40625 21.84375 63.234375 
Q 18.3125 60.0625 18.3125 54.390625 
z
" id="DejaVuSans-56"/>
      </defs>
      <use xlink:href="#DejaVuSans-121"/>
      <use x="59.179688" xlink:href="#DejaVuSans-56"/>
     </g>
    </g>
    <g id="line2d_45">
     <path d="M 39.623562 127.253396 
L 55.623562 127.253396 
" style="fill:none;stroke:#00a98d;stroke-linejoin:miter;"/>
    </g>
    <g id="line2d_46"/>
    <g id="text_20">
     <!-- y9 -->
     <g transform="translate(62.023562 130.053396)scale(0.08 -0.08)">
      <defs>
       <path d="M 10.984375 1.515625 
L 10.984375 10.5 
Q 14.703125 8.734375 18.5 7.8125 
Q 22.3125 6.890625 25.984375 6.890625 
Q 35.75 6.890625 40.890625 13.453125 
Q 46.046875 20.015625 46.78125 33.40625 
Q 43.953125 29.203125 39.59375 26.953125 
Q 35.25 24.703125 29.984375 24.703125 
Q 19.046875 24.703125 12.671875 31.3125 
Q 6.296875 37.9375 6.296875 49.421875 
Q 6.296875 60.640625 12.9375 67.421875 
Q 19.578125 74.21875 30.609375 74.21875 
Q 43.265625 74.21875 49.921875 64.515625 
Q 56.59375 54.828125 56.59375 36.375 
Q 56.59375 19.140625 48.40625 8.859375 
Q 40.234375 -1.421875 26.421875 -1.421875 
Q 22.703125 -1.421875 18.890625 -0.6875 
Q 15.09375 0.046875 10.984375 1.515625 
z
M 30.609375 32.421875 
Q 37.25 32.421875 41.125 36.953125 
Q 45.015625 41.5 45.015625 49.421875 
Q 45.015625 57.28125 41.125 61.84375 
Q 37.25 66.40625 30.609375 66.40625 
Q 23.96875 66.40625 20.09375 61.84375 
Q 16.21875 57.28125 16.21875 49.421875 
Q 16.21875 41.5 20.09375 36.953125 
Q 23.96875 32.421875 30.609375 32.421875 
z
" id="DejaVuSans-57"/>
      </defs>
      <use xlink:href="#DejaVuSans-121"/>
      <use x="59.179688" xlink:href="#DejaVuSans-57"/>
     </g>
    </g>
    <g id="line2d_47">
     <path d="M 39.623562 138.995896 
L 55.623562 138.995896 
" style="fill:none;stroke:#8e971e;stroke-linejoin:miter;"/>
    </g>
    <g id="line2d_48"/>
    <g id="text_21">
     <!-- y10 -->
     <g transform="translate(62.023562 141.795896)scale(0.08 -0.08)">
      <use xlink:href="#DejaVuSans-121"/>
      <use x="59.179688" xlink:href="#DejaVuSans-49"/>
      <use x="122.802734" xlink:href="#DejaVuSans-48"/>
     </g>
    </g>
   </g>
  </g>
 </g>
 <defs>
  <clipPath id="p32fe40dbe3">
   <rect height="296.190709" width="428.741793" x="29.223562" y="19.634646"/>
  </clipPath>
 </defs>
</svg>
